mtllib AirCondition.mtl
usemtl AirCondition

g AirCondition
v 0.555556 -0.1136053 0.1213019
v 0.555556 0.1136053 0.1213019
v -0.555556 -0.1136053 0.1213019
v -0.555556 0.1136053 0.1213019
v 0.555556 -0.009240517 -0.1213019
v 0.555556 0.1136053 -0.05996409
v 0.555556 0.06927996 -0.1023358
v -0.555556 0.1136053 -0.05996409
v -0.555556 -0.009240517 -0.1213019
v -0.555556 0.06927996 -0.1023358
v 0.555556 -0.1136053 -0.1027036
v 0.555556 -0.09618705 -0.1213019
v -0.555556 -0.09618705 -0.1213019
v -0.555556 -0.1136053 -0.1027036
v -0.555556 -0.08364821 -0.1213019
v 0.555556 -0.08364821 -0.1213019
v -0.5458775 -0.09618705 -0.1101464
v 0.5458775 -0.09618705 -0.1101464
v 0.5458775 -0.07173829 -0.1101464
v -0.5458775 -0.07173829 -0.1101464
v 0.5458775 -0.1136053 0.1213019
v -0.5458775 -0.1136053 0.1213019
v 0.5458775 0.1136053 0.1213019
v -0.5458775 0.1136053 0.1213019
v -0.5458775 0.1136053 -0.05996409
v 0.5458775 0.1136053 -0.05996409
v -0.5458775 0.06927996 -0.1023358
v 0.5458775 0.06927996 -0.1023358
v 0.5458775 -0.009240517 -0.1213019
v -0.5458775 -0.009240517 -0.1213019
v -0.5458775 -0.1136053 -0.1027036
v 0.5458775 -0.1136053 -0.1027036
v 0.5458775 -0.09618705 -0.1213019
v -0.5458775 -0.09618705 -0.1213019
v -0.5458775 -0.07173829 -0.1213019
v 0.5458775 -0.07173829 -0.1213019
v -0.522938 -0.03086152 -0.1184282
v -0.522938 -0.03086152 -0.1292178
v -0.5334233 -0.03847952 -0.1184282
v -0.5334233 -0.03847952 -0.1292178
v -0.5294182 -0.05080571 -0.1184282
v -0.5294182 -0.05080571 -0.1292178
v -0.5164577 -0.05080571 -0.1184282
v -0.5164577 -0.05080571 -0.1292178
v -0.5124527 -0.03847952 -0.1184282
v -0.5124527 -0.03847952 -0.1292178
v -0.555556 0.1136053 0.1213019
v -0.555556 0.1136053 -0.05996409
v -0.555556 -0.1136053 -0.1027036
v -0.555556 -0.09618705 -0.1213019
v -0.555556 0.1136053 -0.05996409
v -0.555556 0.06927996 -0.1023358
v -0.5458775 0.1136053 -0.05996409
v -0.555556 -0.08364821 -0.1213019
v -0.555556 -0.009240517 -0.1213019
v 0.555556 0.1136053 -0.05996409
v 0.555556 0.06927996 -0.1023358
v 0.555556 -0.1136053 -0.1027036
v 0.555556 -0.09618705 -0.1213019
v 0.555556 -0.1136053 0.1213019
v 0.555556 -0.1136053 -0.1027036
v 0.5458775 -0.1136053 -0.1027036
v -0.555556 -0.09618705 -0.1213019
v -0.5458775 -0.09618705 -0.1213019
v -0.555556 -0.1136053 0.1213019
v -0.5458775 0.1136053 0.1213019
v -0.555556 0.1136053 0.1213019
v 0.5458775 -0.09618705 -0.1213019
v 0.555556 -0.08364821 -0.1213019
v 0.555556 -0.09618705 -0.1213019
v 0.5458775 0.06927996 -0.1023358
v 0.555556 0.06927996 -0.1023358
v 0.555556 -0.009240517 -0.1213019
v -0.555556 0.06927996 -0.1023358
v -0.555556 -0.009240517 -0.1213019
v -0.5458775 0.06927996 -0.1023358
v -0.5458775 -0.009240517 -0.1213019
v 0.5458775 -0.009240517 -0.1213019
v 0.555556 -0.009240517 -0.1213019
v -0.5458775 -0.1136053 0.1213019
v -0.5458775 -0.1136053 -0.1027036
v -0.555556 -0.1136053 0.1213019
v -0.555556 -0.1136053 -0.1027036
v 0.5458775 0.1136053 -0.05996409
v 0.555556 0.1136053 0.1213019
v 0.555556 0.1136053 -0.05996409
v 0.5458775 -0.09618705 -0.1213019
v 0.5458775 -0.09618705 -0.1101464
v -0.5458775 -0.09618705 -0.1213019
v -0.5458775 -0.09618705 -0.1101464
v 0.5458775 0.1136053 0.1213019
v 0.5458775 -0.1136053 0.1213019
v 0.555556 -0.1136053 0.1213019
v 0.555556 0.1136053 0.1213019
v -0.5458775 -0.07173829 -0.1213019
v -0.5458775 -0.07173829 -0.1101464
v 0.5458775 -0.07173829 -0.1213019
v 0.5458775 -0.07173829 -0.1101464
v -0.5458775 -0.09618705 -0.1213019
v -0.5458775 -0.09618705 -0.1101464
v -0.5458775 -0.07173829 -0.1213019
v -0.5458775 -0.07173829 -0.1101464
v 0.5458775 -0.07173829 -0.1213019
v 0.5458775 -0.07173829 -0.1101464
v 0.5458775 -0.09618705 -0.1213019
v 0.5458775 -0.09618705 -0.1101464
v -0.5334233 -0.03847952 -0.1184282
v -0.5334233 -0.03847952 -0.1292178
v -0.5294182 -0.05080571 -0.1184282
v -0.5294182 -0.05080571 -0.1292178
v -0.5334233 -0.03847952 -0.1292178
v -0.5294182 -0.05080571 -0.1292178
v -0.522938 -0.03086152 -0.1292178
v -0.5164577 -0.05080571 -0.1292178
v -0.5164577 -0.05080571 -0.1184282
v -0.5164577 -0.05080571 -0.1292178
v -0.5124527 -0.03847952 -0.1292178
v -0.5124527 -0.03847952 -0.1184282
v -0.522938 -0.03086152 -0.1184282
v -0.5124527 -0.03847952 -0.1292178
v -0.522938 -0.03086152 -0.1292178
v -0.522938 -0.03086152 -0.1184282
v -0.5124527 -0.03847952 -0.1184282
v -0.5334233 -0.03847952 -0.1184282
v -0.5294182 -0.05080571 -0.1184282
v -0.5164577 -0.05080571 -0.1184282

vn 1 0 0
vn 1 0 0
vn -1 0 0
vn 0 1 0
vn 1 0 0
vn 0 0.6909966 -0.722858
vn 0 0.6909966 -0.722858
vn 0 1 0
vn -1 0 0
vn -1 0 0
vn 1 0 0
vn 1 0 0
vn -1 0 0
vn -1 0 0
vn -1 0 0
vn 1 0 0
vn 0 0 -1
vn 0 0 -1
vn 0 0 -1
vn 0 0 -1
vn 0 -1 0
vn 0 0 1
vn 0 1 0
vn 0 1 0
vn 0 1 0
vn 0 0.6909966 -0.722858
vn 0 0.6909966 -0.722858
vn 0 0.6909966 -0.722858
vn 0 0.2347918 -0.9720457
vn 0 0 -1
vn 0 -0.7298835 -0.6835715
vn 0 -0.7298835 -0.6835715
vn 0 -0.7298835 -0.6835715
vn 0 -0.7298835 -0.6835715
vn 0 0 -1
vn 0 0 -1
vn -0.5877849 0.8090172 0
vn -0.5877849 0.8090172 0
vn -0.5877849 0.8090172 0
vn -0.5877849 0.8090172 0
vn -0.9510561 -0.3090182 0
vn -0.9510561 -0.3090182 0
vn 0 -1 0
vn 0 -1 0
vn 0.9510561 -0.3090183 0
vn 0 0 -1
vn -1 0 0
vn -1 0 0
vn 0 -0.7298835 -0.6835715
vn 0 -0.7298835 -0.6835715
vn 0 0.6909966 -0.722858
vn 0 0.6909966 -0.722858
vn 0 0.6909966 -0.722858
vn 0 0 -1
vn 0 0 -1
vn 1 0 0
vn 1 0 0
vn 0 -0.7298835 -0.6835715
vn 0 -0.7298835 -0.6835715
vn 0 -1 0
vn 0 -1 0
vn 0 -1 0
vn 0 0 -1
vn 0 0 -1
vn 0 0 1
vn 0 0 1
vn 0 0 1
vn 0 0 -1
vn 0 0 -1
vn 0 0 -1
vn 0 0.2347918 -0.9720457
vn 0 0.2347918 -0.9720457
vn 0 0.2347918 -0.9720457
vn 0 0.2347918 -0.9720457
vn 0 0.2347918 -0.9720457
vn 0 0.2347918 -0.9720457
vn 0 0.2347918 -0.9720457
vn 0 0 -1
vn 0 0 -1
vn 0 -1 0
vn 0 -1 0
vn 0 -1 0
vn 0 -1 0
vn 0 1 0
vn 0 1 0
vn 0 1 0
vn 0 1 0
vn 0 1 0
vn 0 1 0
vn 0 1 0
vn 0 0 1
vn 0 0 1
vn 0 0 1
vn 0 0 1
vn 0 -1 0
vn 0 -1 0
vn 0 -1 0
vn 0 -1 0
vn 1 0 0
vn 1 0 0
vn 1 0 0
vn 1 0 0
vn -1 0 0
vn -1 0 0
vn -1 0 0
vn -1 0 0
vn -0.9510561 -0.3090182 0
vn -0.9510561 -0.3090182 0
vn 0 -1 0
vn 0 -1 0
vn 0 0 -1
vn 0 0 -1
vn 0 0 -1
vn 0 0 -1
vn 0.9510561 -0.3090183 0
vn 0.9510561 -0.3090183 0
vn 0.9510561 -0.3090183 0
vn 0.5877849 0.8090172 0
vn 0.5877849 0.8090172 0
vn 0.5877849 0.8090172 0
vn 0.5877849 0.8090172 0
vn 0 0 1
vn 0 0 1
vn 0 0 1
vn 0 0 1
vn 0 0 1

vt 0.9025716 0.9594495
vt 0.9128315 0.9594495
vt 0.9025716 0.9697094
vt 0.9128315 0.9697094
vt 0.9072843 0.9491896
vt 0.9230914 0.9744221
vt 0.9230914 0.9799694
vt 0.9128315 0.9744221
vt 0.9072843 0.9799694
vt 0.9112068 0.9783446
vt 0.9025716 0.9499761
vt 0.9033582 0.9491896
vt 0.9033582 0.9799694
vt 0.9025716 0.9791828
vt 0.9039243 0.9799694
vt 0.9039243 0.9491896
vt 0.4103958 0.9630065
vt 0.4103958 0.9730877
vt 0.410962 0.9730877
vt 0.410962 0.9630065
vt 0.8924011 0.9697094
vt 0.9025716 0.96962
vt 0.9230021 0.9697094
vt 0.912921 0.9697094
vt 0.912921 0.9744221
vt 0.9230021 0.9744221
vt 0.912921 0.9799694
vt 0.9230021 0.9799694
vt 0.9072843 0.9901398
vt 0.9072843 0.9800587
vt 0.9024823 0.9791828
vt 0.8924011 0.9791828
vt 0.8924011 0.9799694
vt 0.9024823 0.9799694
vt 0.9039243 0.9800587
vt 0.9039243 0.9901398
vt 0.7309776 0.7781842
vt 0.7309776 0.7936847
vt 0.7247775 0.7781842
vt 0.7247775 0.7936847
vt 0.7185773 0.7781842
vt 0.7185773 0.7936847
vt 0.7123772 0.7781842
vt 0.7123772 0.7936847
vt 0.7061771 0.7781842
vt 0.700651 0.7727332
vt 0.9128315 0.9697094
vt 0.9128315 0.9744221
vt 0.9025716 0.9791828
vt 0.9025716 0.9799694
vt 0.9128315 0.9744221
vt 0.9128315 0.9799694
vt 0.912921 0.9744221
vt 0.9039243 0.9799694
vt 0.9072843 0.9799694
vt 0.9128315 0.9547368
vt 0.9112068 0.9508144
vt 0.8923117 0.9791828
vt 0.8923117 0.9799694
vt 0.8923117 0.9697094
vt 0.8923117 0.9791828
vt 0.8924011 0.9791828
vt 0.9033582 0.9799694
vt 0.9033582 0.9800587
vt 0.9025716 0.9697094
vt 0.9128315 0.96962
vt 0.9128315 0.9697094
vt 0.9033582 0.9901398
vt 0.9039243 0.9902292
vt 0.9033582 0.9902292
vt 0.9128315 0.9901398
vt 0.9128315 0.9902292
vt 0.9072843 0.9902292
vt 0.9128315 0.9799694
vt 0.9072843 0.9799694
vt 0.9128315 0.9800587
vt 0.9072843 0.9800587
vt 0.9072843 0.9901398
vt 0.9072843 0.9902292
vt 0.9024823 0.9697094
vt 0.9024823 0.9791828
vt 0.9025716 0.9697094
vt 0.9025716 0.9791828
vt 0.9230021 0.9744221
vt 0.9230914 0.9697094
vt 0.9230914 0.9744221
vt 0.8924011 0.9799694
vt 0.8924011 0.9799694
vt 0.9024823 0.9799694
vt 0.9024823 0.9799694
vt 0.9128315 0.9595389
vt 0.9025716 0.9595389
vt 0.9025716 0.9594495
vt 0.9128315 0.9594495
vt 0.9039243 0.9800587
vt 0.9039243 0.9800587
vt 0.9039243 0.9901398
vt 0.9039243 0.9901398
vt 0.9033582 0.9800587
vt 0.9033582 0.9800587
vt 0.9039243 0.9800587
vt 0.9039243 0.9800587
vt 0.9039243 0.9901398
vt 0.9039243 0.9901398
vt 0.9033582 0.9901398
vt 0.9033582 0.9901398
vt 0.7247775 0.7781842
vt 0.7247775 0.7936847
vt 0.7185773 0.7781842
vt 0.7185773 0.7936847
vt 0.7148031 0.7727332
vt 0.7121003 0.7644148
vt 0.7077271 0.7778743
vt 0.7033539 0.7644148
vt 0.7123772 0.7781842
vt 0.7123772 0.7936847
vt 0.7061771 0.7936847
vt 0.7061771 0.7781842
vt 0.6999769 0.7781842
vt 0.7061771 0.7936847
vt 0.6999769 0.7936847
vt 0.7232274 0.7778743
vt 0.7161514 0.7727332
vt 0.7303034 0.7727332
vt 0.7276007 0.7644148
vt 0.7188542 0.7644148
f 28/28/28 6/6/6 7/7/7
f 26/26/26 6/6/6 28/28/28
f 26/26/26 28/28/28 53/53/53
f 53/53/53 28/28/28 27/27/27
f 52/52/52 53/53/53 27/27/27
f 51/51/51 53/53/53 52/52/52
f 4/4/4 24/24/24 8/8/8
f 8/8/8 24/24/24 25/25/25
f 24/24/24 84/84/84 25/25/25
f 23/23/23 84/84/84 24/24/24
f 23/23/23 85/85/85 84/84/84
f 84/84/84 85/85/85 86/86/86
f 3/3/3 47/47/47 14/14/14
f 14/14/14 47/47/47 13/13/13
f 13/13/13 47/47/47 15/15/15
f 15/15/15 47/47/47 9/9/9
f 9/9/9 47/47/47 10/10/10
f 47/47/47 48/48/48 10/10/10
f 34/34/34 49/49/49 50/50/50
f 31/31/31 49/49/49 34/34/34
f 31/31/31 34/34/34 32/32/32
f 32/32/32 34/34/34 33/33/33
f 59/59/59 32/32/32 33/33/33
f 58/58/58 32/32/32 59/59/59
f 2/2/2 1/1/1 56/56/56
f 56/56/56 1/1/1 57/57/57
f 57/57/57 1/1/1 5/5/5
f 5/5/5 1/1/1 16/16/16
f 16/16/16 1/1/1 12/12/12
f 11/11/11 12/12/12 1/1/1
f 60/60/60 21/21/21 61/61/61
f 61/61/61 21/21/21 62/62/62
f 21/21/21 81/81/81 62/62/62
f 80/80/80 81/81/81 21/21/21
f 80/80/80 82/82/82 81/81/81
f 81/81/81 82/82/82 83/83/83
f 63/63/63 54/54/54 64/64/64
f 64/64/64 54/54/54 35/35/35
f 54/54/54 55/55/55 35/35/35
f 35/35/35 55/55/55 30/30/30
f 30/30/30 36/36/36 35/35/35
f 78/78/78 36/36/36 30/30/30
f 78/78/78 79/79/79 36/36/36
f 36/36/36 79/79/79 69/69/69
f 36/36/36 69/69/69 68/68/68
f 68/68/68 69/69/69 70/70/70
f 19/19/19 18/18/18 20/20/20
f 20/20/20 18/18/18 17/17/17
f 65/65/65 66/66/66 67/67/67
f 22/22/22 66/66/66 65/65/65
f 66/66/66 22/22/22 91/91/91
f 91/91/91 22/22/22 92/92/92
f 92/92/92 94/94/94 91/91/91
f 93/93/93 94/94/94 92/92/92
f 29/29/29 72/72/72 73/73/73
f 71/71/71 72/72/72 29/29/29
f 71/71/71 29/29/29 76/76/76
f 76/76/76 29/29/29 77/77/77
f 75/75/75 76/76/76 77/77/77
f 74/74/74 76/76/76 75/75/75
f 87/87/87 89/89/89 88/88/88
f 88/88/88 89/89/89 90/90/90
f 95/95/95 97/97/97 96/96/96
f 96/96/96 97/97/97 98/98/98
f 99/99/99 101/101/101 100/100/100
f 100/100/100 101/101/101 102/102/102
f 103/103/103 105/105/105 104/104/104
f 104/104/104 105/105/105 106/106/106
f 37/37/37 38/38/38 39/39/39
f 39/39/39 38/38/38 40/40/40
f 107/107/107 108/108/108 41/41/41
f 41/41/41 108/108/108 42/42/42
f 109/109/109 110/110/110 43/43/43
f 43/43/43 110/110/110 44/44/44
f 111/111/111 113/113/113 112/112/112
f 113/113/113 46/46/46 112/112/112
f 46/46/46 114/114/114 112/112/112
f 115/115/115 116/116/116 45/45/45
f 45/45/45 116/116/116 117/117/117
f 118/118/118 120/120/120 119/119/119
f 119/119/119 120/120/120 121/121/121
f 122/122/122 124/124/124 123/123/123
f 124/124/124 125/125/125 123/123/123
f 125/125/125 126/126/126 123/123/123
