mtllib Bar_02.mtl
usemtl Bar_02

g Bar_02
v -0.1561043 1.006875 0.8911954
v 0.1561042 1.006875 0.8911954
v -0.1561042 1.006875 -1.165407
v 0.1561043 1.006875 -1.165407
v -0.1561043 -0.0007114813 0.8911954
v 0.1561041 -0.0007114813 0.8911954
v -0.1561043 -0.0007114813 -1.165407
v 0.1561042 -0.0007114813 -1.165407
v -0.2265048 1.134295 -1.165407
v -0.2265049 1.134295 0.8911954
v 0.2265049 1.134295 0.8911954
v 0.226505 1.134295 -1.165407
v -0.3501452 1.006875 -1.317328
v -0.3501453 1.006875 0.8911954
v 0.3501455 1.006875 0.8911954
v 0.3501456 1.006875 -1.317328
v -0.3501452 1.134295 -1.317328
v -0.3501453 1.134295 0.8911954
v 0.3501455 1.134295 0.8911954
v 0.3501456 1.134295 -1.317328
v -0.1561042 0.09980772 -1.165407
v 0.1561042 0.09980772 -1.165407
v -0.1561043 0.09980772 0.8911954
v 0.1561042 0.09980772 0.8911954
v 0.2250422 0.09980772 -1.215801
v 0.2250421 -0.0007114813 -1.215801
v -0.2250421 -0.0007114813 -1.215801
v -0.2250422 -0.0007114813 0.8966335
v 0.225042 -0.0007114813 0.8966335
v -0.2250422 0.09980772 0.8966335
v -0.2250421 0.09980772 -1.215801
v 0.2250421 0.09980772 0.8966335
v 0.1561042 0.09980772 -1.165407
v 0.1561042 0.09980772 0.8911954
v 0.1561042 1.006875 0.8911954
v -0.1561043 1.006875 0.8911954
v -0.2265049 1.134295 0.8911954
v 0.1561042 1.006875 0.8911954
v 0.2265049 1.134295 0.8911954
v 0.1561043 1.006875 -1.165407
v 0.3501456 1.006875 -1.317328
v 0.3501456 1.134295 -1.317328
v -0.3501452 1.006875 -1.317328
v -0.3501452 1.134295 -1.317328
v 0.3501455 1.134295 0.8911954
v 0.3501456 1.006875 -1.317328
v 0.3501456 1.134295 -1.317328
v -0.3501452 1.006875 -1.317328
v -0.3501452 1.134295 -1.317328
v -0.3501453 1.134295 0.8911954
v -0.3501453 1.006875 0.8911954
v -0.3501453 1.134295 0.8911954
v 0.1561042 1.006875 0.8911954
v 0.3501455 1.006875 0.8911954
v 0.1561043 1.006875 -1.165407
v 0.3501456 1.006875 -1.317328
v -0.1561043 1.006875 0.8911954
v -0.1561042 1.006875 -1.165407
v -0.3501453 1.006875 0.8911954
v -0.3501452 1.006875 -1.317328
v 0.3501455 1.006875 0.8911954
v 0.3501455 1.134295 0.8911954
v 0.1561042 0.09980772 0.8911954
v 0.1561042 0.09980772 -1.165407
v 0.2250422 0.09980772 -1.215801
v -0.1561042 1.006875 -1.165407
v -0.1561043 1.006875 0.8911954
v -0.1561042 0.09980772 -1.165407
v -0.1561043 0.09980772 0.8911954
v -0.1561043 -0.0007114813 0.8911954
v -0.1561043 0.09980772 0.8911954
v 0.1561041 -0.0007114813 0.8911954
v 0.1561042 0.09980772 0.8911954
v -0.1561042 1.006875 -1.165407
v -0.1561042 0.09980772 -1.165407
v 0.1561043 1.006875 -1.165407
v 0.1561042 0.09980772 -1.165407
v -0.2250421 0.09980772 -1.215801
v -0.2250421 -0.0007114813 -1.215801
v 0.2250422 0.09980772 -1.215801
v -0.2250421 0.09980772 -1.215801
v -0.2250421 -0.0007114813 -1.215801
v -0.2250422 -0.0007114813 0.8966335
v 0.2250421 -0.0007114813 -1.215801
v 0.2250422 0.09980772 -1.215801
v 0.2250421 0.09980772 0.8966335
v -0.1561043 -0.0007114813 0.8911954
v -0.2250422 -0.0007114813 0.8966335
v -0.1561043 0.09980772 0.8911954
v -0.2250422 0.09980772 0.8966335
v -0.1561043 0.09980772 0.8911954
v -0.2250422 0.09980772 0.8966335
v -0.1561042 0.09980772 -1.165407
v -0.2250421 0.09980772 -1.215801
v 0.225042 -0.0007114813 0.8966335
v 0.2250421 -0.0007114813 -1.215801
v 0.1561042 0.09980772 0.8911954
v 0.2250421 0.09980772 0.8966335
v 0.1561041 -0.0007114813 0.8911954
v 0.225042 -0.0007114813 0.8966335

vn 0 0 1
vn 0 0 1
vn 0 -1 0
vn 1 0 0
vn 0 -1 0
vn 0 -1 0
vn 0 -1 0
vn 0 -1 0
vn 0 1 0
vn 0 1 0
vn 0 1 0
vn 0 1 0
vn 0 -1 0
vn -1 0 0
vn 1 0 0
vn 0 -1 0
vn 0 1 0
vn 0 1 0
vn 0 1 0
vn 0 1 0
vn 0 1 0
vn 0 1 0
vn 0 0 1
vn 0 0 1
vn 0 1 0
vn 0 0 -1
vn 0 -1 0
vn 0 -1 0
vn 1 0 0
vn -1 0 0
vn 0 1 0
vn 0 1 0
vn 1 0 0
vn 1 0 0
vn 1 0 0
vn 0 0 1
vn 0 0 1
vn 0 0 1
vn 0 0 1
vn 0 -1 0
vn 0 0 -1
vn 0 0 -1
vn 0 0 -1
vn 0 0 -1
vn 1 0 0
vn 1 0 0
vn 1 0 0
vn -1 0 0
vn -1 0 0
vn -1 0 0
vn 0 0 1
vn 0 0 1
vn 0 -1 0
vn 0 -1 0
vn 0 -1 0
vn 0 -1 0
vn 0 -1 0
vn 0 -1 0
vn 0 -1 0
vn 0 -1 0
vn 0 0 1
vn 0 0 1
vn 0 1 0
vn 0 1 0
vn 0 1 0
vn -1 0 0
vn -1 0 0
vn -1 0 0
vn -1 0 0
vn 0 0 1
vn 0 0 1
vn 0 0 1
vn 0 0 1
vn 0 0 -1
vn 0 0 -1
vn 0 0 -1
vn 0 0 -1
vn 0 0 -1
vn 0 0 -1
vn 0 0 -1
vn -1 0 0
vn -1 0 0
vn -1 0 0
vn 1 0 0
vn 1 0 0
vn 1 0 0
vn 0.07864018 0 0.996903
vn 0.07864018 0 0.996903
vn 0.07864018 0 0.996903
vn 0.07864018 0 0.996903
vn 0 1 0
vn 0 1 0
vn 0 1 0
vn 0 1 0
vn 0 -1 0
vn 0 -1 0
vn -0.07864021 0 0.996903
vn -0.07864021 0 0.996903
vn -0.07864021 0 0.996903
vn -0.07864021 0 0.996903

vt 0.9628267 0.8639719
vt 0.9759719 0.8639719
vt 0.3390349 0.831691
vt 0.9891171 0.8376815
vt 0.3390349 0.8489693
vt 0.3476741 0.8489693
vt 0.3390349 0.8403302
vt 0.3476741 0.8403302
vt 0.3390349 0.831691
vt 0.3390349 0.8230519
vt 0.3476741 0.8230519
vt 0.3476741 0.831691
vt 0.3390349 0.831691
vt 0.3303958 0.8489693
vt 0.3563132 0.8489693
vt 0.3476741 0.831691
vt 0.3390349 0.831691
vt 0.3390349 0.8230519
vt 0.3476741 0.8230519
vt 0.3476741 0.831691
vt 0.3390349 0.8360106
vt 0.3476741 0.8360106
vt 0.9628267 0.8573993
vt 0.9759719 0.8573993
vt 0.3476741 0.8360106
vt 0.3476741 0.8403302
vt 0.3390349 0.8403302
vt 0.3390349 0.8489693
vt 0.3476741 0.8489693
vt 0.3347154 0.8489693
vt 0.3390349 0.8360106
vt 0.3519937 0.8489693
vt 0.9825445 0.8376815
vt 0.9825445 0.8508267
vt 0.9891171 0.8508267
vt 0.3390349 0.8576085
vt 0.3390349 0.8576085
vt 0.3476741 0.8576085
vt 0.3476741 0.8576085
vt 0.3476741 0.831691
vt 0.3476741 0.831691
vt 0.3476741 0.831691
vt 0.3390349 0.831691
vt 0.3390349 0.831691
vt 0.3563132 0.8489693
vt 0.3563132 0.8403302
vt 0.3563132 0.8403302
vt 0.3303958 0.8403302
vt 0.3303958 0.8403302
vt 0.3303958 0.8489693
vt 0.3390349 0.8576085
vt 0.3390349 0.8576085
vt 0.3563132 0.8489693
vt 0.3563132 0.8489693
vt 0.3563132 0.8403302
vt 0.3563132 0.8403302
vt 0.3303958 0.8489693
vt 0.3303958 0.8403302
vt 0.3303958 0.8489693
vt 0.3303958 0.8403302
vt 0.3476741 0.8576085
vt 0.3476741 0.8576085
vt 0.3519937 0.8489693
vt 0.3519937 0.8403302
vt 0.3519937 0.8403302
vt 0.9496815 0.8376815
vt 0.9496815 0.8508267
vt 0.9562541 0.8376815
vt 0.9562541 0.8508267
vt 0.3390349 0.8489693
vt 0.3390349 0.8532889
vt 0.3476741 0.8489693
vt 0.3476741 0.8532889
vt 0.9628267 0.8245363
vt 0.9628267 0.8311089
vt 0.9759719 0.8245363
vt 0.9759719 0.8311089
vt 0.3390349 0.8360106
vt 0.3390349 0.8403302
vt 0.3476741 0.8360106
vt 0.3347154 0.8403302
vt 0.3390349 0.8403302
vt 0.3390349 0.8489693
vt 0.3476741 0.8403302
vt 0.3519937 0.8403302
vt 0.3519937 0.8489693
vt 0.3390349 0.8489693
vt 0.3390349 0.8489693
vt 0.3390349 0.8532889
vt 0.3390349 0.8532889
vt 0.3347154 0.8489693
vt 0.3347154 0.8489693
vt 0.3347154 0.8403302
vt 0.3347154 0.8403302
vt 0.3476741 0.8489693
vt 0.3476741 0.8403302
vt 0.3476741 0.8532889
vt 0.3476741 0.8532889
vt 0.3476741 0.8489693
vt 0.3476741 0.8489693
f 21/21/21 22/22/22 31/31/31
f 31/31/31 22/22/22 25/25/25
f 23/23/23 24/24/24 1/1/1
f 1/1/1 24/24/24 2/2/2
f 33/33/33 4/4/4 34/34/34
f 34/34/34 4/4/4 35/35/35
f 40/40/40 3/3/3 16/16/16
f 16/16/16 3/3/3 13/13/13
f 41/41/41 43/43/43 42/42/42
f 42/42/42 43/43/43 44/44/44
f 15/15/15 46/46/46 45/45/45
f 45/45/45 46/46/46 47/47/47
f 48/48/48 14/14/14 49/49/49
f 49/49/49 14/14/14 50/50/50
f 51/51/51 37/37/37 52/52/52
f 36/36/36 37/37/37 51/51/51
f 36/36/36 38/38/38 37/37/37
f 37/37/37 38/38/38 39/39/39
f 38/38/38 61/61/61 39/39/39
f 39/39/39 61/61/61 62/62/62
f 53/53/53 55/55/55 54/54/54
f 54/54/54 55/55/55 56/56/56
f 57/57/57 59/59/59 58/58/58
f 58/58/58 59/59/59 60/60/60
f 63/63/63 32/32/32 64/64/64
f 64/64/64 32/32/32 65/65/65
f 66/66/66 68/68/68 67/67/67
f 67/67/67 68/68/68 69/69/69
f 70/70/70 72/72/72 71/71/71
f 71/71/71 72/72/72 73/73/73
f 74/74/74 76/76/76 75/75/75
f 75/75/75 76/76/76 77/77/77
f 78/78/78 80/80/80 79/79/79
f 79/79/79 80/80/80 26/26/26
f 81/81/81 82/82/82 30/30/30
f 30/30/30 82/82/82 83/83/83
f 84/84/84 85/85/85 29/29/29
f 29/29/29 85/85/85 86/86/86
f 87/87/87 89/89/89 88/88/88
f 88/88/88 89/89/89 90/90/90
f 91/91/91 93/93/93 92/92/92
f 92/92/92 93/93/93 94/94/94
f 97/97/97 99/99/99 98/98/98
f 98/98/98 99/99/99 100/100/100
f 6/6/6 8/8/8 95/95/95
f 5/5/5 8/8/8 6/6/6
f 95/95/95 8/8/8 96/96/96
f 7/7/7 8/8/8 5/5/5
f 8/8/8 7/7/7 96/96/96
f 5/5/5 28/28/28 7/7/7
f 96/96/96 7/7/7 27/27/27
f 7/7/7 28/28/28 27/27/27
f 12/12/12 19/19/19 20/20/20
f 11/11/11 19/19/19 12/12/12
f 17/17/17 12/12/12 20/20/20
f 9/9/9 11/11/11 12/12/12
f 9/9/9 12/12/12 17/17/17
f 10/10/10 11/11/11 9/9/9
f 18/18/18 9/9/9 17/17/17
f 10/10/10 9/9/9 18/18/18
