mtllib Bed_Table_02.mtl
usemtl Bed_Table_02

g Bed_Table_02
v 0.1633206 0.04144754 -0.1660005
v 0.1633181 0.3676353 -0.1660003
v 0.1717132 0.03409319 0.1660017
v 0.1717132 0.3749896 0.1660018
v -0.1633714 0.04144754 -0.1660005
v -0.1633739 0.3676353 -0.1660003
v -0.1717132 0.03409319 0.1660017
v -0.1717132 0.3749896 0.1660018
v 0.1717132 0.4161232 -0.1660017
v 0.1717132 0.4161231 0.1660018
v -0.1717132 0.4161231 0.1660018
v -0.1717132 0.4161232 -0.1660017
v 0.2045197 0.3749896 -0.197717
v 0.2045197 0.3749896 0.1977171
v -0.2045197 0.3749896 0.1977171
v -0.2045197 0.3749896 -0.197717
v 0.2045197 0.4161232 -0.197717
v 0.2045197 0.4161231 0.1977171
v -0.2045197 0.4161231 0.1977171
v -0.2045197 0.4161232 -0.197717
v 0.1627627 0.2151698 -0.1659724
v 0.1627603 0.2098118 -0.1659722
v 0.1711021 0.2111361 0.1660326
v 0.1711021 0.2138452 0.1660326
v -0.1723244 0.2111361 0.1660326
v -0.1723244 0.2138452 0.1660326
v -0.1639317 0.2098118 -0.1659722
v -0.1639292 0.2151697 -0.1659724
v 0.1717132 0.03409324 -0.1660018
v -0.1717132 0.03409324 -0.1660018
v -0.1717132 0.3749896 -0.1660017
v 0.1717132 0.3749896 -0.1660017
v -0.1723244 0.2138453 -0.165971
v 0.1711021 0.2138453 -0.165971
v 0.1711021 0.2111362 -0.165971
v -0.1723244 0.2111362 -0.165971
v 0.1633206 0.04144743 -0.1787607
v -0.1633714 0.04144743 -0.1787607
v -0.1633739 0.3676353 -0.1787605
v 0.1633181 0.3676353 -0.1787605
v -0.1639292 0.2151696 -0.1787326
v 0.1627627 0.2151697 -0.1787326
v 0.1627603 0.2098117 -0.1787325
v -0.1639317 0.2098117 -0.1787325
v -0.1338007 0.0002270145 0.1269297
v -0.1338007 0.03342221 0.1269297
v -0.1338007 0.0002270095 0.1571996
v -0.1338007 0.0334222 0.1571996
v -0.1640706 0.0002270145 0.1269297
v -0.1640706 0.03342221 0.1269297
v -0.1640706 0.0002270095 0.1571996
v -0.1640706 0.0334222 0.1571996
v 0.1640707 0.0002270145 0.1269297
v 0.1640707 0.03342221 0.1269297
v 0.1640707 0.0002270095 0.1571996
v 0.1640707 0.0334222 0.1571996
v 0.1338007 0.0002270145 0.1269297
v 0.1338007 0.03342221 0.1269297
v 0.1338007 0.0002270095 0.1571996
v 0.1338007 0.0334222 0.1571996
v 0.1640707 0.0002270608 -0.1571995
v 0.1640707 0.03342225 -0.1571995
v 0.1640707 0.0002270558 -0.1269296
v 0.1640707 0.03342224 -0.1269296
v 0.1338007 0.0002270608 -0.1571995
v 0.1338007 0.03342225 -0.1571995
v 0.1338007 0.0002270558 -0.1269296
v 0.1338007 0.03342224 -0.1269296
v -0.1338007 0.0002270608 -0.1571995
v -0.1338007 0.03342225 -0.1571995
v -0.1338007 0.0002270558 -0.1269296
v -0.1338007 0.03342224 -0.1269296
v -0.1640706 0.0002270608 -0.1571995
v -0.1640706 0.03342225 -0.1571995
v -0.1640706 0.0002270558 -0.1269296
v -0.1640706 0.03342224 -0.1269296
v 0.03802295 0.3027579 -0.1890773
v -0.03802295 0.3027579 -0.1890773
v 0.03802295 0.3027579 -0.1634345
v -0.03802295 0.3027579 -0.1634345
v 0.03802295 0.2771151 -0.1890773
v -0.03802295 0.2771151 -0.1890773
v 0.03802295 0.2771151 -0.1634345
v -0.03802295 0.2771151 -0.1634345
v 0.03781147 0.1425278 -0.1886768
v -0.03823443 0.1425278 -0.1886768
v 0.03781147 0.1425278 -0.163034
v -0.03823443 0.1425278 -0.163034
v 0.03781147 0.116885 -0.1886768
v -0.03823443 0.116885 -0.1886768
v 0.03781147 0.116885 -0.163034
v -0.03823443 0.116885 -0.163034
v 0.1717132 0.03409319 0.1660017
v 0.1717132 0.03409324 -0.1660018
v -0.1717132 0.03409319 0.1660017
v -0.1717132 0.03409324 -0.1660018
v 0.2045197 0.3749896 0.1977171
v 0.2045197 0.4161231 0.1977171
v 0.2045197 0.3749896 -0.197717
v 0.2045197 0.4161232 -0.197717
v 0.2045197 0.3749896 -0.197717
v 0.2045197 0.4161232 -0.197717
v -0.2045197 0.3749896 -0.197717
v -0.2045197 0.4161232 -0.197717
v -0.2045197 0.3749896 0.1977171
v -0.2045197 0.4161231 0.1977171
v 0.2045197 0.3749896 0.1977171
v 0.2045197 0.4161231 0.1977171
v -0.2045197 0.3749896 -0.197717
v -0.2045197 0.4161232 -0.197717
v -0.2045197 0.3749896 0.1977171
v -0.2045197 0.4161231 0.1977171
v 0.1717132 0.3749896 -0.1660017
v 0.2045197 0.3749896 -0.197717
v 0.1717132 0.03409319 0.1660017
v -0.1717132 0.03409319 0.1660017
v 0.1711021 0.2111361 0.1660326
v -0.1723244 0.2111361 0.1660326
v -0.1717132 0.3749896 0.1660018
v -0.1717132 0.3749896 -0.1660017
v 0.1717132 0.3749896 0.1660018
v -0.1717132 0.3749896 0.1660018
v -0.1723244 0.2138452 0.1660326
v 0.1711021 0.2138452 0.1660326
v 0.1717132 0.3749896 -0.1660017
v 0.1717132 0.3749896 0.1660018
v -0.1723244 0.2138453 -0.165971
v -0.1723244 0.2111362 -0.165971
v 0.1711021 0.2138453 -0.165971
v 0.1711021 0.2111362 -0.165971
v -0.1633714 0.04144754 -0.1660005
v -0.1717132 0.03409324 -0.1660018
v 0.1633206 0.04144754 -0.1660005
v 0.1717132 0.03409324 -0.1660018
v 0.1717132 0.3749896 -0.1660017
v -0.1717132 0.3749896 -0.1660017
v -0.1639292 0.2151697 -0.1659724
v 0.1627627 0.2151698 -0.1659724
v -0.1633714 0.04144743 -0.1787607
v 0.1633206 0.04144743 -0.1787607
v -0.1639292 0.2151696 -0.1787326
v 0.1627627 0.2151697 -0.1787326
v -0.1633714 0.04144754 -0.1660005
v -0.1633714 0.04144743 -0.1787607
v -0.1639317 0.2098118 -0.1659722
v -0.1639317 0.2098117 -0.1787325
v 0.1633181 0.3676353 -0.1660003
v 0.1633181 0.3676353 -0.1787605
v 0.1627627 0.2151698 -0.1659724
v 0.1627627 0.2151697 -0.1787326
v -0.1639317 0.2098118 -0.1659722
v -0.1639317 0.2098117 -0.1787325
v 0.1627603 0.2098118 -0.1659722
v 0.1627603 0.2098117 -0.1787325
v -0.1633739 0.3676353 -0.1660003
v -0.1633739 0.3676353 -0.1787605
v 0.1633181 0.3676353 -0.1660003
v 0.1633181 0.3676353 -0.1787605
v 0.1627603 0.2098118 -0.1659722
v 0.1627603 0.2098117 -0.1787325
v 0.1633206 0.04144754 -0.1660005
v 0.1633206 0.04144743 -0.1787607
v -0.1639292 0.2151697 -0.1659724
v -0.1639292 0.2151696 -0.1787326
v -0.1633739 0.3676353 -0.1660003
v -0.1633739 0.3676353 -0.1787605
v -0.1338007 0.0002270095 0.1571996
v -0.1338007 0.0334222 0.1571996
v -0.1640706 0.0002270095 0.1571996
v -0.1640706 0.0334222 0.1571996
v -0.1640706 0.0002270145 0.1269297
v -0.1338007 0.0002270145 0.1269297
v -0.1640706 0.03342221 0.1269297
v -0.1338007 0.03342221 0.1269297
v -0.1338007 0.0002270095 0.1571996
v -0.1338007 0.0002270145 0.1269297
v -0.1640706 0.0002270095 0.1571996
v -0.1640706 0.0002270145 0.1269297
v -0.1640706 0.0334222 0.1571996
v -0.1640706 0.03342221 0.1269297
v -0.1338007 0.0334222 0.1571996
v -0.1338007 0.03342221 0.1269297
v 0.1640707 0.0002270095 0.1571996
v 0.1640707 0.0334222 0.1571996
v 0.1338007 0.0002270095 0.1571996
v 0.1338007 0.0334222 0.1571996
v 0.1338007 0.0002270145 0.1269297
v 0.1640707 0.0002270145 0.1269297
v 0.1338007 0.03342221 0.1269297
v 0.1640707 0.03342221 0.1269297
v 0.1640707 0.0002270095 0.1571996
v 0.1640707 0.0002270145 0.1269297
v 0.1338007 0.0002270095 0.1571996
v 0.1338007 0.0002270145 0.1269297
v 0.1338007 0.0334222 0.1571996
v 0.1338007 0.03342221 0.1269297
v 0.1640707 0.0334222 0.1571996
v 0.1640707 0.03342221 0.1269297
v 0.1640707 0.0002270558 -0.1269296
v 0.1640707 0.03342224 -0.1269296
v 0.1338007 0.0002270558 -0.1269296
v 0.1338007 0.03342224 -0.1269296
v 0.1338007 0.0002270608 -0.1571995
v 0.1640707 0.0002270608 -0.1571995
v 0.1338007 0.03342225 -0.1571995
v 0.1640707 0.03342225 -0.1571995
v 0.1640707 0.0002270558 -0.1269296
v 0.1640707 0.0002270608 -0.1571995
v 0.1338007 0.0002270558 -0.1269296
v 0.1338007 0.0002270608 -0.1571995
v 0.1338007 0.03342224 -0.1269296
v 0.1338007 0.03342225 -0.1571995
v 0.1640707 0.03342224 -0.1269296
v 0.1640707 0.03342225 -0.1571995
v -0.1338007 0.0002270558 -0.1269296
v -0.1338007 0.03342224 -0.1269296
v -0.1640706 0.0002270558 -0.1269296
v -0.1640706 0.03342224 -0.1269296
v -0.1640706 0.0002270608 -0.1571995
v -0.1338007 0.0002270608 -0.1571995
v -0.1640706 0.03342225 -0.1571995
v -0.1338007 0.03342225 -0.1571995
v -0.1338007 0.0002270558 -0.1269296
v -0.1338007 0.0002270608 -0.1571995
v -0.1640706 0.0002270558 -0.1269296
v -0.1640706 0.0002270608 -0.1571995
v -0.1640706 0.03342224 -0.1269296
v -0.1640706 0.03342225 -0.1571995
v -0.1338007 0.03342224 -0.1269296
v -0.1338007 0.03342225 -0.1571995
v 0.03802295 0.3027579 -0.1634345
v -0.03802295 0.3027579 -0.1634345
v 0.03802295 0.2771151 -0.1634345
v -0.03802295 0.2771151 -0.1634345
v 0.03802295 0.2771151 -0.1890773
v 0.03802295 0.3027579 -0.1890773
v -0.03802295 0.2771151 -0.1890773
v -0.03802295 0.3027579 -0.1890773
v 0.03802295 0.3027579 -0.1634345
v 0.03802295 0.3027579 -0.1890773
v 0.03802295 0.2771151 -0.1634345
v 0.03802295 0.2771151 -0.1890773
v -0.03802295 0.2771151 -0.1634345
v -0.03802295 0.2771151 -0.1890773
v -0.03802295 0.3027579 -0.1634345
v -0.03802295 0.3027579 -0.1890773
v 0.03781147 0.1425278 -0.163034
v -0.03823443 0.1425278 -0.163034
v 0.03781147 0.116885 -0.163034
v -0.03823443 0.116885 -0.163034
v 0.03781147 0.116885 -0.1886768
v 0.03781147 0.1425278 -0.1886768
v -0.03823443 0.116885 -0.1886768
v -0.03823443 0.1425278 -0.1886768
v 0.03781147 0.1425278 -0.163034
v 0.03781147 0.1425278 -0.1886768
v 0.03781147 0.116885 -0.163034
v 0.03781147 0.116885 -0.1886768
v -0.03823443 0.116885 -0.163034
v -0.03823443 0.116885 -0.1886768
v -0.03823443 0.1425278 -0.163034
v -0.03823443 0.1425278 -0.1886768

vn 0 -1 0
vn 3.285408E-05 -0.0001899835 -1
vn 0.999994 0.003451854 0
vn 0 -1 0
vn 0 -1 0
vn -3.275996E-05 -0.0001897127 -1
vn -0.999994 -0.003451855 0
vn 0 -1 0
vn 0 1 0
vn 0 1 0
vn 0 1 0
vn 0 1 0
vn 0 -1 0
vn 0 -1 0
vn 0 -1 0
vn 0 -1 0
vn 0 1 0
vn 0 1 0
vn 0 1 0
vn 0 1 0
vn 0 -1 0
vn 2.260131E-05 0.0006735345 -0.9999998
vn 0.9999986 0.001725835 0
vn 0 9.55496E-05 1
vn -0.9999986 -0.001725835 0
vn -0.9999982 0.001896094 0
vn -2.258895E-05 0.0006727888 -0.9999998
vn 0 -1 0
vn 0.999994 0.003451854 0
vn -0.999994 -0.003451855 0
vn 0 -1 0
vn 0 -1 0
vn -0.9999982 0.001896325 0
vn 0.9999982 -0.001896325 0
vn 0.9999986 0.001726025 0
vn -0.9999986 -0.001726025 0
vn 0 -1 0
vn 0 -1 0
vn 0 -0.000183266 -1
vn 0 -0.000183266 -1
vn 0 -1 0
vn 0 -1 0
vn 0 0.0001678552 -1
vn 0 0.0001678552 -1
vn 1 0 0
vn 1 0 0
vn 1 0 0
vn 1 0 0
vn -1 0 0
vn -1 0 0
vn 0 0 1
vn 0 0 1
vn 1 0 0
vn 1 0 0
vn 1 0 0
vn 1 0 0
vn -1 0 0
vn -1 0 0
vn 0 0 1
vn 0 0 1
vn 1 0 0
vn 1 0 0
vn 1 0 0
vn 1 0 0
vn -1 0 0
vn -1 0 0
vn 0 0 1
vn 0 0 1
vn 1 0 0
vn 1 0 0
vn 1 0 0
vn 1 0 0
vn -1 0 0
vn -1 0 0
vn 0 0 1
vn 0 0 1
vn 0 1 0
vn 0 1 0
vn 0 1 0
vn 0 1 0
vn 0 -1 0
vn 0 -1 0
vn 0 0 1
vn 0 0 1
vn 0 1 0
vn 0 1 0
vn 0 1 0
vn 0 1 0
vn 0 -1 0
vn 0 -1 0
vn 0 0 1
vn 0 0 1
vn 0 -1 0
vn 0 -1 0
vn 0 -1 0
vn 0 -1 0
vn 1 0 0
vn 1 0 0
vn 1 0 0
vn 1 0 0
vn 0 0 -1
vn 0 0 -1
vn 0 0 -1
vn 0 0 -1
vn 0 0 1
vn 0 0 1
vn 0 0 1
vn 0 0 1
vn -1 0 0
vn -1 0 0
vn -1 0 0
vn -1 0 0
vn 0 -1 0
vn 0 -1 0
vn 0 -0.0001741075 1
vn 0 -0.0001741075 1
vn 0 -8.71493E-05 1
vn 0 -8.6958E-05 1
vn -0.9999928 0.003792413 0
vn -0.9999928 0.003792413 0
vn 0 0.0001908691 1
vn 0 0.0001908691 1
vn 0 9.531919E-05 1
vn 0.9999982 -0.001896094 0
vn 0.9999928 -0.003792413 0
vn 0.9999928 -0.003792413 0
vn -3.028281E-05 -0.0001373119 -1
vn -2.767183E-05 0.0001248392 -1
vn 3.043161E-05 -0.0001379712 -1
vn 2.779572E-05 0.0001254157 -1
vn -2.993252E-05 0.0001731638 -1
vn -3.329981E-05 0.0001729072 -1
vn 3.001119E-05 0.0001734213 -1
vn 3.337508E-05 0.0001731945 -1
vn 3.653612E-05 -0.0001897303 -1
vn -3.644593E-05 -0.000189428 -1
vn -2.472499E-05 -0.0007443369 -0.9999998
vn 2.474003E-05 -0.0007452109 -0.9999998
vn 0 0.0001678552 -1
vn 0 0.0001678552 -1
vn 0 -0.000183266 -1
vn 0 -0.000183266 -1
vn -0.9999945 -0.003328281 0
vn -0.9999945 -0.003328281 0
vn -0.9999945 -0.003328281 0
vn -0.9999945 -0.003328281 0
vn 0.9999934 -0.003642331 0
vn 0.9999934 -0.003642331 0
vn 0.9999934 -0.003642331 0
vn 0.9999934 -0.003642331 0
vn 0 1 0
vn 0 1 0
vn 0 1 0
vn 0 1 0
vn 0 1 0
vn 0 1 0
vn 0 1 0
vn 0 1 0
vn 0.9999945 0.003328084 0
vn 0.9999945 0.003328084 0
vn 0.9999945 0.003328084 0
vn 0.9999945 0.003328084 0
vn -0.9999934 0.003642654 0
vn -0.9999934 0.003642654 0
vn -0.9999934 0.003642654 0
vn -0.9999934 0.003642654 0
vn 0 0 1
vn 0 0 1
vn -1 0 0
vn -1 0 0
vn 0 0 -1
vn 0 0 -1
vn 0 0 -1
vn 0 0 -1
vn 0 -1 0
vn 0 -1 0
vn 0 -1 0
vn 0 -1 0
vn 0 1 0
vn 0 1 0
vn 0 1 0
vn 0 1 0
vn 0 0 1
vn 0 0 1
vn -1 0 0
vn -1 0 0
vn 0 0 -1
vn 0 0 -1
vn 0 0 -1
vn 0 0 -1
vn 0 -1 0
vn 0 -1 0
vn 0 -1 0
vn 0 -1 0
vn 0 1 0
vn 0 1 0
vn 0 1 0
vn 0 1 0
vn 0 0 1
vn 0 0 1
vn -1 0 0
vn -1 0 0
vn 0 0 -1
vn 0 0 -1
vn 0 0 -1
vn 0 0 -1
vn 0 -1 0
vn 0 -1 0
vn 0 -1 0
vn 0 -1 0
vn 0 1 0
vn 0 1 0
vn 0 1 0
vn 0 1 0
vn 0 0 1
vn 0 0 1
vn -1 0 0
vn -1 0 0
vn 0 0 -1
vn 0 0 -1
vn 0 0 -1
vn 0 0 -1
vn 0 -1 0
vn 0 -1 0
vn 0 -1 0
vn 0 -1 0
vn 0 1 0
vn 0 1 0
vn 0 1 0
vn 0 1 0
vn 0 0 1
vn 0 0 1
vn 0 -1 0
vn 0 -1 0
vn 0 0 -1
vn 0 0 -1
vn 0 0 -1
vn 0 0 -1
vn 1 0 0
vn 1 0 0
vn 1 0 0
vn 1 0 0
vn -1 0 0
vn -1 0 0
vn -1 0 0
vn -1 0 0
vn 0 0 1
vn 0 0 1
vn 0 -1 0
vn 0 -1 0
vn 0 0 -1
vn 0 0 -1
vn 0 0 -1
vn 0 0 -1
vn 1 0 0
vn 1 0 0
vn 1 0 0
vn 1 0 0
vn -1 0 0
vn -1 0 0
vn -1 0 0
vn -1 0 0

vt 0.4032153 0.9221353
vt 0.4122068 0.9221353
vt 0.4030217 0.8941705
vt 0.03626756 0.8344163
vt 0.4032153 0.9131953
vt 0.4122068 0.9131953
vt 0.4030217 0.9035684
vt 0.03626756 0.8445096
vt 0.0463609 0.8546029
vt 0.0463609 0.8445096
vt 0.03626756 0.8445096
vt 0.03626756 0.8546029
vt 0.03626756 0.824323
vt 0.03626756 0.8344163
vt 0.03626756 0.8445096
vt 0.03626756 0.8546029
vt 0.0463609 0.8546029
vt 0.0463609 0.8445096
vt 0.03626756 0.8445096
vt 0.03626756 0.8546029
vt 0.4079707 0.9221353
vt 0.4074896 0.9221353
vt 0.4076833 0.8941705
vt 0.407758 0.8941705
vt 0.4076833 0.9035684
vt 0.407758 0.9035684
vt 0.4074897 0.9131953
vt 0.4079707 0.9131953
vt 0.4030217 0.8847725
vt 0.4030217 0.9129663
vt 0.03626756 0.8546029
vt 0.03626756 0.824323
vt 0.407758 0.9129663
vt 0.407758 0.8847725
vt 0.4076833 0.8847725
vt 0.4076833 0.9129663
vt 0.4032153 0.9221353
vt 0.4032153 0.9131953
vt 0.4122068 0.9131953
vt 0.4122068 0.9221353
vt 0.4079707 0.9131953
vt 0.4079707 0.9221353
vt 0.4074896 0.9221353
vt 0.4074897 0.9131953
vt 0.4030217 0.8847725
vt 0.4124196 0.8847725
vt 0.4030217 0.8941705
vt 0.4124196 0.8941705
vt 0.4030217 0.9129663
vt 0.4124196 0.9129663
vt 0.4030217 0.9035684
vt 0.4124196 0.9035684
vt 0.4030217 0.8847725
vt 0.4124196 0.8847725
vt 0.4030217 0.8941705
vt 0.4124196 0.8941705
vt 0.4030217 0.9129663
vt 0.4124196 0.9129663
vt 0.4030217 0.9035684
vt 0.4124196 0.9035684
vt 0.4030217 0.8847725
vt 0.4124196 0.8847725
vt 0.4030217 0.8941705
vt 0.4124196 0.8941705
vt 0.4030217 0.9129663
vt 0.4124196 0.9129663
vt 0.4030217 0.9035684
vt 0.4124196 0.9035684
vt 0.4030217 0.8847725
vt 0.4124196 0.8847725
vt 0.4030217 0.8941705
vt 0.4124196 0.8941705
vt 0.4030217 0.9129663
vt 0.4124196 0.9129663
vt 0.4030217 0.9035684
vt 0.4124196 0.9035684
vt 0.02617423 0.824323
vt 0.03626756 0.824323
vt 0.02617423 0.8344163
vt 0.03626756 0.8344163
vt 0.02617423 0.8546029
vt 0.03626756 0.8546029
vt 0.02617423 0.8445096
vt 0.03626756 0.8445096
vt 0.02617423 0.824323
vt 0.03626756 0.824323
vt 0.02617423 0.8344163
vt 0.03626756 0.8344163
vt 0.02617423 0.8546029
vt 0.03626756 0.8546029
vt 0.02617423 0.8445096
vt 0.03626756 0.8445096
vt 0.3936237 0.9035684
vt 0.3936237 0.9129663
vt 0.4030217 0.9035684
vt 0.4030217 0.9129663
vt 0.03626756 0.8344163
vt 0.03626756 0.8344163
vt 0.03626756 0.824323
vt 0.03626756 0.824323
vt 0.03626756 0.8646963
vt 0.03626756 0.8646963
vt 0.03626756 0.8546029
vt 0.03626756 0.8546029
vt 0.03626756 0.8445096
vt 0.03626756 0.8445096
vt 0.03626756 0.8344163
vt 0.03626756 0.8344163
vt 0.03626756 0.8546029
vt 0.03626756 0.8546029
vt 0.03626756 0.8445096
vt 0.03626756 0.8445096
vt 0.03626756 0.8646963
vt 0.03626756 0.8646963
vt 0.4030217 0.8941705
vt 0.4030217 0.9035684
vt 0.4076833 0.8941705
vt 0.4076833 0.9035684
vt 0.4124196 0.9035684
vt 0.4124196 0.9129663
vt 0.4124196 0.8941705
vt 0.4124196 0.9035684
vt 0.407758 0.9035684
vt 0.407758 0.8941705
vt 0.4124196 0.8847725
vt 0.4124196 0.8941705
vt 0.407758 0.9129663
vt 0.4076833 0.9129663
vt 0.407758 0.9223643
vt 0.4076833 0.9223643
vt 0.4032153 0.9131953
vt 0.4030217 0.9129663
vt 0.4032153 0.9221353
vt 0.4030217 0.9223643
vt 0.4124196 0.9223643
vt 0.4124196 0.9129663
vt 0.4079707 0.9131953
vt 0.4079707 0.9221353
vt 0.4032153 0.9131953
vt 0.4032153 0.9221353
vt 0.4079707 0.9131953
vt 0.4079707 0.9221353
vt 0.4032153 0.9131953
vt 0.4032153 0.9131953
vt 0.4074897 0.9131953
vt 0.4074897 0.9131953
vt 0.4122068 0.9221353
vt 0.4122068 0.9221353
vt 0.4079707 0.9221353
vt 0.4079707 0.9221353
vt 0.4074897 0.9131953
vt 0.4074897 0.9131953
vt 0.4074896 0.9221353
vt 0.4074896 0.9221353
vt 0.4122068 0.9131953
vt 0.4122068 0.9131953
vt 0.4122068 0.9221353
vt 0.4122068 0.9221353
vt 0.4074896 0.9221353
vt 0.4074896 0.9221353
vt 0.4032153 0.9221353
vt 0.4032153 0.9221353
vt 0.4079707 0.9131953
vt 0.4079707 0.9131953
vt 0.4122068 0.9131953
vt 0.4122068 0.9131953
vt 0.4030217 0.8941705
vt 0.4124196 0.8941705
vt 0.4030217 0.9035684
vt 0.4124196 0.9035684
vt 0.4030217 0.9129663
vt 0.4030217 0.9223643
vt 0.4124196 0.9129663
vt 0.4124196 0.9223643
vt 0.3936237 0.9035684
vt 0.3936237 0.9129663
vt 0.4030217 0.9035684
vt 0.4030217 0.9129663
vt 0.4124196 0.9035684
vt 0.4124196 0.9129663
vt 0.4218175 0.9035684
vt 0.4218175 0.9129663
vt 0.4030217 0.8941705
vt 0.4124196 0.8941705
vt 0.4030217 0.9035684
vt 0.4124196 0.9035684
vt 0.4030217 0.9129663
vt 0.4030217 0.9223643
vt 0.4124196 0.9129663
vt 0.4124196 0.9223643
vt 0.3936237 0.9035684
vt 0.3936237 0.9129663
vt 0.4030217 0.9035684
vt 0.4030217 0.9129663
vt 0.4124196 0.9035684
vt 0.4124196 0.9129663
vt 0.4218175 0.9035684
vt 0.4218175 0.9129663
vt 0.4030217 0.8941705
vt 0.4124196 0.8941705
vt 0.4030217 0.9035684
vt 0.4124196 0.9035684
vt 0.4030217 0.9129663
vt 0.4030217 0.9223643
vt 0.4124196 0.9129663
vt 0.4124196 0.9223643
vt 0.3936237 0.9035684
vt 0.3936237 0.9129663
vt 0.4030217 0.9035684
vt 0.4030217 0.9129663
vt 0.4124196 0.9035684
vt 0.4124196 0.9129663
vt 0.4218175 0.9035684
vt 0.4218175 0.9129663
vt 0.4030217 0.8941705
vt 0.4124196 0.8941705
vt 0.4030217 0.9035684
vt 0.4124196 0.9035684
vt 0.4030217 0.9129663
vt 0.4030217 0.9223643
vt 0.4124196 0.9129663
vt 0.4124196 0.9223643
vt 0.3936237 0.9035684
vt 0.3936237 0.9129663
vt 0.4030217 0.9035684
vt 0.4030217 0.9129663
vt 0.4124196 0.9035684
vt 0.4124196 0.9129663
vt 0.4218175 0.9035684
vt 0.4218175 0.9129663
vt 0.02617423 0.8344163
vt 0.03626756 0.8344163
vt 0.02617423 0.8445096
vt 0.03626756 0.8445096
vt 0.02617423 0.8546029
vt 0.02617423 0.8646963
vt 0.03626756 0.8546029
vt 0.03626756 0.8646963
vt 0.0160809 0.8445096
vt 0.0160809 0.8546029
vt 0.02617423 0.8445096
vt 0.02617423 0.8546029
vt 0.03626756 0.8445096
vt 0.03626756 0.8546029
vt 0.0463609 0.8445096
vt 0.0463609 0.8546029
vt 0.02617423 0.8344163
vt 0.03626756 0.8344163
vt 0.02617423 0.8445096
vt 0.03626756 0.8445096
vt 0.02617423 0.8546029
vt 0.02617423 0.8646963
vt 0.03626756 0.8546029
vt 0.03626756 0.8646963
vt 0.0160809 0.8445096
vt 0.0160809 0.8546029
vt 0.02617423 0.8445096
vt 0.02617423 0.8546029
vt 0.03626756 0.8445096
vt 0.03626756 0.8546029
vt 0.0463609 0.8445096
vt 0.0463609 0.8546029
f 1/1/1 5/5/5 37/37/37
f 37/37/37 5/5/5 38/38/38
f 7/7/7 25/25/25 30/30/30
f 30/30/30 25/25/25 36/36/36
f 25/25/25 33/33/33 36/36/36
f 26/26/26 33/33/33 25/25/25
f 26/26/26 119/119/119 33/33/33
f 33/33/33 119/119/119 120/120/120
f 29/29/29 35/35/35 3/3/3
f 3/3/3 35/35/35 23/23/23
f 35/35/35 124/124/124 23/23/23
f 34/34/34 124/124/124 35/35/35
f 34/34/34 125/125/125 124/124/124
f 124/124/124 125/125/125 126/126/126
f 93/93/93 95/95/95 94/94/94
f 94/94/94 95/95/95 96/96/96
f 14/14/14 32/32/32 13/13/13
f 4/4/4 32/32/32 14/14/14
f 15/15/15 4/4/4 14/14/14
f 8/8/8 4/4/4 15/15/15
f 16/16/16 8/8/8 15/15/15
f 31/31/31 8/8/8 16/16/16
f 114/114/114 31/31/31 16/16/16
f 113/113/113 31/31/31 114/114/114
f 97/97/97 99/99/99 98/98/98
f 98/98/98 99/99/99 100/100/100
f 101/101/101 103/103/103 102/102/102
f 102/102/102 103/103/103 104/104/104
f 105/105/105 107/107/107 106/106/106
f 106/106/106 107/107/107 108/108/108
f 109/109/109 111/111/111 110/110/110
f 110/110/110 111/111/111 112/112/112
f 115/115/115 117/117/117 116/116/116
f 116/116/116 117/117/117 118/118/118
f 117/117/117 123/123/123 118/118/118
f 24/24/24 123/123/123 117/117/117
f 24/24/24 122/122/122 123/123/123
f 121/121/121 122/122/122 24/24/24
f 21/21/21 28/28/28 42/42/42
f 42/42/42 28/28/28 41/41/41
f 44/44/44 43/43/43 139/139/139
f 139/139/139 43/43/43 140/140/140
f 141/141/141 39/39/39 142/142/142
f 142/142/142 39/39/39 40/40/40
f 143/143/143 145/145/145 144/144/144
f 144/144/144 145/145/145 146/146/146
f 147/147/147 149/149/149 148/148/148
f 148/148/148 149/149/149 150/150/150
f 151/151/151 153/153/153 152/152/152
f 152/152/152 153/153/153 154/154/154
f 155/155/155 157/157/157 156/156/156
f 156/156/156 157/157/157 158/158/158
f 159/159/159 161/161/161 160/160/160
f 160/160/160 161/161/161 162/162/162
f 163/163/163 165/165/165 164/164/164
f 164/164/164 165/165/165 166/166/166
f 45/45/45 46/46/46 47/47/47
f 47/47/47 46/46/46 48/48/48
f 167/167/167 168/168/168 51/51/51
f 51/51/51 168/168/168 52/52/52
f 169/169/169 170/170/170 49/49/49
f 49/49/49 170/170/170 50/50/50
f 171/171/171 173/173/173 172/172/172
f 172/172/172 173/173/173 174/174/174
f 175/175/175 177/177/177 176/176/176
f 176/176/176 177/177/177 178/178/178
f 179/179/179 181/181/181 180/180/180
f 180/180/180 181/181/181 182/182/182
f 53/53/53 54/54/54 55/55/55
f 55/55/55 54/54/54 56/56/56
f 183/183/183 184/184/184 59/59/59
f 59/59/59 184/184/184 60/60/60
f 185/185/185 186/186/186 57/57/57
f 57/57/57 186/186/186 58/58/58
f 187/187/187 189/189/189 188/188/188
f 188/188/188 189/189/189 190/190/190
f 191/191/191 193/193/193 192/192/192
f 192/192/192 193/193/193 194/194/194
f 195/195/195 197/197/197 196/196/196
f 196/196/196 197/197/197 198/198/198
f 61/61/61 62/62/62 63/63/63
f 63/63/63 62/62/62 64/64/64
f 199/199/199 200/200/200 67/67/67
f 67/67/67 200/200/200 68/68/68
f 201/201/201 202/202/202 65/65/65
f 65/65/65 202/202/202 66/66/66
f 203/203/203 205/205/205 204/204/204
f 204/204/204 205/205/205 206/206/206
f 207/207/207 209/209/209 208/208/208
f 208/208/208 209/209/209 210/210/210
f 211/211/211 213/213/213 212/212/212
f 212/212/212 213/213/213 214/214/214
f 69/69/69 70/70/70 71/71/71
f 71/71/71 70/70/70 72/72/72
f 215/215/215 216/216/216 75/75/75
f 75/75/75 216/216/216 76/76/76
f 217/217/217 218/218/218 73/73/73
f 73/73/73 218/218/218 74/74/74
f 219/219/219 221/221/221 220/220/220
f 220/220/220 221/221/221 222/222/222
f 223/223/223 225/225/225 224/224/224
f 224/224/224 225/225/225 226/226/226
f 227/227/227 229/229/229 228/228/228
f 228/228/228 229/229/229 230/230/230
f 77/77/77 78/78/78 79/79/79
f 79/79/79 78/78/78 80/80/80
f 231/231/231 232/232/232 83/83/83
f 83/83/83 232/232/232 84/84/84
f 233/233/233 234/234/234 81/81/81
f 81/81/81 234/234/234 82/82/82
f 235/235/235 237/237/237 236/236/236
f 236/236/236 237/237/237 238/238/238
f 239/239/239 241/241/241 240/240/240
f 240/240/240 241/241/241 242/242/242
f 243/243/243 245/245/245 244/244/244
f 244/244/244 245/245/245 246/246/246
f 85/85/85 86/86/86 87/87/87
f 87/87/87 86/86/86 88/88/88
f 247/247/247 248/248/248 91/91/91
f 91/91/91 248/248/248 92/92/92
f 249/249/249 250/250/250 89/89/89
f 89/89/89 250/250/250 90/90/90
f 251/251/251 253/253/253 252/252/252
f 252/252/252 253/253/253 254/254/254
f 255/255/255 257/257/257 256/256/256
f 256/256/256 257/257/257 258/258/258
f 259/259/259 261/261/261 260/260/260
f 260/260/260 261/261/261 262/262/262
f 137/137/137 138/138/138 127/127/127
f 137/137/137 127/127/127 6/6/6
f 6/6/6 127/127/127 136/136/136
f 135/135/135 6/6/6 136/136/136
f 2/2/2 6/6/6 135/135/135
f 129/129/129 2/2/2 135/135/135
f 138/138/138 2/2/2 129/129/129
f 127/127/127 138/138/138 129/129/129
f 127/127/127 129/129/129 128/128/128
f 128/128/128 129/129/129 130/130/130
f 130/130/130 27/27/27 128/128/128
f 22/22/22 27/27/27 130/130/130
f 27/27/27 131/131/131 128/128/128
f 128/128/128 131/131/131 132/132/132
f 22/22/22 130/130/130 133/133/133
f 131/131/131 133/133/133 132/132/132
f 133/133/133 130/130/130 134/134/134
f 132/132/132 133/133/133 134/134/134
f 12/12/12 9/9/9 20/20/20
f 20/20/20 9/9/9 17/17/17
f 19/19/19 12/12/12 20/20/20
f 9/9/9 10/10/10 17/17/17
f 12/12/12 10/10/10 9/9/9
f 17/17/17 10/10/10 18/18/18
f 18/18/18 11/11/11 19/19/19
f 11/11/11 12/12/12 19/19/19
f 11/11/11 10/10/10 12/12/12
f 10/10/10 11/11/11 18/18/18
