mtllib Book_04.mtl
usemtl Book_04

g Book_04
v -0.02661559 0 0.1136806
v -0.02661559 0.2661734 0.1136806
v -0.02661561 0 -0.1136806
v -0.02661561 0.2661734 -0.1136806
v 0.02661561 0 0.1136806
v 0.02661561 0.2661734 0.1136806
v 0.02661559 0 -0.1136806
v 0.02661559 0.2661734 -0.1136806
v 0.01561536 0 -0.1136806
v -0.01561538 0 -0.1136806
v -0.01561538 0.2661734 -0.1136806
v 0.01561536 0.2661734 -0.1136806
v -0.01561536 0 0.1136806
v 0.01561538 0 0.1136806
v 0.01561538 0.2661734 0.1136806
v -0.01561536 0.2661734 0.1136806
v -0.02661561 0 -0.09995442
v -0.02661561 0.2661734 -0.09995442
v 0.02661559 0 -0.09995442
v 0.02661559 0.2661734 -0.09995442
v 0.01561536 0.2661734 -0.09995442
v -0.01561538 0.2661734 -0.09995442
v -0.01561538 0 -0.09995442
v 0.01561536 0 -0.09995442
v -0.01462428 0.008446759 0.1069011
v 0.0146243 0.008446759 0.1069011
v 0.0146243 0.2577266 0.1069011
v -0.01462428 0.2577266 0.1069011
v 0.01462428 0.2577266 -0.09959817
v -0.0146243 0.2577266 -0.09959817
v -0.0146243 0.008446759 -0.09959817
v 0.01462428 0.008446759 -0.09959817
v 0.02661559 0 -0.09995442
v 0.02661561 0 0.1136806
v -0.01561536 0.2661734 0.1136806
v -0.02661561 0.2661734 -0.09995442
v -0.02661559 0.2661734 0.1136806
v 0.02661559 0.2661734 -0.09995442
v 0.02661561 0.2661734 0.1136806
v 0.01561538 0.2661734 0.1136806
v 0.01561536 0.2661734 -0.09995442
v -0.02661561 0 -0.09995442
v -0.02661559 0 0.1136806
v -0.01561536 0 0.1136806
v -0.01561536 0 0.1136806
v -0.01561538 0 -0.09995442
v 0.02661561 0 0.1136806
v 0.01561538 0 0.1136806
v 0.02661561 0.2661734 0.1136806
v 0.01561538 0.2661734 0.1136806
v 0.01561538 0 0.1136806
v 0.01561538 0.2661734 0.1136806
v 0.0146243 0.2577266 0.1069011
v -0.02661561 0 -0.1136806
v -0.02661561 0.2661734 -0.1136806
v -0.01561538 0 -0.1136806
v 0.01561536 0 -0.1136806
v -0.02661561 0 -0.1136806
v 0.01561536 0.2661734 -0.1136806
v -0.01561538 0.2661734 -0.1136806
v 0.02661559 0.2661734 -0.1136806
v -0.02661561 0.2661734 -0.1136806
v 0.02661559 0 -0.1136806
v 0.02661559 0 -0.1136806
v 0.02661559 0.2661734 -0.1136806
v -0.02661559 0 0.1136806
v -0.02661559 0.2661734 0.1136806
v 0.01462428 0.2577266 -0.09959817
v 0.0146243 0.2577266 0.1069011
v -0.0146243 0.008446759 -0.09959817
v -0.01462428 0.008446759 0.1069011
v 0.0146243 0.008446759 0.1069011
v 0.0146243 0.008446759 0.1069011
v -0.01462428 0.008446759 0.1069011
v 0.0146243 0.2577266 0.1069011
v -0.01462428 0.2577266 0.1069011
v 0.01561536 0.2661734 -0.09995442
v 0.01462428 0.2577266 -0.09959817
v -0.01561538 0.2661734 -0.09995442
v -0.0146243 0.2577266 -0.09959817
v -0.01561538 0 -0.09995442
v -0.0146243 0.008446759 -0.09959817
v 0.01561536 0 -0.09995442
v 0.01462428 0.008446759 -0.09959817
v -0.01561536 0.2661734 0.1136806
v -0.01462428 0.2577266 0.1069011
v -0.01561536 0 0.1136806
v -0.01462428 0.008446759 0.1069011
v 0.01561538 0 0.1136806
v 0.01561536 0 -0.09995442
v 0.0146243 0.008446759 0.1069011
v 0.01462428 0.008446759 -0.09959817
v -0.01561536 0.2661734 0.1136806
v -0.01561538 0.2661734 -0.09995442
v -0.01462428 0.2577266 0.1069011
v -0.0146243 0.2577266 -0.09959817

vn 0 0 1
vn 0 0 1
vn -1 0 0
vn -1 0 0
vn 1 0 0
vn 1 0 0
vn 0 0 -1
vn 0 0 -1
vn 0 0 -1
vn 0 0 -1
vn 0 0 -1
vn 0 0 -1
vn 0 0 1
vn 0 -1 0
vn 0 1 0
vn 0 0 1
vn -1 0 0
vn -1 0 0
vn 1 0 0
vn 1 0 0
vn 0 1 0
vn 0 1 0
vn 0 -1 0
vn 0 -1 0
vn 0.9931867 -0.1165333 0
vn -0.9894828 0 0.1446505
vn -0.9931868 0.1165329 0
vn 0 1 0
vn -0.9931868 0.1165329 0
vn 0 1 0
vn 0.9931867 -0.1165333 0
vn 0 -1 0
vn 0 -1 0
vn 0 -1 0
vn 0 1 0
vn 0 1 0
vn 0 1 0
vn 0 1 0
vn 0 1 0
vn -0.9931868 0.1165329 0
vn -0.9931868 0.1165329 0
vn 0 -1 0
vn 0 -1 0
vn 0 -1 0
vn 0.9931867 -0.1165333 0
vn 0.9931867 -0.1165333 0
vn 0 0 1
vn 0 0 1
vn 0 0 1
vn 0 0 1
vn -0.9894828 0 0.1446505
vn -0.9894828 0 0.1446505
vn -0.9894828 0 0.1446505
vn 0 0 -1
vn 0 0 -1
vn 0 -1 0
vn 0 -1 0
vn 0 -1 0
vn 0 1 0
vn 0 1 0
vn 0 1 0
vn 0 1 0
vn 0 -1 0
vn 1 0 0
vn 1 0 0
vn -1 0 0
vn -1 0 0
vn 0 1 0
vn 0 1 0
vn 0 -1 0
vn 0 -1 0
vn 0 -1 0
vn 0 0 1
vn 0 0 1
vn 0 0 1
vn 0 0 1
vn 0 0.04213954 0.9991117
vn 0 0.04213954 0.9991117
vn 0 0.04213954 0.9991117
vn 0 0.04213954 0.9991117
vn 0 -0.04213965 0.9991117
vn 0 -0.04213965 0.9991117
vn 0 -0.04213965 0.9991117
vn 0 -0.04213965 0.9991117
vn 0.9894828 0 0.14465
vn 0.9894828 0 0.14465
vn 0.9894828 0 0.14465
vn 0.9894828 0 0.14465
vn -0.9931868 -0.1165332 0
vn -0.9931868 -0.1165332 0
vn -0.9931868 -0.1165332 0
vn -0.9931868 -0.1165332 0
vn 0.9931868 0.116533 0
vn 0.9931868 0.116533 0
vn 0.9931868 0.116533 0
vn 0.9931868 0.116533 0

vt 0.5951475 0.7961253
vt 0.6017151 0.7961253
vt 0.5951475 0.7764224
vt 0.6017151 0.7764224
vt 0.5951475 0.7895577
vt 0.6017151 0.7895577
vt 0.5951475 0.78299
vt 0.6017151 0.78299
vt 0.5951475 0.7808008
vt 0.5951475 0.7786116
vt 0.6017151 0.7786116
vt 0.6017151 0.7808008
vt 0.5951475 0.7939361
vt 0.5929583 0.7895577
vt 0.6039043 0.7895577
vt 0.6017151 0.7939361
vt 0.5951475 0.7731386
vt 0.6017151 0.7731386
vt 0.5951475 0.7862738
vt 0.6017151 0.7862738
vt 0.6039043 0.7862738
vt 0.6060935 0.7862738
vt 0.5907691 0.7862738
vt 0.5929583 0.7862738
vt 0.5907691 0.7895577
vt 0.5951475 0.7917469
vt 0.6039043 0.7895577
vt 0.9252312 0.9689609
vt 0.6039043 0.7862738
vt 0.9252312 0.9617862
vt 0.5907691 0.7862738
vt 0.8965319 0.9617862
vt 0.5951475 0.7862738
vt 0.5951475 0.7895577
vt 0.6060935 0.7895577
vt 0.6082827 0.7862738
vt 0.6082827 0.7895577
vt 0.6017151 0.7862738
vt 0.6017151 0.7895577
vt 0.6039043 0.7895577
vt 0.6039043 0.7862738
vt 0.5885798 0.7862738
vt 0.5885798 0.7895577
vt 0.5907691 0.7895577
vt 0.5907691 0.7895577
vt 0.5907691 0.7862738
vt 0.5951475 0.7895577
vt 0.5951475 0.7917469
vt 0.6017151 0.7895577
vt 0.6017151 0.7917469
vt 0.5951475 0.7917469
vt 0.6017151 0.7917469
vt 0.6017151 0.7917469
vt 0.5951475 0.7764224
vt 0.6017151 0.7764224
vt 0.5907691 0.78299
vt 0.5929583 0.78299
vt 0.5885798 0.78299
vt 0.6039043 0.78299
vt 0.6060935 0.78299
vt 0.6017151 0.78299
vt 0.6082827 0.78299
vt 0.5951475 0.78299
vt 0.5951475 0.78299
vt 0.6017151 0.78299
vt 0.5951475 0.7698548
vt 0.6017151 0.7698548
vt 0.9204479 0.9617862
vt 0.9204479 0.9689609
vt 0.8917487 0.9617862
vt 0.8917487 0.9689609
vt 0.8965319 0.9689609
vt 0.9013151 0.9737442
vt 0.9013151 0.9785273
vt 0.9156647 0.9737442
vt 0.9156647 0.9785273
vt 0.6039043 0.7862738
vt 0.6039043 0.7862738
vt 0.6060935 0.7862738
vt 0.6060935 0.7862738
vt 0.5907691 0.7862738
vt 0.5907691 0.7862738
vt 0.5929583 0.7862738
vt 0.5929583 0.7862738
vt 0.6017151 0.7939361
vt 0.6017151 0.7939361
vt 0.5951475 0.7939361
vt 0.5951475 0.7939361
vt 0.5929583 0.7895577
vt 0.5929583 0.7862738
vt 0.5929583 0.7895577
vt 0.5929583 0.7862738
vt 0.6060935 0.7895577
vt 0.6060935 0.7862738
vt 0.6060935 0.7895577
vt 0.6060935 0.7862738
f 3/3/3 18/18/18 4/4/4
f 17/17/17 18/18/18 3/3/3
f 17/17/17 67/67/67 18/18/18
f 66/66/66 67/67/67 17/17/17
f 7/7/7 12/12/12 8/8/8
f 9/9/9 12/12/12 7/7/7
f 9/9/9 11/11/11 12/12/12
f 10/10/10 11/11/11 9/9/9
f 10/10/10 55/55/55 11/11/11
f 54/54/54 55/55/55 10/10/10
f 5/5/5 20/20/20 6/6/6
f 19/19/19 20/20/20 5/5/5
f 19/19/19 65/65/65 20/20/20
f 64/64/64 65/65/65 19/19/19
f 13/13/13 16/16/16 1/1/1
f 1/1/1 16/16/16 2/2/2
f 14/14/14 33/33/33 34/34/34
f 24/24/24 33/33/33 14/14/14
f 24/24/24 63/63/63 33/33/33
f 57/57/57 63/63/63 24/24/24
f 23/23/23 57/57/57 24/24/24
f 56/56/56 57/57/57 23/23/23
f 42/42/42 56/56/56 23/23/23
f 58/58/58 56/56/56 42/42/42
f 42/42/42 23/23/23 43/43/43
f 43/43/43 23/23/23 44/44/44
f 35/35/35 36/36/36 37/37/37
f 22/22/22 36/36/36 35/35/35
f 22/22/22 62/62/62 36/36/36
f 60/60/60 62/62/62 22/22/22
f 21/21/21 60/60/60 22/22/22
f 59/59/59 60/60/60 21/21/21
f 38/38/38 59/59/59 21/21/21
f 61/61/61 59/59/59 38/38/38
f 38/38/38 21/21/21 39/39/39
f 39/39/39 21/21/21 15/15/15
f 40/40/40 41/41/41 27/27/27
f 27/27/27 41/41/41 29/29/29
f 45/45/45 46/46/46 25/25/25
f 25/25/25 46/46/46 31/31/31
f 47/47/47 49/49/49 48/48/48
f 48/48/48 49/49/49 50/50/50
f 51/51/51 52/52/52 26/26/26
f 26/26/26 52/52/52 53/53/53
f 68/68/68 30/30/30 69/69/69
f 69/69/69 30/30/30 28/28/28
f 70/70/70 32/32/32 71/71/71
f 71/71/71 32/32/32 72/72/72
f 73/73/73 75/75/75 74/74/74
f 74/74/74 75/75/75 76/76/76
f 77/77/77 79/79/79 78/78/78
f 78/78/78 79/79/79 80/80/80
f 81/81/81 83/83/83 82/82/82
f 82/82/82 83/83/83 84/84/84
f 85/85/85 87/87/87 86/86/86
f 86/86/86 87/87/87 88/88/88
f 89/89/89 91/91/91 90/90/90
f 90/90/90 91/91/91 92/92/92
f 93/93/93 95/95/95 94/94/94
f 94/94/94 95/95/95 96/96/96
