mtllib Catpet_04.mtl
usemtl Catpet_04

g Catpet_04
v 0.4986888 0.007954112 -0.2149792
v 0.4986888 0.007954112 0.2149792
v -0.4986888 0.007954112 -0.2149792
v -0.4986888 0.007954112 0.2149792
v 0.7906628 0.007954112 -0.5069532
v 0.7906628 0.007954112 0.5069532
v -0.7906628 0.007954112 0.5069532
v -0.7906628 0.007954112 -0.5069532
v 0.5903435 0.007954112 -0.3066339
v 0.5903435 0.007954112 0.3066339
v -0.5903435 0.007954112 0.3066339
v -0.5903435 0.007954112 -0.3066339
v 0.8127572 0 -0.5683739
v 0.8520835 0 -0.5290476
v 0.8324204 0 -0.5631052
v 0.8468149 0 -0.5487108
v 0.8520835 0 0.5290476
v 0.8127572 0 0.5683739
v 0.8468149 0 0.5487108
v 0.8324204 0 0.5631052
v -0.8520835 0 -0.5290476
v -0.8127572 0 -0.5683739
v -0.8468149 0 -0.5487108
v -0.8324204 0 -0.5631052
v -0.8127572 0 0.5683739
v -0.8520835 0 0.5290476
v -0.8324204 0 0.5631052
v -0.8468149 0 0.5487108
v 0.8520835 0.007954112 -0.5290476
v 0.8127572 0.007954112 -0.5683739
v 0.8242756 0.007954112 -0.540566
v 0.8468149 0.007954112 -0.5487108
v 0.8324204 0.007954112 -0.5631052
v 0.8127572 0.007954112 0.5683739
v 0.8520835 0.007954112 0.5290476
v 0.8242756 0.007954112 0.540566
v 0.8324204 0.007954112 0.5631052
v 0.8468149 0.007954112 0.5487108
v -0.8520835 0.007954112 0.5290476
v -0.8127572 0.007954112 0.5683739
v -0.8242756 0.007954112 0.540566
v -0.8468149 0.007954112 0.5487108
v -0.8324204 0.007954112 0.5631052
v -0.8127572 0.007954112 -0.5683739
v -0.8520835 0.007954112 -0.5290476
v -0.8242756 0.007954112 -0.540566
v -0.8324204 0.007954112 -0.5631052
v -0.8468149 0.007954112 -0.5487108
v 0.8520835 0.007954112 -0.5290476
v 0.8520835 0.007954112 0.5290476
v 0.8127572 0.007954112 -0.5683739
v -0.8127572 0.007954112 -0.5683739
v -0.8242756 0.007954112 -0.540566
v -0.8520835 0.007954112 -0.5290476
v -0.8520835 0.007954112 0.5290476
v -0.8127572 0.007954112 0.5683739
v 0.8127572 0.007954112 0.5683739
v 0.8242756 0.007954112 0.540566
v 0.7906628 0.007954112 -0.5069532
v 0.7906628 0.007954112 0.5069532
v -0.7906628 0.007954112 0.5069532
v -0.7906628 0.007954112 -0.5069532
v 0.4986888 0.007954112 -0.2149792
v 0.5903435 0.007954112 -0.3066339
v 0.4986888 0.007954112 0.2149792
v 0.5903435 0.007954112 0.3066339
v -0.4986888 0.007954112 0.2149792
v -0.5903435 0.007954112 0.3066339
v -0.4986888 0.007954112 -0.2149792
v -0.5903435 0.007954112 -0.3066339
v 0.8242756 0.007954112 -0.540566
v 0.8324204 0.007954112 -0.5631052
v 0.8242756 0.007954112 -0.540566
v 0.8127572 0.007954112 -0.5683739
v 0.8242756 0.007954112 0.540566
v 0.8468149 0.007954112 0.5487108
v 0.8242756 0.007954112 0.540566
v 0.8520835 0.007954112 0.5290476
v -0.8242756 0.007954112 0.540566
v -0.8324204 0.007954112 0.5631052
v -0.8242756 0.007954112 0.540566
v -0.8127572 0.007954112 0.5683739
v -0.8242756 0.007954112 -0.540566
v -0.8468149 0.007954112 -0.5487108
v -0.8242756 0.007954112 -0.540566
v -0.8520835 0.007954112 -0.5290476
v 0.8127572 0 -0.5683739
v 0.8127572 0.007954112 -0.5683739
v 0.8324204 0.007954112 -0.5631052
v 0.8324204 0 -0.5631052
v 0.8324204 0.007954112 -0.5631052
v 0.8468149 0.007954112 -0.5487108
v 0.8468149 0 -0.5487108
v 0.8520835 0 -0.5290476
v 0.8468149 0.007954112 -0.5487108
v 0.8520835 0.007954112 -0.5290476
v 0.8127572 0.007954112 0.5683739
v 0.8324204 0.007954112 0.5631052
v 0.8127572 0 0.5683739
v 0.8324204 0.007954112 0.5631052
v 0.8127572 0 0.5683739
v 0.8324204 0.007954112 0.5631052
v 0.8468149 0.007954112 0.5487108
v 0.8324204 0 0.5631052
v 0.8468149 0.007954112 0.5487108
v 0.8520835 0.007954112 0.5290476
v 0.8468149 0 0.5487108
v 0.8520835 0 0.5290476
v -0.8520835 0.007954112 0.5290476
v -0.8468149 0.007954112 0.5487108
v -0.8520835 0 0.5290476
v -0.8468149 0.007954112 0.5487108
v -0.8324204 0.007954112 0.5631052
v -0.8468149 0 0.5487108
v -0.8324204 0.007954112 0.5631052
v -0.8127572 0.007954112 0.5683739
v -0.8324204 0 0.5631052
v -0.8127572 0 0.5683739
v -0.8127572 0.007954112 -0.5683739
v -0.8324204 0.007954112 -0.5631052
v -0.8127572 0 -0.5683739
v -0.8324204 0.007954112 -0.5631052
v -0.8468149 0.007954112 -0.5487108
v -0.8324204 0 -0.5631052
v -0.8468149 0.007954112 -0.5487108
v -0.8520835 0.007954112 -0.5290476
v -0.8468149 0 -0.5487108
v -0.8520835 0 -0.5290476
v 0.8468149 0 0.5487108
v 0.8520835 0 0.5290476
v 0.8324204 0 0.5631052
v 0.8324204 0 0.5631052
v 0.8520835 0 0.5290476
v 0.8127572 0 0.5683739
v 0.8520835 0 0.5290476
v 0.8520835 0 -0.5290476
v 0.8127572 0 0.5683739
v -0.8127572 0 0.5683739
v 0.8468149 0 -0.5487108
v 0.8324204 0 -0.5631052
v 0.8127572 0 -0.5683739
v -0.8324204 0 0.5631052
v -0.8468149 0 0.5487108
v -0.8520835 0 0.5290476
v -0.8468149 0 -0.5487108
v -0.8520835 0 -0.5290476
v -0.8324204 0 -0.5631052
v -0.8127572 0 -0.5683739

vn 0 1 0
vn 0 1 0
vn 0 1 0
vn 0 1 0
vn 0 1 0
vn 0 1 0
vn 0 1 0
vn 0 1 0
vn 0 1 0
vn 0 1 0
vn 0 1 0
vn 0 1 0
vn 0 0 -1
vn 1 0 0
vn 0.2588185 0 -0.9659259
vn 0.7071055 0 -0.7071081
vn 1 0 0
vn 0 0 1
vn 0.7071055 0 0.7071081
vn 0.2588185 0 0.9659259
vn -1 0 0
vn 0 0 -1
vn -0.7071055 0 -0.7071081
vn -0.2588185 0 -0.9659259
vn 0 0 1
vn -1 0 0
vn -0.7071055 0 0.7071081
vn -0.9659271 0 0.2588147
vn 0 1 0
vn 0 0 -1
vn 0 1 0
vn 0 1 0
vn 0 1 0
vn 0 0 1
vn 0 1 0
vn 0 1 0
vn 0 1 0
vn 0 1 0
vn -1 0 0
vn 0 0 1
vn 0 1 0
vn 0 1 0
vn 0 1 0
vn 0 0 -1
vn -1 0 0
vn 0 1 0
vn 0 1 0
vn 0 1 0
vn 1 0 0
vn 1 0 0
vn 0 1 0
vn 0 1 0
vn 0 1 0
vn 0 1 0
vn 0 1 0
vn 0 1 0
vn 0 1 0
vn 0 1 0
vn 0 1 0
vn 0 1 0
vn 0 1 0
vn 0 1 0
vn 0 1 0
vn 0 1 0
vn 0 1 0
vn 0 1 0
vn 0 1 0
vn 0 1 0
vn 0 1 0
vn 0 1 0
vn 0 1 0
vn 0 1 0
vn 0 1 0
vn 0 1 0
vn 0 1 0
vn 0 1 0
vn 0 1 0
vn 0 1 0
vn 0 1 0
vn 0 1 0
vn 0 1 0
vn 0 1 0
vn 0 1 0
vn 0 1 0
vn 0 1 0
vn 0 1 0
vn 0.2588185 0 -0.9659259
vn 0.2588185 0 -0.9659259
vn 0.2588185 0 -0.9659259
vn 0.7071055 0 -0.7071081
vn 0.7071055 0 -0.7071081
vn 0.7071055 0 -0.7071081
vn 0.9659271 0 -0.2588147
vn 0.9659271 0 -0.2588147
vn 0.9659271 0 -0.2588147
vn 0.9659271 0 -0.2588147
vn 0.2588185 0 0.9659259
vn 0.2588185 0 0.9659259
vn 0.2588185 0 0.9659259
vn 0.2588185 0 0.9659259
vn 0.2588185 0 0.9659259
vn 0.7071055 0 0.7071081
vn 0.7071055 0 0.7071081
vn 0.7071055 0 0.7071081
vn 0.9659271 0 0.2588147
vn 0.9659271 0 0.2588147
vn 0.9659271 0 0.2588147
vn 0.9659271 0 0.2588147
vn -0.9659271 0 0.2588147
vn -0.9659271 0 0.2588147
vn -0.9659271 0 0.2588147
vn -0.7071055 0 0.7071081
vn -0.7071055 0 0.7071081
vn -0.7071055 0 0.7071081
vn -0.2588185 0 0.9659259
vn -0.2588185 0 0.9659259
vn -0.2588185 0 0.9659259
vn -0.2588185 0 0.9659259
vn -0.2588185 0 -0.9659259
vn -0.2588185 0 -0.9659259
vn -0.2588185 0 -0.9659259
vn -0.7071055 0 -0.7071081
vn -0.7071055 0 -0.7071081
vn -0.7071055 0 -0.7071081
vn -0.9659271 0 -0.2588147
vn -0.9659271 0 -0.2588147
vn -0.9659271 0 -0.2588147
vn -0.9659271 0 -0.2588147
vn 0 -1 0
vn 0 -1 0
vn 0 -1 0
vn 0 -1 0
vn 0 -1 0
vn 0 -1 0
vn 0 -1 0
vn 0 -1 0
vn 0 -1 0
vn 0 -1 0
vn 0 -1 0
vn 0 -1 0
vn 0 -1 0
vn 0 -1 0
vn 0 -1 0
vn 0 -1 0
vn 0 -1 0
vn 0 -1 0
vn 0 -1 0
vn 0 -1 0

vt 0.7722502 0.8404185
vt 0.7722502 0.836507
vt 0.7661979 0.8404185
vt 0.7661979 0.836507
vt 0.9197406 0.9810423
vt 0.9197406 0.9718184
vt 0.9101446 0.9718184
vt 0.9101446 0.9810423
vt 0.7728065 0.8412523
vt 0.7728065 0.8356732
vt 0.7656417 0.8356732
vt 0.7656417 0.8412523
vt 0.8994305 0.9917038
vt 0.8994305 0.9509345
vt 0.8994305 0.9918231
vt 0.8994305 0.9919424
vt 0.8994305 0.9605604
vt 0.8994305 0.9611568
vt 0.8959941 0.9643058
vt 0.8960232 0.9644608
vt 0.8994305 0.9812433
vt 0.8994305 0.9818396
vt 0.8994199 0.9814221
vt 0.8993908 0.9816645
vt 0.8994305 0.9710209
vt 0.8994305 0.9716173
vt 0.8993907 0.9711961
vt 0.8994199 0.9714385
vt 0.9201133 0.9812433
vt 0.9097719 0.9917038
vt 0.9199445 0.981348
vt 0.9201133 0.9814221
vt 0.9200377 0.9814876
vt 0.9097719 0.9611568
vt 0.9201133 0.9716173
vt 0.9199445 0.9715126
vt 0.919994 0.9712596
vt 0.9200377 0.9713731
vt 0.9097719 0.9716173
vt 0.9097719 0.9710209
vt 0.9099406 0.9715126
vt 0.9097719 0.9714385
vt 0.9098476 0.971373
vt 0.9097719 0.9818397
vt 0.9097719 0.9812433
vt 0.9099406 0.981348
vt 0.9098912 0.981601
vt 0.9098476 0.9814876
vt 0.9097719 0.9509345
vt 0.9097719 0.9605604
vt 0.9198747 0.981601
vt 0.9100106 0.981601
vt 0.9099406 0.981348
vt 0.9097719 0.9812433
vt 0.9097719 0.9716173
vt 0.9100106 0.9712596
vt 0.9198747 0.9712596
vt 0.9199445 0.9715126
vt 0.774022 0.8430747
vt 0.774022 0.8338509
vt 0.7644261 0.8338509
vt 0.7644261 0.8430747
vt 0.9179688 0.978386
vt 0.918525 0.9792199
vt 0.9179688 0.9744745
vt 0.918525 0.9736408
vt 0.9119164 0.9744745
vt 0.9113603 0.9736408
vt 0.9119164 0.978386
vt 0.9113603 0.9792199
vt 0.9199445 0.981348
vt 0.9200377 0.9814876
vt 0.9199445 0.981348
vt 0.919994 0.9814221
vt 0.9199445 0.9715126
vt 0.9200377 0.9713731
vt 0.9199445 0.9715126
vt 0.919994 0.9714385
vt 0.9099406 0.9715126
vt 0.9098476 0.971373
vt 0.9099406 0.9715126
vt 0.9098912 0.9714385
vt 0.9099406 0.981348
vt 0.9098476 0.9814876
vt 0.9099406 0.981348
vt 0.9098912 0.9814221
vt 0.8994305 0.9917038
vt 0.9097719 0.9917038
vt 0.9097719 0.9918231
vt 0.8994305 0.9918231
vt 0.9097719 0.9918231
vt 0.9097719 0.9919424
vt 0.8994305 0.9507557
vt 0.8994305 0.9509345
vt 0.9097719 0.9507557
vt 0.9097719 0.9509345
vt 0.9097719 0.9611568
vt 0.9097719 0.9610375
vt 0.8994305 0.9611568
vt 0.9097719 0.9610375
vt 0.8994305 0.9611568
vt 0.9097719 0.9610375
vt 0.9097719 0.9607393
vt 0.8960232 0.9644608
vt 0.9097719 0.9607393
vt 0.9097719 0.9605604
vt 0.8959941 0.9643058
vt 0.8994305 0.9605604
vt 0.9097719 0.9716173
vt 0.9097719 0.9714385
vt 0.8994305 0.9716173
vt 0.9097719 0.9714385
vt 0.9097719 0.9711403
vt 0.8994199 0.9714385
vt 0.9097719 0.9711403
vt 0.9097719 0.9710209
vt 0.8993907 0.9711961
vt 0.8994305 0.9710209
vt 0.9097719 0.9818397
vt 0.9097719 0.9817203
vt 0.8994305 0.9818396
vt 0.9097719 0.9817203
vt 0.9097719 0.9814221
vt 0.8993908 0.9816645
vt 0.9097719 0.9814221
vt 0.9097719 0.9812433
vt 0.8994199 0.9814221
vt 0.8994305 0.9812433
vt 0.8959941 0.9643058
vt 0.8890891 0.9716173
vt 0.8960232 0.9644608
vt 0.8960232 0.9644608
vt 0.8890891 0.9716173
vt 0.8893278 0.9712596
vt 0.8890891 0.9716173
vt 0.8890891 0.9812433
vt 0.8893278 0.9712596
vt 0.8991919 0.9712596
vt 0.8891211 0.9814221
vt 0.8892084 0.981553
vt 0.8893278 0.981601
vt 0.8993907 0.9711961
vt 0.8994199 0.9714385
vt 0.8994305 0.9716173
vt 0.8994199 0.9814221
vt 0.8994305 0.9812433
vt 0.8993908 0.9816645
vt 0.8991919 0.981601
f 72/72/72 74/74/74 73/73/73
f 37/37/37 38/38/38 75/75/75
f 57/57/57 37/37/37 58/58/58
f 57/57/57 58/58/58 7/7/7
f 56/56/56 57/57/57 7/7/7
f 41/41/41 56/56/56 7/7/7
f 6/6/6 7/7/7 58/58/58
f 7/7/7 8/8/8 41/41/41
f 55/55/55 41/41/41 8/8/8
f 54/54/54 55/55/55 8/8/8
f 53/53/53 54/54/54 8/8/8
f 55/55/55 42/42/42 79/79/79
f 42/42/42 43/43/43 79/79/79
f 36/36/36 35/35/35 6/6/6
f 35/35/35 29/29/29 6/6/6
f 29/29/29 31/31/31 6/6/6
f 5/5/5 6/6/6 31/31/31
f 31/31/31 51/51/51 5/5/5
f 8/8/8 5/5/5 46/46/46
f 51/51/51 52/52/52 5/5/5
f 52/52/52 46/46/46 5/5/5
f 52/52/52 47/47/47 46/46/46
f 47/47/47 48/48/48 83/83/83
f 29/29/29 32/32/32 71/71/71
f 32/32/32 33/33/33 71/71/71
f 76/76/76 78/78/78 77/77/77
f 80/80/80 82/82/82 81/81/81
f 84/84/84 86/86/86 85/85/85
f 97/97/97 99/99/99 98/98/98
f 100/100/100 101/101/101 20/20/20
f 129/129/129 131/131/131 130/130/130
f 132/132/132 134/134/134 133/133/133
f 22/22/22 44/44/44 13/13/13
f 13/13/13 44/44/44 30/30/30
f 26/26/26 39/39/39 21/21/21
f 21/21/21 39/39/39 45/45/45
f 18/18/18 34/34/34 25/25/25
f 25/25/25 34/34/34 40/40/40
f 14/14/14 49/49/49 17/17/17
f 17/17/17 49/49/49 50/50/50
f 4/4/4 2/2/2 3/3/3
f 3/3/3 2/2/2 1/1/1
f 87/87/87 88/88/88 15/15/15
f 15/15/15 88/88/88 89/89/89
f 90/90/90 91/91/91 16/16/16
f 16/16/16 91/91/91 92/92/92
f 93/93/93 95/95/95 94/94/94
f 94/94/94 95/95/95 96/96/96
f 102/102/102 104/104/104 103/103/103
f 103/103/103 104/104/104 19/19/19
f 105/105/105 107/107/107 106/106/106
f 106/106/106 107/107/107 108/108/108
f 109/109/109 111/111/111 110/110/110
f 110/110/110 111/111/111 28/28/28
f 112/112/112 114/114/114 113/113/113
f 113/113/113 114/114/114 27/27/27
f 115/115/115 117/117/117 116/116/116
f 116/116/116 117/117/117 118/118/118
f 119/119/119 121/121/121 120/120/120
f 120/120/120 121/121/121 24/24/24
f 122/122/122 124/124/124 123/123/123
f 123/123/123 124/124/124 23/23/23
f 125/125/125 127/127/127 126/126/126
f 126/126/126 127/127/127 128/128/128
f 135/135/135 137/137/137 136/136/136
f 137/137/137 138/138/138 136/136/136
f 136/136/136 138/138/138 139/139/139
f 139/139/139 138/138/138 140/140/140
f 140/140/140 138/138/138 141/141/141
f 138/138/138 142/142/142 141/141/141
f 142/142/142 143/143/143 141/141/141
f 143/143/143 144/144/144 141/141/141
f 144/144/144 148/148/148 141/141/141
f 146/146/146 148/148/148 144/144/144
f 147/147/147 148/148/148 146/146/146
f 145/145/145 147/147/147 146/146/146
f 68/68/68 69/69/69 70/70/70
f 67/67/67 69/69/69 68/68/68
f 69/69/69 63/63/63 70/70/70
f 66/66/66 67/67/67 68/68/68
f 70/70/70 63/63/63 64/64/64
f 65/65/65 67/67/67 66/66/66
f 63/63/63 65/65/65 64/64/64
f 64/64/64 65/65/65 66/66/66
f 61/61/61 12/12/12 62/62/62
f 11/11/11 12/12/12 61/61/61
f 12/12/12 9/9/9 62/62/62
f 60/60/60 11/11/11 61/61/61
f 62/62/62 9/9/9 59/59/59
f 10/10/10 11/11/11 60/60/60
f 9/9/9 10/10/10 59/59/59
f 59/59/59 10/10/10 60/60/60
