mtllib Catpet_03.mtl
usemtl Catpet_03

g Catpet_03
v 0.8520835 0 -0.5683739
v 0.4986888 0.007954112 -0.2149792
v 0.8520835 0 0.5683739
v 0.4986888 0.007954112 0.2149792
v -0.8520835 0 -0.5683739
v -0.4986888 0.007954112 -0.2149792
v -0.8520835 0 0.5683739
v -0.4986888 0.007954112 0.2149792
v 0.8520835 0.007954112 -0.5683739
v 0.8520835 0.007954112 0.5683739
v -0.8520835 0.007954112 0.5683739
v -0.8520835 0.007954112 -0.5683739
v 0.7906628 0.007954112 -0.5069532
v 0.7906628 0.007954112 0.5069532
v -0.7906628 0.007954112 0.5069532
v -0.7906628 0.007954112 -0.5069532
v 0.5903435 0.007954112 -0.3066339
v 0.5903435 0.007954112 0.3066339
v -0.5903435 0.007954112 0.3066339
v -0.5903435 0.007954112 -0.3066339
v 0.8520835 0 0.5683739
v 0.8520835 0.007954112 0.5683739
v -0.8520835 0 0.5683739
v -0.8520835 0.007954112 0.5683739
v -0.8520835 0 -0.5683739
v 0.8520835 0 -0.5683739
v -0.8520835 0.007954112 -0.5683739
v 0.8520835 0.007954112 -0.5683739
v 0.8520835 0 0.5683739
v 0.8520835 0 -0.5683739
v -0.8520835 0 0.5683739
v -0.8520835 0 -0.5683739
v 0.8520835 0.007954112 -0.5683739
v 0.8520835 0.007954112 0.5683739
v -0.8520835 0.007954112 0.5683739
v -0.8520835 0.007954112 -0.5683739
v 0.7906628 0.007954112 -0.5069532
v 0.7906628 0.007954112 0.5069532
v -0.7906628 0.007954112 0.5069532
v -0.7906628 0.007954112 -0.5069532
v 0.4986888 0.007954112 -0.2149792
v 0.5903435 0.007954112 -0.3066339
v 0.4986888 0.007954112 0.2149792
v 0.5903435 0.007954112 0.3066339
v -0.4986888 0.007954112 0.2149792
v -0.5903435 0.007954112 0.3066339
v -0.4986888 0.007954112 -0.2149792
v -0.5903435 0.007954112 -0.3066339

vn 1 0 0
vn 0 1 0
vn 1 0 0
vn 0 1 0
vn -1 0 0
vn 0 1 0
vn 0 0 1
vn 0 1 0
vn 1 0 0
vn 1 0 0
vn 0 0 1
vn -1 0 0
vn 0 1 0
vn 0 1 0
vn 0 1 0
vn 0 1 0
vn 0 1 0
vn 0 1 0
vn 0 1 0
vn 0 1 0
vn 0 0 1
vn 0 0 1
vn -1 0 0
vn -1 0 0
vn 0 0 -1
vn 0 0 -1
vn 0 0 -1
vn 0 0 -1
vn 0 -1 0
vn 0 -1 0
vn 0 -1 0
vn 0 -1 0
vn 0 1 0
vn 0 1 0
vn 0 1 0
vn 0 1 0
vn 0 1 0
vn 0 1 0
vn 0 1 0
vn 0 1 0
vn 0 1 0
vn 0 1 0
vn 0 1 0
vn 0 1 0
vn 0 1 0
vn 0 1 0
vn 0 1 0
vn 0 1 0

vt 0.8994305 0.9505768
vt 0.6637366 0.2823479
vt 0.8994305 0.9609182
vt 0.6637366 0.2784365
vt 0.8994305 0.981601
vt 0.6576842 0.2823479
vt 0.8994305 0.9712596
vt 0.6576842 0.2784365
vt 0.9097719 0.9505768
vt 0.9097719 0.9609182
vt 0.9097719 0.9712596
vt 0.9097719 0.981601
vt 0.9197406 0.9810423
vt 0.9197406 0.9718184
vt 0.9101446 0.9718184
vt 0.9101446 0.9810423
vt 0.6642928 0.2831818
vt 0.6642928 0.2776027
vt 0.6571281 0.2776027
vt 0.6571281 0.2831818
vt 0.8994305 0.9609182
vt 0.9097719 0.9609182
vt 0.8994305 0.9712596
vt 0.9097719 0.9712596
vt 0.8994305 0.981601
vt 0.8994305 0.9919424
vt 0.9097719 0.981601
vt 0.9097719 0.9919424
vt 0.8890891 0.9712596
vt 0.8890891 0.981601
vt 0.8994305 0.9712596
vt 0.8994305 0.981601
vt 0.9201133 0.981601
vt 0.9201133 0.9712596
vt 0.9097719 0.9712596
vt 0.9097719 0.981601
vt 0.6655084 0.2850042
vt 0.6655084 0.2757803
vt 0.6559124 0.2757803
vt 0.6559124 0.2850042
vt 0.9179688 0.978386
vt 0.918525 0.9792199
vt 0.9179688 0.9744745
vt 0.918525 0.9736408
vt 0.9119164 0.9744745
vt 0.9113603 0.9736408
vt 0.9119164 0.978386
vt 0.9113603 0.9792199
f 1/1/1 9/9/9 3/3/3
f 3/3/3 9/9/9 10/10/10
f 21/21/21 22/22/22 7/7/7
f 7/7/7 22/22/22 11/11/11
f 23/23/23 24/24/24 5/5/5
f 5/5/5 24/24/24 12/12/12
f 25/25/25 27/27/27 26/26/26
f 26/26/26 27/27/27 28/28/28
f 29/29/29 31/31/31 30/30/30
f 30/30/30 31/31/31 32/32/32
f 8/8/8 4/4/4 6/6/6
f 6/6/6 4/4/4 2/2/2
f 46/46/46 47/47/47 48/48/48
f 45/45/45 47/47/47 46/46/46
f 47/47/47 41/41/41 48/48/48
f 44/44/44 45/45/45 46/46/46
f 48/48/48 41/41/41 42/42/42
f 43/43/43 45/45/45 44/44/44
f 41/41/41 43/43/43 42/42/42
f 42/42/42 43/43/43 44/44/44
f 39/39/39 20/20/20 40/40/40
f 19/19/19 20/20/20 39/39/39
f 20/20/20 17/17/17 40/40/40
f 38/38/38 19/19/19 39/39/39
f 40/40/40 17/17/17 37/37/37
f 18/18/18 19/19/19 38/38/38
f 17/17/17 18/18/18 37/37/37
f 37/37/37 18/18/18 38/38/38
f 35/35/35 16/16/16 36/36/36
f 15/15/15 16/16/16 35/35/35
f 16/16/16 13/13/13 36/36/36
f 34/34/34 15/15/15 35/35/35
f 36/36/36 13/13/13 33/33/33
f 14/14/14 15/15/15 34/34/34
f 13/13/13 14/14/14 33/33/33
f 33/33/33 14/14/14 34/34/34
