mtllib Catpet_05.mtl
usemtl Catpet_05

g Catpet_05
v 0.2528386 0 -0.1965595
v 0.2706855 0 -0.1835999
v 0.261762 0 -0.1948233
v 0.2682944 0 -0.1900797
v 0.2706855 0.006786554 -0.1835999
v 0.2528386 0.006786554 -0.1965595
v 0.2682944 0.006786554 -0.1900797
v 0.261762 0.006786554 -0.1948233
v 0.2706855 0 0.1835999
v 0.2528386 0 0.1965595
v 0.2682944 0 0.1900797
v 0.261762 0 0.1948233
v 0.2528386 0.006786554 0.1965595
v 0.2706855 0.006786554 0.1835999
v 0.261762 0.006786554 0.1948233
v 0.2682944 0.006786554 0.1900797
v -0.2706855 0 -0.1835999
v -0.2528386 0 -0.1965595
v -0.2682944 0 -0.1900797
v -0.261762 0 -0.1948233
v -0.2528386 0.006786554 -0.1965595
v -0.2706855 0.006786554 -0.1835999
v -0.261762 0.006786554 -0.1948233
v -0.2682944 0.006786554 -0.1900797
v -0.2528386 0 0.1965595
v -0.2706855 0 0.1835999
v -0.261762 0 0.1948233
v -0.2682944 0 0.1900797
v -0.2706855 0.006786554 0.1835999
v -0.2528386 0.006786554 0.1965595
v -0.2682944 0.006786554 0.1900797
v -0.261762 0.006786554 0.1948233
v 0.2528386 0.006786554 -0.1965595
v 0.2528386 0 -0.1965595
v 0.261762 0 -0.1948233
v 0.2682944 0 -0.1900797
v 0.2706855 0 -0.1835999
v 0.2528386 0 0.1965595
v 0.2528386 0.006786554 0.1965595
v 0.261762 0.006786554 0.1948233
v 0.2682944 0.006786554 0.1900797
v 0.2706855 0.006786554 0.1835999
v -0.2706855 0 0.1835999
v -0.2706855 0.006786554 0.1835999
v -0.2682944 0.006786554 0.1900797
v -0.261762 0.006786554 0.1948233
v -0.2528386 0 -0.1965595
v -0.2528386 0.006786554 -0.1965595
v -0.261762 0.006786554 -0.1948233
v -0.2682944 0.006786554 -0.1900797
v -0.2706855 0.006786554 -0.1835999
v -0.2706855 0 0.1835999
v 0.2706855 0 -0.1835999
v -0.2528386 0 -0.1965595
v 0.2528386 0.006786554 -0.1965595
v -0.2706855 0.006786554 -0.1835999
v -0.2528386 0.006786554 0.1965595
v -0.2706855 0.006786554 0.1835999
v -0.2682944 0.006786554 0.1900797
v -0.2682944 0.006786554 0.1900797
v -0.2528386 0.006786554 0.1965595
v -0.261762 0.006786554 0.1948233
v 0.2528386 0.006786554 0.1965595
v 0.261762 0.006786554 0.1948233
v 0.2682944 0.006786554 0.1900797
v 0.2706855 0.006786554 -0.1835999
v 0.2682944 0.006786554 -0.1900797
v 0.261762 0.006786554 -0.1948233
v -0.2528386 0.006786554 -0.1965595
v -0.261762 0.006786554 -0.1948233
v -0.2682944 0.006786554 -0.1900797
v 0.2706855 0.006786554 0.1835999
v -0.2528386 0.006786554 0.1965595
v 0.261762 0.006786554 -0.1948233
v 0.2682944 0.006786554 -0.1900797
v 0.2706855 0.006786554 -0.1835999
v 0.261762 0 0.1948233
v 0.2682944 0 0.1900797
v 0.2706855 0 0.1835999
v -0.2682944 0 0.1900797
v -0.261762 0 0.1948233
v -0.2528386 0 0.1965595
v -0.261762 0 -0.1948233
v -0.2682944 0 -0.1900797
v -0.2706855 0 -0.1835999
v 0.2528386 0 0.1965595
v 0.2706855 0 0.1835999
v 0.2682944 0 0.1900797
v 0.261762 0 0.1948233
v -0.2528386 0 0.1965595
v -0.261762 0 0.1948233
v -0.2682944 0 0.1900797
v -0.2706855 0 -0.1835999
v -0.2682944 0 -0.1900797
v -0.261762 0 -0.1948233
v 0.2528386 0 -0.1965595
v 0.261762 0 -0.1948233
v 0.2682944 0 -0.1900797

vn 0 0 -1
vn 1 0 0
vn 0.1909905 0 -0.9815919
vn 0.5875807 0 -0.8091657
vn 1 0 0
vn 0 1 0
vn 0.9381672 0 -0.3461825
vn 0.5875807 0 -0.8091657
vn 1 0 0
vn 0 0 1
vn 0.9381672 0 0.3461825
vn 0.5875807 0 0.8091657
vn 0 0 1
vn 0 1 0
vn 0.1909905 0 0.9815919
vn 0.5875807 0 0.8091657
vn -1 0 0
vn 0 0 -1
vn -0.9381672 0 -0.3461825
vn -0.5875807 0 -0.8091657
vn 0 0 -1
vn 0 1 0
vn -0.1909905 0 -0.9815919
vn -0.5875807 0 -0.8091657
vn 0 0 1
vn -1 0 0
vn -0.1909905 0 0.9815919
vn -0.5875807 0 0.8091657
vn -1 0 0
vn -0.1909905 0 0.9815919
vn -0.9381672 0 0.3461825
vn -0.5875807 0 0.8091657
vn 0.1909905 0 -0.9815919
vn 0.1909905 0 -0.9815919
vn 0.5875807 0 -0.8091657
vn 0.9381672 0 -0.3461825
vn 0.9381672 0 -0.3461825
vn 0.1909905 0 0.9815919
vn 0.1909905 0 0.9815919
vn 0.5875807 0 0.8091657
vn 0.9381672 0 0.3461825
vn 0.9381672 0 0.3461825
vn -0.9381672 0 0.3461825
vn -0.9381672 0 0.3461825
vn -0.5875807 0 0.8091657
vn -0.1909905 0 0.9815919
vn -0.1909905 0 -0.9815919
vn -0.1909905 0 -0.9815919
vn -0.5875807 0 -0.8091657
vn -0.9381672 0 -0.3461825
vn -0.9381672 0 -0.3461825
vn 0 -1 0
vn 0 -1 0
vn 0 -1 0
vn 0 0 -1
vn -1 0 0
vn 0 1 0
vn 0 1 0
vn 0 1 0
vn 0 1 0
vn 0 1 0
vn 0 1 0
vn 0 1 0
vn 0 1 0
vn 0 1 0
vn 0 1 0
vn 0 1 0
vn 0 1 0
vn 0 1 0
vn 0 1 0
vn 0 1 0
vn 1 0 0
vn 0 0 1
vn 0.1909905 0 -0.9815919
vn 0.5875807 0 -0.8091657
vn 0.9381672 0 -0.3461825
vn 0.1909905 0 0.9815919
vn 0.5875807 0 0.8091657
vn 0.9381672 0 0.3461825
vn -0.9381672 0 0.3461825
vn -0.5875807 0 0.8091657
vn -0.1909905 0 0.9815919
vn -0.1909905 0 -0.9815919
vn -0.5875807 0 -0.8091657
vn -0.9381672 0 -0.3461825
vn 0 -1 0
vn 0 -1 0
vn 0 -1 0
vn 0 -1 0
vn 0 -1 0
vn 0 -1 0
vn 0 -1 0
vn 0 -1 0
vn 0 -1 0
vn 0 -1 0
vn 0 -1 0
vn 0 -1 0
vn 0 -1 0

vt 0.9629819 0.7400901
vt 0.9629819 0.6944766
vt 0.9629819 0.7402812
vt 0.9629819 0.7404723
vt 0.9745764 0.6944766
vt 0.9857886 0.7288778
vt 0.9745764 0.6942855
vt 0.9745764 0.7402812
vt 0.9629819 0.7053066
vt 0.9629819 0.706071
vt 0.9591341 0.7094899
vt 0.9591808 0.7096981
vt 0.9745764 0.706071
vt 0.9861709 0.7176656
vt 0.9783775 0.7096981
vt 0.9784241 0.7094899
vt 0.9629819 0.7284956
vt 0.9629819 0.7292601
vt 0.9629648 0.7286867
vt 0.9629182 0.7289882
vt 0.9745764 0.7292601
vt 0.9745764 0.7284956
vt 0.9746401 0.7289882
vt 0.9745935 0.7286867
vt 0.9629819 0.7169011
vt 0.9629819 0.7176656
vt 0.9629182 0.717173
vt 0.9629648 0.7174745
vt 0.9745764 0.7176656
vt 0.9745764 0.7169011
vt 0.9745935 0.7174745
vt 0.9746401 0.717173
vt 0.9745764 0.7400901
vt 0.9629819 0.7400901
vt 0.9629819 0.7402812
vt 0.9629819 0.6942855
vt 0.9629819 0.6944766
vt 0.9629819 0.706071
vt 0.9745764 0.706071
vt 0.9783775 0.7096981
vt 0.9784241 0.7094899
vt 0.9745764 0.7053066
vt 0.9629819 0.7176656
vt 0.9745764 0.7176656
vt 0.9745935 0.7174745
vt 0.9746401 0.717173
vt 0.9629819 0.7292601
vt 0.9745764 0.7292601
vt 0.9746401 0.7289882
vt 0.9745935 0.7286867
vt 0.9745764 0.7284956
vt 0.9629819 0.7176656
vt 0.9513874 0.7284956
vt 0.9625996 0.7288778
vt 0.9745764 0.7400901
vt 0.9745764 0.7284956
vt 0.9749586 0.7172834
vt 0.9745764 0.7176656
vt 0.9745935 0.7174745
vt 0.9745935 0.7174745
vt 0.9749586 0.7172834
vt 0.9746401 0.717173
vt 0.9857886 0.7172834
vt 0.9783775 0.7096981
vt 0.9784241 0.7094899
vt 0.9861709 0.7284956
vt 0.9861197 0.7286867
vt 0.9859798 0.7288266
vt 0.9749586 0.7288778
vt 0.9746401 0.7289882
vt 0.9745935 0.7286867
vt 0.9745764 0.7053066
vt 0.9745764 0.7169011
vt 0.9745764 0.7402812
vt 0.9745764 0.7404723
vt 0.9745764 0.6944766
vt 0.9591808 0.7096981
vt 0.9591341 0.7094899
vt 0.9629819 0.7053066
vt 0.9629648 0.7174745
vt 0.9629182 0.717173
vt 0.9629819 0.7169011
vt 0.9629182 0.7289882
vt 0.9629648 0.7286867
vt 0.9629819 0.7284956
vt 0.9517696 0.7172834
vt 0.9513874 0.7176656
vt 0.9591341 0.7094899
vt 0.9591808 0.7096981
vt 0.9625996 0.7172834
vt 0.9629182 0.717173
vt 0.9629648 0.7174745
vt 0.9629819 0.7284956
vt 0.9629648 0.7286867
vt 0.9629182 0.7289882
vt 0.9517696 0.7288778
vt 0.9515785 0.7288266
vt 0.9514386 0.7286867
f 60/60/60 62/62/62 61/61/61
f 21/21/21 1/1/1 18/18/18
f 21/21/21 55/55/55 1/1/1
f 29/29/29 17/17/17 26/26/26
f 29/29/29 56/56/56 17/17/17
f 5/5/5 9/9/9 2/2/2
f 5/5/5 72/72/72 9/9/9
f 13/13/13 25/25/25 10/10/10
f 13/13/13 73/73/73 25/25/25
f 33/33/33 3/3/3 34/34/34
f 33/33/33 74/74/74 3/3/3
f 8/8/8 4/4/4 35/35/35
f 8/8/8 75/75/75 4/4/4
f 7/7/7 37/37/37 36/36/36
f 7/7/7 76/76/76 37/37/37
f 38/38/38 15/15/15 39/39/39
f 38/38/38 77/77/77 15/15/15
f 12/12/12 16/16/16 40/40/40
f 12/12/12 78/78/78 16/16/16
f 11/11/11 42/42/42 41/41/41
f 11/11/11 79/79/79 42/42/42
f 43/43/43 31/31/31 44/44/44
f 43/43/43 80/80/80 31/31/31
f 28/28/28 32/32/32 45/45/45
f 28/28/28 81/81/81 32/32/32
f 27/27/27 30/30/30 46/46/46
f 27/27/27 82/82/82 30/30/30
f 47/47/47 23/23/23 48/48/48
f 47/47/47 83/83/83 23/23/23
f 20/20/20 24/24/24 49/49/49
f 20/20/20 84/84/84 24/24/24
f 19/19/19 51/51/51 50/50/50
f 19/19/19 85/85/85 51/51/51
f 58/58/58 59/59/59 57/57/57
f 22/22/22 58/58/58 57/57/57
f 22/22/22 57/57/57 14/14/14
f 57/57/57 63/63/63 14/14/14
f 63/63/63 64/64/64 14/14/14
f 64/64/64 65/65/65 14/14/14
f 14/14/14 6/6/6 22/22/22
f 14/14/14 66/66/66 6/6/6
f 66/66/66 67/67/67 6/6/6
f 67/67/67 68/68/68 6/6/6
f 6/6/6 69/69/69 22/22/22
f 69/69/69 70/70/70 22/22/22
f 70/70/70 71/71/71 22/22/22
f 88/88/88 89/89/89 86/86/86
f 87/87/87 88/88/88 86/86/86
f 53/53/53 87/87/87 86/86/86
f 53/53/53 86/86/86 52/52/52
f 86/86/86 90/90/90 52/52/52
f 90/90/90 91/91/91 52/52/52
f 91/91/91 92/92/92 52/52/52
f 52/52/52 54/54/54 53/53/53
f 52/52/52 93/93/93 54/54/54
f 93/93/93 94/94/94 54/54/54
f 94/94/94 95/95/95 54/54/54
f 54/54/54 96/96/96 53/53/53
f 96/96/96 97/97/97 53/53/53
f 97/97/97 98/98/98 53/53/53
