mtllib Curtains_11.mtl
usemtl Curtains_11

g Curtains_11
v 0.7210743 0.2276442 -0.04519809
v 0.7210743 0.3453277 -0.04519809
v 0.7210743 0.2276442 0.07727985
v 0.7210743 0.3453277 0.07727985
v -0.7210747 0.2276442 -0.04519809
v -0.7210747 0.3453277 -0.04519809
v -0.7210747 0.2276442 0.07727985
v -0.7210747 0.3453277 0.07727985
v -0.6873552 -0.373643 -0.01316
v -0.6873552 0.2495521 -0.01316
v -0.6873552 -0.373643 0.003313957
v -0.6873552 0.2495521 0.003313957
v -0.7038291 -0.373643 -0.01316
v -0.7038291 0.2495521 -0.01316
v -0.7038291 -0.373643 0.003313957
v -0.7038291 0.2495521 0.003313957
v 0.7038292 -0.3736428 -0.01316
v 0.7038292 0.2495523 -0.01316
v 0.7038292 -0.3736428 0.003313957
v 0.7038292 0.2495523 0.003313957
v 0.6873553 -0.3736428 -0.01316
v 0.6873553 0.2495523 -0.01316
v 0.6873553 -0.3736428 0.003313957
v 0.6873553 0.2495523 0.003313957
v 0.7210745 0.1258885 -0.04901826
v 0.7210745 0.1573611 -0.06028307
v 0.7210745 0.1961389 0.0513098
v 0.7210745 0.2276116 0.04004498
v -0.7210745 0.1258885 -0.04901826
v -0.7210745 0.1573611 -0.06028307
v -0.7210745 0.1961389 0.0513098
v -0.7210745 0.2276116 0.04004498
v 0.7210745 0.02586716 -0.04901826
v 0.7210745 0.05733982 -0.06028307
v 0.7210745 0.09611762 0.0513098
v 0.7210745 0.1275903 0.04004498
v -0.7210745 0.02586716 -0.04901826
v -0.7210745 0.05733982 -0.06028307
v -0.7210745 0.09611762 0.0513098
v -0.7210745 0.1275903 0.04004498
v 0.7210745 -0.07415417 -0.04901826
v 0.7210745 -0.0426815 -0.06028307
v 0.7210745 -0.003903743 0.0513098
v 0.7210745 0.02756892 0.04004498
v -0.7210745 -0.07415417 -0.04901826
v -0.7210745 -0.0426815 -0.06028307
v -0.7210745 -0.003903743 0.0513098
v -0.7210745 0.02756892 0.04004498
v 0.7210745 -0.1741755 -0.04901826
v 0.7210745 -0.1427029 -0.06028307
v 0.7210745 -0.103925 0.0513098
v 0.7210745 -0.07245243 0.04004498
v -0.7210745 -0.1741755 -0.04901826
v -0.7210745 -0.1427029 -0.06028307
v -0.7210745 -0.103925 0.0513098
v -0.7210745 -0.07245243 0.04004498
v 0.7210745 -0.2741969 -0.04901826
v 0.7210745 -0.2427242 -0.06028307
v 0.7210745 -0.2039464 0.0513098
v 0.7210745 -0.1724737 0.04004498
v -0.7210745 -0.2741969 -0.04901826
v -0.7210745 -0.2427242 -0.06028307
v -0.7210745 -0.2039464 0.0513098
v -0.7210745 -0.1724737 0.04004498
v 0.7210745 -0.3742182 -0.04901826
v 0.7210745 -0.3427455 -0.06028307
v 0.7210745 -0.3039677 0.0513098
v 0.7210745 -0.272495 0.04004498
v -0.7210745 -0.3742182 -0.04901826
v -0.7210745 -0.3427455 -0.06028307
v -0.7210745 -0.3039677 0.0513098
v -0.7210745 -0.272495 0.04004498
v 0.7210743 0.2276442 0.07727985
v 0.7210743 0.3453277 0.07727985
v -0.7210747 0.2276442 0.07727985
v -0.7210747 0.3453277 0.07727985
v -0.7210747 0.2276442 -0.04519809
v 0.7210743 0.2276442 -0.04519809
v -0.7210747 0.3453277 -0.04519809
v 0.7210743 0.3453277 -0.04519809
v 0.7210743 0.2276442 0.07727985
v 0.7210743 0.2276442 -0.04519809
v -0.7210747 0.2276442 0.07727985
v -0.7210747 0.2276442 -0.04519809
v -0.7210747 0.3453277 0.07727985
v -0.7210747 0.3453277 -0.04519809
v 0.7210743 0.3453277 0.07727985
v 0.7210743 0.3453277 -0.04519809
v -0.6873552 -0.373643 0.003313957
v -0.6873552 0.2495521 0.003313957
v -0.7038291 -0.373643 0.003313957
v -0.7038291 0.2495521 0.003313957
v -0.7038291 -0.373643 -0.01316
v -0.6873552 -0.373643 -0.01316
v -0.7038291 0.2495521 -0.01316
v -0.6873552 0.2495521 -0.01316
v -0.6873552 -0.373643 0.003313957
v -0.6873552 -0.373643 -0.01316
v -0.7038291 -0.373643 0.003313957
v -0.7038291 -0.373643 -0.01316
v -0.7038291 0.2495521 0.003313957
v -0.7038291 0.2495521 -0.01316
v -0.6873552 0.2495521 0.003313957
v -0.6873552 0.2495521 -0.01316
v 0.7038292 -0.3736428 0.003313957
v 0.7038292 0.2495523 0.003313957
v 0.6873553 -0.3736428 0.003313957
v 0.6873553 0.2495523 0.003313957
v 0.6873553 -0.3736428 -0.01316
v 0.7038292 -0.3736428 -0.01316
v 0.6873553 0.2495523 -0.01316
v 0.7038292 0.2495523 -0.01316
v 0.7038292 -0.3736428 0.003313957
v 0.7038292 -0.3736428 -0.01316
v 0.6873553 -0.3736428 0.003313957
v 0.6873553 -0.3736428 -0.01316
v 0.6873553 0.2495523 0.003313957
v 0.6873553 0.2495523 -0.01316
v 0.7038292 0.2495523 0.003313957
v 0.7038292 0.2495523 -0.01316
v 0.7210745 0.1961389 0.0513098
v 0.7210745 0.2276116 0.04004498
v -0.7210745 0.2276116 0.04004498
v -0.7210745 0.1961389 0.0513098
v -0.7210745 0.1258885 -0.04901826
v 0.7210745 0.1258885 -0.04901826
v -0.7210745 0.1573611 -0.06028307
v 0.7210745 0.1573611 -0.06028307
v 0.7210745 0.1961389 0.0513098
v 0.7210745 0.1258885 -0.04901826
v -0.7210745 0.1961389 0.0513098
v -0.7210745 0.1258885 -0.04901826
v -0.7210745 0.2276116 0.04004498
v -0.7210745 0.1573611 -0.06028307
v 0.7210745 0.2276116 0.04004498
v 0.7210745 0.1573611 -0.06028307
v 0.7210745 0.09611762 0.0513098
v 0.7210745 0.1275903 0.04004498
v -0.7210745 0.1275903 0.04004498
v -0.7210745 0.09611762 0.0513098
v -0.7210745 0.02586716 -0.04901826
v 0.7210745 0.02586716 -0.04901826
v -0.7210745 0.05733982 -0.06028307
v 0.7210745 0.05733982 -0.06028307
v 0.7210745 0.09611762 0.0513098
v 0.7210745 0.02586716 -0.04901826
v -0.7210745 0.09611762 0.0513098
v -0.7210745 0.02586716 -0.04901826
v -0.7210745 0.1275903 0.04004498
v -0.7210745 0.05733982 -0.06028307
v 0.7210745 0.1275903 0.04004498
v 0.7210745 0.05733982 -0.06028307
v 0.7210745 -0.003903743 0.0513098
v 0.7210745 0.02756892 0.04004498
v -0.7210745 0.02756892 0.04004498
v -0.7210745 -0.003903743 0.0513098
v -0.7210745 -0.07415417 -0.04901826
v 0.7210745 -0.07415417 -0.04901826
v -0.7210745 -0.0426815 -0.06028307
v 0.7210745 -0.0426815 -0.06028307
v 0.7210745 -0.003903743 0.0513098
v 0.7210745 -0.07415417 -0.04901826
v -0.7210745 -0.003903743 0.0513098
v -0.7210745 -0.07415417 -0.04901826
v -0.7210745 0.02756892 0.04004498
v -0.7210745 -0.0426815 -0.06028307
v 0.7210745 0.02756892 0.04004498
v 0.7210745 -0.0426815 -0.06028307
v 0.7210745 -0.103925 0.0513098
v 0.7210745 -0.07245243 0.04004498
v -0.7210745 -0.07245243 0.04004498
v -0.7210745 -0.103925 0.0513098
v -0.7210745 -0.1741755 -0.04901826
v 0.7210745 -0.1741755 -0.04901826
v -0.7210745 -0.1427029 -0.06028307
v 0.7210745 -0.1427029 -0.06028307
v 0.7210745 -0.103925 0.0513098
v 0.7210745 -0.1741755 -0.04901826
v -0.7210745 -0.103925 0.0513098
v -0.7210745 -0.1741755 -0.04901826
v -0.7210745 -0.07245243 0.04004498
v -0.7210745 -0.1427029 -0.06028307
v 0.7210745 -0.07245243 0.04004498
v 0.7210745 -0.1427029 -0.06028307
v 0.7210745 -0.2039464 0.0513098
v 0.7210745 -0.1724737 0.04004498
v -0.7210745 -0.1724737 0.04004498
v -0.7210745 -0.2039464 0.0513098
v -0.7210745 -0.2741969 -0.04901826
v 0.7210745 -0.2741969 -0.04901826
v -0.7210745 -0.2427242 -0.06028307
v 0.7210745 -0.2427242 -0.06028307
v 0.7210745 -0.2039464 0.0513098
v 0.7210745 -0.2741969 -0.04901826
v -0.7210745 -0.2039464 0.0513098
v -0.7210745 -0.2741969 -0.04901826
v -0.7210745 -0.1724737 0.04004498
v -0.7210745 -0.2427242 -0.06028307
v 0.7210745 -0.1724737 0.04004498
v 0.7210745 -0.2427242 -0.06028307
v 0.7210745 -0.3039677 0.0513098
v 0.7210745 -0.272495 0.04004498
v -0.7210745 -0.272495 0.04004498
v -0.7210745 -0.3039677 0.0513098
v -0.7210745 -0.3742182 -0.04901826
v 0.7210745 -0.3742182 -0.04901826
v -0.7210745 -0.3427455 -0.06028307
v 0.7210745 -0.3427455 -0.06028307
v 0.7210745 -0.3039677 0.0513098
v 0.7210745 -0.3742182 -0.04901826
v -0.7210745 -0.3039677 0.0513098
v -0.7210745 -0.3742182 -0.04901826
v -0.7210745 -0.272495 0.04004498
v -0.7210745 -0.3427455 -0.06028307
v 0.7210745 -0.272495 0.04004498
v 0.7210745 -0.3427455 -0.06028307

vn 1 0 0
vn 1 0 0
vn 1 0 0
vn 1 0 0
vn -1 0 0
vn -1 0 0
vn 0 0 1
vn 0 0 1
vn 1 0 0
vn 1 0 0
vn 1 0 0
vn 1 0 0
vn -1 0 0
vn -1 0 0
vn 0 0 1
vn 0 0 1
vn 1 0 0
vn 1 0 0
vn 1 0 0
vn 1 0 0
vn -1 0 0
vn -1 0 0
vn 0 0 1
vn 0 0 1
vn 1 0 0
vn 1 0 0
vn 1 0 0
vn 1 0 0
vn -1 0 0
vn -1 0 0
vn 0 0.5735761 0.8191523
vn 0 0.5735761 0.8191523
vn 1 0 0
vn 1 0 0
vn 1 0 0
vn 1 0 0
vn -1 0 0
vn -1 0 0
vn 0 0.5735763 0.8191521
vn 0 0.5735763 0.8191521
vn 1 0 0
vn 1 0 0
vn 1 0 0
vn 1 0 0
vn -1 0 0
vn -1 0 0
vn 0 0.5735761 0.8191523
vn 0 0.5735761 0.8191523
vn 1 0 0
vn 1 0 0
vn 1 0 0
vn 1 0 0
vn -1 0 0
vn -1 0 0
vn 0 0.5735769 0.8191518
vn 0 0.5735769 0.8191518
vn 1 0 0
vn 1 0 0
vn 1 0 0
vn 1 0 0
vn -1 0 0
vn -1 0 0
vn 0 0.5735752 0.8191529
vn 0 0.5735752 0.8191529
vn 1 0 0
vn 1 0 0
vn 1 0 0
vn 1 0 0
vn -1 0 0
vn -1 0 0
vn 0 0.5735761 0.8191523
vn 0 0.5735761 0.8191523
vn 0 0 1
vn 0 0 1
vn -1 0 0
vn -1 0 0
vn 0 0 -1
vn 0 0 -1
vn 0 0 -1
vn 0 0 -1
vn 0 -1 0
vn 0 -1 0
vn 0 -1 0
vn 0 -1 0
vn 0 1 0
vn 0 1 0
vn 0 1 0
vn 0 1 0
vn 0 0 1
vn 0 0 1
vn -1 0 0
vn -1 0 0
vn 0 0 -1
vn 0 0 -1
vn 0 0 -1
vn 0 0 -1
vn 0 -1 0
vn 0 -1 0
vn 0 -1 0
vn 0 -1 0
vn 0 1 0
vn 0 1 0
vn 0 1 0
vn 0 1 0
vn 0 0 1
vn 0 0 1
vn -1 0 0
vn -1 0 0
vn 0 0 -1
vn 0 0 -1
vn 0 0 -1
vn 0 0 -1
vn 0 -1 0
vn 0 -1 0
vn 0 -1 0
vn 0 -1 0
vn 0 1 0
vn 0 1 0
vn 0 1 0
vn 0 1 0
vn 0 0.5735761 0.8191523
vn 0 0.5735761 0.8191523
vn -1 0 0
vn -1 0 0
vn 0 -0.5735769 -0.8191517
vn 0 -0.5735769 -0.8191517
vn 0 -0.5735769 -0.8191517
vn 0 -0.5735769 -0.8191517
vn 0 -0.8191522 0.5735763
vn 0 -0.8191522 0.5735763
vn 0 -0.8191522 0.5735763
vn 0 -0.8191522 0.5735763
vn 0 0.819152 -0.5735765
vn 0 0.819152 -0.5735765
vn 0 0.819152 -0.5735765
vn 0 0.819152 -0.5735765
vn 0 0.5735763 0.8191521
vn 0 0.5735763 0.8191521
vn -1 0 0
vn -1 0 0
vn 0 -0.5735762 -0.8191522
vn 0 -0.5735762 -0.8191522
vn 0 -0.5735762 -0.8191522
vn 0 -0.5735762 -0.8191522
vn 0 -0.8191521 0.5735764
vn 0 -0.8191521 0.5735764
vn 0 -0.8191521 0.5735764
vn 0 -0.8191521 0.5735764
vn 0 0.8191522 -0.5735763
vn 0 0.8191522 -0.5735763
vn 0 0.8191522 -0.5735763
vn 0 0.8191522 -0.5735763
vn 0 0.5735761 0.8191523
vn 0 0.5735761 0.8191523
vn -1 0 0
vn -1 0 0
vn 0 -0.5735762 -0.8191522
vn 0 -0.5735762 -0.8191522
vn 0 -0.5735762 -0.8191522
vn 0 -0.5735762 -0.8191522
vn 0 -0.8191522 0.5735763
vn 0 -0.8191522 0.5735763
vn 0 -0.8191522 0.5735763
vn 0 -0.8191522 0.5735763
vn 0 0.8191522 -0.5735763
vn 0 0.8191522 -0.5735763
vn 0 0.8191522 -0.5735763
vn 0 0.8191522 -0.5735763
vn 0 0.5735769 0.8191518
vn 0 0.5735769 0.8191518
vn -1 0 0
vn -1 0 0
vn 0 -0.5735769 -0.8191517
vn 0 -0.5735769 -0.8191517
vn 0 -0.5735769 -0.8191517
vn 0 -0.5735769 -0.8191517
vn 0 -0.8191521 0.5735764
vn 0 -0.8191521 0.5735764
vn 0 -0.8191521 0.5735764
vn 0 -0.8191521 0.5735764
vn 0 0.8191521 -0.5735764
vn 0 0.8191521 -0.5735764
vn 0 0.8191521 -0.5735764
vn 0 0.8191521 -0.5735764
vn 0 0.5735752 0.8191529
vn 0 0.5735752 0.8191529
vn -1 0 0
vn -1 0 0
vn 0 -0.5735762 -0.8191522
vn 0 -0.5735762 -0.8191522
vn 0 -0.5735762 -0.8191522
vn 0 -0.5735762 -0.8191522
vn 0 -0.8191522 0.5735763
vn 0 -0.8191522 0.5735763
vn 0 -0.8191522 0.5735763
vn 0 -0.8191522 0.5735763
vn 0 0.8191521 -0.5735764
vn 0 0.8191521 -0.5735764
vn 0 0.8191521 -0.5735764
vn 0 0.8191521 -0.5735764
vn 0 0.5735761 0.8191523
vn 0 0.5735761 0.8191523
vn -1 0 0
vn -1 0 0
vn 0 -0.5735745 -0.8191534
vn 0 -0.5735745 -0.8191534
vn 0 -0.5735745 -0.8191534
vn 0 -0.5735745 -0.8191534
vn 0 -0.8191517 0.5735769
vn 0 -0.8191517 0.5735769
vn 0 -0.8191517 0.5735769
vn 0 -0.8191517 0.5735769
vn 0 0.8191519 -0.5735766
vn 0 0.8191519 -0.5735766
vn 0 0.8191519 -0.5735766
vn 0 0.8191519 -0.5735766

vt 0.3382686 0.3218536
vt 0.3492119 0.3218536
vt 0.3382686 0.3327969
vt 0.3492119 0.3327969
vt 0.3382686 0.3546836
vt 0.3492119 0.3546836
vt 0.3382686 0.3437403
vt 0.3492119 0.3437403
vt 0.3382686 0.3218536
vt 0.3492119 0.3218536
vt 0.3382686 0.3327969
vt 0.3492119 0.3327969
vt 0.3382686 0.3546836
vt 0.3492119 0.3546836
vt 0.3382686 0.3437403
vt 0.3492119 0.3437403
vt 0.3382686 0.3218536
vt 0.3492119 0.3218536
vt 0.3382686 0.3327969
vt 0.3492119 0.3327969
vt 0.3382686 0.3546836
vt 0.3492119 0.3546836
vt 0.3382686 0.3437403
vt 0.3492119 0.3437403
vt 0.6520827 0.007130623
vt 0.6628975 0.007130623
vt 0.6520827 0.01794535
vt 0.6628975 0.01794535
vt 0.6520827 0.03957477
vt 0.6628975 0.03957477
vt 0.6520827 0.02876005
vt 0.6628975 0.02876005
vt 0.6520827 0.007130623
vt 0.6628975 0.007130623
vt 0.6520827 0.01794535
vt 0.6628975 0.01794535
vt 0.6520827 0.03957477
vt 0.6628975 0.03957477
vt 0.6520827 0.02876005
vt 0.6628975 0.02876005
vt 0.6520827 0.007130623
vt 0.6628975 0.007130623
vt 0.6520827 0.01794535
vt 0.6628975 0.01794535
vt 0.6520827 0.03957477
vt 0.6628975 0.03957477
vt 0.6520827 0.02876005
vt 0.6628975 0.02876005
vt 0.6520827 0.007130623
vt 0.6628975 0.007130623
vt 0.6520827 0.01794535
vt 0.6628975 0.01794535
vt 0.6520827 0.03957477
vt 0.6628975 0.03957477
vt 0.6520827 0.02876005
vt 0.6628975 0.02876005
vt 0.6520827 0.007130623
vt 0.6628975 0.007130623
vt 0.6520827 0.01794535
vt 0.6628975 0.01794535
vt 0.6520827 0.03957477
vt 0.6628975 0.03957477
vt 0.6520827 0.02876005
vt 0.6628975 0.02876005
vt 0.6520827 0.007130623
vt 0.6628975 0.007130623
vt 0.6520827 0.01794535
vt 0.6628975 0.01794535
vt 0.6520827 0.03957477
vt 0.6628975 0.03957477
vt 0.6520827 0.02876005
vt 0.6628975 0.02876005
vt 0.3382686 0.3327969
vt 0.3492119 0.3327969
vt 0.3382686 0.3437403
vt 0.3492119 0.3437403
vt 0.3382686 0.3546836
vt 0.3382686 0.365627
vt 0.3492119 0.3546836
vt 0.3492119 0.365627
vt 0.3273253 0.3437403
vt 0.3273253 0.3546836
vt 0.3382686 0.3437403
vt 0.3382686 0.3546836
vt 0.3492119 0.3437403
vt 0.3492119 0.3546836
vt 0.3601553 0.3437403
vt 0.3601553 0.3546836
vt 0.3382686 0.3327969
vt 0.3492119 0.3327969
vt 0.3382686 0.3437403
vt 0.3492119 0.3437403
vt 0.3382686 0.3546836
vt 0.3382686 0.365627
vt 0.3492119 0.3546836
vt 0.3492119 0.365627
vt 0.3273253 0.3437403
vt 0.3273253 0.3546836
vt 0.3382686 0.3437403
vt 0.3382686 0.3546836
vt 0.3492119 0.3437403
vt 0.3492119 0.3546836
vt 0.3601553 0.3437403
vt 0.3601553 0.3546836
vt 0.3382686 0.3327969
vt 0.3492119 0.3327969
vt 0.3382686 0.3437403
vt 0.3492119 0.3437403
vt 0.3382686 0.3546836
vt 0.3382686 0.365627
vt 0.3492119 0.3546836
vt 0.3492119 0.365627
vt 0.3273253 0.3437403
vt 0.3273253 0.3546836
vt 0.3382686 0.3437403
vt 0.3382686 0.3546836
vt 0.3492119 0.3437403
vt 0.3492119 0.3546836
vt 0.3601553 0.3437403
vt 0.3601553 0.3546836
vt 0.6520827 0.01794535
vt 0.6628975 0.01794535
vt 0.6628975 0.02876005
vt 0.6520827 0.02876005
vt 0.6520827 0.03957477
vt 0.6520827 0.05038944
vt 0.6628975 0.03957477
vt 0.6628975 0.05038944
vt 0.641268 0.02876005
vt 0.641268 0.03957477
vt 0.6520827 0.02876005
vt 0.6520827 0.03957477
vt 0.6628975 0.02876005
vt 0.6628975 0.03957477
vt 0.6737121 0.02876005
vt 0.6737121 0.03957477
vt 0.6520827 0.01794535
vt 0.6628975 0.01794535
vt 0.6628975 0.02876005
vt 0.6520827 0.02876005
vt 0.6520827 0.03957477
vt 0.6520827 0.05038944
vt 0.6628975 0.03957477
vt 0.6628975 0.05038944
vt 0.641268 0.02876005
vt 0.641268 0.03957477
vt 0.6520827 0.02876005
vt 0.6520827 0.03957477
vt 0.6628975 0.02876005
vt 0.6628975 0.03957477
vt 0.6737121 0.02876005
vt 0.6737121 0.03957477
vt 0.6520827 0.01794535
vt 0.6628975 0.01794535
vt 0.6628975 0.02876005
vt 0.6520827 0.02876005
vt 0.6520827 0.03957477
vt 0.6520827 0.05038944
vt 0.6628975 0.03957477
vt 0.6628975 0.05038944
vt 0.641268 0.02876005
vt 0.641268 0.03957477
vt 0.6520827 0.02876005
vt 0.6520827 0.03957477
vt 0.6628975 0.02876005
vt 0.6628975 0.03957477
vt 0.6737121 0.02876005
vt 0.6737121 0.03957477
vt 0.6520827 0.01794535
vt 0.6628975 0.01794535
vt 0.6628975 0.02876005
vt 0.6520827 0.02876005
vt 0.6520827 0.03957477
vt 0.6520827 0.05038944
vt 0.6628975 0.03957477
vt 0.6628975 0.05038944
vt 0.641268 0.02876005
vt 0.641268 0.03957477
vt 0.6520827 0.02876005
vt 0.6520827 0.03957477
vt 0.6628975 0.02876005
vt 0.6628975 0.03957477
vt 0.6737121 0.02876005
vt 0.6737121 0.03957477
vt 0.6520827 0.01794535
vt 0.6628975 0.01794535
vt 0.6628975 0.02876005
vt 0.6520827 0.02876005
vt 0.6520827 0.03957477
vt 0.6520827 0.05038944
vt 0.6628975 0.03957477
vt 0.6628975 0.05038944
vt 0.641268 0.02876005
vt 0.641268 0.03957477
vt 0.6520827 0.02876005
vt 0.6520827 0.03957477
vt 0.6628975 0.02876005
vt 0.6628975 0.03957477
vt 0.6737121 0.02876005
vt 0.6737121 0.03957477
vt 0.6520827 0.01794535
vt 0.6628975 0.01794535
vt 0.6628975 0.02876005
vt 0.6520827 0.02876005
vt 0.6520827 0.03957477
vt 0.6520827 0.05038944
vt 0.6628975 0.03957477
vt 0.6628975 0.05038944
vt 0.641268 0.02876005
vt 0.641268 0.03957477
vt 0.6520827 0.02876005
vt 0.6520827 0.03957477
vt 0.6628975 0.02876005
vt 0.6628975 0.03957477
vt 0.6737121 0.02876005
vt 0.6737121 0.03957477
f 1/1/1 2/2/2 3/3/3
f 3/3/3 2/2/2 4/4/4
f 73/73/73 74/74/74 7/7/7
f 7/7/7 74/74/74 8/8/8
f 75/75/75 76/76/76 5/5/5
f 5/5/5 76/76/76 6/6/6
f 77/77/77 79/79/79 78/78/78
f 78/78/78 79/79/79 80/80/80
f 81/81/81 83/83/83 82/82/82
f 82/82/82 83/83/83 84/84/84
f 85/85/85 87/87/87 86/86/86
f 86/86/86 87/87/87 88/88/88
f 9/9/9 10/10/10 11/11/11
f 11/11/11 10/10/10 12/12/12
f 89/89/89 90/90/90 15/15/15
f 15/15/15 90/90/90 16/16/16
f 91/91/91 92/92/92 13/13/13
f 13/13/13 92/92/92 14/14/14
f 93/93/93 95/95/95 94/94/94
f 94/94/94 95/95/95 96/96/96
f 97/97/97 99/99/99 98/98/98
f 98/98/98 99/99/99 100/100/100
f 101/101/101 103/103/103 102/102/102
f 102/102/102 103/103/103 104/104/104
f 17/17/17 18/18/18 19/19/19
f 19/19/19 18/18/18 20/20/20
f 105/105/105 106/106/106 23/23/23
f 23/23/23 106/106/106 24/24/24
f 107/107/107 108/108/108 21/21/21
f 21/21/21 108/108/108 22/22/22
f 109/109/109 111/111/111 110/110/110
f 110/110/110 111/111/111 112/112/112
f 113/113/113 115/115/115 114/114/114
f 114/114/114 115/115/115 116/116/116
f 117/117/117 119/119/119 118/118/118
f 118/118/118 119/119/119 120/120/120
f 25/25/25 26/26/26 27/27/27
f 27/27/27 26/26/26 28/28/28
f 121/121/121 122/122/122 31/31/31
f 31/31/31 122/122/122 32/32/32
f 123/123/123 30/30/30 124/124/124
f 124/124/124 30/30/30 29/29/29
f 125/125/125 127/127/127 126/126/126
f 126/126/126 127/127/127 128/128/128
f 129/129/129 131/131/131 130/130/130
f 130/130/130 131/131/131 132/132/132
f 133/133/133 135/135/135 134/134/134
f 134/134/134 135/135/135 136/136/136
f 33/33/33 34/34/34 35/35/35
f 35/35/35 34/34/34 36/36/36
f 137/137/137 138/138/138 39/39/39
f 39/39/39 138/138/138 40/40/40
f 139/139/139 38/38/38 140/140/140
f 140/140/140 38/38/38 37/37/37
f 141/141/141 143/143/143 142/142/142
f 142/142/142 143/143/143 144/144/144
f 145/145/145 147/147/147 146/146/146
f 146/146/146 147/147/147 148/148/148
f 149/149/149 151/151/151 150/150/150
f 150/150/150 151/151/151 152/152/152
f 41/41/41 42/42/42 43/43/43
f 43/43/43 42/42/42 44/44/44
f 153/153/153 154/154/154 47/47/47
f 47/47/47 154/154/154 48/48/48
f 155/155/155 46/46/46 156/156/156
f 156/156/156 46/46/46 45/45/45
f 157/157/157 159/159/159 158/158/158
f 158/158/158 159/159/159 160/160/160
f 161/161/161 163/163/163 162/162/162
f 162/162/162 163/163/163 164/164/164
f 165/165/165 167/167/167 166/166/166
f 166/166/166 167/167/167 168/168/168
f 49/49/49 50/50/50 51/51/51
f 51/51/51 50/50/50 52/52/52
f 169/169/169 170/170/170 55/55/55
f 55/55/55 170/170/170 56/56/56
f 171/171/171 54/54/54 172/172/172
f 172/172/172 54/54/54 53/53/53
f 173/173/173 175/175/175 174/174/174
f 174/174/174 175/175/175 176/176/176
f 177/177/177 179/179/179 178/178/178
f 178/178/178 179/179/179 180/180/180
f 181/181/181 183/183/183 182/182/182
f 182/182/182 183/183/183 184/184/184
f 57/57/57 58/58/58 59/59/59
f 59/59/59 58/58/58 60/60/60
f 185/185/185 186/186/186 63/63/63
f 63/63/63 186/186/186 64/64/64
f 187/187/187 62/62/62 188/188/188
f 188/188/188 62/62/62 61/61/61
f 189/189/189 191/191/191 190/190/190
f 190/190/190 191/191/191 192/192/192
f 193/193/193 195/195/195 194/194/194
f 194/194/194 195/195/195 196/196/196
f 197/197/197 199/199/199 198/198/198
f 198/198/198 199/199/199 200/200/200
f 65/65/65 66/66/66 67/67/67
f 67/67/67 66/66/66 68/68/68
f 201/201/201 202/202/202 71/71/71
f 71/71/71 202/202/202 72/72/72
f 203/203/203 70/70/70 204/204/204
f 204/204/204 70/70/70 69/69/69
f 205/205/205 207/207/207 206/206/206
f 206/206/206 207/207/207 208/208/208
f 209/209/209 211/211/211 210/210/210
f 210/210/210 211/211/211 212/212/212
f 213/213/213 215/215/215 214/214/214
f 214/214/214 215/215/215 216/216/216
