mtllib Floor_15.mtl
usemtl Floor_15

g Floor_15
v 0.6250005 0 -1.250001
v 0.6250005 0.1178801 -1.250001
v 0.6250005 0 1.250001
v 0.6250005 0.1178801 1.250001
v 0.6191481 0.1178801 -1.250001
v 0.6191481 0 -1.250001
v 0.6191481 0.1178801 1.250001
v 0.6191481 0 1.250001
v -0.617697 0 1.250001
v -0.3051968 0 1.250001
v -0.3198037 0 1.250001
v 0.007303495 0 1.250001
v -0.007303495 0 1.250001
v 0.3198037 0 1.250001
v 0.3051968 0 1.250001
v 0.3051968 0.1178801 1.250001
v 0.3198037 0.1178801 1.250001
v -0.007303495 0.1178801 1.250001
v 0.007303495 0.1178801 1.250001
v -0.3198037 0.1178801 1.250001
v -0.3051968 0.1178801 1.250001
v -0.617697 0.1178801 1.250001
v 0.3051968 0 -1.250001
v 0.3198037 0 -1.250001
v -0.007303495 0 -1.250001
v 0.007303495 0 -1.250001
v -0.3198037 0 -1.250001
v -0.3051968 0 -1.250001
v -0.617697 0 -1.250001
v -0.617697 0.1178801 -1.250001
v -0.3051968 0.1178801 -1.250001
v -0.3198037 0.1178801 -1.250001
v 0.007303495 0.1178801 -1.250001
v -0.007303495 0.1178801 -1.250001
v 0.3198037 0.1178801 -1.250001
v 0.3051968 0.1178801 -1.250001
v -0.6250005 0.1178801 1.250001
v -0.6250005 0.1178801 -1.250001
v -0.6250005 0 1.250001
v -0.6250005 0 -1.250001
v 0.007303495 0.1178801 -1.250001
v 0.3051968 0.1178801 -1.250001
v 0.6250005 0 -1.250001
v 0.6250005 0.1178801 -1.250001
v 0.6191481 0.1178801 -1.250001
v 0.6250005 0.1178801 1.250001
v 0.6250005 0.1178801 -1.250001
v 0.6191481 0.1178801 1.250001
v 0.3051968 0.1178801 1.250001
v 0.007303495 0.1178801 1.250001
v -0.007303495 0.1178801 1.250001
v -0.3051968 0.1178801 1.250001
v -0.3198037 0.1178801 1.250001
v -0.617697 0.1178801 1.250001
v 0.6250005 0 1.250001
v 0.6250005 0 -1.250001
v 0.6191481 0 1.250001
v 0.6191481 0 -1.250001
v -0.617697 0.1178801 -1.250001
v -0.3198037 0.1178801 -1.250001
v -0.3051968 0.1178801 -1.250001
v -0.007303495 0.1178801 -1.250001
v 0.3198037 0 1.250001
v 0.3051968 0 1.250001
v 0.3051968 0 -1.250001
v 0.007303495 0 1.250001
v 0.007303495 0 -1.250001
v -0.007303495 0 1.250001
v -0.007303495 0 -1.250001
v -0.3051968 0 1.250001
v -0.3051968 0 -1.250001
v -0.3198037 0 1.250001
v -0.3198037 0 -1.250001
v -0.617697 0 1.250001
v -0.617697 0 -1.250001
v -0.3051968 0.1178801 1.250001
v -0.3198037 0.1178801 1.250001
v -0.3051968 0.1178801 -1.250001
v -0.3198037 0.1178801 -1.250001
v 0.007303495 0.1178801 1.250001
v -0.007303495 0.1178801 1.250001
v 0.007303495 0.1178801 -1.250001
v -0.007303495 0.1178801 -1.250001
v 0.3198037 0.1178801 1.250001
v 0.3051968 0.1178801 1.250001
v 0.3051968 0.1178801 -1.250001
v -0.3051968 0.1178801 -1.250001
v -0.3198037 0.1178801 -1.250001
v -0.3051968 0 -1.250001
v -0.3198037 0 -1.250001
v 0.007303495 0.1178801 -1.250001
v -0.007303495 0.1178801 -1.250001
v 0.007303495 0 -1.250001
v -0.007303495 0 -1.250001
v 0.3198037 0.1178801 -1.250001
v 0.3051968 0.1178801 -1.250001
v 0.3198037 0 -1.250001
v 0.3051968 0 -1.250001
v 0.3051968 0.1178801 1.250001
v 0.3198037 0.1178801 1.250001
v 0.3051968 0 1.250001
v 0.3198037 0 1.250001
v -0.007303495 0.1178801 1.250001
v 0.007303495 0.1178801 1.250001
v -0.007303495 0 1.250001
v 0.007303495 0 1.250001
v -0.3198037 0.1178801 1.250001
v -0.3051968 0.1178801 1.250001
v -0.3198037 0 1.250001
v -0.3051968 0 1.250001
v -0.617697 0.1178801 1.250001
v -0.6250005 0 1.250001
v -0.617697 0 1.250001
v 0.6250005 0 1.250001
v 0.6191481 0 1.250001
v 0.6250005 0.1178801 1.250001
v 0.6191481 0.1178801 1.250001
v 0.3198037 0.1178801 1.250001
v 0.3198037 0.1178801 -1.250001
v 0.6191481 0.1178801 1.250001
v 0.6191481 0.1178801 -1.250001
v 0.3198037 0 -1.250001
v 0.6191481 0 -1.250001
v 0.3198037 0.1178801 -1.250001
v 0.6191481 0.1178801 -1.250001
v -0.617697 0.1178801 -1.250001
v -0.617697 0 -1.250001
v -0.6250005 0 -1.250001
v -0.6250005 0.1178801 1.250001
v -0.6250005 0 1.250001
v -0.6250005 0.1178801 -1.250001
v -0.6250005 0 -1.250001
v -0.617697 0.1178801 1.250001
v -0.6250005 0.1178801 1.250001
v -0.617697 0.1178801 -1.250001
v -0.6250005 0.1178801 -1.250001

vn 1 0 0
vn 1 0 0
vn 1 0 0
vn 1 0 0
vn 0 0 -1
vn 0 0 -1
vn 0 1 0
vn 0 0 1
vn 0 0 1
vn 0 0 1
vn 0 0 1
vn 0 0 1
vn 0 0 1
vn 0 0 1
vn 0 0 1
vn 0 1 0
vn 0 0 1
vn 0 1 0
vn 0 1 0
vn 0 1 0
vn 0 1 0
vn 0 1 0
vn 0 0 -1
vn 0 -1 0
vn 0 0 -1
vn 0 0 -1
vn 0 0 -1
vn 0 0 -1
vn 0 0 -1
vn 0 1 0
vn 0 1 0
vn 0 1 0
vn 0 0 -1
vn 0 1 0
vn 0 1 0
vn 0 0 -1
vn 0 0 1
vn 0 0 -1
vn 0 -1 0
vn 0 -1 0
vn 0 1 0
vn 0 1 0
vn 0 0 -1
vn 0 0 -1
vn 0 1 0
vn 0 1 0
vn 0 1 0
vn 0 0 1
vn 0 0 1
vn 0 0 1
vn 0 0 1
vn 0 0 1
vn 0 0 1
vn 0 0 1
vn 0 -1 0
vn 0 -1 0
vn 0 -1 0
vn 0 -1 0
vn 0 0 -1
vn 0 0 -1
vn 0 0 -1
vn 0 0 -1
vn 0 -1 0
vn 0 -1 0
vn 0 -1 0
vn 0 -1 0
vn 0 -1 0
vn 0 -1 0
vn 0 -1 0
vn 0 -1 0
vn 0 -1 0
vn 0 -1 0
vn 0 -1 0
vn 0 -1 0
vn 0 -1 0
vn 0 1 0
vn 0 1 0
vn 0 1 0
vn 0 1 0
vn 0 1 0
vn 0 1 0
vn 0 1 0
vn 0 1 0
vn 0 1 0
vn 0 1 0
vn 0 1 0
vn 0 0 -1
vn 0 0 -1
vn 0 0 -1
vn 0 0 -1
vn 0 0 -1
vn 0 0 -1
vn 0 0 -1
vn 0 0 -1
vn 0 0 -1
vn 0 0 -1
vn 0 0 -1
vn 0 0 -1
vn 0 0 1
vn 0 0 1
vn 0 0 1
vn 0 0 1
vn 0 0 1
vn 0 0 1
vn 0 0 1
vn 0 0 1
vn 0 0 1
vn 0 0 1
vn 0 0 1
vn 0 0 1
vn 0 0 1
vn 0 0 1
vn 0 0 1
vn 0 0 1
vn 0 0 1
vn 0 0 1
vn 0 0 1
vn 0 1 0
vn 0 1 0
vn 0 1 0
vn 0 1 0
vn 0 0 -1
vn 0 0 -1
vn 0 0 -1
vn 0 0 -1
vn 0 0 -1
vn 0 0 -1
vn 0 0 -1
vn -1 0 0
vn -1 0 0
vn -1 0 0
vn -1 0 0
vn 0 1 0
vn 0 1 0
vn 0 1 0
vn 0 1 0

vt 0.2143633 0.8831384
vt 0.2245783 0.8831384
vt 0.2143633 0.8933535
vt 0.2245783 0.8933535
vt 0.0990124 0.9208658
vt 0.08879739 0.9208658
vt 0.1091951 0.9004681
vt 0.2143633 0.8933857
vt 0.2143633 0.8984311
vt 0.2143633 0.8971543
vt 0.2143633 0.8972139
vt 0.2143633 0.8958774
vt 0.2143633 0.8959371
vt 0.2143633 0.8946005
vt 0.2143633 0.8946602
vt 0.2334865 0.9035684
vt 0.2245783 0.8946005
vt 0.2322097 0.9035685
vt 0.2322694 0.9035685
vt 0.2309328 0.9035685
vt 0.2309925 0.9035685
vt 0.2297156 0.9035685
vt 0.2143633 0.9226917
vt 0.8353558 0.8448815
vt 0.2143633 0.9214149
vt 0.2143633 0.9214746
vt 0.2143633 0.920138
vt 0.2143633 0.9201977
vt 0.2143633 0.9189208
vt 0.2297156 0.9137834
vt 0.2309925 0.9137834
vt 0.2309328 0.9137835
vt 0.2245783 0.9214745
vt 0.2322097 0.9137834
vt 0.1079804 0.910683
vt 0.2245783 0.9226916
vt 0.0990124 0.8953606
vt 0.0990124 0.9157904
vt 0.8392162 0.8346666
vt 0.8392162 0.8448815
vt 0.2322694 0.9137834
vt 0.2334865 0.9137834
vt 0.08879739 0.920898
vt 0.0990124 0.920898
vt 0.1091951 0.910683
vt 0.1092274 0.9004681
vt 0.1092274 0.910683
vt 0.2245783 0.8933856
vt 0.2245783 0.8946602
vt 0.2245783 0.8958773
vt 0.2245783 0.895937
vt 0.2245783 0.8971542
vt 0.2245783 0.8972139
vt 0.2245783 0.8984311
vt 0.8341087 0.8346666
vt 0.8341087 0.8448815
vt 0.834141 0.8346666
vt 0.834141 0.8448815
vt 0.2245783 0.9189207
vt 0.2245783 0.9201379
vt 0.2245783 0.9201976
vt 0.2245783 0.9214147
vt 0.8353557 0.8346666
vt 0.8354154 0.8346666
vt 0.8354154 0.8448815
vt 0.8366326 0.8346666
vt 0.8366326 0.8448815
vt 0.8366923 0.8346666
vt 0.8366923 0.8448815
vt 0.8379095 0.8346666
vt 0.8379095 0.8448815
vt 0.8379692 0.8346666
vt 0.8379691 0.8448815
vt 0.8391864 0.8346666
vt 0.8391863 0.8448815
vt 0.1054266 0.9004681
vt 0.1053669 0.9004681
vt 0.1054266 0.910683
vt 0.1053669 0.9106831
vt 0.1067035 0.9004681
vt 0.1066438 0.9004681
vt 0.1067035 0.910683
vt 0.1066438 0.910683
vt 0.1079804 0.9004681
vt 0.1079207 0.9004681
vt 0.1079207 0.910683
vt 0.09901242 0.9170972
vt 0.0990124 0.9170375
vt 0.08879741 0.9170973
vt 0.08879742 0.9170376
vt 0.0990124 0.9183741
vt 0.0990124 0.9183143
vt 0.08879741 0.9183742
vt 0.08879741 0.9183145
vt 0.0990124 0.919651
vt 0.0990124 0.9195912
vt 0.08879739 0.919651
vt 0.08879739 0.9195913
vt 0.0990124 0.8915598
vt 0.0990124 0.8915001
vt 0.08879739 0.8915598
vt 0.08879739 0.8915001
vt 0.0990124 0.8928366
vt 0.0990124 0.8927769
vt 0.08879739 0.8928367
vt 0.08879739 0.892777
vt 0.09901242 0.8941135
vt 0.0990124 0.8940538
vt 0.08879741 0.8941135
vt 0.08879742 0.8940539
vt 0.0990124 0.8953307
vt 0.08879741 0.8953606
vt 0.08879741 0.8953307
vt 0.08879739 0.8902531
vt 0.08879739 0.8902853
vt 0.0990124 0.8902531
vt 0.09901239 0.8902853
vt 0.2335462 0.9035684
vt 0.2335462 0.9137834
vt 0.234761 0.9035684
vt 0.234761 0.9137834
vt 0.2143633 0.9227514
vt 0.2143633 0.9239662
vt 0.2245783 0.9227514
vt 0.2245783 0.9239662
vt 0.0990124 0.9158203
vt 0.08879741 0.9158204
vt 0.08879741 0.9157906
vt 0.223485 0.8942673
vt 0.2067362 0.9075258
vt 0.223485 0.9044822
vt 0.2081625 0.9095898
vt 0.1041497 0.9004681
vt 0.1041199 0.9004681
vt 0.1041498 0.910683
vt 0.1041199 0.910683
f 1/1/1 2/2/2 3/3/3
f 3/3/3 2/2/2 4/4/4
f 26/26/26 33/33/33 23/23/23
f 23/23/23 33/33/33 36/36/36
f 19/19/19 16/16/16 41/41/41
f 41/41/41 16/16/16 42/42/42
f 6/6/6 5/5/5 43/43/43
f 43/43/43 5/5/5 44/44/44
f 22/22/22 20/20/20 30/30/30
f 30/30/30 20/20/20 32/32/32
f 21/21/21 18/18/18 31/31/31
f 31/31/31 18/18/18 34/34/34
f 7/7/7 46/46/46 45/45/45
f 45/45/45 46/46/46 47/47/47
f 8/8/8 48/48/48 14/14/14
f 14/14/14 48/48/48 17/17/17
f 15/15/15 49/49/49 12/12/12
f 12/12/12 49/49/49 50/50/50
f 13/13/13 51/51/51 10/10/10
f 10/10/10 51/51/51 52/52/52
f 11/11/11 53/53/53 9/9/9
f 9/9/9 53/53/53 54/54/54
f 55/55/55 57/57/57 56/56/56
f 56/56/56 57/57/57 58/58/58
f 57/57/57 63/63/63 58/58/58
f 58/58/58 63/63/63 24/24/24
f 63/63/63 65/65/65 24/24/24
f 64/64/64 65/65/65 63/63/63
f 64/64/64 66/66/66 65/65/65
f 65/65/65 66/66/66 67/67/67
f 66/66/66 69/69/69 67/67/67
f 68/68/68 69/69/69 66/66/66
f 68/68/68 70/70/70 69/69/69
f 69/69/69 70/70/70 71/71/71
f 70/70/70 73/73/73 71/71/71
f 72/72/72 73/73/73 70/70/70
f 72/72/72 74/74/74 73/73/73
f 73/73/73 74/74/74 75/75/75
f 74/74/74 40/40/40 75/75/75
f 39/39/39 40/40/40 74/74/74
f 29/29/29 59/59/59 27/27/27
f 27/27/27 59/59/59 60/60/60
f 28/28/28 61/61/61 25/25/25
f 25/25/25 61/61/61 62/62/62
f 76/76/76 78/78/78 77/77/77
f 77/77/77 78/78/78 79/79/79
f 80/80/80 82/82/82 81/81/81
f 81/81/81 82/82/82 83/83/83
f 84/84/84 35/35/35 85/85/85
f 85/85/85 35/35/35 86/86/86
f 87/87/87 89/89/89 88/88/88
f 88/88/88 89/89/89 90/90/90
f 91/91/91 93/93/93 92/92/92
f 92/92/92 93/93/93 94/94/94
f 95/95/95 97/97/97 96/96/96
f 96/96/96 97/97/97 98/98/98
f 99/99/99 101/101/101 100/100/100
f 100/100/100 101/101/101 102/102/102
f 103/103/103 105/105/105 104/104/104
f 104/104/104 105/105/105 106/106/106
f 107/107/107 109/109/109 108/108/108
f 108/108/108 109/109/109 110/110/110
f 37/37/37 112/112/112 111/111/111
f 111/111/111 112/112/112 113/113/113
f 114/114/114 116/116/116 115/115/115
f 115/115/115 116/116/116 117/117/117
f 118/118/118 120/120/120 119/119/119
f 119/119/119 120/120/120 121/121/121
f 122/122/122 124/124/124 123/123/123
f 123/123/123 124/124/124 125/125/125
f 126/126/126 127/127/127 38/38/38
f 38/38/38 127/127/127 128/128/128
f 129/129/129 131/131/131 130/130/130
f 130/130/130 131/131/131 132/132/132
f 133/133/133 135/135/135 134/134/134
f 134/134/134 135/135/135 136/136/136
