mtllib Floor_07.mtl
usemtl Floor_07

g Floor_07
v 1.250001 0 -1.250001
v 1.250001 0.1178795 -1.250001
v 1.250001 0 1.250001
v 1.250001 0.1178795 1.250001
v -1.250001 0 -1.250001
v -1.250001 0.1178795 -1.250001
v -1.250001 0 1.250001
v -1.250001 0.1178795 1.250001
v 1.250001 0 1.250001
v 1.250001 0.1178795 1.250001
v -1.250001 0 1.250001
v -1.250001 0.1178795 1.250001
v -1.250001 0 -1.250001
v 1.250001 0 -1.250001
v -1.250001 0.1178795 -1.250001
v 1.250001 0.1178795 -1.250001
v 1.250001 0 1.250001
v 1.250001 0 -1.250001
v -1.250001 0 1.250001
v -1.250001 0 -1.250001
v -1.250001 0.1178795 1.250001
v -1.250001 0.1178795 -1.250001
v 1.250001 0.1178795 1.250001
v 1.250001 0.1178795 -1.250001

vn 1 0 0
vn 1 0 0
vn 1 0 0
vn 1 0 0
vn -1 0 0
vn -1 0 0
vn 0 0 1
vn 0 0 1
vn 0 0 1
vn 0 0 1
vn -1 0 0
vn -1 0 0
vn 0 0 -1
vn 0 0 -1
vn 0 0 -1
vn 0 0 -1
vn 0 -1 0
vn 0 -1 0
vn 0 -1 0
vn 0 -1 0
vn 0 1 0
vn 0 1 0
vn 0 1 0
vn 0 1 0

vt 0.9025884 0.9500943
vt 0.9119308 0.9500943
vt 0.9025884 0.9594367
vt 0.9119308 0.9594367
vt 0.9025884 0.9781216
vt 0.9119308 0.9781216
vt 0.9025884 0.9687791
vt 0.9119308 0.9687791
vt 0.9025884 0.9594367
vt 0.9119308 0.9594367
vt 0.9025884 0.9687791
vt 0.9119308 0.9687791
vt 0.9025884 0.9781216
vt 0.9025884 0.987464
vt 0.9119308 0.9781216
vt 0.9119308 0.987464
vt 0.8489518 0.8358969
vt 0.8489518 0.8452393
vt 0.8582942 0.8358969
vt 0.8582942 0.8452393
vt 0.9119308 0.9687791
vt 0.9119308 0.9781216
vt 0.9212732 0.9687791
vt 0.9212732 0.9781216
f 1/1/1 2/2/2 3/3/3
f 3/3/3 2/2/2 4/4/4
f 9/9/9 10/10/10 7/7/7
f 7/7/7 10/10/10 8/8/8
f 11/11/11 12/12/12 5/5/5
f 5/5/5 12/12/12 6/6/6
f 13/13/13 15/15/15 14/14/14
f 14/14/14 15/15/15 16/16/16
f 17/17/17 19/19/19 18/18/18
f 18/18/18 19/19/19 20/20/20
f 21/21/21 23/23/23 22/22/22
f 22/22/22 23/23/23 24/24/24
