mtllib KitchenDesk.mtl
usemtl KitchenDesk

g KitchenDesk
v 0.2392565 -0.001803419 -0.1673588
v 0.2790216 -0.001803419 -0.1275938
v 0.2673746 -0.001803419 -0.1557119
v 0.2790216 0.02183669 -0.1275938
v 0.2392565 0.02183669 -0.1673588
v 0.2673746 0.02183669 -0.1557119
v 0.2790216 -0.001803419 0.1275939
v 0.2392565 -0.001803419 0.1673589
v 0.2673746 -0.001803419 0.155712
v 0.2392565 0.02183669 0.1673589
v 0.2790216 0.02183669 0.1275939
v 0.2673746 0.02183669 0.155712
v -0.2215547 -0.001803419 -0.1275938
v -0.1817897 -0.001803419 -0.1673588
v -0.2099078 -0.001803419 -0.1557119
v -0.1817897 0.02183669 -0.1673588
v -0.2215547 0.02183669 -0.1275938
v -0.2099078 0.02183669 -0.1557119
v -0.1817897 -0.001803419 0.1673589
v -0.2215547 -0.001803419 0.1275939
v -0.2099078 -0.001803419 0.155712
v -0.2215547 0.02183669 0.1275939
v -0.1817897 0.02183669 0.1673589
v -0.2099078 0.02183669 0.155712
v -0.1609529 0.02183669 -0.04915335
v -0.1609529 -0.001803419 -0.04915335
v -0.1492546 0.02183669 -0.04256804
v -0.1492546 -0.001803419 -0.04256804
v -0.1406908 0.02183669 -0.02457665
v -0.1406908 -0.001803419 -0.02457665
v -0.1726512 0.02183669 -0.04256804
v -0.1726512 -0.001803419 -0.04256804
v -0.1375563 0.02183669 2.251898E-08
v -0.1375563 -0.001803419 2.251898E-08
v -0.1812149 0.02183669 -0.02457665
v -0.1812149 -0.001803419 -0.02457665
v -0.1406908 0.02183669 0.02457672
v -0.1406908 -0.001803419 0.02457672
v -0.1843495 0.0218367 4.503796E-08
v -0.1843495 -0.001803418 4.503796E-08
v -0.1492546 0.02183669 0.04256811
v -0.1492545 -0.001803419 0.04256811
v -0.1812149 0.02183669 0.02457672
v -0.1812149 -0.001803419 0.02457672
v -0.1609529 0.02183669 0.04915342
v -0.1609529 -0.001803419 0.04915342
v -0.1726512 0.02183669 0.04256813
v -0.1726512 -0.001803419 0.04256813
v 0.2392565 0.02183669 0.1673589
v 0.2392565 -0.001803419 -0.1673588
v 0.2673746 -0.001803419 -0.1557119
v 0.2790216 -0.001803419 -0.1275938
v 0.2392565 -0.001803419 0.1673589
v 0.2392565 0.02183669 0.1673589
v 0.2673746 0.02183669 0.155712
v -0.2215547 -0.001803419 0.1275939
v -0.2215547 0.02183669 0.1275939
v -0.2099078 0.02183669 0.155712
v -0.1817897 -0.001803419 -0.1673588
v -0.1817897 0.02183669 -0.1673588
v -0.2099078 0.02183669 -0.1557119
v -0.2215547 -0.001803419 0.1275939
v -0.1609529 -0.001803419 -0.04915335
v -0.1492546 -0.001803419 -0.04256804
v -0.1843495 -0.001803418 4.503796E-08
v -0.1406908 -0.001803419 -0.02457665
v -0.1609529 -0.001803419 -0.04915335
v -0.2215547 -0.001803419 -0.1275938
v -0.1726512 -0.001803419 -0.04256804
v -0.1406908 0.02183669 0.02457672
v -0.1375563 -0.001803419 2.251898E-08
v -0.1406908 -0.001803419 0.02457672
v -0.1406908 0.02183669 0.02457672
v -0.1726512 -0.001803419 0.04256813
v -0.1609529 -0.001803419 0.04915342
v -0.2215547 0.02183669 -0.1275938
v -0.1609529 0.02183669 -0.04915335
v -0.1812149 -0.001803419 0.02457672
v -0.1726512 -0.001803419 0.04256813
v -0.1609529 -0.001803419 0.04915342
v -0.1492545 -0.001803419 0.04256811
v -0.1492546 0.02183669 0.04256811
v -0.1726512 0.02183669 -0.04256804
v -0.1726512 -0.001803419 -0.04256804
v -0.1812149 -0.001803419 -0.02457665
v 0.2392565 0.02183669 -0.1673588
v -0.2215547 0.02183669 -0.1275938
v -0.2215547 0.02183669 0.1275939
v -0.1817897 0.02183669 0.1673589
v -0.2099078 0.02183669 0.155712
v -0.1812149 0.02183669 0.02457672
v -0.1609529 0.02183669 0.04915342
v 0.2790216 0.02183669 0.1275939
v 0.2673746 0.02183669 0.155712
v 0.2790216 0.02183669 -0.1275938
v -0.1375563 0.02183669 2.251898E-08
v -0.1726512 0.02183669 0.04256813
v 0.2790216 0.02183669 0.1275939
v -0.1817897 0.02183669 0.1673589
v 0.2673746 0.02183669 -0.1557119
v 0.2790216 0.02183669 -0.1275938
v 0.2673746 -0.001803419 0.155712
v 0.2790216 -0.001803419 0.1275939
v -0.2099078 -0.001803419 0.155712
v -0.1817897 -0.001803419 0.1673589
v -0.2099078 -0.001803419 -0.1557119
v -0.2215547 -0.001803419 -0.1275938
v 0.2790216 -0.001803419 -0.1275938
v 0.2392565 -0.001803419 0.1673589
v 0.2790216 -0.001803419 0.1275939
v 0.2673746 -0.001803419 0.155712
v -0.1375563 -0.001803419 2.251898E-08
v -0.1492545 -0.001803419 0.04256811
v -0.1817897 -0.001803419 0.1673589
v -0.2099078 -0.001803419 0.155712
v -0.1812149 -0.001803419 0.02457672
v -0.1843495 -0.001803418 4.503796E-08
v -0.1406908 -0.001803419 0.02457672
v -0.1609529 0.02183669 -0.04915335
v -0.1726512 0.02183669 -0.04256804
v -0.1843495 0.0218367 4.503796E-08
v -0.1492546 0.02183669 -0.04256804
v -0.1843495 0.0218367 4.503796E-08
v -0.1406908 0.02183669 -0.02457665
v 0.2673746 -0.001803419 -0.1557119
v 0.2392565 -0.001803419 -0.1673588
v -0.1406908 -0.001803419 -0.02457665
v -0.1817897 -0.001803419 -0.1673588
v -0.1492546 -0.001803419 -0.04256804
v -0.2099078 -0.001803419 -0.1557119
v -0.1812149 -0.001803419 -0.02457665
v -0.1375563 0.02183669 2.251898E-08
v -0.1492546 0.02183669 0.04256811
v -0.1726512 0.02183669 0.04256813
v -0.2099078 0.02183669 -0.1557119
v -0.1817897 0.02183669 -0.1673588
v -0.1812149 0.02183669 -0.02457665
v 0.2392565 0.02183669 -0.1673588
v -0.1492546 0.02183669 -0.04256804
v 0.2673746 0.02183669 -0.1557119
v -0.1406908 0.02183669 -0.02457665
v -0.1812149 0.02183669 0.02457672
v -0.1609529 0.02183669 0.04915342
v -0.1812149 0.02183669 -0.02457665

vn 0 0 -1
vn 1 0 0
vn 0.3826843 0 -0.9238792
vn 1 0 0
vn 0.3826843 0 -0.9238792
vn 0.9238792 0 -0.3826842
vn 1 0 0
vn 0 0 1
vn 0.9238793 0 0.382684
vn 0 1 0
vn 0.9238794 0 0.3826838
vn 0.3826829 0 0.9238797
vn -1 0 0
vn 0 0 -1
vn -0.9238795 0 -0.3826835
vn 0 0 -1
vn -0.9238795 0 -0.3826835
vn -0.3826842 0 -0.9238792
vn 0 0 1
vn -1 0 0
vn -0.3826828 0 0.9238798
vn -1 0 0
vn -0.3826829 0 0.9238797
vn -0.9238796 0 0.3826832
vn 0.4905457 0 0.8714155
vn -0.4905455 0 0.8714157
vn -0.4905448 0 0.8714159
vn -0.4905458 0 0.8714154
vn -0.9029302 0 0.4297872
vn -0.9029297 0 0.4297882
vn 0 1 0
vn 0.4905454 0 0.8714157
vn -0.9919645 0 0.1265164
vn -0.9919646 0 0.126516
vn 0.9919643 0 0.1265178
vn 0.9919642 0 0.1265188
vn 0 1 0
vn -0.9919646 0 -0.1265159
vn 0 1 0
vn 0.9919643 0 -0.1265181
vn 0 1 0
vn -0.9029305 0 -0.4297866
vn 0.9919643 0 -0.1265181
vn 0.9919642 0 -0.1265189
vn 0.4905445 0 -0.8714162
vn 0 -1 0
vn 0.9029306 0 -0.4297864
vn 0 -1 0
vn 0 0 1
vn 0.3826843 0 -0.9238792
vn 0.9238789 0 -0.3826847
vn 0.9238793 0 -0.382684
vn 0.3826829 0 0.9238797
vn 0.3826829 0 0.9238798
vn 0.9238791 0 0.3826845
vn -0.9238796 0 0.3826832
vn -0.9238796 0 0.3826832
vn -0.3826826 0 0.9238799
vn -0.3826843 0 -0.9238792
vn -0.3826845 0 -0.9238791
vn -0.9238795 0 -0.3826834
vn 0 -1 0
vn 0.4905451 0 0.8714159
vn -0.9029301 0 0.4297873
vn 0.9919643 0 0.1265178
vn -0.9919645 0 0.1265165
vn 0 -1 0
vn 0 -1 0
vn 0 -1 0
vn -0.9919646 0 -0.1265159
vn -0.9919646 0 -0.1265159
vn -0.9029312 0 -0.4297853
vn -0.9029303 0 -0.429787
vn 0.4905441 0 -0.8714163
vn 0.4905439 0 -0.8714165
vn 0 1 0
vn 0 1 0
vn 0.9029308 0 -0.4297862
vn 0.9029314 0 -0.4297848
vn -0.4905448 0 -0.871416
vn -0.4905453 0 -0.8714157
vn -0.4905443 0 -0.8714163
vn 0.9029304 0 0.4297869
vn 0.9029312 0 0.4297853
vn 0.9029305 0 0.4297866
vn 0 0 -1
vn -1 0 0
vn 0 1 0
vn 0 1 0
vn 0 1 0
vn 0 1 0
vn 0 1 0
vn 0 1 0
vn 0 1 0
vn 0 1 0
vn 0 1 0
vn 0 1 0
vn 1 0 0
vn 0 0 1
vn 0.3826843 0 -0.9238792
vn 0.9238795 0 -0.3826834
vn 0.3826829 0 0.9238797
vn 0.9238796 0 0.3826832
vn -0.9238796 0 0.3826832
vn -0.3826832 0 0.9238796
vn -0.382684 0 -0.9238793
vn -0.9238795 0 -0.3826834
vn 0 -1 0
vn 0 -1 0
vn 0 -1 0
vn 0 -1 0
vn 0 -1 0
vn 0 -1 0
vn 0 -1 0
vn 0 -1 0
vn 0 -1 0
vn 0 -1 0
vn 0 -1 0
vn -0.4905444 0 0.8714162
vn 0.490546 0 0.8714154
vn 0.9919643 0 -0.1265173
vn -0.9029307 0 0.4297863
vn 0.9919645 0 0.1265168
vn -0.9919645 0 0.1265169
vn 0 -1 0
vn 0 -1 0
vn 0 -1 0
vn 0 -1 0
vn 0 -1 0
vn 0 -1 0
vn 0 -1 0
vn -0.9919646 0 -0.1265159
vn -0.9029297 0 -0.4297883
vn 0.4905447 0 -0.871416
vn 0 1 0
vn 0 1 0
vn 0 1 0
vn 0 1 0
vn 0 1 0
vn 0 1 0
vn 0 1 0
vn 0.9029299 0 -0.4297878
vn -0.4905438 0 -0.8714166
vn 0.9029297 0 0.4297882

vt 0.9206495 0.911217
vt 0.9187195 0.9124769
vt 0.920643 0.9122409
vt 0.9195148 0.912482
vt 0.9214448 0.9112221
vt 0.9195214 0.9114581
vt 0.9186641 0.9210624
vt 0.9196645 0.9096349
vt 0.9186575 0.9220862
vt 0.9058943 0.9099399
vt 0.9194594 0.9210675
vt 0.918856 0.9106486
vt 0.9066095 0.9129343
vt 0.9207409 0.8970516
vt 0.9066161 0.9119104
vt 0.9215362 0.8970566
vt 0.9058142 0.9129292
vt 0.9215428 0.8960327
vt 0.9198465 0.8954704
vt 0.9065541 0.9215198
vt 0.9198596 0.8944465
vt 0.9057589 0.9215146
vt 0.9190513 0.8954601
vt 0.9057522 0.9225385
vt 0.9000009 0.9125235
vt 0.9007961 0.9125348
vt 0.8999945 0.9129752
vt 0.9007897 0.9129864
vt 0.8946514 0.9127395
vt 0.8954467 0.9127455
vt 0.898832 0.8960816
vt 0.9008025 0.9120833
vt 0.8946451 0.913573
vt 0.8954405 0.913579
vt 0.8972305 0.9127473
vt 0.8964353 0.9127423
vt 0.9010909 0.8971568
vt 0.8954341 0.9144125
vt 0.900264 0.895688
vt 0.89643 0.9135759
vt 0.9016961 0.8968687
vt 0.8954291 0.9150829
vt 0.8972201 0.9144143
vt 0.8964249 0.9144094
vt 0.8990092 0.9125235
vt 0.9107216 0.8964752
vt 0.897216 0.9150847
vt 0.9109432 0.8960816
vt 0.9188693 0.9096247
vt 0.9206495 0.911217
vt 0.9187261 0.911453
vt 0.9187195 0.9124769
vt 0.9196645 0.9096349
vt 0.9188693 0.9096247
vt 0.9194528 0.9220914
vt 0.9065541 0.9215198
vt 0.9057589 0.9215146
vt 0.9190644 0.8944362
vt 0.9207409 0.8970516
vt 0.9215362 0.8970566
vt 0.9058208 0.9119053
vt 0.9080827 0.8944362
vt 0.9007961 0.9125348
vt 0.8954518 0.912075
vt 0.89643 0.9135759
vt 0.8954467 0.9127455
vt 0.9140288 0.8964752
vt 0.9166677 0.8944362
vt 0.9138073 0.8960816
vt 0.8946388 0.9144065
vt 0.8954405 0.913579
vt 0.8954341 0.9144125
vt 0.8946388 0.9144065
vt 0.8982075 0.9120833
vt 0.898214 0.9125348
vt 0.8959715 0.8944362
vt 0.8986105 0.8964752
vt 0.8964249 0.9144094
vt 0.8964207 0.9150797
vt 0.898214 0.9125348
vt 0.8982204 0.9129865
vt 0.8990157 0.9129752
vt 0.8972347 0.9120768
vt 0.8964394 0.9120719
vt 0.8964353 0.9127423
vt 0.9214448 0.9112221
vt 0.9058142 0.9129292
vt 0.9045566 0.8944362
vt 0.9058943 0.8957741
vt 0.9055025 0.8948281
vt 0.9010909 0.8957934
vt 0.9019177 0.8964752
vt 0.9045566 0.9112778
vt 0.9055026 0.9108859
vt 0.8959715 0.9112778
vt 0.900264 0.8972623
vt 0.9016961 0.8960816
vt 0.9194594 0.9210675
vt 0.9190513 0.8954601
vt 0.9214382 0.912246
vt 0.9195148 0.912482
vt 0.9196513 0.9106588
vt 0.9186641 0.9210624
vt 0.9065475 0.9225436
vt 0.9198465 0.8954704
vt 0.9207475 0.8960276
vt 0.9066095 0.9129343
vt 0.9166677 0.9112778
vt 0.906745 0.9099399
vt 0.9080827 0.9112778
vt 0.9071368 0.9108859
vt 0.9123752 0.8972623
vt 0.9109432 0.8968687
vt 0.906745 0.8957741
vt 0.9071368 0.8948281
vt 0.9115484 0.8957934
vt 0.9123752 0.895688
vt 0.9115484 0.8971568
vt 0.9000009 0.9125235
vt 0.9000073 0.9120719
vt 0.8972253 0.9135808
vt 0.8946565 0.9120691
vt 0.8972253 0.9135808
vt 0.8946514 0.9127395
vt 0.9176136 0.9108859
vt 0.9180055 0.9099399
vt 0.913202 0.8971568
vt 0.9180055 0.8957741
vt 0.9138073 0.8968687
vt 0.9176136 0.8948281
vt 0.913202 0.8957934
vt 0.8946451 0.913573
vt 0.8946338 0.9150769
vt 0.8990028 0.9120719
vt 0.8950256 0.8948281
vt 0.8946338 0.8957741
vt 0.8994372 0.8957934
vt 0.8946338 0.9099399
vt 0.898832 0.8968687
vt 0.8950256 0.9108859
vt 0.8994372 0.8971568
vt 0.8972201 0.9144143
vt 0.8990092 0.9125235
vt 0.8972305 0.9127473
f 16/16/16 1/1/1 14/14/14
f 16/16/16 86/86/86 1/1/1
f 22/22/22 13/13/13 20/20/20
f 22/22/22 87/87/87 13/13/13
f 4/4/4 7/7/7 2/2/2
f 4/4/4 98/98/98 7/7/7
f 49/49/49 19/19/19 8/8/8
f 49/49/49 99/99/99 19/19/19
f 5/5/5 3/3/3 50/50/50
f 5/5/5 100/100/100 3/3/3
f 6/6/6 52/52/52 51/51/51
f 6/6/6 101/101/101 52/52/52
f 53/53/53 12/12/12 54/54/54
f 53/53/53 102/102/102 12/12/12
f 9/9/9 11/11/11 55/55/55
f 9/9/9 103/103/103 11/11/11
f 56/56/56 24/24/24 57/57/57
f 56/56/56 104/104/104 24/24/24
f 21/21/21 23/23/23 58/58/58
f 21/21/21 105/105/105 23/23/23
f 59/59/59 18/18/18 60/60/60
f 59/59/59 106/106/106 18/18/18
f 15/15/15 17/17/17 61/61/61
f 15/15/15 107/107/107 17/17/17
f 27/27/27 26/26/26 28/28/28
f 27/27/27 119/119/119 26/26/26
f 25/25/25 32/32/32 63/63/63
f 25/25/25 120/120/120 32/32/32
f 40/40/40 43/43/43 44/44/44
f 40/40/40 121/121/121 43/43/43
f 29/29/29 64/64/64 30/30/30
f 29/29/29 122/122/122 64/64/64
f 35/35/35 65/65/65 36/36/36
f 35/35/35 123/123/123 65/65/65
f 33/33/33 66/66/66 34/34/34
f 33/33/33 124/124/124 66/66/66
f 70/70/70 71/71/71 38/38/38
f 70/70/70 132/132/132 71/71/71
f 42/42/42 73/73/73 72/72/72
f 42/42/42 133/133/133 73/73/73
f 74/74/74 45/45/45 75/75/75
f 74/74/74 134/134/134 45/45/45
f 78/78/78 47/47/47 79/79/79
f 78/78/78 142/142/142 47/47/47
f 80/80/80 82/82/82 81/81/81
f 80/80/80 143/143/143 82/82/82
f 83/83/83 85/85/85 84/84/84
f 83/83/83 144/144/144 85/85/85
f 88/88/88 90/90/90 89/89/89
f 89/89/89 92/92/92 88/88/88
f 92/92/92 89/89/89 41/41/41
f 97/97/97 88/88/88 92/92/92
f 91/91/91 88/88/88 97/97/97
f 39/39/39 88/88/88 91/91/91
f 89/89/89 10/10/10 41/41/41
f 76/76/76 88/88/88 39/39/39
f 37/37/37 41/41/41 10/10/10
f 76/76/76 39/39/39 137/137/137
f 76/76/76 137/137/137 31/31/31
f 76/76/76 31/31/31 77/77/77
f 96/96/96 37/37/37 10/10/10
f 77/77/77 136/136/136 76/76/76
f 135/135/135 76/76/76 136/136/136
f 136/136/136 77/77/77 139/139/139
f 138/138/138 136/136/136 139/139/139
f 139/139/139 141/141/141 138/138/138
f 141/141/141 96/96/96 138/138/138
f 96/96/96 95/95/95 138/138/138
f 95/95/95 96/96/96 10/10/10
f 95/95/95 140/140/140 138/138/138
f 93/93/93 95/95/95 10/10/10
f 10/10/10 94/94/94 93/93/93
f 110/110/110 111/111/111 109/109/109
f 108/108/108 110/110/110 109/109/109
f 108/108/108 109/109/109 112/112/112
f 118/118/118 112/112/112 109/109/109
f 109/109/109 113/113/113 118/118/118
f 109/109/109 114/114/114 113/113/113
f 113/113/113 114/114/114 46/46/46
f 108/108/108 112/112/112 126/126/126
f 125/125/125 108/108/108 126/126/126
f 112/112/112 127/127/127 126/126/126
f 127/127/127 129/129/129 126/126/126
f 128/128/128 126/126/126 129/129/129
f 128/128/128 129/129/129 67/67/67
f 114/114/114 62/62/62 46/46/46
f 114/114/114 115/115/115 62/62/62
f 62/62/62 48/48/48 46/46/46
f 62/62/62 116/116/116 48/48/48
f 62/62/62 117/117/117 116/116/116
f 117/117/117 62/62/62 68/68/68
f 68/68/68 128/128/128 67/67/67
f 68/68/68 130/130/130 128/128/128
f 131/131/131 117/117/117 68/68/68
f 67/67/67 69/69/69 68/68/68
f 69/69/69 131/131/131 68/68/68
