mtllib KitchenTable_02.mtl
usemtl KitchenTable_02

g KitchenTable_02
v 0.6569373 0.7759392 -0.4164105
v -0.6569373 0.7759392 -0.4164105
v 0.6569373 0.7759392 0.4164105
v -0.6569373 0.7759392 0.4164105
v 0.6569373 0.8317387 -0.4164105
v -0.6569373 0.8317387 -0.4164105
v 0.6569373 0.8317387 0.4164105
v -0.6569373 0.8317387 0.4164105
v -0.6656156 0.8155497 -0.4528973
v -0.7125815 0.8155497 -0.4059314
v -0.7451778 0.8155497 -0.4867096
v -0.7349652 0.870343 -0.524834
v -0.7819311 0.870343 -0.4778681
v 0.7125815 0.8155497 -0.4059315
v 0.6656156 0.8155497 -0.4528973
v 0.7451778 0.8155497 -0.4867097
v 0.7819311 0.870343 -0.4778682
v 0.7349652 0.870343 -0.524834
v -0.7125815 0.8155497 0.4059315
v -0.6656156 0.8155497 0.4528973
v -0.7451778 0.8155497 0.4867097
v -0.7819311 0.870343 0.4778682
v -0.7349652 0.870343 0.524834
v 0.6656156 0.8155497 0.4528973
v 0.7125815 0.8155497 0.4059314
v 0.7451778 0.8155497 0.4867096
v 0.7349652 0.870343 0.524834
v 0.7819311 0.870343 0.4778681
v 0.7349652 0.8155497 -0.524834
v 0.7819311 0.8155497 -0.4778682
v 0.7493347 0.8155497 -0.4910217
v -0.7819311 0.8155497 -0.4778681
v -0.7349652 0.8155497 -0.524834
v -0.7493347 0.8155497 -0.4910216
v 0.7819311 0.8155497 0.4778681
v 0.7349652 0.8155497 0.524834
v 0.7493347 0.8155497 0.4910216
v -0.7349652 0.8155497 0.524834
v -0.7819311 0.8155497 0.4778682
v -0.7493347 0.8155497 0.4910217
v 0.6656156 0.7759392 -0.4528973
v 0.7125815 0.7759392 -0.4059315
v 0.6733061 0.7759392 -0.4271438
v -0.7125815 0.7759392 -0.4059314
v -0.6656156 0.7759392 -0.4528973
v -0.6733061 0.7759392 -0.4271437
v 0.7125815 0.7759392 0.4059314
v 0.6656156 0.7759392 0.4528973
v 0.6733061 0.7759392 0.4271437
v -0.6656156 0.7759392 0.4528973
v -0.7125815 0.7759392 0.4059315
v -0.6733061 0.7759392 0.4271438
v -0.5338826 -0.001570231 -0.4053922
v -0.5338826 -0.001570231 -0.3135732
v -0.5338826 0.824945 -0.4053922
v -0.6257016 -0.001570231 -0.4053922
v -0.6257016 -0.001570231 -0.3135732
v -0.6257016 0.824945 -0.4053922
v -0.6257016 0.824945 -0.3135732
v -0.5338826 0.824945 -0.3135732
v -0.5338826 -0.001570231 0.3176104
v -0.5338825 -0.001570231 0.4094294
v -0.5338826 0.824945 0.3176104
v -0.6257016 -0.001570231 0.3176104
v -0.6257016 -0.001570231 0.4094294
v -0.6257016 0.824945 0.3176104
v -0.6257016 0.824945 0.4094294
v -0.5338825 0.824945 0.4094294
v 0.6257011 -0.001570231 0.3176104
v 0.6257011 -0.001570231 0.4094294
v 0.6257011 0.824945 0.3176104
v 0.5338821 -0.001570231 0.3176104
v 0.5338821 -0.001570231 0.4094294
v 0.5338821 0.824945 0.3176104
v 0.5338821 0.824945 0.4094294
v 0.6257011 0.824945 0.4094294
v 0.6257011 -0.001570231 -0.4053924
v 0.6257011 -0.001570231 -0.3135734
v 0.6257011 0.824945 -0.4053924
v 0.533882 -0.001570231 -0.4053924
v 0.5338821 -0.001570231 -0.3135734
v 0.533882 0.824945 -0.4053924
v 0.5338821 0.824945 -0.3135734
v 0.6257011 0.824945 -0.3135734
v -0.7349652 0.870343 -0.524834
v 0.7349652 0.870343 -0.524834
v -0.7819311 0.870343 0.4778682
v -0.7819311 0.870343 -0.4778681
v 0.7819311 0.870343 -0.4778682
v 0.7819311 0.870343 0.4778681
v 0.7349652 0.870343 0.524834
v -0.7349652 0.870343 0.524834
v -0.7349652 0.8155497 -0.524834
v 0.7349652 0.8155497 -0.524834
v 0.7819311 0.8155497 -0.4778682
v 0.7125815 0.8155497 -0.4059315
v 0.7819311 0.8155497 0.4778681
v 0.7125815 0.8155497 0.4059314
v 0.7349652 0.8155497 0.524834
v 0.6656156 0.8155497 0.4528973
v -0.7349652 0.8155497 0.524834
v -0.6656156 0.8155497 0.4528973
v -0.7819311 0.8155497 0.4778682
v -0.7125815 0.8155497 0.4059315
v -0.7819311 0.8155497 -0.4778681
v -0.7125815 0.8155497 -0.4059314
v 0.6733061 0.7759392 -0.4271438
v 0.6569373 0.7759392 -0.4164105
v 0.7125815 0.7759392 -0.4059315
v 0.6569373 0.7759392 0.4164105
v 0.7125815 0.7759392 0.4059314
v -0.6569373 0.7759392 0.4164105
v -0.7125815 0.7759392 0.4059315
v -0.6569373 0.7759392 -0.4164105
v -0.6733061 0.7759392 -0.4271437
v -0.7125815 0.7759392 -0.4059314
v 0.6733061 0.7759392 0.4271437
v 0.6569373 0.7759392 0.4164105
v 0.6656156 0.7759392 0.4528973
v -0.6656156 0.7759392 0.4528973
v -0.6733061 0.7759392 0.4271438
v -0.6569373 0.7759392 0.4164105
v 0.6569373 0.8317387 0.4164105
v -0.6569373 0.8317387 0.4164105
v -0.6569373 0.7759392 -0.4164105
v -0.6569373 0.8317387 -0.4164105
v 0.6569373 0.7759392 -0.4164105
v 0.6569373 0.8317387 -0.4164105
v -0.6569373 0.7759392 0.4164105
v -0.6569373 0.8317387 0.4164105
v -0.6569373 0.7759392 -0.4164105
v -0.6569373 0.8317387 -0.4164105
v 0.6569373 0.7759392 -0.4164105
v 0.6569373 0.8317387 -0.4164105
v 0.6569373 0.7759392 0.4164105
v 0.6569373 0.8317387 0.4164105
v 0.7125815 0.8155497 -0.4059315
v 0.7451778 0.8155497 -0.4867097
v 0.6656156 0.8155497 -0.4528973
v -0.7125815 0.8155497 0.4059315
v -0.7451778 0.8155497 0.4867097
v -0.6656156 0.8155497 0.4528973
v 0.7349652 0.8155497 -0.524834
v 0.7493347 0.8155497 -0.4910217
v 0.7819311 0.8155497 -0.4778682
v -0.7819311 0.8155497 -0.4778681
v -0.7493347 0.8155497 -0.4910216
v -0.7349652 0.8155497 -0.524834
v 0.7819311 0.8155497 0.4778681
v 0.7493347 0.8155497 0.4910216
v 0.7349652 0.8155497 0.524834
v -0.7349652 0.8155497 0.524834
v -0.7493347 0.8155497 0.4910217
v -0.7819311 0.8155497 0.4778682
v 0.6656156 0.7759392 -0.4528973
v 0.6733061 0.7759392 -0.4271438
v 0.7125815 0.7759392 -0.4059315
v -0.7125815 0.7759392 -0.4059314
v -0.6733061 0.7759392 -0.4271437
v -0.6656156 0.7759392 -0.4528973
v 0.7125815 0.7759392 0.4059314
v 0.6733061 0.7759392 0.4271437
v 0.6656156 0.7759392 0.4528973
v -0.6656156 0.7759392 0.4528973
v -0.6733061 0.7759392 0.4271438
v -0.7125815 0.7759392 0.4059315
v -0.7819311 0.8155497 -0.4778681
v -0.7349652 0.8155497 -0.524834
v -0.7819311 0.870343 -0.4778681
v -0.7349652 0.870343 -0.524834
v 0.7819311 0.870343 -0.4778682
v 0.7349652 0.870343 -0.524834
v 0.7819311 0.8155497 -0.4778682
v 0.7349652 0.8155497 -0.524834
v 0.7349652 0.870343 0.524834
v 0.7819311 0.870343 0.4778681
v 0.7349652 0.8155497 0.524834
v 0.7819311 0.8155497 0.4778681
v -0.7819311 0.870343 0.4778682
v -0.7349652 0.870343 0.524834
v -0.7819311 0.8155497 0.4778682
v -0.7349652 0.8155497 0.524834
v -0.6656156 0.8155497 -0.4528973
v -0.7125815 0.8155497 -0.4059314
v -0.6656156 0.7759392 -0.4528973
v -0.7125815 0.7759392 -0.4059314
v -0.6656156 0.7759392 0.4528973
v -0.7125815 0.7759392 0.4059315
v -0.6656156 0.8155497 0.4528973
v -0.7125815 0.7759392 0.4059315
v -0.7125815 0.8155497 0.4059315
v -0.6656156 0.8155497 0.4528973
v 0.6656156 0.8155497 0.4528973
v 0.7125815 0.8155497 0.4059314
v 0.6656156 0.7759392 0.4528973
v 0.7125815 0.7759392 0.4059314
v 0.6656156 0.7759392 -0.4528973
v 0.7125815 0.7759392 -0.4059315
v 0.6656156 0.8155497 -0.4528973
v 0.7125815 0.8155497 -0.4059315
v -0.6656156 0.8155497 -0.4528973
v -0.6656156 0.7759392 -0.4528973
v 0.6656156 0.8155497 -0.4528973
v 0.6656156 0.7759392 -0.4528973
v -0.5338826 -0.001570231 -0.4053922
v -0.5338826 -0.001570231 -0.3135732
v -0.6257016 -0.001570231 -0.4053922
v -0.5338826 -0.001570231 -0.4053922
v -0.5338826 0.824945 -0.4053922
v -0.6257016 -0.001570231 -0.3135732
v -0.6257016 -0.001570231 -0.4053922
v -0.6257016 0.824945 -0.4053922
v -0.6257016 0.824945 -0.3135732
v -0.6257016 0.824945 -0.4053922
v -0.5338826 0.824945 -0.3135732
v -0.5338826 0.824945 -0.4053922
v -0.5338826 -0.001570231 -0.3135732
v -0.6257016 -0.001570231 -0.3135732
v -0.5338826 0.824945 -0.3135732
v -0.6257016 0.824945 -0.3135732
v -0.5338826 -0.001570231 0.3176104
v -0.5338825 -0.001570231 0.4094294
v -0.6257016 -0.001570231 0.3176104
v -0.5338826 -0.001570231 0.3176104
v -0.5338826 0.824945 0.3176104
v -0.6257016 -0.001570231 0.4094294
v -0.6257016 -0.001570231 0.3176104
v -0.6257016 0.824945 0.3176104
v -0.6257016 0.824945 0.4094294
v -0.6257016 0.824945 0.3176104
v -0.5338825 0.824945 0.4094294
v -0.5338826 0.824945 0.3176104
v -0.5338825 -0.001570231 0.4094294
v -0.6257016 -0.001570231 0.4094294
v -0.5338825 0.824945 0.4094294
v -0.6257016 0.824945 0.4094294
v 0.6257011 -0.001570231 0.3176104
v 0.6257011 -0.001570231 0.4094294
v 0.5338821 -0.001570231 0.3176104
v 0.6257011 -0.001570231 0.3176104
v 0.6257011 0.824945 0.3176104
v 0.5338821 -0.001570231 0.4094294
v 0.5338821 -0.001570231 0.3176104
v 0.5338821 0.824945 0.3176104
v 0.5338821 0.824945 0.4094294
v 0.5338821 0.824945 0.3176104
v 0.6257011 0.824945 0.4094294
v 0.6257011 0.824945 0.3176104
v 0.6257011 -0.001570231 0.4094294
v 0.5338821 -0.001570231 0.4094294
v 0.6257011 0.824945 0.4094294
v 0.5338821 0.824945 0.4094294
v 0.6257011 -0.001570231 -0.4053924
v 0.6257011 -0.001570231 -0.3135734
v 0.533882 -0.001570231 -0.4053924
v 0.6257011 -0.001570231 -0.4053924
v 0.6257011 0.824945 -0.4053924
v 0.5338821 -0.001570231 -0.3135734
v 0.533882 -0.001570231 -0.4053924
v 0.533882 0.824945 -0.4053924
v 0.5338821 0.824945 -0.3135734
v 0.533882 0.824945 -0.4053924
v 0.6257011 0.824945 -0.3135734
v 0.6257011 0.824945 -0.4053924
v 0.6257011 -0.001570231 -0.3135734
v 0.5338821 -0.001570231 -0.3135734
v 0.6257011 0.824945 -0.3135734
v 0.5338821 0.824945 -0.3135734

vn 0 -1 0
vn 0 -1 0
vn 0 0 -1
vn 0 0 -1
vn 0 -1 0
vn 0 -1 0
vn 0 0 -1
vn 0 0 -1
vn 0 -1 0
vn -1 0 0
vn 0 -1 0
vn 0 1 0
vn 0 1 0
vn 1 0 0
vn 0 -1 0
vn 0 -1 0
vn 0 1 0
vn 0 1 0
vn -1 0 0
vn 0 0 1
vn 0 -1 0
vn 0 1 0
vn 0 1 0
vn 0 0 1
vn 1 0 0
vn 0 -1 0
vn 0 1 0
vn 0 1 0
vn 0 0 -1
vn 1 0 0
vn 0 -1 0
vn -1 0 0
vn 0 0 -1
vn 0 -1 0
vn 1 0 0
vn 0 0 1
vn 0 -1 0
vn 0 0 1
vn -1 0 0
vn 0 -1 0
vn 0 -1 0
vn 1 0 0
vn 0 -1 0
vn -1 0 0
vn 0 -1 0
vn 0 -1 0
vn 1 0 0
vn 0 0 1
vn 0 -1 0
vn 0 0 1
vn -1 0 0
vn 0 -1 0
vn 0 -1 0
vn 0 -1 0
vn 1 0 0
vn 0 -1 0
vn 0 -1 0
vn 0 0 -1
vn -1 0 0
vn 1 0 0
vn 0 -1 0
vn 0 -1 0
vn 1 0 0
vn 0 -1 0
vn 0 -1 0
vn 0 0 -1
vn -1 0 0
vn 1 0 0
vn 0 -1 0
vn 0 -1 0
vn 1 0 0
vn 0 -1 0
vn 0 -1 0
vn 0 0 -1
vn -1 0 0
vn 1 0 0
vn 0 -1 0
vn 0 -1 0
vn 1 0 0
vn 0 -1 0
vn 0 -1 0
vn 0 0 -1
vn -1 0 0
vn 1 0 0
vn 0 0 -1
vn 0 0 -1
vn -1 0 0
vn -1 0 0
vn 1 0 0
vn 1 0 0
vn 0 0 1
vn 0 0 1
vn 0 -1 0
vn 0 -1 0
vn 0 -1 0
vn 0 -1 0
vn 0 -1 0
vn 0 -1 0
vn 0 -1 0
vn 0 -1 0
vn 0 -1 0
vn 0 -1 0
vn 0 -1 0
vn 0 -1 0
vn 0 -1 0
vn 0 -1 0
vn 0 -1 0
vn 0 -1 0
vn 0 -1 0
vn 0 -1 0
vn 0 -1 0
vn 0 -1 0
vn 0 -1 0
vn 0 -1 0
vn 0 -1 0
vn 0 -1 0
vn 0 -1 0
vn 0 -1 0
vn 0 -1 0
vn 0 -1 0
vn 0 -1 0
vn 0 -1 0
vn 0 -1 0
vn 0 -1 0
vn 0 0 1
vn 0 0 1
vn 0 0 1
vn 0 0 1
vn 1 0 0
vn 1 0 0
vn 1 0 0
vn 1 0 0
vn -1 0 0
vn -1 0 0
vn -1 0 0
vn -1 0 0
vn 0 -1 0
vn 0 -1 0
vn 0 -1 0
vn 0 -1 0
vn 0 -1 0
vn 0 -1 0
vn 0 -1 0
vn 0 -1 0
vn 0 -1 0
vn 0 -1 0
vn 0 -1 0
vn 0 -1 0
vn 0 -1 0
vn 0 -1 0
vn 0 -1 0
vn 0 -1 0
vn 0 -1 0
vn 0 -1 0
vn 0 -1 0
vn 0 -1 0
vn 0 -1 0
vn 0 -1 0
vn 0 -1 0
vn 0 -1 0
vn 0 -1 0
vn 0 -1 0
vn 0 -1 0
vn 0 -1 0
vn 0 -1 0
vn 0 -1 0
vn -0.7071065 0 -0.7071071
vn -0.7071065 0 -0.7071071
vn -0.7071065 0 -0.7071071
vn -0.7071065 0 -0.7071071
vn 0.7071065 0 -0.7071071
vn 0.7071065 0 -0.7071071
vn 0.7071065 0 -0.7071071
vn 0.7071065 0 -0.7071071
vn 0.7071065 0 0.7071071
vn 0.7071065 0 0.7071071
vn 0.7071065 0 0.7071071
vn 0.7071065 0 0.7071071
vn -0.7071065 0 0.7071071
vn -0.7071065 0 0.7071071
vn -0.7071065 0 0.7071071
vn -0.7071065 0 0.7071071
vn -0.7071068 0 -0.7071068
vn -0.7071068 0 -0.7071068
vn -0.7071068 0 -0.7071068
vn -0.7071068 0 -0.7071068
vn -0.7071059 0 0.7071076
vn -0.7071059 0 0.7071076
vn -0.7071059 0 0.7071076
vn -0.7071059 0 0.7071076
vn -0.7071059 0 0.7071076
vn -0.7071059 0 0.7071076
vn 0.7071068 0 0.7071068
vn 0.7071068 0 0.7071068
vn 0.7071068 0 0.7071068
vn 0.7071068 0 0.7071068
vn 0.7071059 0 -0.7071076
vn 0.7071059 0 -0.7071076
vn 0.7071059 0 -0.7071076
vn 0.7071059 0 -0.7071076
vn 0 0 -1
vn 0 0 -1
vn 0 0 -1
vn 0 0 -1
vn 1 0 0
vn 1 0 0
vn 0 0 -1
vn 0 0 -1
vn 0 0 -1
vn -1 0 0
vn -1 0 0
vn -1 0 0
vn 0 1 0
vn 0 1 0
vn 0 1 0
vn 0 1 0
vn 0 0 1
vn 0 0 1
vn 0 0 1
vn 0 0 1
vn 1 0 0
vn 1 0 0
vn 0 0 -1
vn 0 0 -1
vn 0 0 -1
vn -1 0 0
vn -1 0 0
vn -1 0 0
vn 0 1 0
vn 0 1 0
vn 0 1 0
vn 0 1 0
vn 0 0 1
vn 0 0 1
vn 0 0 1
vn 0 0 1
vn 1 0 0
vn 1 0 0
vn 0 0 -1
vn 0 0 -1
vn 0 0 -1
vn -1 0 0
vn -1 0 0
vn -1 0 0
vn 0 1 0
vn 0 1 0
vn 0 1 0
vn 0 1 0
vn 0 0 1
vn 0 0 1
vn 0 0 1
vn 0 0 1
vn 1 0 0
vn 1 0 0
vn 0 0 -1
vn 0 0 -1
vn 0 0 -1
vn -1 0 0
vn -1 0 0
vn -1 0 0
vn 0 1 0
vn 0 1 0
vn 0 1 0
vn 0 1 0
vn 0 0 1
vn 0 0 1
vn 0 0 1
vn 0 0 1

vt 0.21017 0.9098985
vt 0.21017 0.9179112
vt 0.2181612 0.9098985
vt 0.2181612 0.9179112
vt 0.21017 0.9098985
vt 0.21017 0.9179112
vt 0.2181612 0.9098985
vt 0.2181612 0.9179112
vt 0.2099674 0.9178264
vt 0.2104028 0.9181031
vt 0.2097754 0.9182951
vt 0.2371996 0.918235
vt 0.2367874 0.9185117
vt 0.2104028 0.9097066
vt 0.2099674 0.9099833
vt 0.2097754 0.9095146
vt 0.2367874 0.9092981
vt 0.2371996 0.9095747
vt 0.2179285 0.9181031
vt 0.2183638 0.9178264
vt 0.2185559 0.9182951
vt 0.2283983 0.9185117
vt 0.227986 0.918235
vt 0.2183638 0.9099834
vt 0.2179285 0.9097067
vt 0.2185559 0.9095146
vt 0.227986 0.9095748
vt 0.2283983 0.9092981
vt 0.2187724 0.8998078
vt 0.2187724 0.9004967
vt 0.2097509 0.90949
vt 0.2187724 0.927313
vt 0.2187724 0.8911476
vt 0.2097509 0.9183196
vt 0.2187724 0.9088858
vt 0.2187724 0.9095748
vt 0.2185804 0.9094901
vt 0.2187724 0.918235
vt 0.2187724 0.9189239
vt 0.2185804 0.9183196
vt 0.2099674 0.9099833
vt 0.2104028 0.9097066
vt 0.2101104 0.9098421
vt 0.2104028 0.9181031
vt 0.2099674 0.9178264
vt 0.2101104 0.9179677
vt 0.2179285 0.9097067
vt 0.2183638 0.9099834
vt 0.2182208 0.9098421
vt 0.2183639 0.9178264
vt 0.2179285 0.9181031
vt 0.2182208 0.9179677
vt 0.2095588 0.9185117
vt 0.2095588 0.9092981
vt 0.227986 0.8908709
vt 0.2187724 0.9185117
vt 0.2187724 0.9092981
vt 0.227986 0.9185117
vt 0.227986 0.9092981
vt 0.227986 0.9000844
vt 0.2095588 0.9185117
vt 0.2095588 0.9092981
vt 0.227986 0.8908709
vt 0.2187724 0.9185117
vt 0.2187724 0.9092981
vt 0.227986 0.9185117
vt 0.227986 0.9092981
vt 0.227986 0.9000844
vt 0.2095588 0.9185117
vt 0.2095588 0.9092981
vt 0.227986 0.8908709
vt 0.2187724 0.9185117
vt 0.2187724 0.9092981
vt 0.227986 0.9185117
vt 0.227986 0.9092981
vt 0.227986 0.9000844
vt 0.2095588 0.9185117
vt 0.2095588 0.9092981
vt 0.227986 0.8908709
vt 0.2187724 0.9185117
vt 0.2187724 0.9092981
vt 0.227986 0.9185117
vt 0.227986 0.9092981
vt 0.227986 0.9000844
vt 0.227986 0.8911476
vt 0.227986 0.8998078
vt 0.2279861 0.9189239
vt 0.227986 0.927313
vt 0.2279861 0.9004967
vt 0.227986 0.9088858
vt 0.227986 0.9095747
vt 0.227986 0.918235
vt 0.2095588 0.918235
vt 0.2095588 0.9095748
vt 0.2099711 0.9092981
vt 0.2104028 0.9097066
vt 0.2183602 0.9092981
vt 0.2179285 0.9097067
vt 0.2187724 0.9095747
vt 0.2183638 0.9099834
vt 0.2187724 0.918235
vt 0.2183638 0.9178264
vt 0.2183602 0.9185117
vt 0.2179285 0.9181031
vt 0.2099711 0.9185117
vt 0.2104028 0.9181031
vt 0.2101104 0.9098421
vt 0.21017 0.9098985
vt 0.2104028 0.9097066
vt 0.2181612 0.9098985
vt 0.2179285 0.9097067
vt 0.2181612 0.9179112
vt 0.2179285 0.9181031
vt 0.21017 0.9179112
vt 0.2101104 0.9179677
vt 0.2104028 0.9181031
vt 0.2182208 0.9098421
vt 0.2181612 0.9098985
vt 0.2183638 0.9099833
vt 0.2183638 0.9178264
vt 0.2182208 0.9179677
vt 0.2181612 0.9179112
vt 0.2181612 0.9098985
vt 0.2181612 0.9179112
vt 0.21017 0.9179112
vt 0.21017 0.9179112
vt 0.21017 0.9098985
vt 0.21017 0.9098985
vt 0.2181612 0.9179112
vt 0.2181612 0.9179112
vt 0.21017 0.9179112
vt 0.21017 0.9179112
vt 0.21017 0.9098985
vt 0.21017 0.9098985
vt 0.2181612 0.9098985
vt 0.2181612 0.9098985
vt 0.2104028 0.9097066
vt 0.2097754 0.9095146
vt 0.2099674 0.9097066
vt 0.2179285 0.9181031
vt 0.2185559 0.9182951
vt 0.2183638 0.9181031
vt 0.2095588 0.9095748
vt 0.2097509 0.90949
vt 0.2096971 0.9094363
vt 0.2099711 0.9185117
vt 0.2097509 0.9183196
vt 0.2096921 0.9183784
vt 0.2183602 0.9092981
vt 0.2185804 0.9094901
vt 0.2186391 0.9094313
vt 0.2187724 0.918235
vt 0.2185804 0.9183196
vt 0.2186342 0.9183735
vt 0.2099674 0.9099833
vt 0.2101104 0.9098421
vt 0.2099674 0.9097066
vt 0.2104028 0.9181031
vt 0.2101104 0.9179677
vt 0.2099674 0.9181031
vt 0.2179285 0.9097067
vt 0.2182208 0.9098421
vt 0.2183638 0.9097067
vt 0.2183639 0.9178264
vt 0.2182208 0.9179677
vt 0.2183638 0.9181031
vt 0.2187724 0.927313
vt 0.2187724 0.9277253
vt 0.227986 0.927313
vt 0.227986 0.9277253
vt 0.2279861 0.9004967
vt 0.227986 0.8998078
vt 0.2187724 0.9004967
vt 0.2187724 0.8998078
vt 0.227986 0.9095747
vt 0.227986 0.9088858
vt 0.2187724 0.9095748
vt 0.2187724 0.9088858
vt 0.2279861 0.9189239
vt 0.227986 0.918235
vt 0.2187724 0.9189239
vt 0.2187724 0.918235
vt 0.2099674 0.9178264
vt 0.2104028 0.9181031
vt 0.2099674 0.9178264
vt 0.2104028 0.9181031
vt 0.2183639 0.9178264
vt 0.2179285 0.9181031
vt 0.2183638 0.9178264
vt 0.2179285 0.9181031
vt 0.2179285 0.9181031
vt 0.2183638 0.9178264
vt 0.2183638 0.9099834
vt 0.2179285 0.9097067
vt 0.2183638 0.9099834
vt 0.2179285 0.9097067
vt 0.2099674 0.9099833
vt 0.2104028 0.9097066
vt 0.2099674 0.9099833
vt 0.2104028 0.9097066
vt 0.2099674 0.9178264
vt 0.2099674 0.9178264
vt 0.2099674 0.9099833
vt 0.2099674 0.9099833
vt 0.2187724 0.8908709
vt 0.2187724 0.9000844
vt 0.2187724 0.9185117
vt 0.2187724 0.9277253
vt 0.227986 0.9277253
vt 0.2187724 0.9092981
vt 0.2187724 0.9185117
vt 0.227986 0.9185117
vt 0.227986 0.9092981
vt 0.227986 0.9185117
vt 0.2371996 0.9092981
vt 0.2371996 0.9185117
vt 0.2187724 0.9000844
vt 0.2187724 0.9092981
vt 0.227986 0.9000844
vt 0.227986 0.9092981
vt 0.2187724 0.8908709
vt 0.2187724 0.9000844
vt 0.2187724 0.9185117
vt 0.2187724 0.9277253
vt 0.227986 0.9277253
vt 0.2187724 0.9092981
vt 0.2187724 0.9185117
vt 0.227986 0.9185117
vt 0.227986 0.9092981
vt 0.227986 0.9185117
vt 0.2371996 0.9092981
vt 0.2371996 0.9185117
vt 0.2187724 0.9000844
vt 0.2187724 0.9092981
vt 0.227986 0.9000844
vt 0.227986 0.9092981
vt 0.2187724 0.8908709
vt 0.2187724 0.9000844
vt 0.2187724 0.9185117
vt 0.2187724 0.9277253
vt 0.227986 0.9277253
vt 0.2187724 0.9092981
vt 0.2187724 0.9185117
vt 0.227986 0.9185117
vt 0.227986 0.9092981
vt 0.227986 0.9185117
vt 0.2371996 0.9092981
vt 0.2371996 0.9185117
vt 0.2187724 0.9000844
vt 0.2187724 0.9092981
vt 0.227986 0.9000844
vt 0.227986 0.9092981
vt 0.2187724 0.8908709
vt 0.2187724 0.9000844
vt 0.2187724 0.9185117
vt 0.2187724 0.9277253
vt 0.227986 0.9277253
vt 0.2187724 0.9092981
vt 0.2187724 0.9185117
vt 0.227986 0.9185117
vt 0.227986 0.9092981
vt 0.227986 0.9185117
vt 0.2371996 0.9092981
vt 0.2371996 0.9185117
vt 0.2187724 0.9000844
vt 0.2187724 0.9092981
vt 0.227986 0.9000844
vt 0.227986 0.9092981
f 137/137/137 139/139/139 138/138/138
f 140/140/140 142/142/142 141/141/141
f 143/143/143 145/145/145 144/144/144
f 146/146/146 148/148/148 147/147/147
f 149/149/149 151/151/151 150/150/150
f 152/152/152 154/154/154 153/153/153
f 155/155/155 157/157/157 156/156/156
f 158/158/158 160/160/160 159/159/159
f 161/161/161 163/163/163 162/162/162
f 164/164/164 166/166/166 165/165/165
f 187/187/187 189/189/189 188/188/188
f 190/190/190 192/192/192 191/191/191
f 27/27/27 28/28/28 23/23/23
f 28/28/28 17/17/17 23/23/23
f 17/17/17 18/18/18 23/23/23
f 23/23/23 18/18/18 22/22/22
f 18/18/18 13/13/13 22/22/22
f 12/12/12 13/13/13 18/18/18
f 24/24/24 20/20/20 48/48/48
f 48/48/48 20/20/20 50/50/50
f 46/46/46 45/45/45 2/2/2
f 45/45/45 41/41/41 2/2/2
f 41/41/41 43/43/43 2/2/2
f 1/1/1 2/2/2 43/43/43
f 33/33/33 85/85/85 29/29/29
f 29/29/29 85/85/85 86/86/86
f 39/39/39 87/87/87 32/32/32
f 32/32/32 87/87/87 88/88/88
f 14/14/14 25/25/25 42/42/42
f 42/42/42 25/25/25 47/47/47
f 19/19/19 10/10/10 51/51/51
f 51/51/51 10/10/10 44/44/44
f 30/30/30 89/89/89 35/35/35
f 35/35/35 89/89/89 90/90/90
f 36/36/36 91/91/91 38/38/38
f 38/38/38 91/91/91 92/92/92
f 16/16/16 15/15/15 9/9/9
f 31/31/31 16/16/16 9/9/9
f 31/31/31 95/95/95 16/16/16
f 94/94/94 31/31/31 9/9/9
f 16/16/16 95/95/95 96/96/96
f 95/95/95 97/97/97 96/96/96
f 93/93/93 94/94/94 9/9/9
f 97/97/97 37/37/37 96/96/96
f 11/11/11 93/93/93 9/9/9
f 9/9/9 106/106/106 11/11/11
f 34/34/34 93/93/93 11/11/11
f 11/11/11 106/106/106 104/104/104
f 34/34/34 11/11/11 104/104/104
f 105/105/105 34/34/34 104/104/104
f 103/103/103 105/105/105 104/104/104
f 21/21/21 103/103/103 104/104/104
f 40/40/40 103/103/103 21/21/21
f 37/37/37 26/26/26 96/96/96
f 26/26/26 98/98/98 96/96/96
f 37/37/37 99/99/99 26/26/26
f 100/100/100 98/98/98 26/26/26
f 26/26/26 99/99/99 100/100/100
f 40/40/40 21/21/21 100/100/100
f 21/21/21 102/102/102 100/100/100
f 99/99/99 101/101/101 100/100/100
f 101/101/101 40/40/40 100/100/100
f 3/3/3 4/4/4 7/7/7
f 7/7/7 4/4/4 8/8/8
f 107/107/107 109/109/109 108/108/108
f 108/108/108 109/109/109 110/110/110
f 110/110/110 109/109/109 49/49/49
f 109/109/109 111/111/111 49/49/49
f 52/52/52 113/113/113 112/112/112
f 112/112/112 113/113/113 114/114/114
f 114/114/114 113/113/113 115/115/115
f 113/113/113 116/116/116 115/115/115
f 117/117/117 119/119/119 118/118/118
f 119/119/119 120/120/120 118/118/118
f 120/120/120 121/121/121 118/118/118
f 122/122/122 118/118/118 121/121/121
f 5/5/5 123/123/123 6/6/6
f 6/6/6 123/123/123 124/124/124
f 125/125/125 127/127/127 126/126/126
f 126/126/126 127/127/127 128/128/128
f 129/129/129 131/131/131 130/130/130
f 130/130/130 131/131/131 132/132/132
f 133/133/133 135/135/135 134/134/134
f 134/134/134 135/135/135 136/136/136
f 167/167/167 169/169/169 168/168/168
f 168/168/168 169/169/169 170/170/170
f 171/171/171 173/173/173 172/172/172
f 172/172/172 173/173/173 174/174/174
f 175/175/175 177/177/177 176/176/176
f 176/176/176 177/177/177 178/178/178
f 179/179/179 181/181/181 180/180/180
f 180/180/180 181/181/181 182/182/182
f 183/183/183 185/185/185 184/184/184
f 184/184/184 185/185/185 186/186/186
f 193/193/193 195/195/195 194/194/194
f 194/194/194 195/195/195 196/196/196
f 197/197/197 199/199/199 198/198/198
f 198/198/198 199/199/199 200/200/200
f 201/201/201 203/203/203 202/202/202
f 202/202/202 203/203/203 204/204/204
f 54/54/54 57/57/57 53/53/53
f 53/53/53 57/57/57 56/56/56
f 205/205/205 55/55/55 206/206/206
f 206/206/206 55/55/55 60/60/60
f 207/207/207 58/58/58 208/208/208
f 208/208/208 58/58/58 209/209/209
f 210/210/210 59/59/59 211/211/211
f 211/211/211 59/59/59 212/212/212
f 213/213/213 215/215/215 214/214/214
f 214/214/214 215/215/215 216/216/216
f 217/217/217 219/219/219 218/218/218
f 218/218/218 219/219/219 220/220/220
f 62/62/62 65/65/65 61/61/61
f 61/61/61 65/65/65 64/64/64
f 221/221/221 63/63/63 222/222/222
f 222/222/222 63/63/63 68/68/68
f 223/223/223 66/66/66 224/224/224
f 224/224/224 66/66/66 225/225/225
f 226/226/226 67/67/67 227/227/227
f 227/227/227 67/67/67 228/228/228
f 229/229/229 231/231/231 230/230/230
f 230/230/230 231/231/231 232/232/232
f 233/233/233 235/235/235 234/234/234
f 234/234/234 235/235/235 236/236/236
f 70/70/70 73/73/73 69/69/69
f 69/69/69 73/73/73 72/72/72
f 237/237/237 71/71/71 238/238/238
f 238/238/238 71/71/71 76/76/76
f 239/239/239 74/74/74 240/240/240
f 240/240/240 74/74/74 241/241/241
f 242/242/242 75/75/75 243/243/243
f 243/243/243 75/75/75 244/244/244
f 245/245/245 247/247/247 246/246/246
f 246/246/246 247/247/247 248/248/248
f 249/249/249 251/251/251 250/250/250
f 250/250/250 251/251/251 252/252/252
f 78/78/78 81/81/81 77/77/77
f 77/77/77 81/81/81 80/80/80
f 253/253/253 79/79/79 254/254/254
f 254/254/254 79/79/79 84/84/84
f 255/255/255 82/82/82 256/256/256
f 256/256/256 82/82/82 257/257/257
f 258/258/258 83/83/83 259/259/259
f 259/259/259 83/83/83 260/260/260
f 261/261/261 263/263/263 262/262/262
f 262/262/262 263/263/263 264/264/264
f 265/265/265 267/267/267 266/266/266
f 266/266/266 267/267/267 268/268/268
