mtllib KubikRubik.mtl
usemtl KubikRubik

g KubikRubik
v 0.02637259 0 -0.02649645
v 0.02633085 0.05286918 -0.02649635
v 0.02649645 0 0.02637259
v 0.02649645 0.05286918 0.02637259
v -0.02649645 0 -0.02637259
v -0.02649645 0.05286918 -0.02637259
v -0.02637259 0 0.02649645
v -0.02637259 0.05286918 0.02649645
v -0.008749574 0 0.02645516
v 0.008873437 0 0.02641387
v 0.008873437 0.05286918 0.02641387
v -0.008749574 0.05286918 0.02645516
v 0.008749574 0 -0.02645516
v -0.008873437 0 -0.02641387
v -0.008873437 0.05286918 -0.02641387
v 0.008707831 0.05286918 -0.02645506
v 0.02645516 0 0.008749574
v 0.02641387 0 -0.008873437
v 0.02637213 0.05286918 -0.008873338
v 0.02645516 0.05286918 0.008749574
v -0.02645516 0 -0.008749574
v -0.02641387 0 0.008873437
v -0.02641387 0.05286918 0.008873437
v -0.02645516 0.05286918 -0.008749574
v -0.008790861 0.05286918 0.008832147
v -0.008832147 0.05286918 -0.008790861
v 0.008832147 0.05286918 0.008790861
v 0.008749118 0.05286918 -0.008832051
v 0.008832147 0 0.008790861
v 0.008790861 0 -0.008832147
v -0.008790861 0 0.008832147
v -0.008832147 0 -0.008790861
v 0.02637259 0.01786773 -0.02649645
v 0.02637259 0.03549078 -0.02649645
v 0.02649645 0.03549078 0.02637259
v 0.02649645 0.01786773 0.02637259
v -0.02637259 0.03549078 0.02649645
v -0.02637259 0.01786773 0.02649645
v -0.02649645 0.03549078 -0.02637259
v -0.02649645 0.01786773 -0.02637259
v -0.008915181 0.03549078 -0.02641377
v -0.008915181 0.01786773 -0.02641377
v 0.008707831 0.03549078 -0.02645506
v 0.008707831 0.01786773 -0.02645506
v 0.008873437 0.03549078 0.02641387
v 0.008873437 0.01786773 0.02641387
v -0.008749574 0.03549078 0.02645516
v -0.008749574 0.01786773 0.02645516
v -0.02641387 0.03549078 0.008873437
v -0.02641387 0.01786773 0.008873437
v -0.02645516 0.03549078 -0.008749574
v -0.02645516 0.01786773 -0.008749574
v 0.02641387 0.03549078 -0.008873437
v 0.02641387 0.01786773 -0.008873437
v 0.02645516 0.03549078 0.008749574
v 0.02645516 0.01786773 0.008749574
v 0.008707831 0.05286918 -0.02645506
v 0.02633085 0.05286918 -0.02649635
v -0.02645516 0.05286918 -0.008749574
v -0.02649645 0.05286918 -0.02637259
v -0.008832147 0.05286918 -0.008790861
v -0.008873437 0.05286918 -0.02641387
v 0.008749118 0.05286918 -0.008832051
v 0.008707831 0.05286918 -0.02645506
v 0.008790861 0 -0.008832147
v 0.008749574 0 -0.02645516
v -0.008832147 0 -0.008790861
v -0.008873437 0 -0.02641387
v -0.02649645 0.03549078 -0.02637259
v -0.02649645 0.05286918 -0.02637259
v -0.008873437 0.05286918 -0.02641387
v -0.008915181 0.03549078 -0.02641377
v 0.008707831 0.03549078 -0.02645506
v -0.008873437 0.05286918 -0.02641387
v 0.008707831 0.05286918 -0.02645506
v 0.02649645 0.03549078 0.02637259
v 0.02649645 0.05286918 0.02637259
v 0.008873437 0.03549078 0.02641387
v -0.008749574 0.03549078 0.02645516
v 0.008873437 0.05286918 0.02641387
v -0.008749574 0.05286918 0.02645516
v 0.008832147 0 0.008790861
v 0.008790861 0 -0.008832147
v -0.008790861 0 0.008832147
v -0.008832147 0 -0.008790861
v 0.008873437 0 0.02641387
v 0.02645516 0 0.008749574
v 0.02641387 0 -0.008873437
v 0.008790861 0 -0.008832147
v -0.008749574 0.05286918 0.02645516
v 0.008873437 0.05286918 0.02641387
v 0.008832147 0.05286918 0.008790861
v -0.008790861 0.05286918 0.008832147
v 0.008749118 0.05286918 -0.008832051
v -0.02637259 0.05286918 0.02649645
v -0.008749574 0.05286918 0.02645516
v -0.008790861 0.05286918 0.008832147
v -0.02641387 0.05286918 0.008873437
v -0.02645516 0.05286918 -0.008749574
v -0.008790861 0.05286918 0.008832147
v 0.008873437 0.05286918 0.02641387
v 0.008832147 0.05286918 0.008790861
v 0.02649645 0.05286918 0.02637259
v 0.02645516 0.05286918 0.008749574
v 0.02645516 0.05286918 0.008749574
v 0.008832147 0.05286918 0.008790861
v 0.02637213 0.05286918 -0.008873338
v -0.008749574 0 0.02645516
v -0.008790861 0 0.008832147
v -0.008832147 0 -0.008790861
v -0.02641387 0 0.008873437
v -0.02645516 0 -0.008749574
v -0.02637259 0.03549078 0.02649645
v -0.02637259 0.05286918 0.02649645
v -0.02641387 0.05286918 0.008873437
v -0.02641387 0.03549078 0.008873437
v -0.02645516 0.03549078 -0.008749574
v -0.02641387 0.05286918 0.008873437
v -0.02645516 0.05286918 -0.008749574
v 0.02637259 0.03549078 -0.02649645
v 0.02633085 0.05286918 -0.02649635
v 0.02637213 0.05286918 -0.008873338
v 0.02641387 0.03549078 -0.008873437
v 0.02645516 0.03549078 0.008749574
v 0.02637213 0.05286918 -0.008873338
v 0.02645516 0.05286918 0.008749574
v 0.02641387 0 -0.008873437
v 0.02645516 0 0.008749574
v 0.02641387 0.01786773 -0.008873437
v 0.02645516 0.01786773 0.008749574
v 0.02645516 0.03549078 0.008749574
v 0.02637259 0 -0.02649645
v 0.02641387 0 -0.008873437
v 0.02641387 0.01786773 -0.008873437
v 0.02637259 0.01786773 -0.02649645
v 0.02641387 0.01786773 -0.008873437
v 0.02637259 0.03549078 -0.02649645
v 0.02641387 0.03549078 -0.008873437
v -0.02641387 0 0.008873437
v -0.02645516 0 -0.008749574
v -0.02641387 0.01786773 0.008873437
v -0.02645516 0.01786773 -0.008749574
v -0.02645516 0.03549078 -0.008749574
v -0.02637259 0 0.02649645
v -0.02641387 0 0.008873437
v -0.02641387 0.01786773 0.008873437
v -0.02637259 0.01786773 0.02649645
v -0.02641387 0.01786773 0.008873437
v -0.02637259 0.03549078 0.02649645
v -0.02641387 0.03549078 0.008873437
v 0.008873437 0 0.02641387
v -0.008749574 0 0.02645516
v 0.008873437 0.01786773 0.02641387
v -0.008749574 0.01786773 0.02645516
v 0.008873437 0.03549078 0.02641387
v -0.008749574 0.03549078 0.02645516
v 0.02649645 0 0.02637259
v 0.008873437 0 0.02641387
v 0.008873437 0.01786773 0.02641387
v 0.02649645 0.01786773 0.02637259
v 0.008873437 0.01786773 0.02641387
v 0.02649645 0.03549078 0.02637259
v 0.008873437 0.03549078 0.02641387
v -0.008873437 0 -0.02641387
v 0.008749574 0 -0.02645516
v -0.008915181 0.01786773 -0.02641377
v 0.008707831 0.01786773 -0.02645506
v -0.008915181 0.03549078 -0.02641377
v 0.008707831 0.03549078 -0.02645506
v -0.02649645 0 -0.02637259
v -0.008915181 0.01786773 -0.02641377
v -0.008873437 0 -0.02641387
v -0.02649645 0.01786773 -0.02637259
v -0.02649645 0.03549078 -0.02637259
v -0.008915181 0.03549078 -0.02641377
v 0.008707831 0.01786773 -0.02645506
v 0.008749574 0 -0.02645516
v 0.02637259 0.01786773 -0.02649645
v 0.02637259 0 -0.02649645
v 0.008707831 0.01786773 -0.02645506
v 0.02637259 0.01786773 -0.02649645
v 0.008707831 0.03549078 -0.02645506
v 0.02637259 0.03549078 -0.02649645
v -0.02645516 0 -0.008749574
v -0.02649645 0 -0.02637259
v -0.02645516 0.01786773 -0.008749574
v -0.02649645 0.01786773 -0.02637259
v -0.02649645 0.01786773 -0.02637259
v -0.02645516 0.03549078 -0.008749574
v -0.02649645 0.03549078 -0.02637259
v -0.008749574 0 0.02645516
v -0.02637259 0 0.02649645
v -0.008749574 0.01786773 0.02645516
v -0.02637259 0.01786773 0.02649645
v -0.008749574 0.01786773 0.02645516
v -0.02637259 0.01786773 0.02649645
v -0.008749574 0.03549078 0.02645516
v -0.02637259 0.03549078 0.02649645
v 0.02645516 0 0.008749574
v 0.02649645 0 0.02637259
v 0.02645516 0.01786773 0.008749574
v 0.02649645 0.01786773 0.02637259
v 0.02645516 0.01786773 0.008749574
v 0.02649645 0.01786773 0.02637259
v 0.02645516 0.03549078 0.008749574
v 0.02649645 0.03549078 0.02637259

vn 0 -1 0
vn -0.002342744 0 -0.9999973
vn 0 -1 0
vn 0.9999973 0 -0.002342777
vn 0 -1 0
vn -0.9999973 0 0.002342777
vn 0 -1 0
vn 0.00234276 0 0.9999973
vn 0 -1 0
vn 0 -1 0
vn 0.002342642 0 0.9999973
vn 0.00234276 0 0.9999973
vn 0 -1 0
vn 0 -1 0
vn 0 1 0
vn -0.002342744 0 -0.9999973
vn 0 -1 0
vn 0 -1 0
vn 0 1 0
vn 0.9999973 0 -0.002342777
vn 0 -1 0
vn 0 -1 0
vn 0 1 0
vn -0.9999973 0 0.002342777
vn 0 1 0
vn 0 1 0
vn 0 1 0
vn 0 1 0
vn 0 -1 0
vn 0 -1 0
vn 0 -1 0
vn 0 -1 0
vn 0.9999973 0 -0.002342633
vn -0.002342744 0 -0.9999973
vn 0.9999973 0 -0.002342777
vn 0.002342642 0 0.9999973
vn 0.00234276 0 0.9999973
vn -0.9999973 0 0.002342633
vn -0.9999973 0 0.002342777
vn -0.002342599 0 -0.9999973
vn -0.002342599 0 -0.9999973
vn -0.002342819 0 -0.9999973
vn -0.002342744 0 -0.9999973
vn -0.002342819 0 -0.9999973
vn 0.002342642 0 0.9999973
vn 0.00234276 0 0.9999973
vn 0.00234276 0 0.9999973
vn 0.00234276 0 0.9999973
vn -0.9999973 0 0.002342661
vn -0.9999973 0 0.002342747
vn -0.9999973 0 0.002342777
vn -0.9999973 0 0.002342747
vn 0.9999944 0.002402061 -0.002342654
vn 0.9999973 0 -0.002342747
vn 0.9999973 0 -0.002342777
vn 0.9999973 0 -0.002342747
vn 0 1 0
vn 0 1 0
vn 0 1 0
vn 0 1 0
vn 0 1 0
vn 0 1 0
vn 0 1 0
vn 0 1 0
vn 0 -1 0
vn 0 -1 0
vn 0 -1 0
vn 0 -1 0
vn -0.002342599 0 -0.9999973
vn -0.002342599 0 -0.9999973
vn -0.002342599 0 -0.9999973
vn -0.002342833 0 -0.9999973
vn -0.002342833 0 -0.9999973
vn -0.002342833 0 -0.9999973
vn -0.002342833 0 -0.9999973
vn 0.002342642 0 0.9999973
vn 0.002342642 0 0.9999973
vn 0.00234276 0 0.9999973
vn 0.00234276 0 0.9999973
vn 0.00234276 0 0.9999973
vn 0.00234276 0 0.9999973
vn 0 -1 0
vn 0 -1 0
vn 0 -1 0
vn 0 -1 0
vn 0 -1 0
vn 0 -1 0
vn 0 -1 0
vn 0 -1 0
vn 0 1 0
vn 0 1 0
vn 0 1 0
vn 0 1 0
vn 0 1 0
vn 0 1 0
vn 0 1 0
vn 0 1 0
vn 0 1 0
vn 0 1 0
vn 0 1 0
vn 0 1 0
vn 0 1 0
vn 0 1 0
vn 0 1 0
vn 0 1 0
vn 0 1 0
vn 0 1 0
vn 0 -1 0
vn 0 -1 0
vn 0 -1 0
vn 0 -1 0
vn 0 -1 0
vn -0.9999973 0 0.002342661
vn -0.9999973 0 0.002342661
vn -0.9999973 0 0.002342661
vn -0.9999973 0 0.002342778
vn -0.9999973 0 0.002342778
vn -0.9999973 0 0.002342778
vn -0.9999973 0 0.002342778
vn 0.9999944 0.002402061 -0.002342654
vn 0.9999944 0.002402061 -0.002342654
vn 0.9999944 0.002402061 -0.002342654
vn 0.9999931 0.001201032 -0.003527125
vn 0.9999931 0.001201032 -0.003527125
vn 0.9999931 0.001201032 -0.003527125
vn 0.9999931 0.001201032 -0.003527125
vn 0.9999973 0 -0.002342747
vn 0.9999973 0 -0.002342747
vn 0.9999973 0 -0.002342762
vn 0.9999973 0 -0.002342762
vn 0.9999973 0 -0.002342762
vn 0.9999973 0 -0.002342633
vn 0.9999973 0 -0.002342633
vn 0.9999973 0 -0.002342633
vn 0.9999973 0 -0.002342647
vn 0.9999973 0 -0.002342647
vn 0.9999973 0 -0.002342647
vn 0.9999973 0 -0.002342647
vn -0.9999973 0 0.002342747
vn -0.9999973 0 0.002342747
vn -0.9999973 0 0.002342762
vn -0.9999973 0 0.002342762
vn -0.9999973 0 0.002342762
vn -0.9999973 0 0.002342633
vn -0.9999973 0 0.002342633
vn -0.9999973 0 0.002342633
vn -0.9999973 0 0.002342647
vn -0.9999973 0 0.002342647
vn -0.9999973 0 0.002342647
vn -0.9999973 0 0.002342647
vn 0.00234276 0 0.9999973
vn 0.00234276 0 0.9999973
vn 0.00234276 0 0.9999973
vn 0.00234276 0 0.9999973
vn 0.00234276 0 0.9999973
vn 0.00234276 0 0.9999973
vn 0.002342642 0 0.9999973
vn 0.002342642 0 0.9999973
vn 0.002342642 0 0.9999973
vn 0.002342642 0 0.9999973
vn 0.002342642 0 0.9999973
vn 0.002342642 0 0.9999973
vn 0.002342642 0 0.9999973
vn -0.002342819 0 -0.9999973
vn -0.002342819 0 -0.9999973
vn -0.002342877 0 -0.9999973
vn -0.002342877 0 -0.9999973
vn -0.002342877 0 -0.9999973
vn -0.002342877 0 -0.9999973
vn -0.002342599 0 -0.9999973
vn -0.002342599 0 -0.9999973
vn -0.002342599 0 -0.9999973
vn -0.002342555 0 -0.9999973
vn -0.002342555 0 -0.9999973
vn -0.002342555 0 -0.9999973
vn -0.002342744 0 -0.9999973
vn -0.002342744 0 -0.9999973
vn -0.002342744 0 -0.9999973
vn -0.002342744 0 -0.9999973
vn -0.00234273 0 -0.9999973
vn -0.00234273 0 -0.9999973
vn -0.00234273 0 -0.9999973
vn -0.00234273 0 -0.9999973
vn -0.9999973 0 0.002342747
vn -0.9999973 0 0.002342747
vn -0.9999973 0 0.002342747
vn -0.9999973 0 0.002342747
vn -0.9999973 0 0.002342762
vn -0.9999973 0 0.002342762
vn -0.9999973 0 0.002342762
vn 0.002342759 0 0.9999973
vn 0.002342759 0 0.9999973
vn 0.002342759 0 0.9999973
vn 0.002342759 0 0.9999973
vn 0.002342759 0 0.9999973
vn 0.002342759 0 0.9999973
vn 0.002342759 0 0.9999973
vn 0.002342759 0 0.9999973
vn 0.9999973 0 -0.002342747
vn 0.9999973 0 -0.002342747
vn 0.9999973 0 -0.002342747
vn 0.9999973 0 -0.002342747
vn 0.9999973 0 -0.002342762
vn 0.9999973 0 -0.002342762
vn 0.9999973 0 -0.002342762
vn 0.9999973 0 -0.002342762

vt 0.07375041 0.608678
vt 0.09805331 0.2978435
vt 0.3926226 0.403951
vt 0.6582206 0.2073457
vt 0.6542988 0.7902243
vt 0.0957894 0.608678
vt 0.3985344 0.403951
vt 0.404446 0.403951
vt 0.6510672 0.7805293
vt 0.6478355 0.7805293
vt 0.404446 0.4000098
vt 0.404446 0.4019804
vt 0.07742354 0.608678
vt 0.6510672 0.7902243
vt 0.1015953 0.2872178
vt 0.09805331 0.2943016
vt 0.3926226 0.4059215
vt 0.07375041 0.6050048
vt 0.1068089 0.6050048
vt 0.6582206 0.2039055
vt 0.6542988 0.7869925
vt 0.3985344 0.4059215
vt 0.0957894 0.6013317
vt 0.0957894 0.6050048
vt 0.4064166 0.4059215
vt 0.1015953 0.2836758
vt 0.4083872 0.4059215
vt 0.1031357 0.6050048
vt 0.6478355 0.7837609
vt 0.07742354 0.6050048
vt 0.6510672 0.7837609
vt 0.6510672 0.7869925
vt 0.4005323 0.3921276
vt 0.09456053 0.2978435
vt 0.6548281 0.2073457
vt 0.09101862 0.2659661
vt 0.4025028 0.403951
vt 0.09101862 0.2765919
vt 0.09216723 0.608678
vt 0.6575754 0.7902243
vt 0.660807 0.7934559
vt 0.6513879 0.2314271
vt 0.09456053 0.2943016
vt 0.6513879 0.2348673
vt 0.4025028 0.4000098
vt 0.4005323 0.4000098
vt 0.4025028 0.4019804
vt 0.4005323 0.4019804
vt 0.660807 0.7837609
vt 0.4005323 0.4059215
vt 0.09216723 0.6050048
vt 0.4005323 0.4078921
vt 0.660807 0.764371
vt 0.09101862 0.2588823
vt 0.6548281 0.2039055
vt 0.09101862 0.2624242
vt 0.1031357 0.608678
vt 0.1068089 0.608678
vt 0.09805331 0.2836758
vt 0.09805331 0.2872178
vt 0.6616608 0.2245467
vt 0.6616608 0.2279869
vt 0.665101 0.2245467
vt 0.665101 0.2279869
vt 0.08034363 0.2836758
vt 0.08034363 0.2872178
vt 0.08388558 0.2836758
vt 0.08388558 0.2872178
vt 0.660807 0.7902243
vt 0.6639938 0.7902243
vt 0.6639938 0.7934559
vt 0.4025028 0.4118332
vt 0.4025028 0.4138038
vt 0.404446 0.4118332
vt 0.404446 0.4138038
vt 0.4025028 0.3980393
vt 0.404446 0.3980393
vt 0.09456053 0.269508
vt 0.09456053 0.27305
vt 0.09805331 0.269508
vt 0.09805331 0.27305
vt 0.3945932 0.4059215
vt 0.3945932 0.4078921
vt 0.3965638 0.4059215
vt 0.3965638 0.4078921
vt 0.3945932 0.403951
vt 0.6446038 0.7837609
vt 0.6446038 0.7869925
vt 0.6478355 0.7869925
vt 0.4064166 0.403951
vt 0.4083872 0.403951
vt 0.1051372 0.2801339
vt 0.1015953 0.2801339
vt 0.1051372 0.2836758
vt 0.0957894 0.5976585
vt 0.0994626 0.5976585
vt 0.0994626 0.6013317
vt 0.6582206 0.2211065
vt 0.6582206 0.2245467
vt 0.6616608 0.2211065
vt 0.1031357 0.5976585
vt 0.1031357 0.6013317
vt 0.1068089 0.5976585
vt 0.1068089 0.6013317
vt 0.6685412 0.2211065
vt 0.665101 0.2211065
vt 0.6685412 0.2245467
vt 0.3965638 0.403951
vt 0.08109674 0.6013317
vt 0.08109674 0.6050048
vt 0.0847699 0.6013317
vt 0.0847699 0.6050048
vt 0.660807 0.7805293
vt 0.6639938 0.7805293
vt 0.6639938 0.7837609
vt 0.09456053 0.2801339
vt 0.09456053 0.2836758
vt 0.09805331 0.2801339
vt 0.09805331 0.2836758
vt 0.660807 0.7611393
vt 0.6639938 0.7611393
vt 0.6639938 0.764371
vt 0.09456053 0.2588823
vt 0.09456053 0.2624242
vt 0.09805331 0.2588823
vt 0.09805331 0.2624242
vt 0.0874275 0.2588823
vt 0.0874275 0.2624242
vt 0.6575754 0.764371
vt 0.6575754 0.7676026
vt 0.660807 0.7676026
vt 0.3985344 0.3921276
vt 0.3985344 0.3940981
vt 0.4005323 0.3940981
vt 0.6513879 0.197025
vt 0.6513879 0.2004652
vt 0.6548281 0.197025
vt 0.6548281 0.2004652
vt 0.3985344 0.4059215
vt 0.3985344 0.4078921
vt 0.6575754 0.7837609
vt 0.6575754 0.7869925
vt 0.660807 0.7869925
vt 0.0874275 0.2765919
vt 0.0874275 0.2801339
vt 0.09101862 0.2801339
vt 0.08849409 0.5976585
vt 0.08849409 0.6013317
vt 0.09216723 0.5976585
vt 0.09216723 0.6013317
vt 0.3985344 0.4000098
vt 0.3985344 0.4019804
vt 0.08849409 0.5903121
vt 0.08849409 0.5939853
vt 0.09216723 0.5903121
vt 0.09216723 0.5939853
vt 0.0874275 0.2659661
vt 0.0874275 0.269508
vt 0.09101862 0.269508
vt 0.6575754 0.7708343
vt 0.6575754 0.774066
vt 0.660807 0.7708343
vt 0.660807 0.774066
vt 0.6479 0.2314271
vt 0.6479 0.2348673
vt 0.08849409 0.6123512
vt 0.08849409 0.6160243
vt 0.09216723 0.6123512
vt 0.09216723 0.6160243
vt 0.6542988 0.7902243
vt 0.6575754 0.7934559
vt 0.6542988 0.7934559
vt 0.6513879 0.2279869
vt 0.6548281 0.2279869
vt 0.6548281 0.2314271
vt 0.09101862 0.2943016
vt 0.0874275 0.2943016
vt 0.09101862 0.2978435
vt 0.0874275 0.2978435
vt 0.6575754 0.7966875
vt 0.6575754 0.7999192
vt 0.660807 0.7966875
vt 0.660807 0.7999192
vt 0.0874275 0.2836758
vt 0.0874275 0.2872178
vt 0.09101862 0.2836758
vt 0.09101862 0.2872178
vt 0.4005323 0.4098627
vt 0.4025028 0.4078921
vt 0.4025028 0.4098627
vt 0.6479 0.2142261
vt 0.6479 0.2176663
vt 0.6513879 0.2142261
vt 0.6513879 0.2176663
vt 0.6575754 0.7772976
vt 0.6575754 0.7805293
vt 0.660807 0.7772976
vt 0.660807 0.7805293
vt 0.0847699 0.5829658
vt 0.0847699 0.586639
vt 0.08849409 0.5829658
vt 0.08849409 0.586639
vt 0.4005323 0.3960687
vt 0.4005323 0.3980393
vt 0.4025028 0.3960687
vt 0.4025028 0.3980393
f 55/55/55 20/20/20 35/35/35
f 35/35/35 20/20/20 4/4/4
f 47/47/47 12/12/12 37/37/37
f 37/37/37 12/12/12 8/8/8
f 51/51/51 24/24/24 39/39/39
f 39/39/39 24/24/24 6/6/6
f 16/16/16 2/2/2 43/43/43
f 43/43/43 2/2/2 34/34/34
f 32/32/32 21/21/21 14/14/14
f 14/14/14 21/21/21 5/5/5
f 28/28/28 19/19/19 57/57/57
f 57/57/57 19/19/19 58/58/58
f 59/59/59 26/26/26 60/60/60
f 60/60/60 26/26/26 15/15/15
f 93/93/93 94/94/94 26/26/26
f 92/92/92 94/94/94 93/93/93
f 62/62/62 63/63/63 64/64/64
f 61/61/61 63/63/63 62/62/62
f 99/99/99 100/100/100 61/61/61
f 98/98/98 100/100/100 99/99/99
f 106/106/106 107/107/107 63/63/63
f 105/105/105 107/107/107 106/106/106
f 18/18/18 30/30/30 1/1/1
f 1/1/1 30/30/30 13/13/13
f 65/65/65 67/67/67 66/66/66
f 66/66/66 67/67/67 68/68/68
f 69/69/69 70/70/70 41/41/41
f 41/41/41 70/70/70 71/71/71
f 72/72/72 74/74/74 73/73/73
f 73/73/73 74/74/74 75/75/75
f 76/76/76 77/77/77 45/45/45
f 45/45/45 77/77/77 11/11/11
f 78/78/78 80/80/80 79/79/79
f 79/79/79 80/80/80 81/81/81
f 10/10/10 9/9/9 29/29/29
f 29/29/29 9/9/9 31/31/31
f 87/87/87 29/29/29 88/88/88
f 88/88/88 29/29/29 89/89/89
f 83/83/83 84/84/84 85/85/85
f 82/82/82 84/84/84 83/83/83
f 17/17/17 86/86/86 82/82/82
f 3/3/3 86/86/86 17/17/17
f 108/108/108 7/7/7 84/84/84
f 84/84/84 7/7/7 22/22/22
f 90/90/90 91/91/91 25/25/25
f 25/25/25 91/91/91 27/27/27
f 95/95/95 96/96/96 23/23/23
f 23/23/23 96/96/96 97/97/97
f 101/101/101 103/103/103 102/102/102
f 102/102/102 103/103/103 104/104/104
f 109/109/109 111/111/111 110/110/110
f 110/110/110 111/111/111 112/112/112
f 113/113/113 114/114/114 49/49/49
f 49/49/49 114/114/114 115/115/115
f 141/141/141 49/49/49 142/142/142
f 142/142/142 49/49/49 143/143/143
f 116/116/116 118/118/118 117/117/117
f 117/117/117 118/118/118 119/119/119
f 120/120/120 121/121/121 53/53/53
f 53/53/53 121/121/121 122/122/122
f 129/129/129 53/53/53 130/130/130
f 130/130/130 53/53/53 131/131/131
f 123/123/123 125/125/125 124/124/124
f 124/124/124 125/125/125 126/126/126
f 127/127/127 54/54/54 128/128/128
f 128/128/128 54/54/54 56/56/56
f 132/132/132 33/33/33 133/133/133
f 133/133/133 33/33/33 134/134/134
f 135/135/135 137/137/137 136/136/136
f 136/136/136 137/137/137 138/138/138
f 139/139/139 50/50/50 140/140/140
f 140/140/140 50/50/50 52/52/52
f 52/52/52 189/189/189 188/188/188
f 188/188/188 189/189/189 190/190/190
f 144/144/144 38/38/38 145/145/145
f 145/145/145 38/38/38 146/146/146
f 147/147/147 149/149/149 148/148/148
f 148/148/148 149/149/149 150/150/150
f 151/151/151 46/46/46 152/152/152
f 152/152/152 46/46/46 48/48/48
f 153/153/153 155/155/155 154/154/154
f 154/154/154 155/155/155 156/156/156
f 157/157/157 36/36/36 158/158/158
f 158/158/158 36/36/36 159/159/159
f 160/160/160 162/162/162 161/161/161
f 161/161/161 162/162/162 163/163/163
f 164/164/164 44/44/44 165/165/165
f 42/42/42 44/44/44 164/164/164
f 173/173/173 174/174/174 42/42/42
f 42/42/42 174/174/174 175/175/175
f 166/166/166 168/168/168 167/167/167
f 167/167/167 168/168/168 169/169/169
f 40/40/40 171/171/171 170/170/170
f 170/170/170 171/171/171 172/172/172
f 176/176/176 178/178/178 177/177/177
f 177/177/177 178/178/178 179/179/179
f 180/180/180 182/182/182 181/181/181
f 181/181/181 182/182/182 183/183/183
f 184/184/184 186/186/186 185/185/185
f 185/185/185 186/186/186 187/187/187
f 191/191/191 193/193/193 192/192/192
f 192/192/192 193/193/193 194/194/194
f 195/195/195 197/197/197 196/196/196
f 196/196/196 197/197/197 198/198/198
f 199/199/199 201/201/201 200/200/200
f 200/200/200 201/201/201 202/202/202
f 203/203/203 205/205/205 204/204/204
f 204/204/204 205/205/205 206/206/206
