mtllib Lamp_05.mtl
usemtl Lamp_05

g Lamp_05
v 0.06048054 0 0.08219721
v -0.06048054 0 0.08219721
v 0.04136796 0 -0.08219721
v 0.06048054 0 -0.05622191
v -0.06048054 0 -0.05622191
v -0.04136796 0 -0.08219721
v 0 0.009990265 0.06447792
v 0 0.3291093 0.06447792
v -0.0117729 0.009990265 0.05768083
v -0.0117729 0.3291093 0.05768083
v -0.0117729 0.009990265 0.04408666
v -0.0117729 0.3291093 0.04408666
v 1.188441E-09 0.009990265 0.03728957
v 1.188441E-09 0.3291093 0.03728957
v 0.0117729 0.009990265 0.04408666
v 0.0117729 0.3291093 0.04408666
v 0.0117729 0.009990265 0.05768083
v 0.0117729 0.3291093 0.05768083
v 0.05778931 0.3328221 -0.1009114
v 0.06048054 0.3626029 -0.1013083
v 0.06048054 0.2950862 0.09951291
v 0.06048054 0.3237753 0.1049145
v -0.05778931 0.3328221 -0.1009114
v -0.06048054 0.3626029 -0.1013083
v -0.06048054 0.2950862 0.09951291
v -0.06048054 0.3237753 0.1049145
v 0.07047144 0.3155918 -0.009396982
v 0.07476978 0.3431891 0.001803102
v -0.07047144 0.3155918 -0.009396982
v -0.07476978 0.3431891 0.001803102
v 0.07476978 0.3145 -0.00359848
v 0.06048054 0.3339139 -0.1067099
v -0.06048054 0.3339139 -0.1067099
v -0.07476978 0.3145 -0.00359848
v 0.07047144 0.3282367 -0.007016188
v 0.05778931 0.3454671 -0.09853059
v -0.05778931 0.3454671 -0.09853059
v -0.07047144 0.3282367 -0.007016188
v 0.05226186 0.02022586 0.07102747
v 0.06048054 0.01824233 0.08219721
v -0.05226186 0.02022586 0.07102747
v -0.06048054 0.01824233 0.08219721
v 0.05226186 0.02022586 -0.05159524
v 0.06048054 0.01824233 -0.05622191
v 0.03796367 0.02022586 -0.07102748
v 0.04136796 0.01824233 -0.08219721
v -0.03796367 0.02022586 -0.07102748
v -0.04136796 0.01824233 -0.08219721
v -0.05226186 0.02022586 -0.05159524
v -0.06048054 0.01824233 -0.05622191
v -0.04131321 0.202172 0.05389956
v -0.04131321 0.3200738 0.05389956
v -0.04493662 0.202172 0.051267
v -0.04493662 0.3200738 0.051267
v -0.0435526 0.202172 0.04700743
v -0.0435526 0.3200738 0.04700743
v -0.03907383 0.202172 0.04700743
v -0.03907383 0.3200738 0.04700743
v -0.03768981 0.202172 0.051267
v -0.03768981 0.3200738 0.051267
v -0.04131322 0.1938265 0.05389956
v -0.04493662 0.1938265 0.051267
v -0.04355261 0.1938265 0.04700743
v -0.03907383 0.1938265 0.04700743
v -0.03768982 0.1938265 0.051267
v -0.04131321 0.202172 0.05747293
v -0.04833509 0.202172 0.05237124
v -0.04565298 0.202172 0.04411651
v -0.03697344 0.202172 0.04411651
v -0.03429132 0.202172 0.05237124
v -0.04131322 0.1938265 0.05747293
v -0.04833511 0.1938265 0.05237124
v -0.04565299 0.1938265 0.04411651
v -0.03697346 0.1938265 0.04411651
v -0.03429134 0.1938265 0.05237124
v -0.06048054 0 -0.05622191
v -0.06048054 0.01824233 -0.05622191
v -0.06048054 0 0.08219721
v -0.06048054 0.01824233 0.08219721
v -0.04136796 0 -0.08219721
v 0.04136796 0 -0.08219721
v -0.04136796 0.01824233 -0.08219721
v 0.04136796 0.01824233 -0.08219721
v 0.06048054 0 0.08219721
v 0.06048054 0 -0.05622191
v -0.06048054 0 0.08219721
v 0.04136796 0 -0.08219721
v -0.06048054 0 -0.05622191
v -0.04136796 0 -0.08219721
v -0.0117729 0.009990265 0.05768083
v -0.0117729 0.3291093 0.05768083
v -0.0117729 0.009990265 0.04408666
v -0.0117729 0.3291093 0.04408666
v 1.188441E-09 0.009990265 0.03728957
v 1.188441E-09 0.3291093 0.03728957
v -0.0117729 0.3291093 0.05768083
v -0.0117729 0.3291093 0.04408666
v 0 0.3291093 0.06447792
v 0.0117729 0.3291093 0.04408666
v 1.188441E-09 0.3291093 0.03728957
v 0.0117729 0.009990265 0.04408666
v 0.0117729 0.3291093 0.04408666
v 0.0117729 0.3291093 0.05768083
v 0.0117729 0.009990265 0.05768083
v 0 0.009990265 0.06447792
v 0.0117729 0.3291093 0.05768083
v 0 0.3291093 0.06447792
v 0 0.009990265 0.06447792
v 0.0117729 0.009990265 0.05768083
v -0.0117729 0.009990265 0.05768083
v -0.0117729 0.009990265 0.04408666
v 1.188441E-09 0.009990265 0.03728957
v 0.0117729 0.009990265 0.04408666
v 0.06048054 0.2950862 0.09951291
v 0.06048054 0.3237753 0.1049145
v -0.06048054 0.3339139 -0.1067099
v -0.06048054 0.3626029 -0.1013083
v -0.07476978 0.3431891 0.001803102
v -0.06048054 0.3626029 -0.1013083
v 0.07476978 0.3431891 0.001803102
v 0.06048054 0.3626029 -0.1013083
v -0.06048054 0.3237753 0.1049145
v 0.06048054 0.3237753 0.1049145
v 0.06048054 0.2950862 0.09951291
v 0.07476978 0.3145 -0.00359848
v -0.06048054 0.2950862 0.09951291
v -0.07476978 0.3145 -0.00359848
v -0.06048054 0.2950862 0.09951291
v -0.07476978 0.3145 -0.00359848
v -0.06048054 0.3237753 0.1049145
v -0.07476978 0.3431891 0.001803102
v 0.06048054 0.3339139 -0.1067099
v 0.07476978 0.3145 -0.00359848
v 0.06048054 0.3626029 -0.1013083
v 0.07476978 0.3431891 0.001803102
v 0.07047144 0.3155918 -0.009396982
v 0.06048054 0.3339139 -0.1067099
v -0.06048054 0.3339139 -0.1067099
v -0.07047144 0.3155918 -0.009396982
v 0.07047144 0.3282367 -0.007016188
v -0.07047144 0.3282367 -0.007016188
v -0.05778931 0.3328221 -0.1009114
v -0.05778931 0.3454671 -0.09853059
v 0.05778931 0.3328221 -0.1009114
v 0.05778931 0.3454671 -0.09853059
v -0.07047144 0.3155918 -0.009396982
v -0.07047144 0.3282367 -0.007016188
v -0.05778931 0.3328221 -0.1009114
v -0.05778931 0.3454671 -0.09853059
v 0.05778931 0.3328221 -0.1009114
v 0.05778931 0.3454671 -0.09853059
v 0.07047144 0.3155918 -0.009396982
v 0.07047144 0.3282367 -0.007016188
v 0.05226186 0.02022586 0.07102747
v 0.06048054 0.01824233 0.08219721
v -0.05226186 0.02022586 0.07102747
v -0.06048054 0.01824233 0.08219721
v 0.05226186 0.02022586 -0.05159524
v 0.03796367 0.02022586 -0.07102748
v 0.06048054 0.01824233 -0.05622191
v 0.04136796 0.01824233 -0.08219721
v -0.05226186 0.02022586 -0.05159524
v -0.06048054 0.01824233 -0.05622191
v -0.03796367 0.02022586 -0.07102748
v -0.04136796 0.01824233 -0.08219721
v 0.05226186 0.02022586 -0.05159524
v 0.06048054 0.01824233 -0.05622191
v 0.05226186 0.02022586 0.07102747
v 0.06048054 0.01824233 0.08219721
v -0.03796367 0.02022586 -0.07102748
v -0.04136796 0.01824233 -0.08219721
v 0.03796367 0.02022586 -0.07102748
v 0.04136796 0.01824233 -0.08219721
v -0.06048054 0.01824233 0.08219721
v -0.06048054 0.01824233 -0.05622191
v -0.05226186 0.02022586 0.07102747
v -0.05226186 0.02022586 -0.05159524
v 0.06048054 0 -0.05622191
v 0.06048054 0 0.08219721
v 0.06048054 0.01824233 -0.05622191
v 0.06048054 0.01824233 0.08219721
v -0.04493662 0.202172 0.051267
v -0.04493662 0.3200738 0.051267
v -0.0435526 0.202172 0.04700743
v -0.0435526 0.3200738 0.04700743
v -0.04493662 0.3200738 0.051267
v -0.0435526 0.3200738 0.04700743
v -0.04131321 0.3200738 0.05389956
v -0.03907383 0.3200738 0.04700743
v -0.03907383 0.202172 0.04700743
v -0.03907383 0.3200738 0.04700743
v -0.03768981 0.3200738 0.051267
v -0.03768981 0.202172 0.051267
v -0.04131321 0.202172 0.05389956
v -0.03768981 0.3200738 0.051267
v -0.04131321 0.3200738 0.05389956
v -0.04493662 0.202172 0.051267
v -0.0435526 0.202172 0.04700743
v -0.03907383 0.202172 0.04700743
v -0.04131321 0.202172 0.05389956
v -0.03768981 0.202172 0.051267
v -0.04565298 0.202172 0.04411651
v -0.04565299 0.1938265 0.04411651
v -0.03697344 0.202172 0.04411651
v -0.03697346 0.1938265 0.04411651
v -0.03697344 0.202172 0.04411651
v -0.03697346 0.1938265 0.04411651
v -0.03429132 0.202172 0.05237124
v -0.04833509 0.202172 0.05237124
v -0.04565298 0.202172 0.04411651
v -0.04565299 0.1938265 0.04411651
v -0.03429132 0.202172 0.05237124
v -0.03429134 0.1938265 0.05237124
v -0.04131321 0.202172 0.05747293
v -0.04131321 0.202172 0.05747293
v -0.04131322 0.1938265 0.05747293
v -0.04833509 0.202172 0.05237124
v -0.04833511 0.1938265 0.05237124
v -0.03429134 0.1938265 0.05237124
v -0.04833511 0.1938265 0.05237124
v -0.04131322 0.1938265 0.05747293
v -0.04131322 0.1938265 0.05389956
v -0.03768982 0.1938265 0.051267
v -0.04355261 0.1938265 0.04700743
v -0.04493662 0.1938265 0.051267
v -0.04131321 0.202172 0.05389956
v -0.04131321 0.202172 0.05747293

vn 0 0 1
vn -1 0 0
vn 0.8054574 0 -0.5926537
vn 0.8054574 0 -0.5926537
vn -0.8054574 0 -0.5926537
vn -0.8054574 0 -0.5926537
vn -0.4999999 0 0.8660255
vn -0.4999999 0 0.8660255
vn -0.4999999 0 0.8660255
vn -0.4999999 0 0.8660255
vn -1 0 0
vn -1 0 0
vn -0.4999999 0 -0.8660255
vn -0.4999999 0 -0.8660255
vn 0.4999999 0 -0.8660255
vn 0.4999999 0 -0.8660255
vn 1 0 0
vn 0 1 0
vn 0 -0.9827331 -0.1850288
vn 0 0.1850292 -0.982733
vn 0.9908535 -0.0249682 0.1326121
vn 0.9908535 -0.0249682 0.1326121
vn 0 -0.9827325 -0.1850315
vn -0.9908535 0.02496823 -0.1326122
vn 0 -0.185029 0.982733
vn 0 -0.185029 0.982733
vn 0 0.1850294 -0.982733
vn 0.9908535 -0.0249682 0.1326121
vn 0 0.1850294 -0.982733
vn -0.9908535 0.02496823 -0.1326122
vn 0.9908535 -0.0249682 0.1326121
vn 0 0.1850292 -0.982733
vn -0.9908535 0.02496823 -0.1326122
vn -0.9908535 0.02496823 -0.1326122
vn 0 0.1850294 -0.982733
vn 0 -0.982733 -0.1850293
vn 0 -0.982733 -0.1850293
vn 0 0.1850294 -0.982733
vn 0 1 0
vn 0 0 1
vn 0 1 0
vn -1 0 0
vn 0 1 0
vn 0.8054574 0 -0.5926537
vn 0 1 0
vn 0.8054574 0 -0.5926537
vn 0 1 0
vn -0.8054574 0 -0.5926537
vn 0 1 0
vn -0.8054574 0 -0.5926537
vn -0.5877863 0 0.8090162
vn -0.5877863 0 0.8090162
vn -0.5877863 0 0.8090162
vn -0.5877863 0 0.8090162
vn -0.9510567 0 -0.3090164
vn -0.9510567 0 -0.3090164
vn 0 0 -1
vn 0 0 -1
vn 0.9510565 0 -0.3090169
vn 0 1 0
vn 0 -1 0
vn 0 -1 0
vn 0 -1 0
vn 0 -1 0
vn 0 -1 0
vn 0 1 0
vn 0 1 0
vn 0 1 0
vn 0 1 0
vn 0 1 0
vn 0.5877854 0 0.809017
vn -0.9510567 0 -0.3090164
vn 0 -1 0
vn 0 -1 0
vn 0.9510565 0 -0.3090169
vn -1 0 0
vn -1 0 0
vn 0 0 1
vn 0 0 1
vn 0 0 -1
vn 0 0 -1
vn 0 0 -1
vn 0 0 -1
vn 0 -1 0
vn 0 -1 0
vn 0 -1 0
vn 0 -1 0
vn 0 -1 0
vn 0 -1 0
vn -1 0 0
vn -1 0 0
vn -0.4999999 0 -0.8660255
vn -0.4999999 0 -0.8660255
vn 0.4999999 0 -0.8660255
vn 0.4999999 0 -0.8660255
vn 0 1 0
vn 0 1 0
vn 0 1 0
vn 0 1 0
vn 0 1 0
vn 1 0 0
vn 1 0 0
vn 1 0 0
vn 0.4999999 0 0.8660255
vn 0.4999999 0 0.8660255
vn 0.4999999 0 0.8660255
vn 0.4999999 0 0.8660255
vn 0 -1 0
vn 0 -1 0
vn 0 -1 0
vn 0 -1 0
vn 0 -1 0
vn 0 -1 0
vn 0 -0.185029 0.982733
vn 0 -0.185029 0.982733
vn 0 0.1850292 -0.982733
vn 0 0.1850292 -0.982733
vn 0 0.982733 0.185029
vn 0 0.982733 0.185029
vn 0 0.982733 0.185029
vn 0 0.982733 0.185029
vn 0 0.982733 0.185029
vn 0 0.982733 0.185029
vn 0 -0.982733 -0.185029
vn 0 -0.982733 -0.185029
vn 0 -0.982733 -0.185029
vn 0 -0.982733 -0.185029
vn -0.9908535 -0.0249682 0.132612
vn -0.9908535 -0.0249682 0.132612
vn -0.9908535 -0.0249682 0.132612
vn -0.9908535 -0.0249682 0.132612
vn 0.9908535 0.02496822 -0.1326121
vn 0.9908535 0.02496822 -0.1326121
vn 0.9908535 0.02496822 -0.1326121
vn 0.9908535 0.02496822 -0.1326121
vn 0 -0.9827331 -0.1850288
vn 0 -0.9827331 -0.1850288
vn 0 -0.9827325 -0.1850315
vn 0 -0.9827331 -0.1850288
vn 0 -0.982733 -0.1850293
vn 0 -0.982733 -0.1850293
vn 0 -0.1850285 0.9827331
vn 0 -0.1850285 0.9827331
vn 0 -0.1850285 0.9827331
vn 0 -0.1850285 0.9827331
vn 0.9908535 -0.02496825 0.1326119
vn 0.9908535 -0.02496825 0.1326119
vn 0.9908535 -0.02496825 0.1326119
vn 0.9908535 -0.02496825 0.1326119
vn -0.9908535 -0.02496825 0.132612
vn -0.9908535 -0.02496825 0.132612
vn -0.9908535 -0.02496825 0.132612
vn -0.9908535 -0.02496825 0.132612
vn 0 0.9845961 0.1748447
vn 0 0.9845961 0.1748447
vn 0 0.9845961 0.1748447
vn 0 0.9845961 0.1748447
vn 0.1669495 0.9782832 -0.1228411
vn 0.1669495 0.9782832 -0.1228411
vn 0.1669495 0.9782832 -0.1228411
vn 0.1669495 0.9782832 -0.1228411
vn -0.1669495 0.9782832 -0.1228411
vn -0.1669495 0.9782832 -0.1228411
vn -0.1669495 0.9782832 -0.1228411
vn -0.1669495 0.9782832 -0.1228411
vn 0.2346077 0.9720901 0
vn 0.2346077 0.9720901 0
vn 0.2346077 0.9720901 0
vn 0.2346077 0.9720901 0
vn 0 0.984596 -0.1748449
vn 0 0.984596 -0.1748449
vn 0 0.984596 -0.1748449
vn 0 0.984596 -0.1748449
vn -0.2346076 0.9720901 0
vn -0.2346076 0.9720901 0
vn -0.2346076 0.9720901 0
vn -0.2346076 0.9720901 0
vn 1 0 0
vn 1 0 0
vn 1 0 0
vn 1 0 0
vn -0.9510567 0 -0.3090164
vn -0.9510567 0 -0.3090164
vn 0 0 -1
vn 0 0 -1
vn 0 1 0
vn 0 1 0
vn 0 1 0
vn 0 1 0
vn 0.9510565 0 -0.3090169
vn 0.9510565 0 -0.3090169
vn 0.9510565 0 -0.3090169
vn 0.5877858 0 0.8090166
vn 0.5877858 0 0.8090166
vn 0.5877858 0 0.8090166
vn 0.5877858 0 0.8090166
vn 0 1 0
vn 0 1 0
vn 0 1 0
vn 0 1 0
vn 0 1 0
vn 0 0 -1
vn 0 0 -1
vn 0 0 -1
vn 0 0 -1
vn 0.9510565 0 -0.3090169
vn 0.9510565 0 -0.3090169
vn 0.9510565 0 -0.3090169
vn -0.9510567 0 -0.3090164
vn -0.9510567 0 -0.3090164
vn -0.9510567 0 -0.3090164
vn 0.5877854 0 0.809017
vn 0.5877854 0 0.809017
vn 0.5877854 0 0.809017
vn -0.5877855 0 0.8090168
vn -0.5877855 0 0.8090168
vn -0.5877855 0 0.8090168
vn -0.5877855 0 0.8090168
vn 0 -1 0
vn 0 -1 0
vn 0 -1 0
vn 0 -1 0
vn 0 -1 0
vn 0 -1 0
vn 0 -1 0
vn 0 1 0
vn 0 1 0

vt 0.5266956 0.9548922
vt 0.5266956 0.9635087
vt 0.5266956 0.9793801
vt 0.5266956 0.9807416
vt 0.5266956 0.9707637
vt 0.5266956 0.9734865
vt 0.5482368 0.9635087
vt 0.5482368 0.9807416
vt 0.5424924 0.9635087
vt 0.5424924 0.9807416
vt 0.5367482 0.9635087
vt 0.5367482 0.9807416
vt 0.5310038 0.9635087
vt 0.5310038 0.9807416
vt 0.5252596 0.9635087
vt 0.5252596 0.9807416
vt 0.5195152 0.9635087
vt 0.5152239 0.9590281
vt 0.5183121 0.9718828
vt 0.5353121 0.9807416
vt 0.5266956 0.9548922
vt 0.5353121 0.9548922
vt 0.5264627 0.9718828
vt 0.5353121 0.9721251
vt 0.5266956 0.9635087
vt 0.5353121 0.9635087
vt 0.5182887 0.9680592
vt 0.5353121 0.950584
vt 0.5264861 0.9680592
vt 0.5353121 0.9678169
vt 0.5266956 0.950584
vt 0.5266956 0.9807416
vt 0.5266956 0.9721251
vt 0.5266956 0.9678169
vt 0.5182887 0.9680592
vt 0.6578298 0.09912235
vt 0.6659804 0.09912235
vt 0.5264861 0.9680592
vt 0.5433431 0.9640941
vt 0.534467 0.9548922
vt 0.5358975 0.9640941
vt 0.534467 0.9635087
vt 0.5433432 0.9705212
vt 0.534467 0.9807416
vt 0.5423247 0.9715397
vt 0.534467 0.9793801
vt 0.536916 0.9715396
vt 0.534467 0.9734865
vt 0.5358975 0.9705213
vt 0.534467 0.9707637
vt 0.730048 0.9657234
vt 0.730048 0.9818443
vt 0.7235996 0.9657234
vt 0.7235996 0.9818443
vt 0.7171513 0.9657234
vt 0.7171513 0.9818443
vt 0.7107029 0.9657234
vt 0.7107029 0.9818443
vt 0.7042546 0.9657234
vt 0.6985073 0.9600542
vt 0.4134985 0.9778025
vt 0.4208578 0.9724557
vt 0.4180468 0.9638044
vt 0.4089502 0.9638044
vt 0.4061392 0.9724557
vt 0.421559 0.978125
vt 0.4151106 0.978125
vt 0.4086623 0.978125
vt 0.4022139 0.978125
vt 0.3957655 0.978125
vt 0.3893172 0.978125
vt 0.4151106 0.978125
vt 0.4180468 0.9638044
vt 0.4089502 0.9638044
vt 0.3957655 0.978125
vt 0.5266956 0.9707637
vt 0.534467 0.9707637
vt 0.5266956 0.9635087
vt 0.534467 0.9635087
vt 0.5266956 0.9734865
vt 0.5266956 0.9793801
vt 0.534467 0.9734865
vt 0.534467 0.97938
vt 0.5180792 0.9635087
vt 0.5180792 0.9707637
vt 0.5266956 0.9635087
vt 0.5194407 0.9721251
vt 0.5266956 0.9707637
vt 0.5253342 0.9721251
vt 0.5424924 0.9635087
vt 0.5424924 0.9807416
vt 0.5367482 0.9635087
vt 0.5367482 0.9807416
vt 0.5310038 0.9635087
vt 0.5310038 0.9807416
vt 0.529551 0.9590281
vt 0.529551 0.9507563
vt 0.5223874 0.963164
vt 0.5152239 0.9507563
vt 0.5223874 0.9466204
vt 0.5252596 0.9635087
vt 0.5252596 0.9807416
vt 0.5195152 0.9807416
vt 0.5195152 0.9635087
vt 0.513771 0.9635087
vt 0.5195152 0.9807416
vt 0.513771 0.9807416
vt 0.5396203 0.963164
vt 0.5324567 0.9590281
vt 0.5467839 0.9590281
vt 0.5467839 0.9507563
vt 0.5396203 0.9466204
vt 0.5324567 0.9507563
vt 0.5266956 0.9548922
vt 0.5353121 0.9548922
vt 0.5266956 0.9721251
vt 0.5353121 0.9721251
vt 0.5353121 0.9678169
vt 0.5353121 0.9721251
vt 0.5439286 0.9678169
vt 0.5439286 0.9721251
vt 0.5353121 0.9635087
vt 0.5439286 0.9635087
vt 0.5180792 0.9635087
vt 0.5180792 0.9678169
vt 0.5266956 0.9635087
vt 0.5266956 0.9678169
vt 0.5266956 0.9635087
vt 0.5266956 0.9678169
vt 0.5353121 0.9635087
vt 0.5353121 0.9678169
vt 0.5266956 0.9462758
vt 0.5266956 0.950584
vt 0.5353121 0.9462758
vt 0.5353121 0.950584
vt 0.5182887 0.9680592
vt 0.5180792 0.9721251
vt 0.5266956 0.9721251
vt 0.5264861 0.9680592
vt 0.6578064 0.09529871
vt 0.6660038 0.09529871
vt 0.5264627 0.9718828
vt 0.5264627 0.9718828
vt 0.5183121 0.9718828
vt 0.5183121 0.9718828
vt 0.5264861 0.9680592
vt 0.5264861 0.9680592
vt 0.5264627 0.9718828
vt 0.5264627 0.9718828
vt 0.5183121 0.9718828
vt 0.5183121 0.9718828
vt 0.5182887 0.9680592
vt 0.5182887 0.9680592
vt 0.5433431 0.9640941
vt 0.5439286 0.9635087
vt 0.5358975 0.9640941
vt 0.5353121 0.9635087
vt 0.5433432 0.9705212
vt 0.5423247 0.9715397
vt 0.5439286 0.9707637
vt 0.5425671 0.9721251
vt 0.5358975 0.9705213
vt 0.534467 0.9707637
vt 0.536916 0.9715396
vt 0.534467 0.9734865
vt 0.5433432 0.9705212
vt 0.5439286 0.9707637
vt 0.5433431 0.9640941
vt 0.5439286 0.9635087
vt 0.536916 0.9715396
vt 0.5366735 0.9721251
vt 0.5423247 0.9715397
vt 0.5425671 0.9721251
vt 0.534467 0.9635087
vt 0.534467 0.9707637
vt 0.5358975 0.9640941
vt 0.5358975 0.9705213
vt 0.5266956 0.9476372
vt 0.5266956 0.9548922
vt 0.534467 0.9476372
vt 0.534467 0.9548922
vt 0.7235996 0.9657234
vt 0.7235996 0.9818443
vt 0.7171513 0.9657234
vt 0.7171513 0.9818443
vt 0.7132259 0.9600542
vt 0.7104149 0.9514028
vt 0.7058666 0.9654009
vt 0.7013183 0.9514028
vt 0.7107029 0.9657234
vt 0.7107029 0.9818443
vt 0.7042546 0.9818443
vt 0.7042546 0.9657234
vt 0.6978062 0.9657234
vt 0.7042546 0.9818443
vt 0.6978062 0.9818443
vt 0.4151106 0.978125
vt 0.4086623 0.978125
vt 0.4022139 0.978125
vt 0.421559 0.978125
vt 0.3957655 0.978125
vt 0.4086623 0.978125
vt 0.4086623 0.978125
vt 0.4022139 0.978125
vt 0.4022139 0.978125
vt 0.4022139 0.978125
vt 0.4022139 0.978125
vt 0.3957655 0.978125
vt 0.4151106 0.978125
vt 0.4086623 0.978125
vt 0.4086623 0.978125
vt 0.3957655 0.978125
vt 0.3957655 0.978125
vt 0.3893172 0.978125
vt 0.421559 0.978125
vt 0.421559 0.978125
vt 0.4151106 0.978125
vt 0.4151106 0.978125
vt 0.4061392 0.9724557
vt 0.4208578 0.9724557
vt 0.4134985 0.9778025
vt 0.4134985 0.9778025
vt 0.4061392 0.9724557
vt 0.4180468 0.9638044
vt 0.4208578 0.9724557
vt 0.3893172 0.978125
vt 0.3893172 0.978125
f 48/48/48 6/6/6 50/50/50
f 50/50/50 6/6/6 5/5/5
f 41/41/41 39/39/39 49/49/49
f 49/49/49 39/39/39 47/47/47
f 39/39/39 43/43/43 47/47/47
f 43/43/43 45/45/45 47/47/47
f 2/2/2 42/42/42 76/76/76
f 76/76/76 42/42/42 77/77/77
f 1/1/1 40/40/40 78/78/78
f 78/78/78 40/40/40 79/79/79
f 3/3/3 46/46/46 4/4/4
f 4/4/4 46/46/46 44/44/44
f 80/80/80 82/82/82 81/81/81
f 81/81/81 82/82/82 83/83/83
f 84/84/84 86/86/86 85/85/85
f 85/85/85 86/86/86 87/87/87
f 86/86/86 88/88/88 87/87/87
f 88/88/88 89/89/89 87/87/87
f 7/7/7 8/8/8 9/9/9
f 9/9/9 8/8/8 10/10/10
f 90/90/90 91/91/91 11/11/11
f 11/11/11 91/91/91 12/12/12
f 92/92/92 93/93/93 13/13/13
f 13/13/13 93/93/93 14/14/14
f 94/94/94 95/95/95 15/15/15
f 15/15/15 95/95/95 16/16/16
f 96/96/96 98/98/98 97/97/97
f 98/98/98 18/18/18 97/97/97
f 18/18/18 99/99/99 97/97/97
f 99/99/99 100/100/100 97/97/97
f 101/101/101 102/102/102 17/17/17
f 17/17/17 102/102/102 103/103/103
f 104/104/104 106/106/106 105/105/105
f 105/105/105 106/106/106 107/107/107
f 108/108/108 110/110/110 109/109/109
f 110/110/110 111/111/111 109/109/109
f 111/111/111 112/112/112 109/109/109
f 112/112/112 113/113/113 109/109/109
f 31/31/31 28/28/28 21/21/21
f 21/21/21 28/28/28 22/22/22
f 114/114/114 115/115/115 25/25/25
f 25/25/25 115/115/115 26/26/26
f 34/34/34 30/30/30 33/33/33
f 33/33/33 30/30/30 24/24/24
f 116/116/116 117/117/117 32/32/32
f 32/32/32 117/117/117 20/20/20
f 27/27/27 29/29/29 35/35/35
f 35/35/35 29/29/29 38/38/38
f 119/119/119 120/120/120 121/121/121
f 118/118/118 120/120/120 119/119/119
f 118/118/118 123/123/123 120/120/120
f 122/122/122 123/123/123 118/118/118
f 124/124/124 126/126/126 125/125/125
f 125/125/125 126/126/126 127/127/127
f 127/127/127 136/136/136 125/125/125
f 136/136/136 137/137/137 125/125/125
f 139/139/139 136/136/136 127/127/127
f 19/19/19 137/137/137 136/136/136
f 138/138/138 139/139/139 127/127/127
f 19/19/19 23/23/23 137/137/137
f 137/137/137 23/23/23 138/138/138
f 23/23/23 139/139/139 138/138/138
f 128/128/128 130/130/130 129/129/129
f 129/129/129 130/130/130 131/131/131
f 132/132/132 134/134/134 133/133/133
f 133/133/133 134/134/134 135/135/135
f 140/140/140 141/141/141 36/36/36
f 36/36/36 141/141/141 37/37/37
f 142/142/142 144/144/144 143/143/143
f 143/143/143 144/144/144 145/145/145
f 146/146/146 148/148/148 147/147/147
f 147/147/147 148/148/148 149/149/149
f 150/150/150 152/152/152 151/151/151
f 151/151/151 152/152/152 153/153/153
f 154/154/154 156/156/156 155/155/155
f 155/155/155 156/156/156 157/157/157
f 158/158/158 160/160/160 159/159/159
f 159/159/159 160/160/160 161/161/161
f 162/162/162 164/164/164 163/163/163
f 163/163/163 164/164/164 165/165/165
f 166/166/166 168/168/168 167/167/167
f 167/167/167 168/168/168 169/169/169
f 170/170/170 172/172/172 171/171/171
f 171/171/171 172/172/172 173/173/173
f 174/174/174 176/176/176 175/175/175
f 175/175/175 176/176/176 177/177/177
f 178/178/178 180/180/180 179/179/179
f 179/179/179 180/180/180 181/181/181
f 51/51/51 52/52/52 53/53/53
f 53/53/53 52/52/52 54/54/54
f 182/182/182 183/183/183 55/55/55
f 55/55/55 183/183/183 56/56/56
f 184/184/184 185/185/185 57/57/57
f 57/57/57 185/185/185 58/58/58
f 186/186/186 188/188/188 187/187/187
f 188/188/188 60/60/60 187/187/187
f 60/60/60 189/189/189 187/187/187
f 190/190/190 191/191/191 59/59/59
f 59/59/59 191/191/191 192/192/192
f 193/193/193 195/195/195 194/194/194
f 194/194/194 195/195/195 196/196/196
f 200/200/200 197/197/197 66/66/66
f 66/66/66 197/197/197 67/67/67
f 197/197/197 198/198/198 67/67/67
f 67/67/67 198/198/198 68/68/68
f 198/198/198 199/199/199 68/68/68
f 68/68/68 199/199/199 69/69/69
f 199/199/199 201/201/201 69/69/69
f 69/69/69 201/201/201 70/70/70
f 201/201/201 226/226/226 70/70/70
f 70/70/70 226/226/226 227/227/227
f 202/202/202 204/204/204 203/203/203
f 203/203/203 204/204/204 205/205/205
f 206/206/206 208/208/208 207/207/207
f 207/207/207 208/208/208 75/75/75
f 209/209/209 210/210/210 72/72/72
f 72/72/72 210/210/210 211/211/211
f 212/212/212 214/214/214 213/213/213
f 213/213/213 214/214/214 71/71/71
f 215/215/215 217/217/217 216/216/216
f 216/216/216 217/217/217 218/218/218
f 222/222/222 223/223/223 221/221/221
f 221/221/221 223/223/223 219/219/219
f 220/220/220 61/61/61 221/221/221
f 62/62/62 61/61/61 220/220/220
f 61/61/61 62/62/62 65/65/65
f 62/62/62 63/63/63 65/65/65
f 65/65/65 64/64/64 219/219/219
f 63/63/63 64/64/64 65/65/65
f 219/219/219 64/64/64 74/74/74
f 64/64/64 63/63/63 74/74/74
f 74/74/74 63/63/63 73/73/73
f 73/73/73 225/225/225 220/220/220
f 224/224/224 225/225/225 73/73/73
