mtllib Light_02.mtl
usemtl Light_02

g Light_02
v 0 -0.1087182 0.222312
v 0 0.0002553399 0.222312
v -0.111156 -0.1087182 0.1925279
v -0.111156 0.0002553399 0.1925279
v -0.1925279 -0.1087182 0.111156
v -0.1925279 0.0002553399 0.111156
v -0.222312 -0.1087182 -9.717568E-09
v -0.222312 0.0002553399 -9.717568E-09
v -0.1925279 -0.1087182 -0.111156
v -0.1925279 0.0002553399 -0.111156
v -0.111156 -0.1087182 -0.1925279
v -0.111156 0.0002553399 -0.1925279
v -3.356818E-08 -0.1087182 -0.222312
v -3.356818E-08 0.0002553399 -0.222312
v 0.111156 -0.1087182 -0.1925279
v 0.111156 0.0002553399 -0.1925279
v 0.1925278 -0.1087182 -0.1111561
v 0.1925278 0.0002553399 -0.1111561
v 0.222312 -0.1087182 -1.033556E-07
v 0.222312 0.0002553399 -1.033556E-07
v 0.1925279 -0.1087182 0.1111559
v 0.1925279 0.0002553399 0.1111559
v 0.1111562 -0.1087182 0.1925278
v 0.1111562 0.0002553399 0.1925278
v 0 -0.02841535 0.222312
v -0.111156 -0.02841535 0.1925279
v -0.1925279 -0.02841535 0.111156
v -0.222312 -0.02841535 -9.717568E-09
v -0.1925279 -0.02841535 -0.111156
v -0.111156 -0.02841535 -0.1925279
v -3.356818E-08 -0.02841535 -0.222312
v 0.111156 -0.02841535 -0.1925279
v 0.1925278 -0.02841535 -0.1111561
v 0.222312 -0.02841535 -1.033556E-07
v 0.1925279 -0.02841535 0.1111559
v 0.1111562 -0.02841535 0.1925278
v -2.922755E-10 -0.1087182 0.2389813
v -0.1194907 -0.1087182 0.2069639
v -0.1194907 -0.02841535 0.2069639
v -0.2069639 -0.1087182 0.1194906
v -0.2069639 -0.02841535 0.1194906
v -0.2389813 -0.1087182 -7.272179E-09
v -0.2389813 -0.02841535 -7.272179E-09
v -0.2069639 -0.1087182 -0.1194907
v -0.2069639 -0.02841535 -0.1194907
v -0.1194907 -0.1087182 -0.2069639
v -0.1194907 -0.02841535 -0.2069639
v -3.637745E-08 -0.1087182 -0.2389813
v -3.637745E-08 -0.02841535 -0.2389813
v 0.1194906 -0.1087182 -0.2069639
v 0.1194906 -0.02841535 -0.2069639
v 0.2069639 -0.1087182 -0.1194907
v 0.2069639 -0.02841535 -0.1194907
v 0.2389813 -0.1087182 -1.079313E-07
v 0.2389813 -0.02841535 -1.079313E-07
v 0.206964 -0.1087182 0.1194905
v 0.206964 -0.02841535 0.1194905
v 0.1194908 -0.1087182 0.2069638
v 0.1194908 -0.02841535 0.2069638
v -2.922755E-10 -0.02841535 0.2389813
v -0.111156 -0.02841535 0.1925279
v -0.111156 0.0002553399 0.1925279
v -0.1925279 -0.02841535 0.111156
v -0.1925279 0.0002553399 0.111156
v -0.222312 -0.02841535 -9.717568E-09
v -0.222312 0.0002553399 -9.717568E-09
v -0.1925279 -0.02841535 -0.111156
v -0.1925279 0.0002553399 -0.111156
v -0.111156 -0.02841535 -0.1925279
v -0.111156 0.0002553399 -0.1925279
v -3.356818E-08 -0.02841535 -0.222312
v -3.356818E-08 0.0002553399 -0.222312
v 0.111156 -0.02841535 -0.1925279
v 0.111156 0.0002553399 -0.1925279
v 0.1925278 -0.02841535 -0.1111561
v 0.1925278 0.0002553399 -0.1111561
v 0.222312 -0.02841535 -1.033556E-07
v 0.222312 0.0002553399 -1.033556E-07
v -0.111156 0.0002553399 0.1925279
v -0.1925279 0.0002553399 0.111156
v 0 0.0002553399 0.222312
v 0.1925279 0.0002553399 0.1111559
v 0.222312 0.0002553399 -1.033556E-07
v 0.1925278 0.0002553399 -0.1111561
v 0.111156 0.0002553399 -0.1925279
v -3.356818E-08 0.0002553399 -0.222312
v -0.111156 0.0002553399 -0.1925279
v -0.1925279 0.0002553399 -0.111156
v -0.222312 0.0002553399 -9.717568E-09
v 0.1925279 -0.02841535 0.1111559
v 0.1925279 0.0002553399 0.1111559
v 0.1111562 0.0002553399 0.1925278
v 0.1111562 -0.02841535 0.1925278
v 0 -0.02841535 0.222312
v 0.1111562 0.0002553399 0.1925278
v 0 0.0002553399 0.222312
v 0.1925278 -0.02841535 -0.1111561
v 0.222312 -0.02841535 -1.033556E-07
v -0.111156 -0.02841535 0.1925279
v -0.1925279 -0.02841535 0.111156
v 0.1925279 -0.1087182 0.1111559
v 0.222312 -0.1087182 -1.033556E-07
v -0.111156 -0.1087182 -0.1925279
v -0.1925279 -0.1087182 -0.111156
v 0.1925279 -0.02841535 0.1111559
v -0.222312 -0.02841535 -9.717568E-09
v 0.1111562 -0.02841535 0.1925278
v 0 -0.1087182 0.222312
v 0.1111562 -0.1087182 0.1925278
v 0.111156 -0.1087182 -0.1925279
v -3.356818E-08 -0.1087182 -0.222312
v -0.1925279 -0.02841535 -0.111156
v -0.1925279 -0.1087182 0.111156
v -0.111156 -0.1087182 0.1925279
v 0 -0.02841535 0.222312
v 0.1194908 -0.1087182 0.2069638
v -2.922755E-10 -0.1087182 0.2389813
v 0.1194908 -0.02841535 0.2069638
v -2.922755E-10 -0.02841535 0.2389813
v 0.206964 -0.1087182 0.1194905
v 0.1194908 -0.1087182 0.2069638
v 0.206964 -0.02841535 0.1194905
v 0.1194908 -0.02841535 0.2069638
v 0.2389813 -0.1087182 -1.079313E-07
v 0.206964 -0.1087182 0.1194905
v 0.2389813 -0.02841535 -1.079313E-07
v 0.206964 -0.02841535 0.1194905
v 0.2389813 -0.1087182 -1.079313E-07
v 0.2069639 -0.02841535 -0.1194907
v 0.2389813 -0.02841535 -1.079313E-07
v 0.1194906 -0.1087182 -0.2069639
v 0.2069639 -0.1087182 -0.1194907
v 0.2069639 -0.02841535 -0.1194907
v -3.637745E-08 -0.1087182 -0.2389813
v 0.1194906 -0.1087182 -0.2069639
v 0.1194906 -0.02841535 -0.2069639
v -0.1194907 -0.1087182 -0.2069639
v -3.637745E-08 -0.1087182 -0.2389813
v -3.637745E-08 -0.02841535 -0.2389813
v -0.2069639 -0.1087182 -0.1194907
v -0.1194907 -0.1087182 -0.2069639
v -0.2069639 -0.02841535 -0.1194907
v -0.1194907 -0.02841535 -0.2069639
v -0.2069639 -0.1087182 -0.1194907
v -0.2389813 -0.02841535 -7.272179E-09
v -0.2069639 -0.02841535 -0.1194907
v -0.2069639 -0.1087182 0.1194906
v -0.2389813 -0.1087182 -7.272179E-09
v -0.2069639 -0.02841535 0.1194906
v -0.2389813 -0.02841535 -7.272179E-09
v -0.1194907 -0.1087182 0.2069639
v -0.2069639 -0.1087182 0.1194906
v -0.1194907 -0.02841535 0.2069639
v -0.2069639 -0.02841535 0.1194906
v -2.922755E-10 -0.1087182 0.2389813
v -0.1194907 -0.1087182 0.2069639
v -2.922755E-10 -0.02841535 0.2389813
v -0.1194907 -0.02841535 0.2069639
v -0.222312 -0.1087182 -9.717568E-09
v -0.2389813 -0.1087182 -7.272179E-09
v 0 -0.02841535 0.222312
v -2.922755E-10 -0.02841535 0.2389813
v 0.1925278 -0.1087182 -0.1111561
v 0.2069639 -0.1087182 -0.1194907
v 0.111156 -0.02841535 -0.1925279
v 0.1194906 -0.02841535 -0.2069639
v -3.356818E-08 -0.02841535 -0.222312
v -3.637745E-08 -0.02841535 -0.2389813
v -0.111156 -0.02841535 -0.1925279
v -0.1194907 -0.02841535 -0.2069639

vn 0 -1 0
vn -0.258819 0 0.9659258
vn 0 -1 0
vn -0.258819 0 0.9659258
vn 0 -1 0
vn -0.7071066 0 0.7071068
vn 0 -1 0
vn -0.9659258 0 0.2588189
vn 0 -1 0
vn -0.9659258 0 -0.2588191
vn 0 -1 0
vn -0.7071067 0 -0.7071068
vn 0 -1 0
vn -0.2588191 0 -0.9659258
vn 0 -1 0
vn 0.258819 0 -0.9659258
vn 0 -1 0
vn 0.7071065 0 -0.7071069
vn 0 -1 0
vn 0.9659256 0 -0.2588196
vn 0 -1 0
vn 0.9659259 0 0.2588186
vn 0 -1 0
vn 0 1 0
vn -0.258819 0 0.9659258
vn -0.258819 0 0.9659258
vn -0.7071066 0 0.7071068
vn -0.9659258 0 0.2588189
vn -0.9659258 0 -0.2588191
vn -0.7071067 0 -0.7071068
vn -0.2588191 0 -0.9659258
vn 0.258819 0 -0.9659258
vn 0.7071065 0 -0.7071069
vn 0.9659256 0 -0.2588196
vn 0.9659259 0 0.2588186
vn 0.7071072 0 0.7071062
vn 0 -1 0
vn 0 -1 0
vn 0 1 0
vn 0 -1 0
vn 0 1 0
vn -0.9659257 0 -0.2588192
vn 0 1 0
vn 0 -1 0
vn 0 1 0
vn 0 -1 0
vn -0.2588189 0 -0.9659258
vn 0 -1 0
vn 0.2588187 0 -0.9659259
vn 0 -1 0
vn 0.7071065 0 -0.707107
vn 0.9659257 0 -0.2588195
vn 0 1 0
vn 0 -1 0
vn 0 1 0
vn 0 -1 0
vn 0 1 0
vn 0 -1 0
vn 0 1 0
vn 0 1 0
vn -0.7071066 0 0.7071068
vn -0.7071066 0 0.7071068
vn -0.9659258 0 0.2588189
vn -0.9659258 0 0.2588189
vn -0.9659258 0 -0.2588191
vn -0.9659258 0 -0.2588191
vn -0.7071067 0 -0.7071068
vn -0.7071067 0 -0.7071068
vn -0.2588191 0 -0.9659258
vn -0.2588191 0 -0.9659258
vn 0.258819 0 -0.9659258
vn 0.258819 0 -0.9659258
vn 0.7071065 0 -0.7071069
vn 0.7071065 0 -0.7071069
vn 0.9659256 0 -0.2588196
vn 0.9659256 0 -0.2588196
vn 0.9659259 0 0.2588186
vn 0.9659259 0 0.2588186
vn 0 1 0
vn 0 1 0
vn 0 1 0
vn 0 1 0
vn 0 1 0
vn 0 1 0
vn 0 1 0
vn 0 1 0
vn 0 1 0
vn 0 1 0
vn 0 1 0
vn 0.7071072 0 0.7071062
vn 0.7071072 0 0.7071062
vn 0.7071072 0 0.7071062
vn 0.2588193 0 0.9659257
vn 0.2588193 0 0.9659257
vn 0.2588193 0 0.9659257
vn 0.2588193 0 0.9659257
vn 0 1 0
vn 0 1 0
vn 0 1 0
vn 0 1 0
vn 0 -1 0
vn 0 -1 0
vn 0 -1 0
vn 0 -1 0
vn 0 1 0
vn 0 1 0
vn 0 1 0
vn 0 -1 0
vn 0 -1 0
vn 0 -1 0
vn 0 -1 0
vn 0 1 0
vn 0 -1 0
vn 0 -1 0
vn 0 1 0
vn 0.2588194 0 0.9659257
vn 0.2588194 0 0.9659257
vn 0.2588194 0 0.9659257
vn 0.2588194 0 0.9659257
vn 0.7071071 0 0.7071064
vn 0.7071071 0 0.7071064
vn 0.7071071 0 0.7071064
vn 0.7071071 0 0.7071064
vn 0.9659259 0 0.2588186
vn 0.9659259 0 0.2588186
vn 0.9659259 0 0.2588186
vn 0.9659259 0 0.2588186
vn 0.9659257 0 -0.2588195
vn 0.9659257 0 -0.2588195
vn 0.9659257 0 -0.2588195
vn 0.7071065 0 -0.707107
vn 0.7071065 0 -0.707107
vn 0.7071065 0 -0.707107
vn 0.2588187 0 -0.9659259
vn 0.2588187 0 -0.9659259
vn 0.2588187 0 -0.9659259
vn -0.2588189 0 -0.9659258
vn -0.2588189 0 -0.9659258
vn -0.2588189 0 -0.9659258
vn -0.7071068 0 -0.7071068
vn -0.7071068 0 -0.7071068
vn -0.7071068 0 -0.7071068
vn -0.7071068 0 -0.7071068
vn -0.9659257 0 -0.2588192
vn -0.9659257 0 -0.2588192
vn -0.9659257 0 -0.2588192
vn -0.9659258 0 0.2588191
vn -0.9659258 0 0.2588191
vn -0.9659258 0 0.2588191
vn -0.9659258 0 0.2588191
vn -0.7071068 0 0.7071066
vn -0.7071068 0 0.7071066
vn -0.7071068 0 0.7071066
vn -0.7071068 0 0.7071066
vn -0.258819 0 0.9659258
vn -0.258819 0 0.9659258
vn -0.258819 0 0.9659258
vn -0.258819 0 0.9659258
vn 0 -1 0
vn 0 -1 0
vn 0 1 0
vn 0 1 0
vn 0 -1 0
vn 0 -1 0
vn 0 1 0
vn 0 1 0
vn 0 1 0
vn 0 1 0
vn 0 1 0
vn 0 1 0

vt 0.7274605 0.08901436
vt 0.2960875 0.9829961
vt 0.7317242 0.08787198
vt 0.2931266 0.9829961
vt 0.7348455 0.08475072
vt 0.2901657 0.9829961
vt 0.7359879 0.08048696
vt 0.2872048 0.9829961
vt 0.7348455 0.07622326
vt 0.2842439 0.9829961
vt 0.7317242 0.07310195
vt 0.281283 0.9829961
vt 0.7274605 0.07195956
vt 0.278322 0.9829961
vt 0.7231967 0.07310206
vt 0.2753611 0.9829961
vt 0.7200755 0.07622326
vt 0.2724002 0.9829961
vt 0.718933 0.08048696
vt 0.2694393 0.9829961
vt 0.7200755 0.08475072
vt 0.2664784 0.9829961
vt 0.7231967 0.08787198
vt 0.2651756 0.9637328
vt 0.2960875 0.978322
vt 0.2931266 0.978322
vt 0.2901657 0.978322
vt 0.2872048 0.978322
vt 0.2842439 0.978322
vt 0.281283 0.978322
vt 0.278322 0.978322
vt 0.2753611 0.978322
vt 0.2724002 0.978322
vt 0.2694393 0.978322
vt 0.2664784 0.978322
vt 0.2635174 0.978322
vt 0.7274605 0.08901436
vt 0.7317242 0.08787198
vt 0.7333823 0.1024612
vt 0.7348455 0.08475072
vt 0.7304214 0.1024612
vt 0.7274605 0.08936972
vt 0.7274605 0.1024612
vt 0.7348455 0.07622326
vt 0.7244996 0.1024612
vt 0.7317242 0.07310195
vt 0.7215387 0.1024612
vt 0.7274605 0.07195956
vt 0.7185777 0.1024612
vt 0.7231967 0.07310206
vt 0.7156168 0.1024612
vt 0.7126559 0.08936972
vt 0.7126559 0.1024612
vt 0.718933 0.08048696
vt 0.709695 0.1024612
vt 0.7200755 0.08475072
vt 0.7067341 0.1024612
vt 0.7231967 0.08787198
vt 0.7037731 0.1024612
vt 0.7008122 0.1024612
vt 0.2931266 0.978322
vt 0.2931266 0.9829961
vt 0.2901657 0.978322
vt 0.2901657 0.9829961
vt 0.2872048 0.978322
vt 0.2872048 0.9829961
vt 0.2842439 0.978322
vt 0.2842439 0.9829961
vt 0.281283 0.978322
vt 0.281283 0.9829961
vt 0.278322 0.978322
vt 0.278322 0.9829961
vt 0.2753611 0.978322
vt 0.2753611 0.9829961
vt 0.2724002 0.978322
vt 0.2724002 0.9829961
vt 0.2694393 0.978322
vt 0.2694393 0.9829961
vt 0.273703 0.9637328
vt 0.2768242 0.9606116
vt 0.2694393 0.9648752
vt 0.2620543 0.9606116
vt 0.2609119 0.9563478
vt 0.2620543 0.9520841
vt 0.2651756 0.9489629
vt 0.2694393 0.9478204
vt 0.273703 0.9489628
vt 0.2768242 0.9520841
vt 0.2779667 0.9563478
vt 0.2664784 0.978322
vt 0.2664784 0.9829961
vt 0.2635174 0.9829961
vt 0.2635174 0.978322
vt 0.2605565 0.978322
vt 0.2635174 0.9829961
vt 0.2605565 0.9829961
vt 0.7126559 0.1024612
vt 0.709695 0.1024612
vt 0.7333823 0.1024612
vt 0.7304214 0.1024612
vt 0.7200755 0.08475072
vt 0.718933 0.08048696
vt 0.7317242 0.07310195
vt 0.7348455 0.07622326
vt 0.7067341 0.1024612
vt 0.7274605 0.1024612
vt 0.7037731 0.1024612
vt 0.7274605 0.08901436
vt 0.7231967 0.08787198
vt 0.7231967 0.07310206
vt 0.7274605 0.07195956
vt 0.7244996 0.1024612
vt 0.7348455 0.08475072
vt 0.7317242 0.08787198
vt 0.7008122 0.1024612
vt 0.7037731 0.08936972
vt 0.7008122 0.08936972
vt 0.7037731 0.1024612
vt 0.7008122 0.1024612
vt 0.7067341 0.08936972
vt 0.7037731 0.08936972
vt 0.7067341 0.1024612
vt 0.7037731 0.1024612
vt 0.709695 0.08936972
vt 0.7067341 0.08936972
vt 0.709695 0.1024612
vt 0.7067341 0.1024612
vt 0.709695 0.08936972
vt 0.7126559 0.1024612
vt 0.709695 0.1024612
vt 0.7156168 0.08936972
vt 0.7126559 0.08936972
vt 0.7126559 0.1024612
vt 0.7185777 0.08936972
vt 0.7156168 0.08936972
vt 0.7156168 0.1024612
vt 0.7215387 0.08936972
vt 0.7185777 0.08936972
vt 0.7185777 0.1024612
vt 0.7244996 0.08936972
vt 0.7215387 0.08936972
vt 0.7244996 0.1024612
vt 0.7215387 0.1024612
vt 0.7244996 0.08936972
vt 0.7274605 0.1024612
vt 0.7244996 0.1024612
vt 0.7304214 0.08936972
vt 0.7274605 0.08936972
vt 0.7304214 0.1024612
vt 0.7274605 0.1024612
vt 0.7333823 0.08936972
vt 0.7304214 0.08936972
vt 0.7333823 0.1024612
vt 0.7304214 0.1024612
vt 0.7363432 0.08936972
vt 0.7333823 0.08936972
vt 0.7363432 0.1024612
vt 0.7333823 0.1024612
vt 0.7359879 0.08048696
vt 0.7359879 0.08048696
vt 0.7363432 0.1024612
vt 0.7363432 0.1024612
vt 0.7200755 0.07622326
vt 0.7200755 0.07622326
vt 0.7156168 0.1024612
vt 0.7156168 0.1024612
vt 0.7185777 0.1024612
vt 0.7185777 0.1024612
vt 0.7215387 0.1024612
vt 0.7215387 0.1024612
f 25/25/25 2/2/2 26/26/26
f 26/26/26 2/2/2 4/4/4
f 61/61/61 62/62/62 27/27/27
f 27/27/27 62/62/62 6/6/6
f 63/63/63 64/64/64 28/28/28
f 28/28/28 64/64/64 8/8/8
f 65/65/65 66/66/66 29/29/29
f 29/29/29 66/66/66 10/10/10
f 67/67/67 68/68/68 30/30/30
f 30/30/30 68/68/68 12/12/12
f 69/69/69 70/70/70 31/31/31
f 31/31/31 70/70/70 14/14/14
f 71/71/71 72/72/72 32/32/32
f 32/32/32 72/72/72 16/16/16
f 73/73/73 74/74/74 33/33/33
f 33/33/33 74/74/74 18/18/18
f 75/75/75 76/76/76 34/34/34
f 34/34/34 76/76/76 20/20/20
f 77/77/77 78/78/78 35/35/35
f 35/35/35 78/78/78 22/22/22
f 79/79/79 81/81/81 80/80/80
f 81/81/81 24/24/24 80/80/80
f 24/24/24 82/82/82 80/80/80
f 82/82/82 83/83/83 80/80/80
f 83/83/83 84/84/84 80/80/80
f 84/84/84 85/85/85 80/80/80
f 85/85/85 86/86/86 80/80/80
f 86/86/86 87/87/87 80/80/80
f 87/87/87 88/88/88 80/80/80
f 88/88/88 89/89/89 80/80/80
f 90/90/90 91/91/91 36/36/36
f 36/36/36 91/91/91 92/92/92
f 93/93/93 95/95/95 94/94/94
f 94/94/94 95/95/95 96/96/96
f 1/1/1 3/3/3 23/23/23
f 3/3/3 5/5/5 23/23/23
f 5/5/5 7/7/7 23/23/23
f 7/7/7 9/9/9 23/23/23
f 9/9/9 11/11/11 23/23/23
f 11/11/11 13/13/13 23/23/23
f 13/13/13 15/15/15 23/23/23
f 15/15/15 17/17/17 23/23/23
f 17/17/17 19/19/19 23/23/23
f 19/19/19 21/21/21 23/23/23
f 59/59/59 115/115/115 60/60/60
f 107/107/107 115/115/115 59/59/59
f 57/57/57 107/107/107 59/59/59
f 105/105/105 107/107/107 57/57/57
f 55/55/55 105/105/105 57/57/57
f 98/98/98 105/105/105 55/55/55
f 53/53/53 98/98/98 55/55/55
f 97/97/97 98/98/98 53/53/53
f 166/166/166 97/97/97 53/53/53
f 165/165/165 97/97/97 166/166/166
f 168/168/168 165/165/165 166/166/166
f 167/167/167 165/165/165 168/168/168
f 170/170/170 167/167/167 168/168/168
f 169/169/169 167/167/167 170/170/170
f 45/45/45 169/169/169 170/170/170
f 112/112/112 169/169/169 45/45/45
f 43/43/43 112/112/112 45/45/45
f 106/106/106 112/112/112 43/43/43
f 41/41/41 106/106/106 43/43/43
f 100/100/100 106/106/106 41/41/41
f 39/39/39 100/100/100 41/41/41
f 99/99/99 100/100/100 39/39/39
f 162/162/162 99/99/99 39/39/39
f 161/161/161 99/99/99 162/162/162
f 116/116/116 118/118/118 117/117/117
f 117/117/117 118/118/118 119/119/119
f 120/120/120 122/122/122 121/121/121
f 121/121/121 122/122/122 123/123/123
f 124/124/124 126/126/126 125/125/125
f 125/125/125 126/126/126 127/127/127
f 52/52/52 129/129/129 128/128/128
f 128/128/128 129/129/129 130/130/130
f 131/131/131 51/51/51 132/132/132
f 132/132/132 51/51/51 133/133/133
f 134/134/134 49/49/49 135/135/135
f 135/135/135 49/49/49 136/136/136
f 137/137/137 47/47/47 138/138/138
f 138/138/138 47/47/47 139/139/139
f 140/140/140 142/142/142 141/141/141
f 141/141/141 142/142/142 143/143/143
f 42/42/42 145/145/145 144/144/144
f 144/144/144 145/145/145 146/146/146
f 147/147/147 149/149/149 148/148/148
f 148/148/148 149/149/149 150/150/150
f 151/151/151 153/153/153 152/152/152
f 152/152/152 153/153/153 154/154/154
f 155/155/155 157/157/157 156/156/156
f 156/156/156 157/157/157 158/158/158
f 163/163/163 110/110/110 164/164/164
f 54/54/54 163/163/163 164/164/164
f 164/164/164 110/110/110 50/50/50
f 102/102/102 163/163/163 54/54/54
f 110/110/110 111/111/111 50/50/50
f 56/56/56 102/102/102 54/54/54
f 50/50/50 111/111/111 48/48/48
f 101/101/101 102/102/102 56/56/56
f 111/111/111 103/103/103 48/48/48
f 58/58/58 101/101/101 56/56/56
f 48/48/48 103/103/103 46/46/46
f 109/109/109 101/101/101 58/58/58
f 103/103/103 104/104/104 46/46/46
f 37/37/37 109/109/109 58/58/58
f 46/46/46 104/104/104 44/44/44
f 108/108/108 109/109/109 37/37/37
f 104/104/104 159/159/159 44/44/44
f 38/38/38 108/108/108 37/37/37
f 44/44/44 159/159/159 160/160/160
f 114/114/114 108/108/108 38/38/38
f 159/159/159 113/113/113 160/160/160
f 40/40/40 114/114/114 38/38/38
f 160/160/160 113/113/113 40/40/40
f 113/113/113 114/114/114 40/40/40
