mtllib Magnet_for_knifes.mtl
usemtl Magnet_for_knifes

g Magnet_for_knifes
v 0.2058315 -0.009243638 -0.01161634
v 0.2058315 0.009243683 -0.01161634
v 0.2290444 -0.03316966 0.01161634
v 0.2290444 0.03316966 0.01161634
v -0.2058315 -0.009243638 -0.01161634
v -0.2058315 0.009243683 -0.01161634
v -0.2290444 -0.03316966 0.01161634
v -0.2290444 0.03316966 0.01161634
v 0.2290444 -0.03316966 -0.01161634
v 0.2290444 0.03316966 -0.01161634
v -0.2290444 0.03316966 -0.01161634
v -0.2290444 -0.03316966 -0.01161634
v 0.2058315 -0.009243638 -0.01874054
v 0.2058315 0.009243683 -0.01874054
v -0.2058315 0.009243683 -0.01874054
v -0.2058315 -0.009243638 -0.01874054
v 0.2290444 -0.03316966 0.01161634
v 0.2290444 0.03316966 0.01161634
v -0.2290444 -0.03316966 0.01161634
v -0.2290444 0.03316966 0.01161634
v 0.2290444 -0.03316966 0.01161634
v 0.2290444 -0.03316966 -0.01161634
v -0.2290444 -0.03316966 0.01161634
v -0.2290444 -0.03316966 -0.01161634
v -0.2290444 0.03316966 0.01161634
v -0.2290444 0.03316966 -0.01161634
v 0.2290444 0.03316966 0.01161634
v 0.2290444 0.03316966 -0.01161634
v 0.2058315 -0.009243638 -0.01161634
v 0.2290444 -0.03316966 -0.01161634
v 0.2290444 0.03316966 -0.01161634
v -0.2290444 0.03316966 -0.01161634
v -0.2058315 -0.009243638 -0.01161634
v -0.2290444 -0.03316966 -0.01161634
v -0.2058315 -0.009243638 -0.01874054
v 0.2058315 -0.009243638 -0.01874054
v 0.2058315 0.009243683 -0.01161634
v 0.2058315 0.009243683 -0.01874054
v 0.2058315 -0.009243638 -0.01161634
v 0.2058315 -0.009243638 -0.01874054
v -0.2058315 0.009243683 -0.01161634
v -0.2058315 0.009243683 -0.01874054
v 0.2058315 0.009243683 -0.01161634
v 0.2058315 0.009243683 -0.01874054
v -0.2058315 -0.009243638 -0.01161634
v -0.2058315 -0.009243638 -0.01874054
v -0.2058315 0.009243683 -0.01161634
v -0.2058315 0.009243683 -0.01874054

vn 0 -1 0
vn 0 0 -1
vn 1 0 0
vn 1 0 0
vn 0 -1 0
vn 0 0 -1
vn 0 0 1
vn 0 0 1
vn 1 0 0
vn 1 0 0
vn -1 0 0
vn -1 0 0
vn 0 -1 0
vn 0 0 -1
vn 0 0 -1
vn 0 -1 0
vn 0 0 1
vn 0 0 1
vn -1 0 0
vn -1 0 0
vn 0 -1 0
vn 0 -1 0
vn 0 -1 0
vn 0 -1 0
vn 0 1 0
vn 0 1 0
vn 0 1 0
vn 0 1 0
vn 0 0 -1
vn 0 0 -1
vn 0 0 -1
vn 0 0 -1
vn 0 0 -1
vn 0 0 -1
vn 0 0 -1
vn 0 0 -1
vn 1 0 0
vn 1 0 0
vn 1 0 0
vn 1 0 0
vn 0 1 0
vn 0 1 0
vn 0 1 0
vn 0 1 0
vn -1 0 0
vn -1 0 0
vn -1 0 0
vn -1 0 0

vt 0.7675994 0.9875915
vt 0.2253232 0.9273115
vt 0.2155579 0.896973
vt 0.2258444 0.896973
vt 0.7675994 0.9617318
vt 0.2253232 0.9180675
vt 0.2155579 0.9072596
vt 0.2258444 0.9072596
vt 0.2155579 0.8866864
vt 0.2258444 0.8866864
vt 0.2258444 0.9175462
vt 0.2155579 0.9175462
vt 0.7675994 0.9875915
vt 0.7934591 0.9875915
vt 0.7934591 0.9617318
vt 0.7675994 0.9617318
vt 0.2155579 0.896973
vt 0.2258444 0.896973
vt 0.2155579 0.9072596
vt 0.2258444 0.9072596
vt 0.2052713 0.9072596
vt 0.2052713 0.9175462
vt 0.2155579 0.9072596
vt 0.2155579 0.9175462
vt 0.2258444 0.9072596
vt 0.2258444 0.9175462
vt 0.2361311 0.9072596
vt 0.2361311 0.9175462
vt 0.2160791 0.9273115
vt 0.2155579 0.9278328
vt 0.2258444 0.9278328
vt 0.2258444 0.9175462
vt 0.2160791 0.9180675
vt 0.2155579 0.9175462
vt 0.7675994 0.9617318
vt 0.7675994 0.9875915
vt 0.7934591 0.9875915
vt 0.7934591 0.9875915
vt 0.7675994 0.9875915
vt 0.7675994 0.9875915
vt 0.7934591 0.9617318
vt 0.7934591 0.9617318
vt 0.7934591 0.9875915
vt 0.7934591 0.9875915
vt 0.7675994 0.9617318
vt 0.7675994 0.9617318
vt 0.7934591 0.9617318
vt 0.7934591 0.9617318
f 9/9/9 10/10/10 3/3/3
f 3/3/3 10/10/10 4/4/4
f 17/17/17 18/18/18 7/7/7
f 7/7/7 18/18/18 8/8/8
f 19/19/19 20/20/20 12/12/12
f 12/12/12 20/20/20 11/11/11
f 1/1/1 5/5/5 13/13/13
f 13/13/13 5/5/5 16/16/16
f 21/21/21 23/23/23 22/22/22
f 22/22/22 23/23/23 24/24/24
f 25/25/25 27/27/27 26/26/26
f 26/26/26 27/27/27 28/28/28
f 35/35/35 15/15/15 36/36/36
f 36/36/36 15/15/15 14/14/14
f 37/37/37 39/39/39 38/38/38
f 38/38/38 39/39/39 40/40/40
f 41/41/41 43/43/43 42/42/42
f 42/42/42 43/43/43 44/44/44
f 45/45/45 47/47/47 46/46/46
f 46/46/46 47/47/47 48/48/48
f 32/32/32 33/33/33 34/34/34
f 6/6/6 33/33/33 32/32/32
f 33/33/33 29/29/29 34/34/34
f 31/31/31 6/6/6 32/32/32
f 34/34/34 29/29/29 30/30/30
f 2/2/2 6/6/6 31/31/31
f 29/29/29 2/2/2 30/30/30
f 30/30/30 2/2/2 31/31/31
