mtllib Mirror_01.mtl
usemtl Mirror_01

g Mirror_01
v 0.3160813 -0.2596877 -0.02935293
v 0.3160813 0.2596877 -0.02935293
v -0.3160813 -0.2596877 -0.02935296
v -0.3160813 0.2596877 -0.02935296
v 0.337841 -0.2802185 0.02264439
v 0.337841 0.2802185 0.02264439
v -0.337841 -0.2802185 0.02264436
v -0.337841 0.2802185 0.02264436
v -0.337841 -0.2802185 -0.02935296
v 0.337841 -0.2802185 -0.02935293
v 0.337841 0.2802185 -0.02935293
v -0.337841 0.2802185 -0.02935296
v -0.3160813 -0.2596877 -0.01847805
v 0.3160813 -0.2596877 -0.01847803
v 0.3160813 0.2596877 -0.01847803
v -0.3160813 0.2596877 -0.01847805
v -0.337841 -0.2802185 0.02264436
v -0.337841 0.2802185 0.02264436
v 0.337841 -0.2802185 0.02264439
v 0.337841 0.2802185 0.02264439
v -0.337841 -0.2802185 -0.02935296
v -0.337841 -0.2802185 0.02264436
v 0.337841 -0.2802185 -0.02935293
v 0.337841 -0.2802185 0.02264439
v -0.337841 0.2802185 0.02264436
v -0.337841 0.2802185 -0.02935296
v 0.337841 0.2802185 0.02264439
v 0.337841 0.2802185 -0.02935293
v -0.3160813 -0.2596877 -0.02935296
v 0.337841 -0.2802185 -0.02935293
v -0.337841 -0.2802185 -0.02935296
v 0.3160813 -0.2596877 -0.02935293
v 0.337841 0.2802185 -0.02935293
v 0.337841 -0.2802185 -0.02935293
v -0.3160813 0.2596877 -0.02935296
v 0.3160813 0.2596877 -0.02935293
v -0.337841 0.2802185 -0.02935296
v 0.337841 0.2802185 -0.02935293
v -0.3160813 -0.2596877 -0.02935296
v -0.3160813 0.2596877 -0.02935296
v -0.337841 -0.2802185 -0.02935296
v -0.337841 0.2802185 -0.02935296
v -0.3160813 -0.2596877 -0.01847805
v -0.3160813 0.2596877 -0.01847805
v 0.3160813 -0.2596877 -0.02935293
v 0.3160813 0.2596877 -0.02935293
v 0.3160813 -0.2596877 -0.01847803
v 0.3160813 0.2596877 -0.01847803
v 0.3160813 0.2596877 -0.02935293
v -0.3160813 0.2596877 -0.02935296
v 0.3160813 0.2596877 -0.01847803
v -0.3160813 0.2596877 -0.01847805
v -0.3160813 -0.2596877 -0.02935296
v 0.3160813 -0.2596877 -0.02935293
v -0.3160813 -0.2596877 -0.01847805
v 0.3160813 -0.2596877 -0.01847803

vn 0 0 -1
vn 0 0 -1
vn 1 0 0
vn 1 0 0
vn 0 0 1
vn 0 0 1
vn -1 0 0
vn -1 0 0
vn -1 0 0
vn 1 0 0
vn 1 0 0
vn -1 0 0
vn 1 0 0
vn 0 0 -1
vn 0 0 -1
vn 1 0 0
vn 0 0 1
vn 0 0 1
vn 1 0 0
vn 1 0 0
vn 0 -1 0
vn 0 -1 0
vn 0 -1 0
vn 0 -1 0
vn 0 1 0
vn 0 1 0
vn 0 1 0
vn 0 1 0
vn 0 0 -1
vn 0 0 -1
vn 0 0 -1
vn 0 0 -1
vn 0 0 -1
vn 0 0 -1
vn 0 0 -1
vn 0 0 -1
vn 0 0 -1
vn 0 0 -1
vn 0 0 -1
vn 0 0 -1
vn 0 0 -1
vn 0 0 -1
vn 0 0 -1
vn 0 0 -1
vn -1 0 0
vn -1 0 0
vn -1 0 0
vn -1 0 0
vn 0 -1 0
vn 0 -1 0
vn 0 -1 0
vn 0 -1 0
vn 0 1 0
vn 0 1 0
vn 0 1 0
vn 0 1 0

vt 0.5827665 0.01018983
vt 0.5919491 0.01018983
vt 0.5827665 0.01878718
vt 0.5919491 0.01878718
vt 0.5826006 0.03827438
vt 0.5921149 0.03827438
vt 0.5826006 0.02876005
vt 0.5921149 0.02876005
vt 0.5826006 0.01924568
vt 0.5826006 0.04778877
vt 0.5921149 0.04778877
vt 0.5921149 0.01924568
vt 0.5827665 0.01878718
vt 0.9514666 0.582413
vt 0.983631 0.582413
vt 0.5919491 0.01878718
vt 0.5826006 0.02876005
vt 0.5921149 0.02876005
vt 0.5826006 0.03827438
vt 0.5921149 0.03827438
vt 0.5730863 0.02876005
vt 0.5826006 0.02876005
vt 0.5730863 0.03827438
vt 0.5826006 0.03827438
vt 0.5921149 0.02876005
vt 0.6016293 0.02876005
vt 0.5921149 0.03827438
vt 0.6016293 0.03827438
vt 0.5827665 0.01878718
vt 0.5826006 0.009731352
vt 0.5826006 0.01924568
vt 0.5827665 0.01018983
vt 0.5921149 0.009731352
vt 0.5826006 0.009731352
vt 0.5919491 0.01878718
vt 0.5919491 0.01018983
vt 0.5921149 0.01924568
vt 0.5921149 0.009731352
vt 0.5827665 0.01878718
vt 0.5919491 0.01878718
vt 0.5826006 0.01924568
vt 0.5921149 0.01924568
vt 0.9514666 0.6125277
vt 0.983631 0.6125277
vt 0.5827665 0.01018983
vt 0.5919491 0.01018983
vt 0.5827665 0.01018983
vt 0.5919491 0.01018983
vt 0.5919491 0.01018983
vt 0.5919491 0.01878718
vt 0.5919491 0.01018983
vt 0.5919491 0.01878718
vt 0.5827665 0.01878718
vt 0.5827665 0.01018983
vt 0.5827665 0.01878718
vt 0.5827665 0.01018983
f 4/4/4 16/16/16 3/3/3
f 3/3/3 16/16/16 13/13/13
f 9/9/9 7/7/7 12/12/12
f 12/12/12 7/7/7 8/8/8
f 17/17/17 5/5/5 18/18/18
f 18/18/18 5/5/5 6/6/6
f 19/19/19 10/10/10 20/20/20
f 20/20/20 10/10/10 11/11/11
f 21/21/21 23/23/23 22/22/22
f 22/22/22 23/23/23 24/24/24
f 25/25/25 27/27/27 26/26/26
f 26/26/26 27/27/27 28/28/28
f 1/1/1 30/30/30 29/29/29
f 29/29/29 30/30/30 31/31/31
f 2/2/2 33/33/33 32/32/32
f 32/32/32 33/33/33 34/34/34
f 35/35/35 37/37/37 36/36/36
f 36/36/36 37/37/37 38/38/38
f 39/39/39 41/41/41 40/40/40
f 40/40/40 41/41/41 42/42/42
f 14/14/14 43/43/43 15/15/15
f 15/15/15 43/43/43 44/44/44
f 45/45/45 47/47/47 46/46/46
f 46/46/46 47/47/47 48/48/48
f 49/49/49 51/51/51 50/50/50
f 50/50/50 51/51/51 52/52/52
f 53/53/53 55/55/55 54/54/54
f 54/54/54 55/55/55 56/56/56
