mtllib PC_Carpet.mtl
usemtl PC_Carpet

g PC_Carpet
v 0.1113445 0 -0.09676767
v 0.1217336 0 -0.08850919
v 0.1153202 0 -0.09613902
v 0.1186907 0 -0.09434881
v 0.1209428 0 -0.09166957
v 0.1217336 0.002280334 -0.08850919
v 0.1113445 0.002280334 -0.09676767
v 0.1209428 0.002280334 -0.09166957
v 0.1186907 0.002280334 -0.09434881
v 0.1153202 0.002280334 -0.09613902
v 0.1217336 0 0.08850919
v 0.1113445 0 0.09676767
v 0.1209428 0 0.09166957
v 0.1186907 0 0.09434881
v 0.1153202 0 0.09613902
v 0.1113445 0.002280334 0.09676767
v 0.1217336 0.002280334 0.08850919
v 0.1153202 0.002280334 0.09613902
v 0.1186907 0.002280334 0.09434881
v 0.1209428 0.002280334 0.09166957
v -0.1217336 0 -0.08850919
v -0.1113445 0 -0.09676767
v -0.1209428 0 -0.09166957
v -0.1186907 0 -0.09434881
v -0.1153202 0 -0.09613902
v -0.1113445 0.002280334 -0.09676767
v -0.1217336 0.002280334 -0.08850919
v -0.1153202 0.002280334 -0.09613902
v -0.1186907 0.002280334 -0.09434881
v -0.1209428 0.002280334 -0.09166957
v -0.1113445 0 0.09676767
v -0.1217336 0 0.08850919
v -0.1153202 0 0.09613902
v -0.1186907 0 0.09434881
v -0.1209428 0 0.09166957
v -0.1217336 0.002280334 0.08850919
v -0.1113445 0.002280334 0.09676767
v -0.1209428 0.002280334 0.09166957
v -0.1186907 0.002280334 0.09434881
v -0.1153202 0.002280334 0.09613902
v -0.1217336 0.002280334 0.08850919
v -0.1217336 0.002280334 -0.08850919
v -0.1113445 0.002280334 -0.09676767
v 0.1113445 0.002280334 0.09676767
v -0.1113445 0.002280334 -0.09676767
v 0.1153202 0.002280334 0.09613902
v -0.1113445 0.002280334 -0.09676767
v 0.1113445 0.002280334 -0.09676767
v 0.1217336 0.002280334 -0.08850919
v 0.1217336 0.002280334 0.08850919
v 0.1113445 0.002280334 0.09676767
v -0.1113445 0.002280334 0.09676767
v 0.1113445 0 -0.09676767
v 0.1113445 0.002280334 -0.09676767
v 0.1153202 0.002280334 -0.09613902
v 0.1153202 0 -0.09613902
v 0.1153202 0.002280334 -0.09613902
v 0.1186907 0.002280334 -0.09434881
v 0.1186907 0 -0.09434881
v 0.1186907 0.002280334 -0.09434881
v 0.1209428 0.002280334 -0.09166957
v 0.1209428 0 -0.09166957
v 0.1217336 0 -0.08850919
v 0.1209428 0.002280334 -0.09166957
v 0.1217336 0.002280334 -0.08850919
v 0.1113445 0.002280334 0.09676767
v 0.1153202 0.002280334 0.09613902
v 0.1113445 0 0.09676767
v 0.1153202 0.002280334 0.09613902
v 0.1186907 0.002280334 0.09434881
v 0.1153202 0 0.09613902
v 0.1186907 0.002280334 0.09434881
v 0.1209428 0.002280334 0.09166957
v 0.1186907 0 0.09434881
v 0.1209428 0.002280334 0.09166957
v 0.1217336 0.002280334 0.08850919
v 0.1209428 0 0.09166957
v 0.1217336 0 0.08850919
v -0.1217336 0.002280334 0.08850919
v -0.1209428 0.002280334 0.09166957
v -0.1217336 0 0.08850919
v -0.1209428 0.002280334 0.09166957
v -0.1186907 0.002280334 0.09434881
v -0.1209428 0 0.09166957
v -0.1186907 0.002280334 0.09434881
v -0.1153202 0.002280334 0.09613902
v -0.1186907 0 0.09434881
v -0.1153202 0.002280334 0.09613902
v -0.1113445 0.002280334 0.09676767
v -0.1153202 0 0.09613902
v -0.1113445 0 0.09676767
v -0.1113445 0.002280334 -0.09676767
v -0.1153202 0.002280334 -0.09613902
v -0.1113445 0 -0.09676767
v -0.1153202 0.002280334 -0.09613902
v -0.1186907 0.002280334 -0.09434881
v -0.1153202 0 -0.09613902
v -0.1186907 0.002280334 -0.09434881
v -0.1209428 0.002280334 -0.09166957
v -0.1186907 0 -0.09434881
v -0.1209428 0.002280334 -0.09166957
v -0.1217336 0.002280334 -0.08850919
v -0.1209428 0 -0.09166957
v -0.1217336 0 -0.08850919
v 0.1209428 0 0.09166957
v 0.1217336 0 0.08850919
v 0.1186907 0 0.09434881
v 0.1153202 0 0.09613902
v 0.1217336 0 -0.08850919
v 0.1153202 0 0.09613902
v 0.1217336 0 -0.08850919
v 0.1113445 0 0.09676767
v 0.1113445 0 0.09676767
v 0.1217336 0 -0.08850919
v -0.1113445 0 0.09676767
v 0.1209428 0 -0.09166957
v 0.1186907 0 -0.09434881
v 0.1153202 0 -0.09613902
v 0.1113445 0 -0.09676767
v -0.1153202 0 0.09613902
v -0.1186907 0 0.09434881
v -0.1209428 0 0.09166957
v -0.1217336 0 0.08850919
v -0.1209428 0 -0.09166957
v -0.1217336 0 -0.08850919
v -0.1186907 0 -0.09434881
v -0.1153202 0 -0.09613902
v -0.1113445 0 -0.09676767

vn 0 0 -1
vn 1 0 0
vn 0.1561804 0 -0.9877286
vn 0.4690817 0 -0.8831548
vn 0.7654936 0 -0.6434435
vn 0 1 0
vn 0 0 -1
vn 0 1 0
vn 0 1 0
vn 0 1 0
vn 1 0 0
vn 0 0 1
vn 0.7654936 0 0.6434435
vn 0.4690817 0 0.8831548
vn 0.1561804 0 0.9877286
vn 0 1 0
vn 0 1 0
vn 0 1 0
vn 0 1 0
vn 0 1 0
vn -1 0 0
vn 0 0 -1
vn -0.7654936 0 -0.6434435
vn -0.4690817 0 -0.8831548
vn -0.1561804 0 -0.9877286
vn 0 0 -1
vn -1 0 0
vn 0 1 0
vn 0 1 0
vn 0 1 0
vn 0 0 1
vn -1 0 0
vn -0.4690817 0 0.8831548
vn -0.7654936 0 0.6434435
vn -0.970088 0 0.2427537
vn -1 0 0
vn 0 1 0
vn 0 1 0
vn 0 1 0
vn 0 1 0
vn 0 1 0
vn 0 1 0
vn 0 1 0
vn 0 1 0
vn 0 1 0
vn 0 1 0
vn 0 1 0
vn 0 1 0
vn 1 0 0
vn 1 0 0
vn 0 0 1
vn 0 0 1
vn 0.1561804 0 -0.9877286
vn 0.1561804 0 -0.9877286
vn 0.1561804 0 -0.9877286
vn 0.4690817 0 -0.8831548
vn 0.4690817 0 -0.8831548
vn 0.4690817 0 -0.8831548
vn 0.7654936 0 -0.6434435
vn 0.7654936 0 -0.6434435
vn 0.7654936 0 -0.6434435
vn 0.970088 0 -0.2427537
vn 0.970088 0 -0.2427537
vn 0.970088 0 -0.2427537
vn 0.970088 0 -0.2427537
vn 0.1561804 0 0.9877286
vn 0.1561804 0 0.9877286
vn 0.1561804 0 0.9877286
vn 0.4690817 0 0.8831548
vn 0.4690817 0 0.8831548
vn 0.4690817 0 0.8831548
vn 0.7654936 0 0.6434435
vn 0.7654936 0 0.6434435
vn 0.7654936 0 0.6434435
vn 0.970088 0 0.2427537
vn 0.970088 0 0.2427537
vn 0.970088 0 0.2427537
vn 0.970088 0 0.2427537
vn -0.970088 0 0.2427537
vn -0.970088 0 0.2427537
vn -0.970088 0 0.2427537
vn -0.7654936 0 0.6434435
vn -0.7654936 0 0.6434435
vn -0.7654936 0 0.6434435
vn -0.4690817 0 0.8831548
vn -0.4690817 0 0.8831548
vn -0.4690817 0 0.8831548
vn -0.1561804 0 0.9877286
vn -0.1561804 0 0.9877286
vn -0.1561804 0 0.9877286
vn -0.1561804 0 0.9877286
vn -0.1561804 0 -0.9877286
vn -0.1561804 0 -0.9877286
vn -0.1561804 0 -0.9877286
vn -0.4690817 0 -0.8831548
vn -0.4690817 0 -0.8831548
vn -0.4690817 0 -0.8831548
vn -0.7654936 0 -0.6434435
vn -0.7654936 0 -0.6434435
vn -0.7654936 0 -0.6434435
vn -0.970088 0 -0.2427537
vn -0.970088 0 -0.2427537
vn -0.970088 0 -0.2427537
vn -0.970088 0 -0.2427537
vn 0 -1 0
vn 0 -1 0
vn 0 -1 0
vn 0 -1 0
vn 0 -1 0
vn 0 -1 0
vn 0 -1 0
vn 0 -1 0
vn 0 -1 0
vn 0 -1 0
vn 0 -1 0
vn 0 -1 0
vn 0 -1 0
vn 0 -1 0
vn 0 -1 0
vn 0 -1 0
vn 0 -1 0
vn 0 -1 0
vn 0 -1 0
vn 0 -1 0
vn 0 -1 0
vn 0 -1 0
vn 0 -1 0
vn 0 -1 0

vt 0.4012055 0.989467
vt 0.4012055 0.9480913
vt 0.4012055 0.9896396
vt 0.4012055 0.989918
vt 0.4012055 0.9479187
vt 0.4223444 0.9788976
vt 0.411775 0.989467
vt 0.4223101 0.9790701
vt 0.4222123 0.9792165
vt 0.422066 0.9793143
vt 0.4012055 0.9577587
vt 0.4012055 0.9586607
vt 0.3976938 0.9616401
vt 0.3977264 0.9617769
vt 0.3977752 0.9619299
vt 0.4218934 0.9687791
vt 0.4223444 0.9692302
vt 0.4152053 0.9619299
vt 0.4152541 0.9617769
vt 0.4152867 0.9616401
vt 0.4012055 0.9788976
vt 0.4012055 0.9797996
vt 0.4011941 0.9790702
vt 0.4011615 0.9793046
vt 0.4011127 0.9795228
vt 0.411775 0.9797996
vt 0.411775 0.9788976
vt 0.4118678 0.9795228
vt 0.411819 0.9793046
vt 0.4117864 0.9790702
vt 0.4012055 0.9683281
vt 0.4012055 0.9692302
vt 0.4011127 0.968605
vt 0.4011615 0.9688232
vt 0.4011941 0.9690576
vt 0.411775 0.9692302
vt 0.412226 0.9687791
vt 0.4117864 0.9690576
vt 0.411819 0.9688232
vt 0.4118678 0.968605
vt 0.411775 0.9692302
vt 0.411775 0.9788976
vt 0.412226 0.9793486
vt 0.4218934 0.9687791
vt 0.412226 0.9793486
vt 0.4152053 0.9619299
vt 0.412226 0.9793486
vt 0.4218934 0.9793486
vt 0.411775 0.9480913
vt 0.411775 0.9577587
vt 0.411775 0.9586607
vt 0.411775 0.9683281
vt 0.4012055 0.989467
vt 0.411775 0.989467
vt 0.411775 0.9896396
vt 0.4012055 0.9896396
vt 0.411775 0.9896396
vt 0.411775 0.989918
vt 0.4012055 0.9476403
vt 0.411775 0.9476403
vt 0.411775 0.9479187
vt 0.4012055 0.9479187
vt 0.4012055 0.9480913
vt 0.411775 0.9479187
vt 0.411775 0.9480913
vt 0.411775 0.9586607
vt 0.4152053 0.9619299
vt 0.4012055 0.9586607
vt 0.4152053 0.9619299
vt 0.4152541 0.9617769
vt 0.3977752 0.9619299
vt 0.4152541 0.9617769
vt 0.4152867 0.9616401
vt 0.3977264 0.9617769
vt 0.4152867 0.9616401
vt 0.411775 0.9577587
vt 0.3976938 0.9616401
vt 0.4012055 0.9577587
vt 0.411775 0.9692302
vt 0.4117864 0.9690576
vt 0.4012055 0.9692302
vt 0.4117864 0.9690576
vt 0.411819 0.9688232
vt 0.4011941 0.9690576
vt 0.411819 0.9688232
vt 0.4118678 0.968605
vt 0.4011615 0.9688232
vt 0.4118678 0.968605
vt 0.411775 0.9683281
vt 0.4011127 0.968605
vt 0.4012055 0.9683281
vt 0.411775 0.9797996
vt 0.4118678 0.9795228
vt 0.4012055 0.9797996
vt 0.4118678 0.9795228
vt 0.411819 0.9793046
vt 0.4011127 0.9795228
vt 0.411819 0.9793046
vt 0.4117864 0.9790702
vt 0.4011615 0.9793046
vt 0.4117864 0.9790702
vt 0.411775 0.9788976
vt 0.4011941 0.9790702
vt 0.4012055 0.9788976
vt 0.3976938 0.9616401
vt 0.3906361 0.9692302
vt 0.3977264 0.9617769
vt 0.3977752 0.9619299
vt 0.3906361 0.9788976
vt 0.3977752 0.9619299
vt 0.3906361 0.9788976
vt 0.3910872 0.9687791
vt 0.3910872 0.9687791
vt 0.3906361 0.9788976
vt 0.4007545 0.9687791
vt 0.3906704 0.9790701
vt 0.3907682 0.9792165
vt 0.3909146 0.9793143
vt 0.3910871 0.9793486
vt 0.4011127 0.968605
vt 0.4011615 0.9688232
vt 0.4011941 0.9690576
vt 0.4012055 0.9692302
vt 0.4011941 0.9790702
vt 0.4012055 0.9788976
vt 0.4011615 0.9793046
vt 0.4011127 0.9795228
vt 0.4007545 0.9793486
f 44/44/44 18/18/18 45/45/45
f 110/110/110 112/112/112 111/111/111
f 22/22/22 26/26/26 1/1/1
f 1/1/1 26/26/26 7/7/7
f 32/32/32 36/36/36 21/21/21
f 21/21/21 36/36/36 27/27/27
f 38/38/38 39/39/39 41/41/41
f 39/39/39 40/40/40 41/41/41
f 41/41/41 40/40/40 42/42/42
f 40/40/40 37/37/37 42/42/42
f 37/37/37 16/16/16 42/42/42
f 42/42/42 16/16/16 30/30/30
f 30/30/30 16/16/16 29/29/29
f 29/29/29 16/16/16 28/28/28
f 28/28/28 16/16/16 43/43/43
f 46/46/46 19/19/19 47/47/47
f 19/19/19 20/20/20 47/47/47
f 20/20/20 17/17/17 47/47/47
f 17/17/17 48/48/48 47/47/47
f 10/10/10 48/48/48 17/17/17
f 6/6/6 10/10/10 17/17/17
f 9/9/9 10/10/10 6/6/6
f 8/8/8 9/9/9 6/6/6
f 2/2/2 49/49/49 11/11/11
f 11/11/11 49/49/49 50/50/50
f 12/12/12 51/51/51 31/31/31
f 31/31/31 51/51/51 52/52/52
f 53/53/53 54/54/54 3/3/3
f 3/3/3 54/54/54 55/55/55
f 56/56/56 57/57/57 4/4/4
f 4/4/4 57/57/57 58/58/58
f 59/59/59 60/60/60 5/5/5
f 5/5/5 60/60/60 61/61/61
f 62/62/62 64/64/64 63/63/63
f 63/63/63 64/64/64 65/65/65
f 66/66/66 68/68/68 67/67/67
f 67/67/67 68/68/68 15/15/15
f 69/69/69 71/71/71 70/70/70
f 70/70/70 71/71/71 14/14/14
f 72/72/72 74/74/74 73/73/73
f 73/73/73 74/74/74 13/13/13
f 75/75/75 77/77/77 76/76/76
f 76/76/76 77/77/77 78/78/78
f 79/79/79 81/81/81 80/80/80
f 80/80/80 81/81/81 35/35/35
f 82/82/82 84/84/84 83/83/83
f 83/83/83 84/84/84 34/34/34
f 85/85/85 87/87/87 86/86/86
f 86/86/86 87/87/87 33/33/33
f 88/88/88 90/90/90 89/89/89
f 89/89/89 90/90/90 91/91/91
f 92/92/92 94/94/94 93/93/93
f 93/93/93 94/94/94 25/25/25
f 95/95/95 97/97/97 96/96/96
f 96/96/96 97/97/97 24/24/24
f 98/98/98 100/100/100 99/99/99
f 99/99/99 100/100/100 23/23/23
f 101/101/101 103/103/103 102/102/102
f 102/102/102 103/103/103 104/104/104
f 105/105/105 107/107/107 106/106/106
f 107/107/107 108/108/108 106/106/106
f 106/106/106 108/108/108 109/109/109
f 113/113/113 115/115/115 114/114/114
f 114/114/114 115/115/115 116/116/116
f 116/116/116 115/115/115 117/117/117
f 117/117/117 115/115/115 118/118/118
f 118/118/118 115/115/115 119/119/119
f 115/115/115 120/120/120 119/119/119
f 120/120/120 121/121/121 119/119/119
f 121/121/121 122/122/122 119/119/119
f 122/122/122 123/123/123 119/119/119
f 123/123/123 128/128/128 119/119/119
f 127/127/127 128/128/128 123/123/123
f 125/125/125 127/127/127 123/123/123
f 126/126/126 127/127/127 125/125/125
f 124/124/124 126/126/126 125/125/125
