mtllib PC_Table.mtl
usemtl PC_Table

g PC_Table
v -0.6124784 0.6766562 -0.3372764
v -0.6124784 0.7149355 -0.3372764
v 0.6147666 0.6766562 -0.3330874
v 0.6147666 0.7149355 -0.3330874
v -0.6147666 0.6766562 0.3330874
v -0.6147666 0.7149355 0.3330874
v 0.6124784 0.6766562 0.3372764
v 0.6124784 0.7149355 0.3372764
v -0.5420668 7.602909E-05 -0.2580451
v -0.5420668 0.68026 -0.2580451
v -0.4828037 7.602909E-05 -0.2579154
v -0.4828037 0.68026 -0.2579154
v -0.542227 7.602909E-05 -0.2111014
v -0.542227 0.68026 -0.2111014
v -0.4829571 7.602909E-05 -0.2109718
v -0.4829571 0.68026 -0.2109718
v 0.4778219 7.602909E-05 -0.2544898
v 0.4778219 0.68026 -0.2544898
v 0.5374684 7.602909E-05 -0.2543602
v 0.5374684 0.68026 -0.2543602
v 0.4776686 7.602909E-05 -0.2075462
v 0.4776686 0.68026 -0.2075462
v 0.5373082 7.602909E-05 -0.2074165
v 0.5373082 0.68026 -0.2074165
v 0.4761912 7.602909E-05 0.2118712
v 0.4761912 0.68026 0.2118712
v 0.5357648 7.602909E-05 0.2120008
v 0.5357648 0.68026 0.2120008
v 0.4760379 7.602909E-05 0.2588148
v 0.4760379 0.68026 0.2588148
v 0.5356046 7.602909E-05 0.2589445
v 0.5356046 0.68026 0.2589445
v -0.5579627 7.602909E-05 0.208268
v -0.5579627 0.68026 0.208268
v -0.4980194 7.602909E-05 0.2083976
v -0.4980194 0.68026 0.2083976
v -0.5581228 7.602909E-05 0.2552116
v -0.5581228 0.68026 0.2552116
v -0.4981728 7.602909E-05 0.2553413
v -0.4981728 0.68026 0.2553413
v 0.6147666 0.6766562 -0.3330874
v 0.6147666 0.7149355 -0.3330874
v 0.6124784 0.6766562 0.3372764
v 0.6124784 0.7149355 0.3372764
v -0.6147666 0.6766562 0.3330874
v -0.6124784 0.6766562 -0.3372764
v -0.6147666 0.7149355 0.3330874
v -0.6124784 0.7149355 -0.3372764
v 0.6147666 0.6766562 -0.3330874
v -0.6124784 0.6766562 -0.3372764
v 0.6124784 0.6766562 0.3372764
v -0.6147666 0.6766562 0.3330874
v 0.6124784 0.7149355 0.3372764
v -0.6147666 0.7149355 0.3330874
v 0.6147666 0.7149355 -0.3330874
v -0.6124784 0.7149355 -0.3372764
v -0.4828037 7.602909E-05 -0.2579154
v -0.4828037 0.68026 -0.2579154
v -0.4829571 7.602909E-05 -0.2109718
v -0.4829571 0.68026 -0.2109718
v -0.542227 7.602909E-05 -0.2111014
v -0.5420668 7.602909E-05 -0.2580451
v -0.542227 0.68026 -0.2111014
v -0.5420668 0.68026 -0.2580451
v -0.4828037 7.602909E-05 -0.2579154
v -0.5420668 7.602909E-05 -0.2580451
v -0.4829571 7.602909E-05 -0.2109718
v -0.542227 7.602909E-05 -0.2111014
v -0.4828037 0.68026 -0.2579154
v -0.4829571 0.68026 -0.2109718
v -0.5420668 0.68026 -0.2580451
v -0.542227 0.68026 -0.2111014
v 0.5374684 7.602909E-05 -0.2543602
v 0.5374684 0.68026 -0.2543602
v 0.5373082 7.602909E-05 -0.2074165
v 0.5373082 0.68026 -0.2074165
v 0.4776686 7.602909E-05 -0.2075462
v 0.4778219 7.602909E-05 -0.2544898
v 0.4776686 0.68026 -0.2075462
v 0.4778219 0.68026 -0.2544898
v 0.5374684 7.602909E-05 -0.2543602
v 0.4778219 7.602909E-05 -0.2544898
v 0.5373082 7.602909E-05 -0.2074165
v 0.4776686 7.602909E-05 -0.2075462
v 0.5374684 0.68026 -0.2543602
v 0.5373082 0.68026 -0.2074165
v 0.4778219 0.68026 -0.2544898
v 0.4776686 0.68026 -0.2075462
v 0.5357648 7.602909E-05 0.2120008
v 0.5357648 0.68026 0.2120008
v 0.5356046 7.602909E-05 0.2589445
v 0.5356046 0.68026 0.2589445
v 0.4760379 7.602909E-05 0.2588148
v 0.4761912 7.602909E-05 0.2118712
v 0.4760379 0.68026 0.2588148
v 0.4761912 0.68026 0.2118712
v 0.5357648 7.602909E-05 0.2120008
v 0.4761912 7.602909E-05 0.2118712
v 0.5356046 7.602909E-05 0.2589445
v 0.4760379 7.602909E-05 0.2588148
v 0.5357648 0.68026 0.2120008
v 0.5356046 0.68026 0.2589445
v 0.4761912 0.68026 0.2118712
v 0.4760379 0.68026 0.2588148
v -0.4980194 7.602909E-05 0.2083976
v -0.4980194 0.68026 0.2083976
v -0.4981728 7.602909E-05 0.2553413
v -0.4981728 0.68026 0.2553413
v -0.5581228 7.602909E-05 0.2552116
v -0.5579627 7.602909E-05 0.208268
v -0.5581228 0.68026 0.2552116
v -0.5579627 0.68026 0.208268
v -0.4980194 7.602909E-05 0.2083976
v -0.5579627 7.602909E-05 0.208268
v -0.4981728 7.602909E-05 0.2553413
v -0.5581228 7.602909E-05 0.2552116
v -0.4980194 0.68026 0.2083976
v -0.4981728 0.68026 0.2553413
v -0.5579627 0.68026 0.208268
v -0.5581228 0.68026 0.2552116

vn 0.003413385 0 -0.9999942
vn 0.003413385 0 -0.9999942
vn 0.003413385 0 -0.9999942
vn 0.003413385 0 -0.9999942
vn -0.003413385 0 0.9999942
vn -0.003413385 0 0.9999942
vn 0.9999942 0 0.003413336
vn 0.9999942 0 0.003413336
vn 0.00218809 0 -0.9999976
vn 0.00218809 0 -0.9999976
vn 0.00218809 0 -0.9999976
vn 0.00218809 0 -0.9999976
vn -0.002187558 0 0.9999976
vn -0.002187558 0 0.9999976
vn 0.9999946 0 0.003267885
vn 0.9999946 0 0.003267885
vn 0.002173748 0 -0.9999976
vn 0.002173748 0 -0.9999976
vn 0.002173748 0 -0.9999976
vn 0.002173748 0 -0.9999976
vn -0.002173999 0 0.9999976
vn -0.002173999 0 0.9999976
vn 0.9999942 0 0.00341307
vn 0.9999942 0 0.00341307
vn 0.002176131 0 -0.9999976
vn 0.002176131 0 -0.9999976
vn 0.002176131 0 -0.9999976
vn 0.002176131 0 -0.9999976
vn -0.00217694 0 0.9999976
vn -0.00217694 0 0.9999976
vn 0.9999942 0 0.003413069
vn 0.9999942 0 0.003413069
vn 0.002162713 0 -0.9999977
vn 0.002162713 0 -0.9999977
vn 0.002162713 0 -0.9999977
vn 0.002162713 0 -0.9999977
vn -0.002162465 0 0.9999977
vn -0.002162465 0 0.9999977
vn 0.9999946 0 0.003266732
vn 0.9999946 0 0.003266732
vn 0.9999942 0 0.003413336
vn 0.9999942 0 0.003413336
vn -0.003413385 0 0.9999942
vn -0.003413385 0 0.9999942
vn -0.9999942 0 -0.003413336
vn -0.9999942 0 -0.003413336
vn -0.9999942 0 -0.003413336
vn -0.9999942 0 -0.003413336
vn 0 -1 0
vn 0 -1 0
vn 0 -1 0
vn 0 -1 0
vn 0 1 0
vn 0 1 0
vn 0 1 0
vn 0 1 0
vn 0.9999946 0 0.003267885
vn 0.9999946 0 0.003267885
vn -0.002187558 0 0.9999976
vn -0.002187558 0 0.9999976
vn -0.9999942 0 -0.003414223
vn -0.9999942 0 -0.003414223
vn -0.9999942 0 -0.003414223
vn -0.9999942 0 -0.003414223
vn 0 -1 0
vn 0 -1 0
vn 0 -1 0
vn 0 -1 0
vn 0 1 0
vn 0 1 0
vn 0 1 0
vn 0 1 0
vn 0.9999942 0 0.00341307
vn 0.9999942 0 0.00341307
vn -0.002173999 0 0.9999976
vn -0.002173999 0 0.9999976
vn -0.9999946 0 -0.003266732
vn -0.9999946 0 -0.003266732
vn -0.9999946 0 -0.003266732
vn -0.9999946 0 -0.003266732
vn 0 -1 0
vn 0 -1 0
vn 0 -1 0
vn 0 -1 0
vn 0 1 0
vn 0 1 0
vn 0 1 0
vn 0 1 0
vn 0.9999942 0 0.003413069
vn 0.9999942 0 0.003413069
vn -0.00217694 0 0.9999976
vn -0.00217694 0 0.9999976
vn -0.9999948 0 -0.003265581
vn -0.9999948 0 -0.003265581
vn -0.9999948 0 -0.003265581
vn -0.9999948 0 -0.003265581
vn 0 -1 0
vn 0 -1 0
vn 0 -1 0
vn 0 -1 0
vn 0 1 0
vn 0 1 0
vn 0 1 0
vn 0 1 0
vn 0.9999946 0 0.003266732
vn 0.9999946 0 0.003266732
vn -0.002162465 0 0.9999977
vn -0.002162465 0 0.9999977
vn -0.9999942 0 -0.00341307
vn -0.9999942 0 -0.00341307
vn -0.9999942 0 -0.00341307
vn -0.9999942 0 -0.00341307
vn 0 -1 0
vn 0 -1 0
vn 0 -1 0
vn 0 -1 0
vn 0 1 0
vn 0 1 0
vn 0 1 0
vn 0 1 0

vt 0.1492789 0.9488547
vt 0.1592411 0.9488547
vt 0.1492789 0.9588169
vt 0.1592411 0.9588169
vt 0.1492789 0.9787414
vt 0.1592411 0.9787414
vt 0.1492789 0.9687791
vt 0.1592411 0.9687791
vt 0.1492789 0.9488547
vt 0.1592411 0.9488547
vt 0.1492789 0.9588169
vt 0.1592411 0.9588169
vt 0.1492789 0.9787414
vt 0.1592411 0.9787414
vt 0.1492789 0.9687791
vt 0.1592411 0.9687791
vt 0.1492789 0.9488547
vt 0.1592411 0.9488547
vt 0.1492789 0.9588169
vt 0.1592411 0.9588169
vt 0.1492789 0.9787414
vt 0.1592411 0.9787414
vt 0.1492789 0.9687791
vt 0.1592411 0.9687791
vt 0.1492789 0.9488547
vt 0.1592411 0.9488547
vt 0.1492789 0.9588169
vt 0.1592411 0.9588169
vt 0.1492789 0.9787414
vt 0.1592411 0.9787414
vt 0.1492789 0.9687791
vt 0.1592411 0.9687791
vt 0.1492789 0.9488547
vt 0.1592411 0.9488547
vt 0.1492789 0.9588169
vt 0.1592411 0.9588169
vt 0.1492789 0.9787414
vt 0.1592411 0.9787414
vt 0.1492789 0.9687791
vt 0.1592411 0.9687791
vt 0.1492789 0.9588169
vt 0.1592411 0.9588169
vt 0.1492789 0.9687791
vt 0.1592411 0.9687791
vt 0.1492789 0.9787414
vt 0.1492789 0.9887036
vt 0.1592411 0.9787414
vt 0.1592411 0.9887036
vt 0.1393167 0.9687791
vt 0.1393167 0.9787414
vt 0.1492789 0.9687791
vt 0.1492789 0.9787414
vt 0.1592411 0.9687791
vt 0.1592411 0.9787414
vt 0.1692034 0.9687791
vt 0.1692034 0.9787414
vt 0.1492789 0.9588169
vt 0.1592411 0.9588169
vt 0.1492789 0.9687791
vt 0.1592411 0.9687791
vt 0.1492789 0.9787414
vt 0.1492789 0.9887036
vt 0.1592411 0.9787414
vt 0.1592411 0.9887036
vt 0.1393167 0.9687791
vt 0.1393167 0.9787414
vt 0.1492789 0.9687791
vt 0.1492789 0.9787414
vt 0.1692034 0.9687791
vt 0.1592411 0.9687791
vt 0.1692034 0.9787414
vt 0.1592411 0.9787414
vt 0.1492789 0.9588169
vt 0.1592411 0.9588169
vt 0.1492789 0.9687791
vt 0.1592411 0.9687791
vt 0.1492789 0.9787414
vt 0.1492789 0.9887036
vt 0.1592411 0.9787414
vt 0.1592411 0.9887036
vt 0.1393167 0.9687791
vt 0.1393167 0.9787414
vt 0.1492789 0.9687791
vt 0.1492789 0.9787414
vt 0.1692034 0.9687791
vt 0.1592411 0.9687791
vt 0.1692034 0.9787414
vt 0.1592411 0.9787414
vt 0.1492789 0.9588169
vt 0.1592411 0.9588169
vt 0.1492789 0.9687791
vt 0.1592411 0.9687791
vt 0.1492789 0.9787414
vt 0.1492789 0.9887036
vt 0.1592411 0.9787414
vt 0.1592411 0.9887036
vt 0.1393167 0.9687791
vt 0.1393167 0.9787414
vt 0.1492789 0.9687791
vt 0.1492789 0.9787414
vt 0.1692034 0.9687791
vt 0.1592411 0.9687791
vt 0.1692034 0.9787414
vt 0.1592411 0.9787414
vt 0.1492789 0.9588169
vt 0.1592411 0.9588169
vt 0.1492789 0.9687791
vt 0.1592411 0.9687791
vt 0.1492789 0.9787414
vt 0.1492789 0.9887036
vt 0.1592411 0.9787414
vt 0.1592411 0.9887036
vt 0.1393167 0.9687791
vt 0.1393167 0.9787414
vt 0.1492789 0.9687791
vt 0.1492789 0.9787414
vt 0.1692034 0.9687791
vt 0.1592411 0.9687791
vt 0.1692034 0.9787414
vt 0.1592411 0.9787414
f 1/1/1 2/2/2 3/3/3
f 3/3/3 2/2/2 4/4/4
f 41/41/41 42/42/42 7/7/7
f 7/7/7 42/42/42 8/8/8
f 43/43/43 44/44/44 5/5/5
f 5/5/5 44/44/44 6/6/6
f 45/45/45 47/47/47 46/46/46
f 46/46/46 47/47/47 48/48/48
f 49/49/49 51/51/51 50/50/50
f 50/50/50 51/51/51 52/52/52
f 53/53/53 55/55/55 54/54/54
f 54/54/54 55/55/55 56/56/56
f 9/9/9 10/10/10 11/11/11
f 11/11/11 10/10/10 12/12/12
f 57/57/57 58/58/58 15/15/15
f 15/15/15 58/58/58 16/16/16
f 59/59/59 60/60/60 13/13/13
f 13/13/13 60/60/60 14/14/14
f 61/61/61 63/63/63 62/62/62
f 62/62/62 63/63/63 64/64/64
f 65/65/65 67/67/67 66/66/66
f 66/66/66 67/67/67 68/68/68
f 69/69/69 71/71/71 70/70/70
f 70/70/70 71/71/71 72/72/72
f 17/17/17 18/18/18 19/19/19
f 19/19/19 18/18/18 20/20/20
f 73/73/73 74/74/74 23/23/23
f 23/23/23 74/74/74 24/24/24
f 75/75/75 76/76/76 21/21/21
f 21/21/21 76/76/76 22/22/22
f 77/77/77 79/79/79 78/78/78
f 78/78/78 79/79/79 80/80/80
f 81/81/81 83/83/83 82/82/82
f 82/82/82 83/83/83 84/84/84
f 85/85/85 87/87/87 86/86/86
f 86/86/86 87/87/87 88/88/88
f 25/25/25 26/26/26 27/27/27
f 27/27/27 26/26/26 28/28/28
f 89/89/89 90/90/90 31/31/31
f 31/31/31 90/90/90 32/32/32
f 91/91/91 92/92/92 29/29/29
f 29/29/29 92/92/92 30/30/30
f 93/93/93 95/95/95 94/94/94
f 94/94/94 95/95/95 96/96/96
f 97/97/97 99/99/99 98/98/98
f 98/98/98 99/99/99 100/100/100
f 101/101/101 103/103/103 102/102/102
f 102/102/102 103/103/103 104/104/104
f 33/33/33 34/34/34 35/35/35
f 35/35/35 34/34/34 36/36/36
f 105/105/105 106/106/106 39/39/39
f 39/39/39 106/106/106 40/40/40
f 107/107/107 108/108/108 37/37/37
f 37/37/37 108/108/108 38/38/38
f 109/109/109 111/111/111 110/110/110
f 110/110/110 111/111/111 112/112/112
f 113/113/113 115/115/115 114/114/114
f 114/114/114 115/115/115 116/116/116
f 117/117/117 119/119/119 118/118/118
f 118/118/118 119/119/119 120/120/120
