mtllib PhotoFrame.mtl
usemtl PhotoFrame

g PhotoFrame
v 0.05211234 0.01010498 -0.002877806
v 0.05216726 0.1561348 0.02513924
v 0.06152767 -0.0008723818 0.004426399
v 0.06158953 0.1636226 0.03598615
v -0.05212323 0.01010498 -0.002673477
v -0.05206831 0.1561348 0.02534357
v -0.06150984 -0.0008723818 0.004667582
v -0.06144797 0.1636226 0.03622733
v 0.06150984 0.0008723818 -0.004667582
v 0.06157171 0.1653674 0.02689216
v -0.0614658 0.1653674 0.02713335
v -0.06152767 0.0008723818 -0.004426399
v 0.05212132 0.009225997 0.001703575
v 0.05217625 0.1552558 0.02972062
v -0.05205933 0.1552558 0.02992495
v -0.05211424 0.009225997 0.001907904
v 0.03085535 6.598198E-05 0.05379073
v 0.0209047 0.1118376 0.02314091
v 0.03086652 0.001736466 0.05949103
v 0.02091178 0.113508 0.02675577
v -0.02908931 6.598198E-05 0.05390824
v -0.01925891 0.1118376 0.02321964
v -0.02907814 0.001736466 0.05960853
v -0.01925182 0.113508 0.0268345
v 0.06152767 -0.0008723818 0.004426399
v 0.06158953 0.1636226 0.03598615
v -0.06150984 -0.0008723818 0.004667582
v -0.06144797 0.1636226 0.03622733
v 0.06152767 -0.0008723818 0.004426399
v 0.06150984 0.0008723818 -0.004667582
v -0.06150984 -0.0008723818 0.004667582
v -0.06152767 0.0008723818 -0.004426399
v -0.06144797 0.1636226 0.03622733
v -0.0614658 0.1653674 0.02713335
v 0.06158953 0.1636226 0.03598615
v 0.06157171 0.1653674 0.02689216
v 0.05211234 0.01010498 -0.002877806
v 0.06150984 0.0008723818 -0.004667582
v 0.05216726 0.1561348 0.02513924
v 0.06157171 0.1653674 0.02689216
v -0.0614658 0.1653674 0.02713335
v -0.06152767 0.0008723818 -0.004426399
v 0.05212132 0.009225997 0.001703575
v 0.05217625 0.1552558 0.02972062
v -0.05206831 0.1561348 0.02534357
v -0.05205933 0.1552558 0.02992495
v 0.05216726 0.1561348 0.02513924
v 0.05217625 0.1552558 0.02972062
v -0.05212323 0.01010498 -0.002673477
v -0.05211424 0.009225997 0.001907904
v -0.05206831 0.1561348 0.02534357
v -0.05205933 0.1552558 0.02992495
v 0.05211234 0.01010498 -0.002877806
v 0.05212132 0.009225997 0.001703575
v -0.05212323 0.01010498 -0.002673477
v -0.05211424 0.009225997 0.001907904
v 0.03086652 0.001736466 0.05949103
v 0.02091178 0.113508 0.02675577
v -0.01925182 0.113508 0.0268345
v -0.02907814 0.001736466 0.05960853
v -0.02908931 6.598198E-05 0.05390824
v 0.03085535 6.598198E-05 0.05379073
v -0.01925891 0.1118376 0.02321964
v 0.0209047 0.1118376 0.02314091
v 0.03086652 0.001736466 0.05949103
v 0.03085535 6.598198E-05 0.05379073
v -0.02907814 0.001736466 0.05960853
v -0.02908931 6.598198E-05 0.05390824
v -0.01925182 0.113508 0.0268345
v -0.01925891 0.1118376 0.02321964
v 0.02091178 0.113508 0.02675577
v 0.0209047 0.1118376 0.02314091

vn -0.9999981 0 0.001961763
vn -0.9999981 0 0.001961763
vn 0.9999981 0 -0.001960807
vn 0.9999981 0 -0.001960807
vn -0.001925342 0.1884221 -0.9820863
vn -0.001925342 0.1884221 -0.9820863
vn 0.001925132 -0.1884222 0.9820863
vn 0.001925132 -0.1884222 0.9820863
vn 0.9999981 0 -0.001960807
vn 0.9999981 0 -0.001960807
vn -0.9999981 0 0.001960807
vn -0.9999981 0 0.001960807
vn -0.9999981 0 0.001961763
vn -0.9999981 0 0.001961763
vn -0.001925139 0.1884222 -0.9820863
vn -0.001925139 0.1884222 -0.9820863
vn 0.9963213 0.08002523 -0.03065482
vn 0.9963213 0.08002523 -0.03065482
vn 0.9963213 0.08002523 -0.03065482
vn 0.9963213 0.08002523 -0.03065482
vn -0.9964339 0.08002523 -0.02674796
vn -0.9964339 0.08002523 -0.02674796
vn 0.001881069 0.2812236 0.9596404
vn 0.001881069 0.2812236 0.9596404
vn 0.001925132 -0.1884222 0.9820863
vn 0.001925132 -0.1884222 0.9820863
vn -0.9999981 0 0.001960807
vn -0.9999981 0 0.001960807
vn -0.0003693533 -0.9820881 -0.1884219
vn -0.0003693533 -0.9820881 -0.1884219
vn -0.0003693533 -0.9820881 -0.1884219
vn -0.0003693533 -0.9820881 -0.1884219
vn 0.0003693359 0.9820881 0.1884216
vn 0.0003693359 0.9820881 0.1884216
vn 0.0003693359 0.9820881 0.1884216
vn 0.0003693359 0.9820881 0.1884216
vn -0.001924567 0.1884221 -0.9820863
vn -0.001924567 0.1884221 -0.9820863
vn -0.001924567 0.1884221 -0.9820863
vn -0.001924567 0.1884221 -0.9820863
vn -0.001925342 0.1884221 -0.9820863
vn -0.001925342 0.1884221 -0.9820863
vn -0.001925139 0.1884222 -0.9820863
vn -0.001925139 0.1884222 -0.9820863
vn -0.0003692014 -0.9820885 -0.1884201
vn -0.0003692014 -0.9820885 -0.1884201
vn -0.0003692014 -0.9820885 -0.1884201
vn -0.0003692014 -0.9820885 -0.1884201
vn 0.9999981 0 -0.001960106
vn 0.9999981 0 -0.001960106
vn 0.9999981 0 -0.001960106
vn 0.9999981 0 -0.001960106
vn 0.000369353 0.9820881 0.1884217
vn 0.000369353 0.9820881 0.1884217
vn 0.000369353 0.9820881 0.1884217
vn 0.000369353 0.9820881 0.1884217
vn 0.001881069 0.2812236 0.9596404
vn 0.001881069 0.2812236 0.9596404
vn -0.9964339 0.08002523 -0.02674796
vn -0.9964339 0.08002523 -0.02674796
vn -0.001890381 -0.2646116 -0.9643533
vn -0.001890381 -0.2646116 -0.9643533
vn -0.001890381 -0.2646116 -0.9643533
vn -0.001890381 -0.2646116 -0.9643533
vn 0.000551257 -0.9596421 0.2812237
vn 0.000551257 -0.9596421 0.2812237
vn 0.000551257 -0.9596421 0.2812237
vn 0.000551257 -0.9596421 0.2812237
vn -0.0008224596 0.9077598 -0.4194897
vn -0.0008224596 0.9077598 -0.4194897
vn -0.0008224596 0.9077598 -0.4194897
vn -0.0008224596 0.9077598 -0.4194897

vt 0.5877796 0.05072129
vt 0.5967792 0.05072129
vt 0.5872106 0.02108333
vt 0.5973482 0.02108333
vt 0.5877796 0.04213297
vt 0.5967792 0.04213297
vt 0.5872106 0.03122085
vt 0.5973482 0.03122085
vt 0.5872106 0.01094583
vt 0.5973482 0.01094583
vt 0.5973482 0.04135835
vt 0.5872106 0.04135835
vt 0.5877796 0.05072129
vt 0.5967792 0.05072129
vt 0.9745094 0.7040836
vt 0.9655098 0.7040836
vt 0.5872106 0.01094583
vt 0.5973482 0.01094583
vt 0.5872106 0.02108333
vt 0.5973482 0.02108333
vt 0.5872106 0.04135835
vt 0.5973482 0.04135835
vt 0.5872106 0.03122085
vt 0.5973482 0.03122085
vt 0.5872106 0.02108333
vt 0.5973482 0.02108333
vt 0.5872106 0.03122085
vt 0.5973482 0.03122085
vt 0.5770731 0.03122085
vt 0.5770731 0.04135835
vt 0.5872106 0.03122085
vt 0.5872106 0.04135835
vt 0.5973482 0.03122085
vt 0.5973482 0.04135835
vt 0.6074857 0.03122085
vt 0.6074857 0.04135835
vt 0.5877796 0.05072129
vt 0.5872106 0.05149591
vt 0.5967792 0.05072129
vt 0.5973482 0.05149591
vt 0.5973482 0.04135835
vt 0.5872106 0.04135835
vt 0.9655098 0.7126719
vt 0.9745094 0.7126719
vt 0.5967792 0.04213297
vt 0.5967792 0.04213297
vt 0.5967792 0.05072129
vt 0.5967792 0.05072129
vt 0.5877796 0.04213297
vt 0.5877796 0.04213297
vt 0.5967792 0.04213297
vt 0.5967792 0.04213297
vt 0.5877796 0.05072129
vt 0.5877796 0.05072129
vt 0.5877796 0.04213297
vt 0.5877796 0.04213297
vt 0.5872106 0.02108333
vt 0.5973482 0.02108333
vt 0.5973482 0.03122085
vt 0.5872106 0.03122085
vt 0.5872106 0.04135835
vt 0.5872106 0.05149591
vt 0.5973482 0.04135835
vt 0.5973482 0.05149591
vt 0.5770731 0.03122085
vt 0.5770731 0.04135835
vt 0.5872106 0.03122085
vt 0.5872106 0.04135835
vt 0.5973482 0.03122085
vt 0.5973482 0.04135835
vt 0.6074857 0.03122085
vt 0.6074857 0.04135835
f 9/9/9 10/10/10 3/3/3
f 3/3/3 10/10/10 4/4/4
f 25/25/25 26/26/26 7/7/7
f 7/7/7 26/26/26 8/8/8
f 27/27/27 28/28/28 12/12/12
f 12/12/12 28/28/28 11/11/11
f 2/2/2 1/1/1 14/14/14
f 14/14/14 1/1/1 13/13/13
f 29/29/29 31/31/31 30/30/30
f 30/30/30 31/31/31 32/32/32
f 33/33/33 35/35/35 34/34/34
f 34/34/34 35/35/35 36/36/36
f 16/16/16 15/15/15 43/43/43
f 43/43/43 15/15/15 44/44/44
f 45/45/45 47/47/47 46/46/46
f 46/46/46 47/47/47 48/48/48
f 49/49/49 51/51/51 50/50/50
f 50/50/50 51/51/51 52/52/52
f 53/53/53 55/55/55 54/54/54
f 54/54/54 55/55/55 56/56/56
f 17/17/17 18/18/18 19/19/19
f 19/19/19 18/18/18 20/20/20
f 57/57/57 58/58/58 23/23/23
f 23/23/23 58/58/58 24/24/24
f 59/59/59 22/22/22 60/60/60
f 60/60/60 22/22/22 21/21/21
f 61/61/61 63/63/63 62/62/62
f 62/62/62 63/63/63 64/64/64
f 65/65/65 67/67/67 66/66/66
f 66/66/66 67/67/67 68/68/68
f 69/69/69 71/71/71 70/70/70
f 70/70/70 71/71/71 72/72/72
f 41/41/41 5/5/5 42/42/42
f 6/6/6 5/5/5 41/41/41
f 5/5/5 37/37/37 42/42/42
f 40/40/40 6/6/6 41/41/41
f 42/42/42 37/37/37 38/38/38
f 39/39/39 6/6/6 40/40/40
f 37/37/37 39/39/39 38/38/38
f 38/38/38 39/39/39 40/40/40
