mtllib Picture_06.mtl
usemtl Picture_06

g Picture_06
v 0.1646662 -0.2241502 -0.02027972
v 0.1646662 0.2241502 -0.02027972
v 0.1921179 -0.2493402 0.02278204
v 0.1921179 0.2493402 0.02278204
v -0.1646662 -0.2241502 -0.0202797
v -0.1646662 0.2241502 -0.0202797
v -0.1921179 -0.2493402 0.02278207
v -0.1921179 0.2493402 0.02278207
v 0.1921179 -0.2493402 -0.02027972
v 0.1921179 0.2493402 -0.02027972
v -0.1921179 0.2493402 -0.0202797
v -0.1921179 -0.2493402 -0.0202797
v 0.1646662 -0.2241502 -0.00431181
v 0.1646662 0.2241502 -0.00431181
v -0.1646662 0.2241502 -0.004311788
v -0.1646662 -0.2241502 -0.004311788
v 0.1921179 -0.2493402 0.02278204
v 0.1921179 0.2493402 0.02278204
v -0.1921179 -0.2493402 0.02278207
v -0.1921179 0.2493402 0.02278207
v 0.1921179 -0.2493402 0.02278204
v 0.1921179 -0.2493402 -0.02027972
v -0.1921179 -0.2493402 0.02278207
v -0.1921179 -0.2493402 -0.0202797
v -0.1921179 0.2493402 0.02278207
v -0.1921179 0.2493402 -0.0202797
v 0.1921179 0.2493402 0.02278204
v 0.1921179 0.2493402 -0.02027972
v 0.1646662 -0.2241502 -0.02027972
v 0.1921179 -0.2493402 -0.02027972
v 0.1921179 0.2493402 -0.02027972
v -0.1921179 0.2493402 -0.0202797
v -0.1646662 -0.2241502 -0.0202797
v -0.1921179 -0.2493402 -0.0202797
v -0.1646662 -0.2241502 -0.0202797
v -0.1921179 -0.2493402 -0.0202797
v 0.1646662 -0.2241502 -0.02027972
v 0.1921179 -0.2493402 -0.02027972
v 0.1646662 0.2241502 -0.02027972
v 0.1921179 0.2493402 -0.02027972
v -0.1646662 0.2241502 -0.0202797
v -0.1921179 0.2493402 -0.0202797
v -0.1646662 -0.2241502 -0.004311788
v 0.1646662 -0.2241502 -0.00431181
v 0.1646662 0.2241502 -0.02027972
v 0.1646662 0.2241502 -0.00431181
v 0.1646662 -0.2241502 -0.02027972
v 0.1646662 -0.2241502 -0.00431181
v -0.1646662 0.2241502 -0.0202797
v -0.1646662 0.2241502 -0.004311788
v 0.1646662 0.2241502 -0.02027972
v 0.1646662 0.2241502 -0.00431181
v -0.1646662 -0.2241502 -0.0202797
v -0.1646662 -0.2241502 -0.004311788
v -0.1646662 0.2241502 -0.0202797
v -0.1646662 0.2241502 -0.004311788

vn 0 1 0
vn 0 0 -1
vn 1 0 0
vn 1 0 0
vn 0 1 0
vn 0 0 -1
vn 0 0 1
vn 0 0 1
vn 1 0 0
vn 1 0 0
vn -1 0 0
vn -1 0 0
vn 0 1 0
vn 0 0 -1
vn 0 0 -1
vn 0 1 0
vn 0 0 1
vn 0 0 1
vn -1 0 0
vn -1 0 0
vn 0 -1 0
vn 0 -1 0
vn 0 -1 0
vn 0 -1 0
vn 0 1 0
vn 0 1 0
vn 0 1 0
vn 0 1 0
vn 0 0 -1
vn 0 0 -1
vn 0 0 -1
vn 0 0 -1
vn 0 0 -1
vn 0 0 -1
vn 0 0 -1
vn 0 0 -1
vn 0 0 -1
vn 0 0 -1
vn 0 0 -1
vn 0 0 -1
vn 0 0 -1
vn 0 0 -1
vn 0 0 -1
vn 0 0 -1
vn -1 0 0
vn -1 0 0
vn -1 0 0
vn -1 0 0
vn 0 -1 0
vn 0 -1 0
vn 0 -1 0
vn 0 -1 0
vn 1 0 0
vn 1 0 0
vn 1 0 0
vn 1 0 0

vt 0.9018522 0.9897709
vt 0.912667 0.9897709
vt 0.9012445 0.9542883
vt 0.9132746 0.9542883
vt 0.9018522 0.9789562
vt 0.912667 0.9789562
vt 0.9012445 0.9663184
vt 0.9132746 0.9663184
vt 0.9012445 0.9422582
vt 0.9132746 0.9422582
vt 0.9132746 0.9783485
vt 0.9012445 0.9783485
vt 0.9018522 0.9897709
vt 0.8449954 0.7313887
vt 0.8449954 0.7205739
vt 0.9018522 0.9789562
vt 0.9012445 0.9542883
vt 0.9132746 0.9542883
vt 0.9012445 0.9663184
vt 0.9132746 0.9663184
vt 0.8892145 0.9663184
vt 0.8892145 0.9783485
vt 0.9012445 0.9663184
vt 0.9012445 0.9783485
vt 0.9132746 0.9663184
vt 0.9132746 0.9783485
vt 0.9253047 0.9663184
vt 0.9253047 0.9783485
vt 0.9018522 0.9897709
vt 0.9012445 0.9903786
vt 0.9132746 0.9903786
vt 0.9132746 0.9783485
vt 0.9018522 0.9789562
vt 0.9012445 0.9783485
vt 0.9018522 0.9789562
vt 0.9012445 0.9783485
vt 0.9018522 0.9897709
vt 0.9012445 0.9903786
vt 0.912667 0.9897709
vt 0.9132746 0.9903786
vt 0.912667 0.9789562
vt 0.9132746 0.9783485
vt 0.8341807 0.7205739
vt 0.8341807 0.7313887
vt 0.912667 0.9897709
vt 0.912667 0.9897709
vt 0.9018522 0.9897709
vt 0.9018522 0.9897709
vt 0.912667 0.9789562
vt 0.912667 0.9789562
vt 0.912667 0.9897709
vt 0.912667 0.9897709
vt 0.9018522 0.9789562
vt 0.9018522 0.9789562
vt 0.912667 0.9789562
vt 0.912667 0.9789562
f 9/9/9 10/10/10 3/3/3
f 3/3/3 10/10/10 4/4/4
f 17/17/17 18/18/18 7/7/7
f 7/7/7 18/18/18 8/8/8
f 19/19/19 20/20/20 12/12/12
f 12/12/12 20/20/20 11/11/11
f 1/1/1 5/5/5 13/13/13
f 13/13/13 5/5/5 16/16/16
f 21/21/21 23/23/23 22/22/22
f 22/22/22 23/23/23 24/24/24
f 25/25/25 27/27/27 26/26/26
f 26/26/26 27/27/27 28/28/28
f 29/29/29 2/2/2 30/30/30
f 30/30/30 2/2/2 31/31/31
f 6/6/6 33/33/33 32/32/32
f 32/32/32 33/33/33 34/34/34
f 35/35/35 37/37/37 36/36/36
f 36/36/36 37/37/37 38/38/38
f 39/39/39 41/41/41 40/40/40
f 40/40/40 41/41/41 42/42/42
f 43/43/43 15/15/15 44/44/44
f 44/44/44 15/15/15 14/14/14
f 45/45/45 47/47/47 46/46/46
f 46/46/46 47/47/47 48/48/48
f 49/49/49 51/51/51 50/50/50
f 50/50/50 51/51/51 52/52/52
f 53/53/53 55/55/55 54/54/54
f 54/54/54 55/55/55 56/56/56
