mtllib Plate_02.mtl
usemtl Plate_02

g Plate_02
v -0.0944227 0.04287444 0.0944227
v -0.05223353 6.194335E-05 0.05223353
v -0.1335339 0.04287444 0
v -0.07386936 6.194335E-05 0
v 0 6.787277E-05 0
v -0.0944227 0.04287444 -0.09442275
v -0.05223353 6.194335E-05 -0.05223353
v 0 0.04287444 -0.1335339
v 0 6.194335E-05 -0.0738694
v 0.0944227 0.04287444 -0.09442275
v 0.05223353 6.194335E-05 -0.05223353
v 0.1335339 0.04287444 0
v 0.07386936 6.194335E-05 0
v 0.0944227 0.04287444 0.0944227
v 0.05223353 6.194335E-05 0.05223353
v 0 0.04287444 0.1335339
v 0 6.194335E-05 0.07386936
v -0.09245599 0.04675079 0.09245599
v -0.05097871 0.00449058 0.05097866
v -0.1307523 0.04675079 0
v -0.07209469 0.00449058 0
v 0 0.004838978 0
v -0.09245599 0.04675079 -0.09245599
v -0.05097871 0.00449058 -0.05097871
v 0 0.04675079 -0.1307524
v 0 0.00449058 -0.07209474
v 0.09245599 0.04675079 -0.09245599
v 0.05097871 0.00449058 -0.05097871
v 0.1307523 0.04675079 0
v 0.07209469 0.00449058 0
v 0.09245599 0.04675079 0.09245599
v 0.05097871 0.00449058 0.05097866
v 0 0.04675079 0.1307525
v 0 0.00449058 0.07209469
v -0.05223353 6.194335E-05 0.05223353
v 0 6.194335E-05 0.07386936
v -0.05223353 6.194335E-05 0.05223353
v -0.07386936 6.194335E-05 0
v -0.0944227 0.04287444 0.0944227
v -0.07386936 6.194335E-05 0
v -0.05223353 6.194335E-05 -0.05223353
v -0.1335339 0.04287444 0
v -0.05223353 6.194335E-05 -0.05223353
v -0.0944227 0.04287444 -0.09442275
v 0 6.194335E-05 -0.0738694
v 0 6.194335E-05 -0.0738694
v 0 0.04287444 -0.1335339
v 0.05223353 6.194335E-05 -0.05223353
v 0.05223353 6.194335E-05 -0.05223353
v 0.07386936 6.194335E-05 0
v 0.0944227 0.04287444 -0.09442275
v 0.07386936 6.194335E-05 0
v 0.05223353 6.194335E-05 0.05223353
v 0.1335339 0.04287444 0
v 0.05223353 6.194335E-05 0.05223353
v 0 6.194335E-05 0.07386936
v 0.0944227 0.04287444 0.0944227
v 0 0.04287444 0.1335339
v 0 0.00449058 0.07209469
v -0.05097871 0.00449058 0.05097866
v -0.05097871 0.00449058 0.05097866
v -0.09245599 0.04675079 0.09245599
v -0.07209469 0.00449058 0
v -0.07209469 0.00449058 0
v -0.1307523 0.04675079 0
v -0.05097871 0.00449058 -0.05097871
v -0.05097871 0.00449058 -0.05097871
v -0.09245599 0.04675079 -0.09245599
v 0 0.00449058 -0.07209474
v 0 0.00449058 -0.07209474
v 0 0.04675079 -0.1307524
v 0.05097871 0.00449058 -0.05097871
v 0.05097871 0.00449058 -0.05097871
v 0.09245599 0.04675079 -0.09245599
v 0.07209469 0.00449058 0
v 0.07209469 0.00449058 0
v 0.1307523 0.04675079 0
v 0.05097871 0.00449058 0.05097866
v 0.05097871 0.00449058 0.05097866
v 0.09245599 0.04675079 0.09245599
v 0 0.00449058 0.07209469
v 0 0.04675079 0.1307525
v -0.1335339 0.04287444 0
v -0.1307523 0.04675079 0
v -0.0944227 0.04287444 0.0944227
v -0.09245599 0.04675079 0.09245599
v -0.0944227 0.04287444 -0.09442275
v -0.09245599 0.04675079 -0.09245599
v -0.1335339 0.04287444 0
v -0.1307523 0.04675079 0
v 0 0.04287444 -0.1335339
v 0 0.04675079 -0.1307524
v -0.0944227 0.04287444 -0.09442275
v -0.09245599 0.04675079 -0.09245599
v 0.0944227 0.04287444 -0.09442275
v 0.09245599 0.04675079 -0.09245599
v 0 0.04287444 -0.1335339
v 0 0.04675079 -0.1307524
v 0.1335339 0.04287444 0
v 0.1307523 0.04675079 0
v 0.0944227 0.04287444 -0.09442275
v 0.09245599 0.04675079 -0.09245599
v 0.0944227 0.04287444 0.0944227
v 0.09245599 0.04675079 0.09245599
v 0.1335339 0.04287444 0
v 0.1307523 0.04675079 0
v 0 0.04287444 0.1335339
v 0 0.04675079 0.1307525
v 0.0944227 0.04287444 0.0944227
v 0.09245599 0.04675079 0.09245599
v -0.0944227 0.04287444 0.0944227
v -0.09245599 0.04675079 0.09245599
v 0 0.04287444 0.1335339
v 0 0.04675079 0.1307525

vn -0.2347371 -0.7897741 0.5667056
vn -0.2347371 -0.7897741 0.5667056
vn -0.5667056 -0.7897742 0.234737
vn 8.02691E-05 -1 0
vn 0 -1 0
vn -0.5667056 -0.7897742 -0.2347369
vn 5.675887E-05 -1 5.675878E-05
vn -0.2347371 -0.7897742 -0.5667056
vn -0.2347371 -0.7897742 -0.5667056
vn 0.2347371 -0.7897741 -0.5667056
vn 0.2347371 -0.7897741 -0.5667056
vn 0.5667056 -0.7897742 -0.2347369
vn -8.02691E-05 -1 0
vn 0.5667056 -0.7897742 0.2347371
vn -5.675882E-05 -1 -5.67588E-05
vn -0.2347371 -0.7897741 0.5667056
vn -0.2347371 -0.7897741 0.5667056
vn 0.2353272 0.7885737 -0.5681307
vn 0.2353272 0.7885737 -0.5681307
vn 0.5681317 0.7885733 -0.2353267
vn -0.004832446 0.9999883 0
vn 0 1 0
vn 0.5681319 0.7885731 0.2353266
vn -0.003417053 0.9999883 -0.00341705
vn 0.2353271 0.7885731 0.5681316
vn 0.2353271 0.7885731 0.5681316
vn -0.235327 0.7885731 0.5681316
vn -0.235327 0.7885731 0.5681316
vn -0.5681319 0.7885731 0.2353266
vn 0.004832446 0.9999883 0
vn -0.5681317 0.7885733 -0.2353267
vn 0.003417047 0.9999883 0.003417051
vn 0.2353272 0.7885737 -0.5681307
vn 0.2353272 0.7885737 -0.5681307
vn 5.675882E-05 -1 -5.67588E-05
vn 0 -1 -8.026908E-05
vn -0.5667056 -0.7897742 0.234737
vn -0.5667056 -0.7897742 0.234737
vn -0.5667056 -0.7897742 0.234737
vn -0.5667056 -0.7897742 -0.2347369
vn -0.5667056 -0.7897742 -0.2347369
vn -0.5667056 -0.7897742 -0.2347369
vn -0.2347371 -0.7897742 -0.5667056
vn -0.2347371 -0.7897742 -0.5667056
vn 0 -1 8.026903E-05
vn 0.2347371 -0.7897741 -0.5667056
vn 0.2347371 -0.7897741 -0.5667056
vn -5.675887E-05 -1 5.675878E-05
vn 0.5667056 -0.7897742 -0.2347369
vn 0.5667056 -0.7897742 -0.2347369
vn 0.5667056 -0.7897742 -0.2347369
vn 0.5667056 -0.7897742 0.2347371
vn 0.5667056 -0.7897742 0.2347371
vn 0.5667056 -0.7897742 0.2347371
vn 0.2347371 -0.7897742 0.5667056
vn 0.2347371 -0.7897742 0.5667056
vn 0.2347371 -0.7897742 0.5667056
vn 0.2347371 -0.7897742 0.5667056
vn 0 0.9999883 0.004832446
vn -0.003417047 0.9999883 0.003417051
vn 0.5681317 0.7885733 -0.2353267
vn 0.5681317 0.7885733 -0.2353267
vn 0.5681317 0.7885733 -0.2353267
vn 0.5681319 0.7885731 0.2353266
vn 0.5681319 0.7885731 0.2353266
vn 0.5681319 0.7885731 0.2353266
vn 0.2353271 0.7885731 0.5681316
vn 0.2353271 0.7885731 0.5681316
vn 0 0.9999883 -0.004832441
vn -0.235327 0.7885731 0.5681316
vn -0.235327 0.7885731 0.5681316
vn 0.003417053 0.9999883 -0.00341705
vn -0.5681319 0.7885731 0.2353266
vn -0.5681319 0.7885731 0.2353266
vn -0.5681319 0.7885731 0.2353266
vn -0.5681317 0.7885733 -0.2353267
vn -0.5681317 0.7885733 -0.2353267
vn -0.5681317 0.7885733 -0.2353267
vn -0.2353272 0.7885737 -0.5681307
vn -0.2353272 0.7885737 -0.5681307
vn -0.2353272 0.7885737 -0.5681307
vn -0.2353272 0.7885737 -0.5681307
vn -0.7700417 0.5525393 0.3189609
vn -0.7700417 0.5525393 0.3189609
vn -0.7700417 0.5525393 0.3189609
vn -0.7700417 0.5525393 0.3189609
vn -0.7700408 0.5525408 -0.3189606
vn -0.7700408 0.5525408 -0.3189606
vn -0.7700408 0.5525408 -0.3189606
vn -0.7700408 0.5525408 -0.3189606
vn -0.318961 0.5525392 -0.7700418
vn -0.318961 0.5525392 -0.7700418
vn -0.318961 0.5525392 -0.7700418
vn -0.318961 0.5525392 -0.7700418
vn 0.318961 0.5525392 -0.7700418
vn 0.318961 0.5525392 -0.7700418
vn 0.318961 0.5525392 -0.7700418
vn 0.318961 0.5525392 -0.7700418
vn 0.7700408 0.5525408 -0.3189606
vn 0.7700408 0.5525408 -0.3189606
vn 0.7700408 0.5525408 -0.3189606
vn 0.7700408 0.5525408 -0.3189606
vn 0.7700417 0.5525393 0.3189609
vn 0.7700417 0.5525393 0.3189609
vn 0.7700417 0.5525393 0.3189609
vn 0.7700417 0.5525393 0.3189609
vn 0.318965 0.5525255 0.7700499
vn 0.318965 0.5525255 0.7700499
vn 0.318965 0.5525255 0.7700499
vn 0.318965 0.5525255 0.7700499
vn -0.318965 0.5525255 0.7700499
vn -0.318965 0.5525255 0.7700499
vn -0.318965 0.5525255 0.7700499
vn -0.318965 0.5525255 0.7700499

vt 0.9700995 0.949894
vt 0.9668391 0.9531544
vt 0.9731221 0.9571911
vt 0.9685111 0.9571911
vt 0.9628023 0.9571911
vt 0.9700995 0.9644883
vt 0.9668391 0.9612278
vt 0.9628023 0.9675108
vt 0.9628023 0.9628999
vt 0.9555051 0.9644883
vt 0.9587656 0.9612278
vt 0.9524826 0.9571911
vt 0.9570936 0.9571911
vt 0.9555051 0.949894
vt 0.9587656 0.9531544
vt 0.9628023 0.9468713
vt 0.9628023 0.9514824
vt 0.9872571 0.9850516
vt 0.9840517 0.9818462
vt 0.9902167 0.9779065
vt 0.9856836 0.9779065
vt 0.980112 0.9779065
vt 0.9872571 0.9707613
vt 0.9840517 0.9739668
vt 0.980112 0.9678017
vt 0.980112 0.9723349
vt 0.9729668 0.9707613
vt 0.9761722 0.9739668
vt 0.9700072 0.9779065
vt 0.9745404 0.9779065
vt 0.9729668 0.9850516
vt 0.9761722 0.9818462
vt 0.980112 0.9880113
vt 0.980112 0.9834781
vt 0.9668391 0.9531544
vt 0.9628023 0.9514824
vt 0.9668391 0.9531544
vt 0.9685111 0.9571911
vt 0.9700995 0.949894
vt 0.9685111 0.9571911
vt 0.9668391 0.9612278
vt 0.9731221 0.9571911
vt 0.9668391 0.9612278
vt 0.9700995 0.9644883
vt 0.9628023 0.9628999
vt 0.9628023 0.9628999
vt 0.9628023 0.9675108
vt 0.9587656 0.9612278
vt 0.9587656 0.9612278
vt 0.9570936 0.9571911
vt 0.9555051 0.9644883
vt 0.9570936 0.9571911
vt 0.9587656 0.9531544
vt 0.9524826 0.9571911
vt 0.9587656 0.9531544
vt 0.9628023 0.9514824
vt 0.9555051 0.949894
vt 0.9628023 0.9468713
vt 0.980112 0.9834781
vt 0.9840517 0.9818462
vt 0.9840517 0.9818462
vt 0.9872571 0.9850516
vt 0.9856836 0.9779065
vt 0.9856836 0.9779065
vt 0.9902167 0.9779065
vt 0.9840517 0.9739668
vt 0.9840517 0.9739668
vt 0.9872571 0.9707613
vt 0.980112 0.9723349
vt 0.980112 0.9723349
vt 0.980112 0.9678017
vt 0.9761722 0.9739668
vt 0.9761722 0.9739668
vt 0.9729668 0.9707613
vt 0.9745404 0.9779065
vt 0.9745404 0.9779065
vt 0.9700072 0.9779065
vt 0.9761722 0.9818462
vt 0.9761722 0.9818462
vt 0.9729668 0.9850516
vt 0.980112 0.9834781
vt 0.980112 0.9880113
vt 0.9904317 0.9779065
vt 0.9902167 0.9779065
vt 0.9874091 0.9852036
vt 0.9872571 0.9850516
vt 0.9874091 0.9706093
vt 0.9872571 0.9707613
vt 0.9904317 0.9779065
vt 0.9902167 0.9779065
vt 0.980112 0.9675868
vt 0.980112 0.9678017
vt 0.9874091 0.9706093
vt 0.9872571 0.9707613
vt 0.9728148 0.9706093
vt 0.9729668 0.9707613
vt 0.980112 0.9675868
vt 0.980112 0.9678017
vt 0.9697922 0.9779065
vt 0.9700072 0.9779065
vt 0.9728148 0.9706093
vt 0.9729668 0.9707613
vt 0.9728148 0.9852036
vt 0.9729668 0.9850516
vt 0.9697922 0.9779065
vt 0.9700072 0.9779065
vt 0.980112 0.9882262
vt 0.980112 0.9880113
vt 0.9728148 0.9852036
vt 0.9729668 0.9850516
vt 0.9874091 0.9852036
vt 0.9872571 0.9850516
vt 0.980112 0.9882262
vt 0.980112 0.9880113
f 17/17/17 16/16/16 2/2/2
f 2/2/2 16/16/16 1/1/1
f 37/37/37 39/39/39 38/38/38
f 38/38/38 39/39/39 3/3/3
f 40/40/40 42/42/42 41/41/41
f 41/41/41 42/42/42 6/6/6
f 43/43/43 44/44/44 9/9/9
f 9/9/9 44/44/44 8/8/8
f 46/46/46 47/47/47 11/11/11
f 11/11/11 47/47/47 10/10/10
f 49/49/49 51/51/51 50/50/50
f 50/50/50 51/51/51 12/12/12
f 52/52/52 54/54/54 53/53/53
f 53/53/53 54/54/54 14/14/14
f 55/55/55 57/57/57 56/56/56
f 56/56/56 57/57/57 58/58/58
f 34/34/34 19/19/19 33/33/33
f 33/33/33 19/19/19 18/18/18
f 61/61/61 63/63/63 62/62/62
f 62/62/62 63/63/63 20/20/20
f 64/64/64 66/66/66 65/65/65
f 65/65/65 66/66/66 23/23/23
f 67/67/67 26/26/26 68/68/68
f 68/68/68 26/26/26 25/25/25
f 70/70/70 28/28/28 71/71/71
f 71/71/71 28/28/28 27/27/27
f 73/73/73 75/75/75 74/74/74
f 74/74/74 75/75/75 29/29/29
f 76/76/76 78/78/78 77/77/77
f 77/77/77 78/78/78 31/31/31
f 79/79/79 81/81/81 80/80/80
f 80/80/80 81/81/81 82/82/82
f 83/83/83 85/85/85 84/84/84
f 84/84/84 85/85/85 86/86/86
f 87/87/87 89/89/89 88/88/88
f 88/88/88 89/89/89 90/90/90
f 91/91/91 93/93/93 92/92/92
f 92/92/92 93/93/93 94/94/94
f 95/95/95 97/97/97 96/96/96
f 96/96/96 97/97/97 98/98/98
f 99/99/99 101/101/101 100/100/100
f 100/100/100 101/101/101 102/102/102
f 103/103/103 105/105/105 104/104/104
f 104/104/104 105/105/105 106/106/106
f 107/107/107 109/109/109 108/108/108
f 108/108/108 109/109/109 110/110/110
f 111/111/111 113/113/113 112/112/112
f 112/112/112 113/113/113 114/114/114
f 22/22/22 72/72/72 69/69/69
f 22/22/22 69/69/69 24/24/24
f 22/22/22 30/30/30 72/72/72
f 22/22/22 24/24/24 21/21/21
f 22/22/22 32/32/32 30/30/30
f 22/22/22 21/21/21 60/60/60
f 22/22/22 59/59/59 32/32/32
f 22/22/22 60/60/60 59/59/59
f 5/5/5 45/45/45 48/48/48
f 5/5/5 7/7/7 45/45/45
f 5/5/5 48/48/48 13/13/13
f 5/5/5 4/4/4 7/7/7
f 5/5/5 13/13/13 15/15/15
f 5/5/5 35/35/35 4/4/4
f 5/5/5 15/15/15 36/36/36
f 5/5/5 36/36/36 35/35/35
