mtllib RoomFurniture_01.mtl
usemtl RoomFurniture_01

g RoomFurniture_01
v 0.2896793 0.00517694 -0.1368837
v 0.2733352 1.086185 -0.1368837
v 0.2896793 0.00517694 0.1368837
v 0.2896793 1.098551 0.1368837
v -0.2896793 0.00517694 -0.1368837
v -0.2733352 1.086185 -0.1368837
v -0.2896793 0.00517694 0.1368837
v -0.2896793 1.098551 0.1368837
v 0.2733352 0.1329683 -0.1368837
v 0.2896793 0.1206021 0.1368837
v -0.2896793 0.1206021 0.1368837
v -0.2733352 0.1329682 -0.1368837
v 0.2733352 0.4562929 -0.1368837
v 0.2733352 0.4371777 -0.1368837
v 0.2733352 0.7835917 -0.1368837
v 0.2733352 0.7639193 -0.1368837
v 0.2896793 0.7676563 0.1368837
v 0.2896793 0.7774798 0.1368837
v 0.2896793 0.4416734 0.1368837
v 0.2896793 0.4514969 0.1368837
v -0.2896793 0.7676563 0.1368837
v -0.2896793 0.7774798 0.1368837
v -0.2896793 0.4416734 0.1368837
v -0.2896793 0.4514969 0.1368837
v -0.2733352 0.7639193 -0.1368837
v -0.2733352 0.7835917 -0.1368837
v -0.2733352 0.4371777 -0.1368837
v -0.2733352 0.4562927 -0.1368837
v -0.2896793 1.098551 -0.1368837
v 0.2896793 1.098551 -0.1368837
v -0.2896793 0.1206021 -0.1368837
v 0.2896793 0.1206022 -0.1368837
v -0.2896793 0.4514969 -0.1368837
v 0.2896793 0.4514969 -0.1368837
v 0.2896793 0.4416735 -0.1368837
v -0.2896793 0.4416734 -0.1368837
v -0.2896793 0.7774798 -0.1368837
v 0.2896793 0.7774798 -0.1368837
v 0.2896793 0.7676563 -0.1368837
v -0.2896793 0.7676563 -0.1368837
v -0.2733352 1.086185 0.08322608
v 0.2733352 1.086185 0.08322608
v -0.2733352 0.1329682 0.08322608
v 0.2733352 0.1329683 0.08322608
v -0.2733352 0.4562927 0.08322608
v 0.2733352 0.4562929 0.08322608
v 0.2733352 0.4371777 0.08322608
v -0.2733352 0.4371777 0.08322608
v -0.2733352 0.7835917 0.08322608
v 0.2733352 0.7835917 0.08322608
v 0.2733352 0.7639193 0.08322608
v -0.2733352 0.7639193 0.08322608
v -0.2896793 0.4514969 0.1368837
v -0.2896793 0.7676563 0.1368837
v 0.2896793 0.7774798 0.1368837
v 0.2896793 1.098551 0.1368837
v -0.2896793 1.098551 0.1368837
v 0.2896793 1.098551 0.1368837
v 0.2896793 1.098551 -0.1368837
v -0.2896793 0.00517694 -0.1368837
v 0.2896793 0.00517694 -0.1368837
v -0.2896793 0.00517694 0.1368837
v -0.2896793 0.00517694 -0.1368837
v -0.2896793 0.1206021 -0.1368837
v 0.2896793 0.00517694 0.1368837
v -0.2896793 0.00517694 0.1368837
v -0.2896793 0.1206021 0.1368837
v 0.2896793 0.00517694 -0.1368837
v 0.2896793 0.00517694 0.1368837
v 0.2896793 0.1206022 -0.1368837
v 0.2896793 0.1206021 0.1368837
v 0.2896793 0.4514969 0.1368837
v 0.2896793 0.7676563 0.1368837
v -0.2896793 0.7774798 0.1368837
v -0.2896793 1.098551 0.1368837
v -0.2896793 1.098551 -0.1368837
v -0.2896793 0.4416734 0.1368837
v -0.2896793 0.4514969 -0.1368837
v -0.2896793 0.4416734 -0.1368837
v 0.2896793 0.4514969 -0.1368837
v -0.2896793 0.7774798 -0.1368837
v -0.2896793 0.7676563 -0.1368837
v 0.2896793 0.7774798 -0.1368837
v 0.2896793 0.7676563 -0.1368837
v 0.2896793 0.4416735 -0.1368837
v 0.2896793 0.4416734 0.1368837
v 0.2733352 1.086185 -0.1368837
v 0.2896793 1.098551 -0.1368837
v -0.2733352 1.086185 -0.1368837
v -0.2896793 1.098551 -0.1368837
v -0.2733352 0.1329682 -0.1368837
v -0.2733352 0.4371777 -0.1368837
v -0.2733352 0.7835917 -0.1368837
v 0.2733352 0.7835917 -0.1368837
v -0.2733352 0.7835917 0.08322608
v 0.2733352 0.7835917 0.08322608
v -0.2733352 1.086185 0.08322608
v 0.2733352 1.086185 0.08322608
v -0.2733352 0.1329682 0.08322608
v -0.2733352 0.4371777 0.08322608
v 0.2733352 1.086185 -0.1368837
v 0.2733352 1.086185 0.08322608
v 0.2733352 0.7835917 -0.1368837
v 0.2733352 0.7835917 0.08322608
v 0.2733352 0.1329683 -0.1368837
v 0.2733352 0.1329683 0.08322608
v -0.2733352 0.1329682 -0.1368837
v -0.2733352 0.1329682 0.08322608
v 0.2733352 0.7639193 -0.1368837
v 0.2733352 0.7639193 0.08322608
v 0.2733352 0.4562929 -0.1368837
v 0.2733352 0.4562929 0.08322608
v -0.2733352 0.7639193 -0.1368837
v -0.2733352 0.7639193 0.08322608
v 0.2733352 0.7639193 -0.1368837
v 0.2733352 0.7639193 0.08322608
v 0.2733352 0.4562929 -0.1368837
v 0.2733352 0.4562929 0.08322608
v -0.2733352 0.4562927 -0.1368837
v -0.2733352 0.4562927 0.08322608
v -0.2733352 0.4562927 -0.1368837
v -0.2733352 0.4562927 0.08322608
v -0.2733352 0.7639193 -0.1368837
v -0.2733352 0.7639193 0.08322608
v 0.2733352 0.4371777 -0.1368837
v 0.2733352 0.4371777 0.08322608
v 0.2733352 0.1329683 -0.1368837
v 0.2733352 0.1329683 0.08322608
v -0.2733352 0.4371777 -0.1368837
v -0.2733352 0.4371777 0.08322608
v 0.2733352 0.4371777 -0.1368837
v 0.2733352 0.4371777 0.08322608
v -0.2733352 0.7835917 -0.1368837
v -0.2733352 0.7835917 0.08322608
v -0.2733352 1.086185 -0.1368837
v -0.2733352 1.086185 0.08322608

vn 0 -1 0
vn 0 -1 0
vn 0 -1 0
vn 0 0 1
vn 0 -1 0
vn 0 -1 0
vn 0 -1 0
vn 0 0 1
vn 0 0 -1
vn 0 0 1
vn -1 0 0
vn 1 0 0
vn 0 0 -1
vn 0 0 -1
vn 0 1 0
vn 0 0 -1
vn 0 0 1
vn 0 0 1
vn 0 0 1
vn 0 0 1
vn 0 0 1
vn 0 0 1
vn -1 0 0
vn 0 0 1
vn 0 0 -1
vn 0 1 0
vn 1 0 0
vn 0 0 -1
vn 0 1 0
vn 1 0 0
vn 0 0 -1
vn 0 0 -1
vn -1 0 0
vn 1 0 0
vn 0 0 -1
vn -1 0 0
vn -1 0 0
vn 1 0 0
vn 1 0 0
vn -1 0 0
vn 0 -1 0
vn 0 -1 0
vn 1 0 0
vn 0 0 -1
vn 0 0 -1
vn 0 0 -1
vn 0 0 -1
vn 1 0 0
vn 0 1 0
vn 0 1 0
vn 0 0 -1
vn 0 0 -1
vn -1 0 0
vn -1 0 0
vn 1 0 0
vn 1 0 0
vn 0 1 0
vn 0 1 0
vn 0 1 0
vn 0 0 -1
vn 0 0 -1
vn -1 0 0
vn -1 0 0
vn -1 0 0
vn 0 0 1
vn 0 0 1
vn 0 0 1
vn 1 0 0
vn 1 0 0
vn 1 0 0
vn 1 0 0
vn 1 0 0
vn 1 0 0
vn -1 0 0
vn -1 0 0
vn -1 0 0
vn 0 0 1
vn 0 0 -1
vn 0 0 -1
vn 0 0 -1
vn 0 0 -1
vn 0 0 -1
vn 0 0 -1
vn 0 0 -1
vn 1 0 0
vn 1 0 0
vn 0 0 -1
vn 0 0 -1
vn 0 0 -1
vn 0 0 -1
vn 0 0 -1
vn 0 0 -1
vn 0 0 -1
vn 0 0 -1
vn 0 0 -1
vn 0 0 -1
vn 0 0 -1
vn 0 0 -1
vn 0 0 -1
vn 0 0 -1
vn -1 0 0
vn -1 0 0
vn -1 0 0
vn -1 0 0
vn 0 1 0
vn 0 1 0
vn 0 1 0
vn 0 1 0
vn -1 0 0
vn -1 0 0
vn -1 0 0
vn -1 0 0
vn 0 -1 0
vn 0 -1 0
vn 0 -1 0
vn 0 -1 0
vn 0 1 0
vn 0 1 0
vn 0 1 0
vn 0 1 0
vn 1 0 0
vn 1 0 0
vn 1 0 0
vn 1 0 0
vn -1 0 0
vn -1 0 0
vn -1 0 0
vn -1 0 0
vn 0 -1 0
vn 0 -1 0
vn 0 -1 0
vn 0 -1 0
vn 1 0 0
vn 1 0 0
vn 1 0 0
vn 1 0 0

vt 0.832852 0.9117503
vt 0.8466818 0.9185056
vt 0.832852 0.9047988
vt 0.8467549 0.8978474
vt 0.8398035 0.9117503
vt 0.8466818 0.9119464
vt 0.8398035 0.9047988
vt 0.8467549 0.9047988
vt 0.8433523 0.9185056
vt 0.8432792 0.8978474
vt 0.8432792 0.9047988
vt 0.8433523 0.9119464
vt 0.8445284 0.9185056
vt 0.8443472 0.9185056
vt 0.845687 0.9185056
vt 0.8455057 0.9185056
vt 0.8455789 0.8978474
vt 0.8456138 0.8978474
vt 0.8444203 0.8978474
vt 0.8444552 0.8978474
vt 0.8455789 0.9047988
vt 0.8456138 0.9047988
vt 0.8444203 0.9047988
vt 0.8444552 0.9047988
vt 0.8455057 0.9119464
vt 0.845687 0.9119464
vt 0.8443472 0.9119464
vt 0.8445284 0.9119464
vt 0.8467549 0.9117503
vt 0.8467549 0.8908958
vt 0.8432792 0.9117503
vt 0.8432792 0.9187017
vt 0.8444552 0.9117503
vt 0.8444552 0.8908958
vt 0.8444203 0.9187017
vt 0.8444203 0.9117503
vt 0.8456138 0.9117503
vt 0.8456138 0.8908958
vt 0.8455789 0.8908958
vt 0.8455789 0.9117503
vt 0.8466818 0.9119464
vt 0.8466818 0.9185056
vt 0.8433523 0.9119464
vt 0.8433523 0.9185056
vt 0.8445284 0.9119464
vt 0.8445284 0.9185056
vt 0.8443472 0.9185056
vt 0.8443472 0.9119464
vt 0.845687 0.9119464
vt 0.845687 0.9185056
vt 0.8455057 0.9185056
vt 0.8455057 0.9119464
vt 0.8444552 0.9047988
vt 0.8455789 0.9047988
vt 0.8456138 0.8978474
vt 0.8467549 0.8978474
vt 0.8467549 0.9047988
vt 0.8537064 0.9047988
vt 0.8537064 0.9117503
vt 0.8398035 0.9117503
vt 0.8398035 0.9187017
vt 0.8398035 0.9047988
vt 0.8398035 0.9117503
vt 0.8432792 0.9117503
vt 0.8398035 0.8978474
vt 0.8398035 0.9047988
vt 0.8432792 0.9047988
vt 0.8398035 0.8908958
vt 0.8398035 0.8978474
vt 0.8432792 0.8908958
vt 0.8432792 0.8978474
vt 0.8444552 0.8978474
vt 0.8455789 0.8978474
vt 0.8456138 0.9047988
vt 0.8467549 0.9047988
vt 0.8467549 0.9117503
vt 0.8444203 0.9047988
vt 0.8444552 0.9117503
vt 0.8444203 0.9117503
vt 0.8444552 0.9187017
vt 0.8456138 0.9117503
vt 0.8455789 0.9117503
vt 0.8456138 0.9187017
vt 0.8455789 0.9187017
vt 0.8444203 0.8908958
vt 0.8444203 0.8978474
vt 0.8466818 0.9185056
vt 0.8467549 0.9187017
vt 0.8466818 0.9119464
vt 0.8467549 0.9117503
vt 0.8433523 0.9119464
vt 0.8443472 0.9119464
vt 0.845687 0.9119464
vt 0.845687 0.9185056
vt 0.845687 0.9119464
vt 0.845687 0.9185056
vt 0.8466818 0.9119464
vt 0.8466818 0.9185056
vt 0.8433523 0.9119464
vt 0.8443472 0.9119464
vt 0.8466818 0.9185056
vt 0.8466818 0.9185056
vt 0.845687 0.9185056
vt 0.845687 0.9185056
vt 0.8433523 0.9185056
vt 0.8433523 0.9185056
vt 0.8433523 0.9119464
vt 0.8433523 0.9119464
vt 0.8455057 0.9185056
vt 0.8455057 0.9185056
vt 0.8445284 0.9185056
vt 0.8445284 0.9185056
vt 0.8455057 0.9119464
vt 0.8455057 0.9119464
vt 0.8455057 0.9185056
vt 0.8455057 0.9185056
vt 0.8445284 0.9185056
vt 0.8445284 0.9185056
vt 0.8445284 0.9119464
vt 0.8445284 0.9119464
vt 0.8445284 0.9119464
vt 0.8445284 0.9119464
vt 0.8455057 0.9119464
vt 0.8455057 0.9119464
vt 0.8443472 0.9185056
vt 0.8443472 0.9185056
vt 0.8433523 0.9185056
vt 0.8433523 0.9185056
vt 0.8443472 0.9119464
vt 0.8443472 0.9119464
vt 0.8443472 0.9185056
vt 0.8443472 0.9185056
vt 0.845687 0.9119464
vt 0.845687 0.9119464
vt 0.8466818 0.9119464
vt 0.8466818 0.9119464
f 22/22/22 4/4/4 8/8/8
f 18/18/18 4/4/4 22/22/22
f 18/18/18 22/22/22 17/17/17
f 17/17/17 22/22/22 21/21/21
f 24/24/24 17/17/17 21/21/21
f 20/20/20 17/17/17 24/24/24
f 20/20/20 24/24/24 19/19/19
f 19/19/19 24/24/24 77/77/77
f 67/67/67 19/19/19 77/77/77
f 10/10/10 19/19/19 67/67/67
f 66/66/66 10/10/10 67/67/67
f 65/65/65 10/10/10 66/66/66
f 55/55/55 30/30/30 56/56/56
f 38/38/38 30/30/30 55/55/55
f 38/38/38 55/55/55 39/39/39
f 39/39/39 55/55/55 73/73/73
f 72/72/72 39/39/39 73/73/73
f 34/34/34 39/39/39 72/72/72
f 34/34/34 72/72/72 85/85/85
f 85/85/85 72/72/72 86/86/86
f 71/71/71 85/85/85 86/86/86
f 70/70/70 85/85/85 71/71/71
f 69/69/69 70/70/70 71/71/71
f 68/68/68 70/70/70 69/69/69
f 3/3/3 7/7/7 1/1/1
f 1/1/1 7/7/7 5/5/5
f 57/57/57 58/58/58 29/29/29
f 29/29/29 58/58/58 59/59/59
f 60/60/60 31/31/31 61/61/61
f 61/61/61 31/31/31 32/32/32
f 31/31/31 9/9/9 32/32/32
f 9/9/9 35/35/35 32/32/32
f 91/91/91 9/9/9 31/31/31
f 14/14/14 35/35/35 9/9/9
f 79/79/79 91/91/91 31/31/31
f 14/14/14 92/92/92 35/35/35
f 92/92/92 91/91/91 79/79/79
f 35/35/35 92/92/92 79/79/79
f 79/79/79 80/80/80 35/35/35
f 78/78/78 80/80/80 79/79/79
f 78/78/78 13/13/13 80/80/80
f 13/13/13 84/84/84 80/80/80
f 28/28/28 13/13/13 78/78/78
f 16/16/16 84/84/84 13/13/13
f 82/82/82 28/28/28 78/78/78
f 16/16/16 25/25/25 84/84/84
f 25/25/25 28/28/28 82/82/82
f 84/84/84 25/25/25 82/82/82
f 82/82/82 83/83/83 84/84/84
f 81/81/81 83/83/83 82/82/82
f 81/81/81 94/94/94 83/83/83
f 93/93/93 94/94/94 81/81/81
f 94/94/94 87/87/87 83/83/83
f 83/83/83 87/87/87 88/88/88
f 93/93/93 81/81/81 89/89/89
f 87/87/87 89/89/89 88/88/88
f 89/89/89 81/81/81 90/90/90
f 88/88/88 89/89/89 90/90/90
f 62/62/62 11/11/11 63/63/63
f 63/63/63 11/11/11 64/64/64
f 11/11/11 23/23/23 64/64/64
f 64/64/64 23/23/23 36/36/36
f 23/23/23 33/33/33 36/36/36
f 53/53/53 33/33/33 23/23/23
f 53/53/53 54/54/54 33/33/33
f 33/33/33 54/54/54 40/40/40
f 54/54/54 37/37/37 40/40/40
f 74/74/74 37/37/37 54/54/54
f 74/74/74 75/75/75 37/37/37
f 37/37/37 75/75/75 76/76/76
f 15/15/15 26/26/26 50/50/50
f 50/50/50 26/26/26 49/49/49
f 12/12/12 27/27/27 43/43/43
f 43/43/43 27/27/27 48/48/48
f 6/6/6 2/2/2 41/41/41
f 41/41/41 2/2/2 42/42/42
f 95/95/95 97/97/97 96/96/96
f 96/96/96 97/97/97 98/98/98
f 99/99/99 100/100/100 44/44/44
f 44/44/44 100/100/100 47/47/47
f 45/45/45 52/52/52 46/46/46
f 46/46/46 52/52/52 51/51/51
f 101/101/101 103/103/103 102/102/102
f 102/102/102 103/103/103 104/104/104
f 105/105/105 107/107/107 106/106/106
f 106/106/106 107/107/107 108/108/108
f 109/109/109 111/111/111 110/110/110
f 110/110/110 111/111/111 112/112/112
f 113/113/113 115/115/115 114/114/114
f 114/114/114 115/115/115 116/116/116
f 117/117/117 119/119/119 118/118/118
f 118/118/118 119/119/119 120/120/120
f 121/121/121 123/123/123 122/122/122
f 122/122/122 123/123/123 124/124/124
f 125/125/125 127/127/127 126/126/126
f 126/126/126 127/127/127 128/128/128
f 129/129/129 131/131/131 130/130/130
f 130/130/130 131/131/131 132/132/132
f 133/133/133 135/135/135 134/134/134
f 134/134/134 135/135/135 136/136/136
