mtllib ShowerMirror_02.mtl
usemtl ShowerMirror_02

g ShowerMirror_02
v 0.5177925 0.03504103 -0.03684864
v 0.5177925 0.8858622 -0.03684864
v -0.5177925 0.03504103 -0.03684868
v -0.5177925 0.8858622 -0.03684868
v 0.5534384 0.001408376 0.04833142
v 0.5534384 0.9194948 0.04833142
v -0.5534384 0.001408376 0.04833137
v -0.5534384 0.9194948 0.04833137
v -0.5534384 0.001408376 -0.03684869
v 0.5534384 0.001408376 -0.03684864
v 0.5534384 0.9194948 -0.03684864
v -0.5534384 0.9194948 -0.03684869
v -0.5177925 0.03504103 -0.01903383
v 0.5177925 0.03504103 -0.01903378
v 0.5177925 0.8858622 -0.01903378
v -0.5177925 0.8858622 -0.01903383
v -0.5534384 0.001408376 0.04833137
v -0.5534384 0.9194948 0.04833137
v 0.5534384 0.001408376 0.04833142
v 0.5534384 0.9194948 0.04833142
v -0.5534384 0.001408376 -0.03684869
v -0.5534384 0.001408376 0.04833137
v 0.5534384 0.001408376 -0.03684864
v 0.5534384 0.001408376 0.04833142
v -0.5534384 0.9194948 0.04833137
v -0.5534384 0.9194948 -0.03684869
v 0.5534384 0.9194948 0.04833142
v 0.5534384 0.9194948 -0.03684864
v -0.5177925 0.03504103 -0.03684868
v 0.5534384 0.001408376 -0.03684864
v -0.5534384 0.001408376 -0.03684869
v 0.5177925 0.03504103 -0.03684864
v 0.5534384 0.9194948 -0.03684864
v 0.5534384 0.001408376 -0.03684864
v -0.5177925 0.8858622 -0.03684868
v 0.5177925 0.8858622 -0.03684864
v -0.5534384 0.9194948 -0.03684869
v 0.5534384 0.9194948 -0.03684864
v -0.5177925 0.03504103 -0.03684868
v -0.5177925 0.8858622 -0.03684868
v -0.5534384 0.001408376 -0.03684869
v -0.5534384 0.9194948 -0.03684869
v -0.5177925 0.03504103 -0.01903383
v -0.5177925 0.8858622 -0.01903383
v 0.5177925 0.03504103 -0.03684864
v 0.5177925 0.8858622 -0.03684864
v 0.5177925 0.03504103 -0.01903378
v 0.5177925 0.8858622 -0.01903378
v 0.5177925 0.8858622 -0.03684864
v -0.5177925 0.8858622 -0.03684868
v 0.5177925 0.8858622 -0.01903378
v -0.5177925 0.8858622 -0.01903383
v -0.5177925 0.03504103 -0.03684868
v 0.5177925 0.03504103 -0.03684864
v -0.5177925 0.03504103 -0.01903383
v 0.5177925 0.03504103 -0.01903378

vn 0 0 -1
vn 0 0 -1
vn 1 0 0
vn 1 0 0
vn 0 0 1
vn 0 0 1
vn -1 0 0
vn -1 0 0
vn -1 0 0
vn 1 0 0
vn 1 0 0
vn -1 0 0
vn 1 0 0
vn 0 0 -1
vn 0 0 -1
vn 1 0 0
vn 0 0 1
vn 0 0 1
vn 1 0 0
vn 1 0 0
vn 0 -1 0
vn 0 -1 0
vn 0 -1 0
vn 0 -1 0
vn 0 1 0
vn 0 1 0
vn 0 1 0
vn 0 1 0
vn 0 0 -1
vn 0 0 -1
vn 0 0 -1
vn 0 0 -1
vn 0 0 -1
vn 0 0 -1
vn 0 0 -1
vn 0 0 -1
vn 0 0 -1
vn 0 0 -1
vn 0 0 -1
vn 0 0 -1
vn 0 0 -1
vn 0 0 -1
vn 0 0 -1
vn 0 0 -1
vn -1 0 0
vn -1 0 0
vn -1 0 0
vn -1 0 0
vn 0 -1 0
vn 0 -1 0
vn 0 -1 0
vn 0 -1 0
vn 0 1 0
vn 0 1 0
vn 0 1 0
vn 0 1 0

vt 0.7114311 0.9493099
vt 0.7216667 0.9493099
vt 0.7114311 0.9588932
vt 0.7216666 0.9588932
vt 0.7112463 0.980615
vt 0.7218516 0.980615
vt 0.7112463 0.9700096
vt 0.7218516 0.9700096
vt 0.7112463 0.9594043
vt 0.7112463 0.9912204
vt 0.7218516 0.9912204
vt 0.7218516 0.9594043
vt 0.7114311 0.9588932
vt 0.9501514 0.6982256
vt 0.9898677 0.6982256
vt 0.7216666 0.9588932
vt 0.7112463 0.9700096
vt 0.7218516 0.9700096
vt 0.7112463 0.980615
vt 0.7218516 0.980615
vt 0.7006409 0.9700096
vt 0.7112463 0.9700096
vt 0.7006409 0.980615
vt 0.7112463 0.980615
vt 0.7218516 0.9700096
vt 0.732457 0.9700096
vt 0.7218516 0.980615
vt 0.732457 0.980615
vt 0.7114311 0.9588932
vt 0.7112463 0.9487989
vt 0.7112463 0.9594043
vt 0.7114311 0.9493099
vt 0.7218516 0.9487989
vt 0.7112463 0.9487989
vt 0.7216666 0.9588932
vt 0.7216667 0.9493099
vt 0.7218516 0.9594043
vt 0.7218516 0.9487989
vt 0.7114311 0.9588932
vt 0.7216666 0.9588932
vt 0.7112463 0.9594043
vt 0.7218516 0.9594043
vt 0.9501514 0.7354111
vt 0.9898677 0.7354111
vt 0.7114311 0.9493099
vt 0.7216667 0.9493099
vt 0.7114311 0.9493099
vt 0.7216667 0.9493099
vt 0.7216667 0.9493099
vt 0.7216666 0.9588932
vt 0.7216667 0.9493099
vt 0.7216666 0.9588932
vt 0.7114311 0.9588932
vt 0.7114311 0.9493099
vt 0.7114311 0.9588932
vt 0.7114311 0.9493099
f 4/4/4 16/16/16 3/3/3
f 3/3/3 16/16/16 13/13/13
f 9/9/9 7/7/7 12/12/12
f 12/12/12 7/7/7 8/8/8
f 17/17/17 5/5/5 18/18/18
f 18/18/18 5/5/5 6/6/6
f 19/19/19 10/10/10 20/20/20
f 20/20/20 10/10/10 11/11/11
f 21/21/21 23/23/23 22/22/22
f 22/22/22 23/23/23 24/24/24
f 25/25/25 27/27/27 26/26/26
f 26/26/26 27/27/27 28/28/28
f 1/1/1 30/30/30 29/29/29
f 29/29/29 30/30/30 31/31/31
f 2/2/2 33/33/33 32/32/32
f 32/32/32 33/33/33 34/34/34
f 35/35/35 37/37/37 36/36/36
f 36/36/36 37/37/37 38/38/38
f 39/39/39 41/41/41 40/40/40
f 40/40/40 41/41/41 42/42/42
f 14/14/14 43/43/43 15/15/15
f 15/15/15 43/43/43 44/44/44
f 45/45/45 47/47/47 46/46/46
f 46/46/46 47/47/47 48/48/48
f 49/49/49 51/51/51 50/50/50
f 50/50/50 51/51/51 52/52/52
f 53/53/53 55/55/55 54/54/54
f 54/54/54 55/55/55 56/56/56
