mtllib Sofa_05.mtl
usemtl Sofa_05

g Sofa_05
v -0.985272 0 -0.09812237
v -0.985272 0.84938 -0.09812237
v 0.9852722 0 -0.09812246
v 0.9852722 0.84938 -0.09812246
v -0.985272 0 0.09812256
v -0.985272 0.84938 0.09812256
v 0.9852722 0 0.09812246
v 0.9852722 0.84938 0.09812246
v 0.9852721 0 -0.9452342
v -0.985272 0 -0.9452341
v -0.8042697 0 -0.07761122
v 0.80427 0 -0.07761129
v 0.80427 0.84938 -0.02534711
v -0.8042697 0.84938 -0.02534704
v 0.80427 0 0.09812248
v -0.8042697 0 0.09812255
v -0.8042697 0.84938 0.09812255
v 0.80427 0.84938 0.09812248
v 0.80427 0 -0.9452342
v -0.8042699 0 -0.9452342
v 0.9852721 0.5330868 -0.9452342
v 0.9852722 0.84938 -0.6289409
v 0.9852721 0.654127 -0.9211581
v 0.9852721 0.7567399 -0.8525943
v 0.9852722 0.8253037 -0.7499813
v -0.985272 0.84938 -0.6289408
v -0.985272 0.5330868 -0.9452341
v -0.985272 0.8253037 -0.7499812
v -0.985272 0.7567399 -0.8525941
v -0.985272 0.654127 -0.921158
v 0.80427 0.84938 -0.6289408
v 0.80427 0.5330868 -0.9452342
v 0.80427 0.8253037 -0.7499812
v 0.80427 0.7567399 -0.8525943
v 0.80427 0.654127 -0.921158
v -0.8042699 0.5330868 -0.9452342
v -0.8042697 0.84938 -0.6289408
v -0.8042699 0.654127 -0.921158
v -0.8042699 0.7567399 -0.8525943
v -0.8042697 0.8253037 -0.7499812
v -0.7977101 1.05756 -0.008290237
v -0.7977101 0.3935079 -0.0992716
v -0.003033268 1.05756 -0.008290272
v -0.003033322 0.3935078 -0.09927164
v -0.7977101 1.081752 -0.1848654
v -0.7977101 0.4177004 -0.2758468
v -0.003033275 1.081752 -0.1848655
v -0.00303333 0.4177003 -0.2758469
v -0.7978445 0.06029455 -0.08766304
v -0.7978446 0.06029452 -0.9370431
v 0.7994285 0.06029459 -0.08766311
v 0.7994285 0.06029455 -0.9370432
v -0.7978445 0.2565395 -0.08766304
v -0.7978446 0.2565395 -0.9370431
v 0.7994285 0.2565396 -0.08766311
v 0.7994285 0.2565395 -0.9370432
v 0.005767421 0.2591996 -0.08766307
v 0.005767385 0.2591996 -0.9370431
v 0.8004442 0.2591996 -0.08766311
v 0.8004441 0.2591996 -0.9370431
v 0.005767421 0.4554446 -0.08766307
v 0.005767385 0.4554445 -0.9370431
v 0.8004442 0.4554446 -0.08766311
v 0.8004441 0.4554446 -0.9370431
v -0.7977101 0.2591996 -0.08766304
v -0.7977101 0.2591996 -0.9370431
v -0.003033271 0.2591996 -0.08766307
v -0.003033308 0.2591996 -0.9370431
v -0.7977101 0.4554446 -0.08766304
v -0.7977101 0.4554445 -0.9370431
v -0.003033271 0.4554446 -0.08766307
v -0.003033308 0.4554446 -0.9370431
v 0.005767425 1.05756 -0.008290272
v 0.005767371 0.3935079 -0.09927164
v 0.8004442 1.05756 -0.008290307
v 0.8004441 0.3935078 -0.09927167
v 0.005767417 1.081752 -0.1848653
v 0.005767363 0.4177004 -0.2758469
v 0.8004442 1.081752 -0.1848655
v 0.8004441 0.4177003 -0.2758469
v 0.80427 0.84938 -0.02534711
v 0.9852722 0.84938 -0.09812246
v 0.9852722 0 -0.09812246
v 0.9852722 0 -0.09812246
v 0.9852722 0.84938 0.09812246
v 0.9852722 0 0.09812246
v -0.985272 0.84938 0.09812256
v -0.985272 0 -0.09812237
v -0.8042697 0.84938 0.09812255
v -0.8042697 0 0.09812255
v -0.985272 0 0.09812256
v 0.9852722 0 0.09812246
v 0.80427 0 0.09812248
v 0.80427 0.84938 0.09812248
v 0.80427 0 -0.07761129
v 0.80427 0.84938 -0.02534711
v -0.8042697 0.84938 -0.02534704
v -0.8042697 0.84938 -0.02534704
v -0.985272 0.84938 -0.09812237
v -0.8042699 0 -0.9452342
v -0.985272 0 -0.9452341
v -0.8042697 0 -0.07761122
v 0.80427 0.5330868 -0.9452342
v 0.80427 0 -0.9452342
v 0.9852721 0 -0.9452342
v -0.985272 0.5330868 -0.9452341
v 0.9852722 0.84938 -0.6289409
v 0.80427 0.84938 -0.6289408
v 0.80427 0.8253037 -0.7499812
v 0.80427 0.8253037 -0.7499812
v 0.9852721 0.7567399 -0.8525943
v 0.80427 0.7567399 -0.8525943
v 0.80427 0.654127 -0.921158
v 0.80427 0.654127 -0.921158
v 0.80427 0.5330868 -0.9452342
v -0.8042697 0.84938 -0.6289408
v -0.985272 0.84938 -0.6289408
v -0.985272 0.8253037 -0.7499812
v -0.985272 0.8253037 -0.7499812
v -0.8042699 0.7567399 -0.8525943
v -0.985272 0.7567399 -0.8525941
v -0.985272 0.654127 -0.921158
v -0.985272 0.654127 -0.921158
v -0.985272 0.5330868 -0.9452341
v -0.003033322 0.3935078 -0.09927164
v -0.003033268 1.05756 -0.008290272
v -0.003033275 1.081752 -0.1848655
v -0.7977101 1.081752 -0.1848654
v -0.7977101 1.05756 -0.008290237
v -0.003033275 1.081752 -0.1848655
v -0.003033268 1.05756 -0.008290272
v -0.7977101 1.05756 -0.008290237
v -0.003033322 0.3935078 -0.09927164
v -0.00303333 0.4177003 -0.2758469
v -0.7977101 0.4177004 -0.2758468
v 0.7994285 0.06029459 -0.08766311
v 0.7994285 0.2565396 -0.08766311
v -0.7978445 0.2565395 -0.08766304
v -0.7978445 0.06029455 -0.08766304
v 0.7994285 0.2565396 -0.08766311
v 0.7994285 0.06029459 -0.08766311
v -0.7978445 0.06029455 -0.08766304
v 0.7994285 0.06029455 -0.9370432
v 0.7994285 0.2565395 -0.9370432
v -0.7978446 0.2565395 -0.9370431
v 0.8004441 0.2591996 -0.9370431
v 0.8004442 0.2591996 -0.08766311
v 0.8004442 0.4554446 -0.08766311
v 0.005767421 0.4554446 -0.08766307
v 0.005767421 0.2591996 -0.08766307
v 0.8004442 0.4554446 -0.08766311
v 0.8004442 0.2591996 -0.08766311
v 0.005767421 0.2591996 -0.08766307
v 0.8004441 0.2591996 -0.9370431
v 0.8004441 0.4554446 -0.9370431
v 0.005767385 0.4554445 -0.9370431
v -0.003033308 0.2591996 -0.9370431
v -0.003033271 0.2591996 -0.08766307
v -0.003033271 0.4554446 -0.08766307
v -0.7977101 0.4554446 -0.08766304
v -0.7977101 0.2591996 -0.08766304
v -0.003033271 0.4554446 -0.08766307
v -0.003033271 0.2591996 -0.08766307
v -0.7977101 0.2591996 -0.08766304
v -0.003033308 0.2591996 -0.9370431
v -0.003033308 0.4554446 -0.9370431
v -0.7977101 0.4554445 -0.9370431
v 0.8004442 1.05756 -0.008290307
v 0.8004442 1.081752 -0.1848655
v 0.005767363 0.4177004 -0.2758469
v 0.005767417 1.081752 -0.1848653
v 0.005767425 1.05756 -0.008290272
v 0.8004442 1.081752 -0.1848655
v 0.8004442 1.05756 -0.008290307
v 0.005767425 1.05756 -0.008290272
v 0.8004441 0.3935078 -0.09927167
v 0.005767363 0.4177004 -0.2758469
v 0.9852722 0.84938 -0.6289409
v 0.9852722 0.84938 -0.09812246
v 0.9852722 0.84938 0.09812246
v 0.9852721 0 -0.9452342
v 0.9852721 0.7567399 -0.8525943
v 0.9852721 0.654127 -0.9211581
v -0.985272 0.84938 -0.09812237
v -0.985272 0 0.09812256
v -0.985272 0.84938 0.09812256
v -0.8042697 0 -0.07761122
v -0.8042697 0.84938 -0.6289408
v 0.80427 0 -0.9452342
v 0.80427 0 -0.07761129
v 0.80427 0.84938 -0.6289408
v 0.80427 0.84938 -0.02534711
v 0.80427 0.7567399 -0.8525943
v -0.8042699 0.5330868 -0.9452342
v -0.8042697 0.84938 -0.02534704
v -0.8042699 0 -0.9452342
v -0.8042699 0.7567399 -0.8525943
v -0.8042699 0.654127 -0.921158
v 0.9852721 0.5330868 -0.9452342
v -0.985272 0 -0.9452341
v -0.985272 0 -0.09812237
v -0.985272 0.84938 -0.6289408
v -0.985272 0.7567399 -0.8525941
v 0.9852722 0.8253037 -0.7499813
v 0.9852722 0.8253037 -0.7499813
v 0.9852721 0.654127 -0.9211581
v 0.9852721 0.5330868 -0.9452342
v -0.8042697 0.8253037 -0.7499812
v -0.8042697 0.8253037 -0.7499812
v -0.8042699 0.654127 -0.921158
v -0.8042699 0.5330868 -0.9452342
v -0.00303333 0.4177003 -0.2758469
v -0.7977101 0.4177004 -0.2758468
v -0.7977101 0.3935079 -0.0992716
v -0.7977101 1.081752 -0.1848654
v -0.7977101 0.3935079 -0.0992716
v 0.7994285 0.06029455 -0.9370432
v 0.7994285 0.2565395 -0.9370432
v -0.7978446 0.2565395 -0.9370431
v -0.7978446 0.06029452 -0.9370431
v -0.7978445 0.2565395 -0.08766304
v -0.7978446 0.06029452 -0.9370431
v 0.8004441 0.4554446 -0.9370431
v 0.005767385 0.4554445 -0.9370431
v 0.005767385 0.2591996 -0.9370431
v 0.005767421 0.4554446 -0.08766307
v 0.005767385 0.2591996 -0.9370431
v -0.003033308 0.4554446 -0.9370431
v -0.7977101 0.4554445 -0.9370431
v -0.7977101 0.2591996 -0.9370431
v -0.7977101 0.4554446 -0.08766304
v -0.7977101 0.2591996 -0.9370431
v 0.8004441 0.3935078 -0.09927167
v 0.8004441 0.4177003 -0.2758469
v 0.8004441 0.4177003 -0.2758469
v 0.005767371 0.3935079 -0.09927164
v 0.005767417 1.081752 -0.1848653
v 0.005767371 0.3935079 -0.09927164

vn -1 0 0
vn 0 1 0
vn 1 0 0
vn 0 1 0
vn -1 0 0
vn -1 0 0
vn 1 0 0
vn 0 1 0
vn 0 -1 0
vn 0 0 -1
vn 0 -1 0
vn 0 -1 0
vn 0 1 0
vn 0 1 0
vn 0 0 1
vn 0 -1 0
vn 0 1 0
vn 0 1 0
vn 0 -1 0
vn 0 0 -1
vn 1 0 0
vn 1 0 0
vn 0 0.1950869 -0.9807859
vn 0 0.8314695 -0.5555702
vn 1 0 0
vn 0 1 0
vn 0 0 -1
vn -1 0 0
vn 0 0.8314695 -0.5555705
vn -1 0 0
vn 0 1 0
vn -1 0 0
vn -1 0 0
vn 0 0.8314695 -0.5555702
vn -1 0 0
vn 1 0 0
vn 1 0 0
vn 0 0.1950902 -0.9807854
vn 0 0.8314695 -0.5555705
vn 1 0 0
vn 0 -0.1357413 0.9907444
vn 0 -0.1357413 0.9907443
vn 0 -0.1357413 0.9907444
vn 0 -0.1357413 0.9907444
vn 0 0.1357414 -0.9907443
vn -1 0 0
vn 1 0 0
vn 0 0.1357414 -0.9907443
vn 0 -1 0
vn 0 -1 0
vn 0 -1 0
vn 1 0 0
vn 0 1 0
vn -1 0 0
vn 1 0 0
vn 0 1 0
vn 0 -1 0
vn 0 -1 0
vn 0 -1 0
vn 0 -1 0
vn 0 1 0
vn -1 0 0
vn 1 0 0
vn 0 1 0
vn 0 -1 0
vn 0 -1 0
vn 0 -1 0
vn 0 -1 0
vn 0 1 0
vn -1 0 0
vn 1 0 0
vn 0 1 0
vn 0 -0.1357413 0.9907443
vn 0 -0.1357413 0.9907443
vn 0 -0.1357413 0.9907443
vn 1 0 0
vn 0 0.1357417 -0.9907443
vn 0 0.1357417 -0.9907443
vn 1 0 0
vn 0 -0.9907444 -0.1357412
vn 0 1 0
vn 1 0 0
vn 1 0 0
vn 0 -1 0
vn 0 0 1
vn 0 0 1
vn 0 1 0
vn 0 -1 0
vn 0 0 1
vn 0 0 1
vn 0 0 1
vn 0 -1 0
vn 0 -1 0
vn 0 0 1
vn 0 0 -1
vn 0 0 -1
vn 0 0 -1
vn 0 1 0
vn 0 1 0
vn 0 -1 0
vn 0 -1 0
vn 1 0 0
vn 0 0 -1
vn 0 0 -1
vn 0 0 -1
vn -1 0 0
vn 0 0.9807854 -0.1950901
vn 0 0.9807854 -0.1950901
vn 0 0.9807854 -0.1950901
vn 0 0.8314695 -0.5555702
vn 0 0.5555715 -0.8314688
vn 0 0.5555715 -0.8314688
vn 0 0.5555715 -0.8314688
vn 0 0.1950869 -0.9807859
vn 0 0.1950869 -0.9807859
vn 0 0.9807854 -0.1950901
vn 0 0.9807854 -0.1950901
vn 0 0.9807854 -0.1950901
vn 0 0.8314695 -0.5555705
vn 0 0.5555704 -0.8314695
vn 0 0.5555704 -0.8314695
vn 0 0.5555704 -0.8314695
vn 0 0.1950902 -0.9807854
vn 0 0.1950902 -0.9807854
vn 1 0 0
vn 1 0 0
vn 0 0.1357414 -0.9907443
vn -1 0 0
vn -1 0 0
vn 0 0.9907444 0.1357407
vn 0 0.9907444 0.1357407
vn 0 0.9907444 0.1357407
vn 0 -0.9907444 -0.1357412
vn 0 -0.9907444 -0.1357412
vn 0 -0.9907444 -0.1357412
vn 1 0 0
vn 0 1 0
vn -1 0 0
vn -1 0 0
vn 0 0 1
vn 0 0 1
vn 0 0 1
vn 0 0 -1
vn 0 0 -1
vn 0 0 -1
vn 1 0 0
vn 1 0 0
vn 0 1 0
vn -1 0 0
vn -1 0 0
vn 0 0 1
vn 0 0 1
vn 0 0 1
vn 0 0 -1
vn 0 0 -1
vn 0 0 -1
vn 1 0 0
vn 1 0 0
vn 0 1 0
vn -1 0 0
vn -1 0 0
vn 0 0 1
vn 0 0 1
vn 0 0 1
vn 0 0 -1
vn 0 0 -1
vn 0 0 -1
vn 1 0 0
vn 0 0.1357417 -0.9907443
vn -1 0 0
vn -1 0 0
vn -1 0 0
vn 0 0.9907444 0.1357407
vn 0 0.9907444 0.1357407
vn 0 0.9907444 0.1357407
vn 0 -0.9907444 -0.1357412
vn 0 -0.9907444 -0.1357412
vn 0 1 0
vn 0 1 0
vn 1 0 0
vn 1 0 0
vn 1 0 0
vn 1 0 0
vn -1 0 0
vn 0 -1 0
vn 0 0 1
vn 0 0 -1
vn 0 1 0
vn -1 0 0
vn -1 0 0
vn -1 0 0
vn -1 0 0
vn -1 0 0
vn 0 0 -1
vn 1 0 0
vn 1 0 0
vn 1 0 0
vn 1 0 0
vn 0 0 -1
vn -1 0 0
vn -1 0 0
vn -1 0 0
vn -1 0 0
vn 0 0.9807854 -0.1950902
vn 0 0.8314699 -0.5555699
vn 0 0.5555704 -0.8314695
vn 0 0.1950904 -0.9807853
vn 0 0.9807854 -0.1950899
vn 0 0.83147 -0.5555695
vn 0 0.5555699 -0.8314699
vn 0 0.195087 -0.9807859
vn 1 0 0
vn 0 0.1357414 -0.9907443
vn -1 0 0
vn 0 0.9907443 0.1357414
vn 0 -0.9907443 -0.1357414
vn 0 -1 0
vn 1 0 0
vn 0 1 0
vn -1 0 0
vn 0 0 1
vn 0 0 -1
vn 1 0 0
vn 0 1 0
vn -1 0 0
vn 0 0 1
vn 0 0 -1
vn 1 0 0
vn 0 1 0
vn -1 0 0
vn 0 0 1
vn 0 0 -1
vn 0 -0.1357413 0.9907444
vn 1 0 0
vn 0 0.1357413 -0.9907444
vn -1 0 0
vn 0 0.9907443 0.1357415
vn 0 -0.9907443 -0.1357414

vt 0.8402976 0.9193169
vt 0.8581233 0.910404
vt 0.8402976 0.8925782
vt 0.8581233 0.9014911
vt 0.8402976 0.910404
vt 0.8492105 0.910404
vt 0.8402976 0.9014911
vt 0.8492105 0.9014911
vt 0.8313847 0.9014911
vt 0.8402976 0.8836653
vt 0.8313847 0.9095853
vt 0.8313847 0.9023098
vt 0.8581233 0.9023098
vt 0.8581233 0.9095853
vt 0.8402976 0.9023098
vt 0.8402976 0.9095853
vt 0.8492105 0.9095853
vt 0.8492105 0.9023098
vt 0.8313847 0.9023098
vt 0.8402976 0.884484
vt 0.8458915 0.8925782
vt 0.8492105 0.8925782
vt 0.8471615 0.8925782
vt 0.8581233 0.9014911
vt 0.8489578 0.8925782
vt 0.8581233 0.910404
vt 0.8458915 0.8836653
vt 0.8489578 0.9193169
vt 0.8581233 0.910404
vt 0.8471615 0.9193169
vt 0.8581233 0.9023098
vt 0.8458915 0.8917595
vt 0.8489578 0.8917595
vt 0.8581233 0.9023098
vt 0.8471615 0.8917595
vt 0.8458915 0.884484
vt 0.8492105 0.884484
vt 0.8471615 0.884484
vt 0.8581233 0.9095853
vt 0.8489578 0.884484
vt 0.7780248 0.9478392
vt 0.7869399 0.9478392
vt 0.7780248 0.9567543
vt 0.7869399 0.9567543
vt 0.7780248 0.9745844
vt 0.7869399 0.9745844
vt 0.7780248 0.9656693
vt 0.7869399 0.9656693
vt 0.8402976 0.8836653
vt 0.8492105 0.8836653
vt 0.8402976 0.8925782
vt 0.8492105 0.8925782
vt 0.8402976 0.910404
vt 0.8492105 0.910404
vt 0.8402976 0.9014911
vt 0.8492105 0.9014911
vt 0.7780248 0.9478392
vt 0.7869399 0.9478392
vt 0.7780248 0.9567543
vt 0.7869399 0.9567543
vt 0.7780248 0.9745844
vt 0.7869399 0.9745844
vt 0.7780248 0.9656693
vt 0.7869399 0.9656693
vt 0.7780248 0.9478392
vt 0.7869399 0.9478392
vt 0.7780248 0.9567543
vt 0.7869399 0.9567543
vt 0.7780248 0.9745844
vt 0.7869399 0.9745844
vt 0.7780248 0.9656693
vt 0.7869399 0.9656693
vt 0.7780248 0.9478392
vt 0.7869399 0.9478392
vt 0.7780248 0.9567543
vt 0.7869399 0.9567543
vt 0.7780248 0.9745844
vt 0.7869399 0.9745844
vt 0.7780248 0.9656693
vt 0.7869399 0.9656693
vt 0.8581233 0.9023098
vt 0.8492105 0.8925782
vt 0.8402976 0.8925782
vt 0.8313847 0.9014911
vt 0.8492105 0.9014911
vt 0.8402976 0.9014911
vt 0.8492105 0.910404
vt 0.8313847 0.910404
vt 0.8492105 0.9095853
vt 0.8402976 0.9095853
vt 0.8402976 0.910404
vt 0.8402976 0.9014911
vt 0.8402976 0.9023098
vt 0.8492105 0.9023098
vt 0.8402976 0.8917595
vt 0.8492105 0.8917595
vt 0.8492105 0.884484
vt 0.8581233 0.9095853
vt 0.8581233 0.910404
vt 0.8313847 0.9095853
vt 0.8313847 0.910404
vt 0.8402976 0.884484
vt 0.8458915 0.8917595
vt 0.8402976 0.8917595
vt 0.8402976 0.8925782
vt 0.8458915 0.9193169
vt 0.8581233 0.9014911
vt 0.8581233 0.9023098
vt 0.8581233 0.9023098
vt 0.8581233 0.9023098
vt 0.8492105 0.8925782
vt 0.8492105 0.8917595
vt 0.8471615 0.8917595
vt 0.8471615 0.8917595
vt 0.8458915 0.8917595
vt 0.8581233 0.9095853
vt 0.8581233 0.910404
vt 0.8581233 0.910404
vt 0.8581233 0.910404
vt 0.8492105 0.884484
vt 0.8492105 0.8836653
vt 0.8471615 0.8836653
vt 0.8471615 0.8836653
vt 0.8458915 0.8836653
vt 0.7869399 0.9567543
vt 0.7780248 0.9567543
vt 0.7780248 0.9656693
vt 0.7780248 0.9745844
vt 0.7780248 0.9834995
vt 0.7780248 0.9656693
vt 0.7691097 0.9656693
vt 0.7691097 0.9745844
vt 0.7958549 0.9656693
vt 0.7869399 0.9656693
vt 0.7869399 0.9745844
vt 0.8402976 0.8925782
vt 0.8402976 0.9014911
vt 0.8402976 0.910404
vt 0.8402976 0.9193169
vt 0.8402976 0.9014911
vt 0.8313847 0.9014911
vt 0.8313847 0.910404
vt 0.8581233 0.9014911
vt 0.8492105 0.9014911
vt 0.8492105 0.910404
vt 0.7869399 0.9567543
vt 0.7780248 0.9567543
vt 0.7780248 0.9656693
vt 0.7780248 0.9745844
vt 0.7780248 0.9834995
vt 0.7780248 0.9656693
vt 0.7691097 0.9656693
vt 0.7691097 0.9745844
vt 0.7958549 0.9656693
vt 0.7869399 0.9656693
vt 0.7869399 0.9745844
vt 0.7869399 0.9567543
vt 0.7780248 0.9567543
vt 0.7780248 0.9656693
vt 0.7780248 0.9745844
vt 0.7780248 0.9834995
vt 0.7780248 0.9656693
vt 0.7691097 0.9656693
vt 0.7691097 0.9745844
vt 0.7958549 0.9656693
vt 0.7869399 0.9656693
vt 0.7869399 0.9745844
vt 0.7780248 0.9567543
vt 0.7780248 0.9656693
vt 0.7869399 0.9745844
vt 0.7780248 0.9745844
vt 0.7780248 0.9834995
vt 0.7780248 0.9656693
vt 0.7691097 0.9656693
vt 0.7691097 0.9745844
vt 0.7958549 0.9656693
vt 0.7869399 0.9745844
vt 0.8581233 0.9014911
vt 0.8581233 0.9014911
vt 0.8492105 0.9014911
vt 0.8402976 0.8925782
vt 0.8482383 0.8925782
vt 0.8471615 0.8925782
vt 0.8492105 0.9193169
vt 0.8402976 0.910404
vt 0.8492105 0.910404
vt 0.8402976 0.884484
vt 0.8581233 0.9095853
vt 0.8402976 0.8917595
vt 0.8402976 0.8917595
vt 0.8492105 0.8917595
vt 0.8492105 0.8917595
vt 0.8482383 0.8917595
vt 0.8458915 0.884484
vt 0.8492105 0.884484
vt 0.8402976 0.884484
vt 0.8482383 0.884484
vt 0.8471615 0.884484
vt 0.8458915 0.8925782
vt 0.8402976 0.9193169
vt 0.8402976 0.9193169
vt 0.8492105 0.9193169
vt 0.8482383 0.9193169
vt 0.8581233 0.9014911
vt 0.8581233 0.9014911
vt 0.8471615 0.8925782
vt 0.8458915 0.8925782
vt 0.8581233 0.9095853
vt 0.8581233 0.9095853
vt 0.8471615 0.884484
vt 0.8458915 0.884484
vt 0.7869399 0.9656693
vt 0.7869399 0.9745844
vt 0.7869399 0.9834995
vt 0.7780248 0.9745844
vt 0.7958549 0.9745844
vt 0.8492105 0.8925782
vt 0.8492105 0.9014911
vt 0.8492105 0.910404
vt 0.8492105 0.9193169
vt 0.8402976 0.910404
vt 0.8581233 0.910404
vt 0.7869399 0.9656693
vt 0.7869399 0.9745844
vt 0.7869399 0.9834995
vt 0.7780248 0.9745844
vt 0.7958549 0.9745844
vt 0.7869399 0.9656693
vt 0.7869399 0.9745844
vt 0.7869399 0.9834995
vt 0.7780248 0.9745844
vt 0.7958549 0.9745844
vt 0.7869399 0.9567543
vt 0.7869399 0.9656693
vt 0.7869399 0.9656693
vt 0.7869399 0.9834995
vt 0.7780248 0.9745844
vt 0.7958549 0.9745844
f 4/4/4 31/31/31 13/13/13
f 4/4/4 178/178/178 31/31/31
f 6/6/6 1/1/1 5/5/5
f 6/6/6 184/184/184 1/1/1
f 1/1/1 184/184/184 202/202/202
f 201/201/201 202/202/202 106/106/106
f 200/200/200 201/201/201 106/106/106
f 106/106/106 202/202/202 28/28/28
f 30/30/30 106/106/106 28/28/28
f 28/28/28 203/203/203 30/30/30
f 84/84/84 19/19/19 9/9/9
f 84/84/84 12/12/12 19/19/19
f 92/92/92 12/12/12 84/84/84
f 92/92/92 93/93/93 12/12/12
f 11/11/11 12/12/12 93/93/93
f 11/11/11 93/93/93 16/16/16
f 16/16/16 88/88/88 11/11/11
f 16/16/16 185/185/185 88/88/88
f 11/11/11 88/88/88 101/101/101
f 11/11/11 101/101/101 100/100/100
f 85/85/85 15/15/15 86/86/86
f 85/85/85 94/94/94 15/15/15
f 90/90/90 15/15/15 94/94/94
f 90/90/90 94/94/94 89/89/89
f 89/89/89 91/91/91 90/90/90
f 89/89/89 186/186/186 91/91/91
f 17/17/17 2/2/2 87/87/87
f 17/17/17 14/14/14 2/2/2
f 17/17/17 81/81/81 14/14/14
f 17/17/17 18/18/18 81/81/81
f 8/8/8 81/81/81 18/18/18
f 8/8/8 179/179/179 81/81/81
f 95/95/95 97/97/97 96/96/96
f 95/95/95 187/187/187 97/97/97
f 98/98/98 26/26/26 99/99/99
f 98/98/98 188/188/188 26/26/26
f 27/27/27 20/20/20 10/10/10
f 27/27/27 194/194/194 20/20/20
f 103/103/103 105/105/105 104/104/104
f 103/103/103 199/199/199 105/105/105
f 107/107/107 109/109/109 108/108/108
f 107/107/107 204/204/204 109/109/109
f 110/110/110 24/24/24 34/34/34
f 110/110/110 205/205/205 24/24/24
f 111/111/111 113/113/113 112/112/112
f 111/111/111 206/206/206 113/113/113
f 23/23/23 115/115/115 114/114/114
f 23/23/23 207/207/207 115/115/115
f 116/116/116 118/118/118 117/117/117
f 116/116/116 208/208/208 118/118/118
f 119/119/119 39/39/39 29/29/29
f 119/119/119 209/209/209 39/39/39
f 120/120/120 122/122/122 121/121/121
f 120/120/120 210/210/210 122/122/122
f 38/38/38 124/124/124 123/123/123
f 38/38/38 211/211/211 124/124/124
f 41/41/41 44/44/44 43/43/43
f 41/41/41 42/42/42 44/44/44
f 125/125/125 47/47/47 126/126/126
f 125/125/125 212/212/212 47/47/47
f 48/48/48 45/45/45 127/127/127
f 48/48/48 213/213/213 45/45/45
f 46/46/46 129/129/129 128/128/128
f 46/46/46 214/214/214 129/129/129
f 130/130/130 132/132/132 131/131/131
f 130/130/130 215/215/215 132/132/132
f 133/133/133 135/135/135 134/134/134
f 133/133/133 216/216/216 135/135/135
f 50/50/50 51/51/51 49/49/49
f 50/50/50 217/217/217 51/51/51
f 52/52/52 55/55/55 136/136/136
f 52/52/52 218/218/218 55/55/55
f 56/56/56 53/53/53 137/137/137
f 56/56/56 219/219/219 53/53/53
f 54/54/54 139/139/139 138/138/138
f 54/54/54 220/220/220 139/139/139
f 140/140/140 142/142/142 141/141/141
f 140/140/140 221/221/221 142/142/142
f 143/143/143 145/145/145 144/144/144
f 143/143/143 222/222/222 145/145/145
f 57/57/57 60/60/60 59/59/59
f 57/57/57 58/58/58 60/60/60
f 146/146/146 63/63/63 147/147/147
f 146/146/146 223/223/223 63/63/63
f 64/64/64 61/61/61 148/148/148
f 64/64/64 224/224/224 61/61/61
f 62/62/62 150/150/150 149/149/149
f 62/62/62 225/225/225 150/150/150
f 151/151/151 153/153/153 152/152/152
f 151/151/151 226/226/226 153/153/153
f 154/154/154 156/156/156 155/155/155
f 154/154/154 227/227/227 156/156/156
f 65/65/65 68/68/68 67/67/67
f 65/65/65 66/66/66 68/68/68
f 157/157/157 71/71/71 158/158/158
f 157/157/157 228/228/228 71/71/71
f 72/72/72 69/69/69 159/159/159
f 72/72/72 229/229/229 69/69/69
f 70/70/70 161/161/161 160/160/160
f 70/70/70 230/230/230 161/161/161
f 162/162/162 164/164/164 163/163/163
f 162/162/162 231/231/231 164/164/164
f 165/165/165 167/167/167 166/166/166
f 165/165/165 232/232/232 167/167/167
f 74/74/74 75/75/75 73/73/73
f 74/74/74 233/233/233 75/75/75
f 76/76/76 79/79/79 168/168/168
f 76/76/76 234/234/234 79/79/79
f 169/169/169 78/78/78 77/77/77
f 169/169/169 235/235/235 78/78/78
f 170/170/170 172/172/172 171/171/171
f 170/170/170 236/236/236 172/172/172
f 173/173/173 175/175/175 174/174/174
f 173/173/173 237/237/237 175/175/175
f 176/176/176 177/177/177 80/80/80
f 176/176/176 238/238/238 177/177/177
f 82/82/82 180/180/180 7/7/7
f 82/82/82 7/7/7 3/3/3
f 22/22/22 82/82/82 3/3/3
f 22/22/22 83/83/83 21/21/21
f 83/83/83 181/181/181 21/21/21
f 25/25/25 22/22/22 21/21/21
f 182/182/182 25/25/25 21/21/21
f 21/21/21 183/183/183 182/182/182
f 189/189/189 190/190/190 32/32/32
f 190/190/190 191/191/191 32/32/32
f 190/190/190 192/192/192 191/191/191
f 32/32/32 191/191/191 33/33/33
f 35/35/35 32/32/32 33/33/33
f 33/33/33 193/193/193 35/35/35
f 37/37/37 195/195/195 102/102/102
f 37/37/37 102/102/102 36/36/36
f 102/102/102 196/196/196 36/36/36
f 40/40/40 37/37/37 36/36/36
f 197/197/197 40/40/40 36/36/36
f 36/36/36 198/198/198 197/197/197
