mtllib Spoon.mtl
usemtl Spoon

g Spoon
v -0.01229582 0.0100563 0.08342168
v -0.006654772 -0.003752584 0.06717332
v -0.02968361 0.008557847 0.06157001
v -0.01606503 -0.004563541 0.05534727
v -7.747709E-07 -0.009573887 0.04728925
v -0.02968361 0.006438714 0.03066712
v -0.01606498 -0.005710408 0.03862274
v -0.007519556 0.0009454936 0.007094362
v -0.006654772 -0.006521365 0.02679671
v 0.007518006 0.0009454936 0.007094362
v 0.006653273 -0.006521365 0.02679671
v 0.02968206 0.006438714 0.03066712
v 0.01606348 -0.005710408 0.03862274
v 0.02968206 0.008557847 0.06157001
v 0.01606348 -0.004563541 0.05534727
v 0.01229427 0.0100563 0.08342168
v 0.006653273 -0.003752584 0.06717332
v -0.01190939 0.01191444 0.08211644
v -0.006360878 -0.001700656 0.0661367
v -0.02875078 0.01046308 0.06095149
v -0.01535549 -0.002475792 0.05483303
v -7.747709E-07 -0.007242365 0.04712938
v -0.02875078 0.008410547 0.03101977
v -0.01535544 -0.003572003 0.03884721
v -0.007283229 0.006740332 0.006663343
v -0.006360878 -0.004347143 0.02754349
v 0.00728173 0.006740332 0.006663343
v 0.006359328 -0.00434714 0.02754354
v 0.02874923 0.008410547 0.03101977
v 0.01535394 -0.003572004 0.03884719
v 0.02874923 0.01046308 0.06095149
v 0.01535389 -0.002475793 0.05483303
v 0.01190784 0.01191444 0.08211641
v 0.006359379 -0.001700653 0.06613673
v -0.007519556 -0.009577254 -0.1419324
v 0.007517955 -0.009577254 -0.1419324
v -0.00728328 -0.003782416 -0.1423635
v 0.007281679 -0.003782417 -0.1423635
v -0.006654772 -0.003752584 0.06717332
v 0.006653273 -0.003752584 0.06717332
v -7.747709E-07 -0.009573887 0.04728925
v -0.006654772 -0.003752584 0.06717332
v -0.01229582 0.0100563 0.08342168
v -0.006654772 -0.003752584 0.06717332
v -0.01606503 -0.004563541 0.05534727
v -7.747709E-07 -0.009573887 0.04728925
v -0.01606503 -0.004563541 0.05534727
v -0.01606503 -0.004563541 0.05534727
v -0.01606498 -0.005710408 0.03862274
v -0.02968361 0.008557847 0.06157001
v -0.01606498 -0.005710408 0.03862274
v -0.02968361 0.006438714 0.03066712
v -7.747709E-07 -0.009573887 0.04728925
v -0.006654772 -0.006521365 0.02679671
v -0.01606498 -0.005710408 0.03862274
v -0.006654772 -0.006521365 0.02679671
v -0.007519556 0.0009454936 0.007094362
v -7.747709E-07 -0.009573887 0.04728925
v 0.006653273 -0.006521365 0.02679671
v -0.006654772 -0.006521365 0.02679671
v -7.747709E-07 -0.009573887 0.04728925
v 0.006653273 -0.006521365 0.02679671
v 0.007518006 0.0009454936 0.007094362
v 0.006653273 -0.006521365 0.02679671
v 0.01606348 -0.005710408 0.03862274
v 0.01606348 -0.005710408 0.03862274
v 0.02968206 0.006438714 0.03066712
v -7.747709E-07 -0.009573887 0.04728925
v 0.01606348 -0.004563541 0.05534727
v 0.01606348 -0.005710408 0.03862274
v 0.01606348 -0.004563541 0.05534727
v 0.006653273 -0.003752584 0.06717332
v 0.02968206 0.008557847 0.06157001
v 0.01229427 0.0100563 0.08342168
v -7.747709E-07 -0.009573887 0.04728925
v 0.006653273 -0.003752584 0.06717332
v 0.01606348 -0.004563541 0.05534727
v 0.006359379 -0.001700653 0.06613673
v -0.006360878 -0.001700656 0.0661367
v -7.747709E-07 -0.007242365 0.04712938
v -0.006360878 -0.001700656 0.0661367
v -0.01535549 -0.002475792 0.05483303
v -0.006360878 -0.001700656 0.0661367
v -0.01190939 0.01191444 0.08211644
v -7.747709E-07 -0.007242365 0.04712938
v -0.01535549 -0.002475792 0.05483303
v -0.01535549 -0.002475792 0.05483303
v -0.02875078 0.01046308 0.06095149
v -0.01535544 -0.003572003 0.03884721
v -0.01535544 -0.003572003 0.03884721
v -0.02875078 0.008410547 0.03101977
v -7.747709E-07 -0.007242365 0.04712938
v -0.01535544 -0.003572003 0.03884721
v -0.006360878 -0.004347143 0.02754349
v -0.006360878 -0.004347143 0.02754349
v -0.007283229 0.006740332 0.006663343
v -7.747709E-07 -0.007242365 0.04712938
v -0.006360878 -0.004347143 0.02754349
v 0.006359328 -0.00434714 0.02754354
v -7.747709E-07 -0.007242365 0.04712938
v 0.006359328 -0.00434714 0.02754354
v 0.01535394 -0.003572004 0.03884719
v 0.006359328 -0.00434714 0.02754354
v 0.00728173 0.006740332 0.006663343
v 0.01535394 -0.003572004 0.03884719
v 0.02874923 0.008410547 0.03101977
v -7.747709E-07 -0.007242365 0.04712938
v 0.01535394 -0.003572004 0.03884719
v 0.01535389 -0.002475793 0.05483303
v 0.01535389 -0.002475793 0.05483303
v 0.02874923 0.01046308 0.06095149
v 0.006359379 -0.001700653 0.06613673
v 0.01190784 0.01191444 0.08211641
v -7.747709E-07 -0.007242365 0.04712938
v 0.01535389 -0.002475793 0.05483303
v 0.006359379 -0.001700653 0.06613673
v -0.01229582 0.0100563 0.08342168
v -0.02968361 0.008557847 0.06157001
v -0.01190939 0.01191444 0.08211644
v -0.02875078 0.01046308 0.06095149
v -0.02968361 0.006438714 0.03066712
v -0.02875078 0.008410547 0.03101977
v -0.02968361 0.008557847 0.06157001
v -0.02875078 0.01046308 0.06095149
v -0.007519556 0.0009454936 0.007094362
v -0.007283229 0.006740332 0.006663343
v -0.02968361 0.006438714 0.03066712
v -0.02875078 0.008410547 0.03101977
v -0.007283229 0.006740332 0.006663343
v 0.00728173 0.006740332 0.006663343
v 0.02968206 0.006438714 0.03066712
v 0.02874923 0.008410547 0.03101977
v 0.007518006 0.0009454936 0.007094362
v 0.00728173 0.006740332 0.006663343
v 0.02968206 0.008557847 0.06157001
v 0.02874923 0.01046308 0.06095149
v 0.02968206 0.006438714 0.03066712
v 0.02874923 0.008410547 0.03101977
v 0.01229427 0.0100563 0.08342168
v 0.01190784 0.01191444 0.08211641
v 0.02968206 0.008557847 0.06157001
v 0.02874923 0.01046308 0.06095149
v -0.01229582 0.0100563 0.08342168
v -0.01190939 0.01191444 0.08211644
v 0.01229427 0.0100563 0.08342168
v 0.01190784 0.01191444 0.08211641
v 0.007281679 -0.003782417 -0.1423635
v -0.00728328 -0.003782416 -0.1423635
v -0.007519556 0.0009454936 0.007094362
v -0.007519556 -0.009577254 -0.1419324
v -0.007283229 0.006740332 0.006663343
v -0.00728328 -0.003782416 -0.1423635
v 0.007518006 0.0009454936 0.007094362
v 0.007517955 -0.009577254 -0.1419324
v -0.007519556 0.0009454936 0.007094362
v -0.007519556 -0.009577254 -0.1419324
v 0.00728173 0.006740332 0.006663343
v 0.007281679 -0.003782417 -0.1423635
v 0.007518006 0.0009454936 0.007094362
v 0.007517955 -0.009577254 -0.1419324

vn 0 -0.7619908 0.6475877
vn 0 -0.7619908 0.6475877
vn -0.5036169 -0.7367068 0.4512572
vn -0.1899174 -0.9575675 0.2167857
vn 0 -0.9597169 0.2809688
vn -0.6810017 -0.7305661 0.0500971
vn -0.2668107 -0.961491 0.06593239
vn -0.5054175 -0.8063338 -0.3072115
vn -0.5054175 -0.8063338 -0.3072115
vn 0 -0.9350989 -0.3543867
vn 0 -0.9350989 -0.3543867
vn 0.5054183 -0.8063329 -0.3072125
vn 0.1899175 -0.9781964 -0.08404248
vn 0.6810024 -0.7305655 0.05009773
vn 0.6810024 -0.7305655 0.05009773
vn 0 -0.7619908 0.6475877
vn 0 -0.7619908 0.6475877
vn 0 0.7611786 -0.6485423
vn 0 0.7611786 -0.6485423
vn 0.504391 0.7358354 -0.4518142
vn 0.1889695 0.9579198 -0.2160561
vn 0 0.9600284 -0.2799025
vn 0.6819588 0.7296771 -0.05003601
vn 0.265497 0.9618529 -0.06595717
vn 0.5021631 0.7789711 0.3755477
vn 0.5021631 0.7789711 0.3755477
vn 0 0.8832054 0.4689865
vn 0 0.8832054 0.4689865
vn -0.5021625 0.7789714 0.375548
vn -0.1889694 0.9784459 0.08327208
vn -0.6819587 0.729677 -0.0500376
vn -0.6819587 0.729677 -0.0500376
vn 0 0.7611786 -0.6485423
vn 0 0.7611786 -0.6485423
vn 0 -0.07417776 -0.9972451
vn 0 -0.07417776 -0.9972451
vn 0 0.9975164 -0.0704344
vn 0 0.9975164 -0.0704344
vn 0 -0.9597169 0.2809688
vn 0 -0.9597169 0.2809688
vn -0.1899174 -0.9575675 0.2167857
vn -0.1899174 -0.9575675 0.2167857
vn -0.5036169 -0.7367068 0.4512572
vn -0.5036169 -0.7367068 0.4512572
vn -0.5036169 -0.7367068 0.4512572
vn -0.2668107 -0.961491 0.06593239
vn -0.2668107 -0.961491 0.06593239
vn -0.6810017 -0.7305661 0.0500971
vn -0.6810017 -0.7305661 0.0500971
vn -0.6810017 -0.7305661 0.0500971
vn -0.5054175 -0.8063338 -0.3072115
vn -0.5054175 -0.8063338 -0.3072115
vn -0.1899181 -0.9781963 -0.08404292
vn -0.1899181 -0.9781963 -0.08404292
vn -0.1899181 -0.9781963 -0.08404292
vn 0 -0.9350989 -0.3543867
vn 0 -0.9350989 -0.3543867
vn 0 -0.9890871 -0.1473321
vn 0 -0.9890871 -0.1473321
vn 0 -0.9890871 -0.1473321
vn 0.1899175 -0.9781964 -0.08404248
vn 0.1899175 -0.9781964 -0.08404248
vn 0.5054183 -0.8063329 -0.3072125
vn 0.5054183 -0.8063329 -0.3072125
vn 0.5054183 -0.8063329 -0.3072125
vn 0.6810024 -0.7305655 0.05009773
vn 0.6810024 -0.7305655 0.05009773
vn 0.2668104 -0.9614911 0.06593321
vn 0.2668104 -0.9614911 0.06593321
vn 0.2668104 -0.9614911 0.06593321
vn 0.5036177 -0.7367064 0.451257
vn 0.5036177 -0.7367064 0.451257
vn 0.5036177 -0.7367064 0.451257
vn 0.5036177 -0.7367064 0.451257
vn 0.1899178 -0.9575675 0.2167852
vn 0.1899178 -0.9575675 0.2167852
vn 0.1899178 -0.9575675 0.2167852
vn 0 0.9600284 -0.2799025
vn 0 0.9600284 -0.2799025
vn 0.1889695 0.9579198 -0.2160561
vn 0.1889695 0.9579198 -0.2160561
vn 0.504391 0.7358354 -0.4518142
vn 0.504391 0.7358354 -0.4518142
vn 0.504391 0.7358354 -0.4518142
vn 0.265497 0.9618529 -0.06595717
vn 0.265497 0.9618529 -0.06595717
vn 0.6819588 0.7296771 -0.05003601
vn 0.6819588 0.7296771 -0.05003601
vn 0.6819588 0.7296771 -0.05003601
vn 0.5021631 0.7789711 0.3755477
vn 0.5021631 0.7789711 0.3755477
vn 0.1889707 0.9784456 0.08327134
vn 0.1889707 0.9784456 0.08327134
vn 0.1889707 0.9784456 0.08327134
vn 0 0.8832054 0.4689865
vn 0 0.8832054 0.4689865
vn 0 0.9892502 0.146233
vn 0 0.9892502 0.146233
vn 0 0.9892502 0.146233
vn -0.1889694 0.9784459 0.08327208
vn -0.1889694 0.9784459 0.08327208
vn -0.5021625 0.7789714 0.375548
vn -0.5021625 0.7789714 0.375548
vn -0.5021625 0.7789714 0.375548
vn -0.6819587 0.729677 -0.0500376
vn -0.6819587 0.729677 -0.0500376
vn -0.2654971 0.9618527 -0.06595879
vn -0.2654971 0.9618527 -0.06595879
vn -0.2654971 0.9618527 -0.06595879
vn -0.5043923 0.7358348 -0.4518137
vn -0.5043923 0.7358348 -0.4518137
vn -0.5043923 0.7358348 -0.4518137
vn -0.5043923 0.7358348 -0.4518137
vn -0.1889706 0.9579198 -0.216055
vn -0.1889706 0.9579198 -0.216055
vn -0.1889706 0.9579198 -0.216055
vn -0.6915203 0.5059609 0.515561
vn -0.6915203 0.5059609 0.515561
vn -0.6915203 0.5059609 0.515561
vn -0.6915203 0.5059609 0.515561
vn -0.9014952 0.4317753 -0.02960848
vn -0.9014952 0.4317753 -0.02960848
vn -0.9014952 0.4317753 -0.02960848
vn -0.9014952 0.4317753 -0.02960848
vn -0.7278782 0.1027317 -0.6779671
vn -0.7278782 0.1027317 -0.6779671
vn -0.7278782 0.1027317 -0.6779671
vn -0.7278782 0.1027317 -0.6779671
vn 0 0.9975164 -0.0704344
vn 0 0.9975164 -0.0704344
vn 0.7278793 0.1027274 -0.6779665
vn 0.7278793 0.1027274 -0.6779665
vn 0.7278793 0.1027274 -0.6779665
vn 0.7278793 0.1027274 -0.6779665
vn 0.9014952 0.4317753 -0.02960855
vn 0.9014952 0.4317753 -0.02960855
vn 0.9014952 0.4317753 -0.02960855
vn 0.9014952 0.4317753 -0.02960855
vn 0.6915185 0.5059646 0.5155599
vn 0.6915185 0.5059646 0.5155599
vn 0.6915185 0.5059646 0.5155599
vn 0.6915185 0.5059646 0.5155599
vn 0 0.5748104 0.8182867
vn 0 0.5748104 0.8182867
vn 0 0.5748104 0.8182867
vn 0 0.5748104 0.8182867
vn 0 -0.07417776 -0.9972451
vn 0 -0.07417776 -0.9972451
vn -0.9991742 0.04053136 -0.002861735
vn -0.9991742 0.04053136 -0.002861735
vn -0.9991742 0.04053136 -0.002861735
vn -0.9991742 0.04053136 -0.002861735
vn 0 -0.9975164 0.07043441
vn 0 -0.9975164 0.07043441
vn 0 -0.9975164 0.07043441
vn 0 -0.9975164 0.07043441
vn 0.9991743 0.04052694 -0.002861937
vn 0.9991743 0.04052694 -0.002861937
vn 0.9991743 0.04052694 -0.002861937
vn 0.9991743 0.04052694 -0.002861937

vt 0.8637811 0.9482845
vt 0.8628111 0.9520296
vt 0.8395232 0.9838728
vt 0.8645142 0.9541172
vt 0.8616518 0.9556229
vt 0.8398498 0.979
vt 0.8645267 0.9571049
vt 0.8421518 0.9739957
vt 0.8440928 0.9773256
vt 0.8603628 0.9629133
vt 0.8604918 0.9592162
vt 0.8589643 0.9790896
vt 0.8587892 0.9571286
vt 0.8591883 0.9839522
vt 0.855789 0.9832504
vt 0.8594616 0.9483024
vt 0.8604625 0.9520394
vt 0.8346589 0.9888529
vt 0.8334742 0.9853528
vt 0.8381392 0.9849268
vt 0.8350105 0.9834097
vt 0.8324112 0.9820142
vt 0.8381388 0.9791073
vt 0.8350793 0.9806565
vt 0.8337325 0.9745896
vt 0.8335201 0.978722
vt 0.8311294 0.9746144
vt 0.8313611 0.9786863
vt 0.826677 0.9790634
vt 0.8298119 0.9806105
vt 0.8266808 0.9848918
vt 0.8297346 0.9833606
vt 0.8301316 0.9888738
vt 0.831279 0.9853017
vt 0.8266782 0.9482845
vt 0.826677 0.9509225
vt 0.833469 0.9482845
vt 0.8309044 0.9483083
vt 0.8628111 0.9520296
vt 0.8604625 0.9520394
vt 0.8616518 0.9556229
vt 0.8628111 0.9520296
vt 0.8402813 0.9884876
vt 0.8434848 0.9860361
vt 0.8427946 0.983241
vt 0.8616518 0.9556229
vt 0.8645142 0.9541172
vt 0.8427946 0.983241
vt 0.8431388 0.9800532
vt 0.8395232 0.9838728
vt 0.8431388 0.9800532
vt 0.8398498 0.979
vt 0.8616518 0.9556229
vt 0.8628415 0.9592065
vt 0.8645267 0.9571049
vt 0.8628415 0.9592065
vt 0.8630012 0.9629024
vt 0.8616518 0.9556229
vt 0.8604918 0.9592162
vt 0.8628415 0.9592065
vt 0.8616518 0.9556229
vt 0.8604918 0.9592162
vt 0.8568341 0.9740207
vt 0.8548403 0.9772964
vt 0.8557895 0.9800318
vt 0.8557895 0.9800318
vt 0.8589643 0.9790896
vt 0.8616518 0.9556229
vt 0.8587769 0.954141
vt 0.8587892 0.9571286
vt 0.855789 0.9832504
vt 0.8551108 0.9860496
vt 0.8591883 0.9839522
vt 0.8583251 0.9885439
vt 0.8616518 0.9556229
vt 0.8604625 0.9520394
vt 0.8587769 0.954141
vt 0.831279 0.9853017
vt 0.8334742 0.9853528
vt 0.8324112 0.9820142
vt 0.8334742 0.9853528
vt 0.8350105 0.9834097
vt 0.8334742 0.9853528
vt 0.8346589 0.9888529
vt 0.8324112 0.9820142
vt 0.8350105 0.9834097
vt 0.8350105 0.9834097
vt 0.8381392 0.9849268
vt 0.8350793 0.9806565
vt 0.8350793 0.9806565
vt 0.8381388 0.9791073
vt 0.8324112 0.9820142
vt 0.8350793 0.9806565
vt 0.8335201 0.978722
vt 0.8335201 0.978722
vt 0.8337325 0.9745896
vt 0.8324112 0.9820142
vt 0.8335201 0.978722
vt 0.8313611 0.9786863
vt 0.8324112 0.9820142
vt 0.8313611 0.9786863
vt 0.8298119 0.9806105
vt 0.8313611 0.9786863
vt 0.8311294 0.9746144
vt 0.8298119 0.9806105
vt 0.826677 0.9790634
vt 0.8324112 0.9820142
vt 0.8298119 0.9806105
vt 0.8297346 0.9833606
vt 0.8297346 0.9833606
vt 0.8266808 0.9848918
vt 0.831279 0.9853017
vt 0.8301316 0.9888738
vt 0.8324112 0.9820142
vt 0.8297346 0.9833606
vt 0.831279 0.9853017
vt 0.8402813 0.9884876
vt 0.8395232 0.9838728
vt 0.8398711 0.9884137
vt 0.8391489 0.9838536
vt 0.8398498 0.979
vt 0.8394752 0.9789613
vt 0.8395232 0.9838728
vt 0.8391489 0.9838536
vt 0.8421518 0.9739957
vt 0.8411598 0.9737194
vt 0.8398498 0.979
vt 0.8394752 0.9789613
vt 0.8337325 0.9745896
vt 0.8311294 0.9746144
vt 0.8589643 0.9790896
vt 0.8593389 0.9790478
vt 0.8568341 0.9740207
vt 0.8578252 0.973749
vt 0.8591883 0.9839522
vt 0.8595668 0.983934
vt 0.8589643 0.9790896
vt 0.8593389 0.9790478
vt 0.8583251 0.9885439
vt 0.8587381 0.9884739
vt 0.8591883 0.9839522
vt 0.8595668 0.983934
vt 0.8347294 0.9892526
vt 0.8346589 0.9888529
vt 0.8300614 0.9892738
vt 0.8301316 0.9888738
vt 0.8276963 0.9508815
vt 0.8276975 0.9483264
vt 0.8421518 0.9739957
vt 0.8490886 0.9485583
vt 0.8411598 0.9737194
vt 0.8480996 0.9482845
vt 0.8603628 0.9629133
vt 0.8604717 0.9891241
vt 0.8630012 0.9629024
vt 0.8631098 0.9891132
vt 0.8578252 0.973749
vt 0.8509755 0.9482845
vt 0.8568341 0.9740207
vt 0.8499852 0.9485549
f 5/5/5 40/40/40 39/39/39
f 41/41/41 42/42/42 4/4/4
f 46/46/46 47/47/47 7/7/7
f 53/53/53 55/55/55 54/54/54
f 58/58/58 60/60/60 59/59/59
f 61/61/61 62/62/62 13/13/13
f 68/68/68 70/70/70 69/69/69
f 75/75/75 77/77/77 76/76/76
f 22/22/22 79/79/79 78/78/78
f 80/80/80 21/21/21 81/81/81
f 85/85/85 24/24/24 86/86/86
f 92/92/92 94/94/94 93/93/93
f 97/97/97 99/99/99 98/98/98
f 100/100/100 30/30/30 101/101/101
f 107/107/107 109/109/109 108/108/108
f 114/114/114 116/116/116 115/115/115
f 17/17/17 16/16/16 2/2/2
f 2/2/2 16/16/16 1/1/1
f 43/43/43 3/3/3 44/44/44
f 44/44/44 3/3/3 45/45/45
f 48/48/48 50/50/50 49/49/49
f 49/49/49 50/50/50 6/6/6
f 51/51/51 52/52/52 9/9/9
f 9/9/9 52/52/52 8/8/8
f 56/56/56 57/57/57 11/11/11
f 11/11/11 57/57/57 10/10/10
f 63/63/63 12/12/12 64/64/64
f 64/64/64 12/12/12 65/65/65
f 66/66/66 67/67/67 15/15/15
f 15/15/15 67/67/67 14/14/14
f 71/71/71 73/73/73 72/72/72
f 72/72/72 73/73/73 74/74/74
f 34/34/34 19/19/19 33/33/33
f 33/33/33 19/19/19 18/18/18
f 82/82/82 20/20/20 83/83/83
f 83/83/83 20/20/20 84/84/84
f 87/87/87 89/89/89 88/88/88
f 88/88/88 89/89/89 23/23/23
f 90/90/90 26/26/26 91/91/91
f 91/91/91 26/26/26 25/25/25
f 95/95/95 28/28/28 96/96/96
f 96/96/96 28/28/28 27/27/27
f 102/102/102 29/29/29 103/103/103
f 103/103/103 29/29/29 104/104/104
f 105/105/105 32/32/32 106/106/106
f 106/106/106 32/32/32 31/31/31
f 110/110/110 112/112/112 111/111/111
f 111/111/111 112/112/112 113/113/113
f 117/117/117 119/119/119 118/118/118
f 118/118/118 119/119/119 120/120/120
f 121/121/121 123/123/123 122/122/122
f 122/122/122 123/123/123 124/124/124
f 125/125/125 127/127/127 126/126/126
f 126/126/126 127/127/127 128/128/128
f 129/129/129 130/130/130 37/37/37
f 37/37/37 130/130/130 38/38/38
f 131/131/131 133/133/133 132/132/132
f 132/132/132 133/133/133 134/134/134
f 135/135/135 137/137/137 136/136/136
f 136/136/136 137/137/137 138/138/138
f 139/139/139 141/141/141 140/140/140
f 140/140/140 141/141/141 142/142/142
f 143/143/143 145/145/145 144/144/144
f 144/144/144 145/145/145 146/146/146
f 36/36/36 35/35/35 147/147/147
f 147/147/147 35/35/35 148/148/148
f 149/149/149 151/151/151 150/150/150
f 150/150/150 151/151/151 152/152/152
f 153/153/153 155/155/155 154/154/154
f 154/154/154 155/155/155 156/156/156
f 157/157/157 159/159/159 158/158/158
f 158/158/158 159/159/159 160/160/160
