mtllib StairsPart_03.mtl
usemtl StairsPart_03

g StairsPart_03
v 0.04211043 -1.840705E-09 -0.03368834
v 0.04211043 1.018162 -0.03368838
v 0.04211043 1.840705E-09 0.03368834
v 0.04211043 1.018162 0.03368831
v -0.04211043 -1.840705E-09 -0.03368834
v -0.04211043 1.018162 -0.03368838
v -0.04211043 1.840705E-09 0.03368834
v -0.04211043 1.018162 0.03368831
v 0.5453693 0.592321 -0.01937158
v 0.5453693 1.45826 -0.01937161
v 0.5453693 0.592321 0.02380388
v 0.5453693 1.45826 0.02380385
v 0.4737402 0.592321 -0.01937158
v 0.4737402 1.45826 -0.01937161
v 0.4737402 0.592321 0.02380388
v 0.4737402 1.45826 0.02380385
v 0.0439105 1.016913 -0.03506754
v 0.0439105 1.016913 0.03634872
v 2.921258 3.518373 -0.03506763
v -0.0113163 1.082867 -0.03506754
v -0.1621135 1.017367 -0.03506754
v -0.1621135 1.017367 0.03634872
v -0.1621134 1.083321 -0.03506754
v -0.1621134 1.083321 0.03634872
v -0.0113163 1.082867 0.03634872
v 2.866031 3.581959 0.03634863
v 2.921258 3.518373 0.03634864
v 2.866031 3.581959 -0.03506763
v 3.087044 3.582011 0.03634863
v 3.087045 3.518426 0.03634864
v 3.087044 3.582011 -0.03506763
v 3.087045 3.518426 -0.03506763
v 2.998992 2.5 -0.03368856
v 2.998992 2.5 0.03368813
v 2.998992 3.518162 -0.0336886
v 2.914771 2.5 -0.03368856
v 2.914771 2.5 0.03368813
v 2.914771 3.518162 -0.0336886
v 2.914771 3.518162 0.03368809
v 2.998992 3.518162 0.03368809
v 1.028866 1.004525 -0.0193716
v 1.028866 1.004525 0.02380386
v 1.028866 1.870464 -0.01937163
v 0.9572371 1.004525 -0.0193716
v 0.9572371 1.004525 0.02380386
v 0.9572371 1.870464 -0.01937163
v 0.9572371 1.870464 0.02380383
v 1.028866 1.870464 0.02380383
v 1.512363 1.385955 -0.01937161
v 1.512363 1.385955 0.02380385
v 1.512363 2.307085 -0.01937164
v 1.440734 1.385955 -0.01937161
v 1.440734 1.385955 0.02380385
v 1.440734 2.307085 -0.01937164
v 1.440734 2.307085 0.02380382
v 1.512363 2.307085 0.02380382
v 1.99586 1.658777 -0.01937162
v 1.99586 1.658777 0.02380384
v 1.99586 2.72984 -0.01937166
v 1.924231 1.658777 -0.01937162
v 1.924231 1.658777 0.02380384
v 1.924231 2.72984 -0.01937166
v 1.924231 2.72984 0.0238038
v 1.99586 2.72984 0.0238038
v 2.479357 2.021334 -0.01937163
v 2.479357 2.021334 0.02380383
v 2.479357 3.146626 -0.01937167
v 2.407728 2.021334 -0.01937163
v 2.407728 2.021334 0.02380383
v 2.407728 3.146626 -0.01937167
v 2.407728 3.146626 0.02380379
v 2.479357 3.146626 0.02380379
v 0.04211043 1.840705E-09 0.03368834
v 0.04211043 1.018162 0.03368831
v -0.04211043 1.840705E-09 0.03368834
v -0.04211043 1.018162 0.03368831
v -0.04211043 -1.840705E-09 -0.03368834
v 0.04211043 -1.840705E-09 -0.03368834
v -0.04211043 1.018162 -0.03368838
v 0.04211043 1.018162 -0.03368838
v 0.04211043 1.840705E-09 0.03368834
v 0.04211043 -1.840705E-09 -0.03368834
v -0.04211043 1.840705E-09 0.03368834
v -0.04211043 -1.840705E-09 -0.03368834
v -0.04211043 1.018162 0.03368831
v -0.04211043 1.018162 -0.03368838
v 0.04211043 1.018162 0.03368831
v 0.04211043 1.018162 -0.03368838
v 0.5453693 0.592321 0.02380388
v 0.5453693 1.45826 0.02380385
v 0.4737402 0.592321 0.02380388
v 0.4737402 1.45826 0.02380385
v 0.4737402 0.592321 -0.01937158
v 0.5453693 0.592321 -0.01937158
v 0.4737402 1.45826 -0.01937161
v 0.5453693 1.45826 -0.01937161
v 0.5453693 0.592321 0.02380388
v 0.5453693 0.592321 -0.01937158
v 0.4737402 0.592321 0.02380388
v 0.4737402 0.592321 -0.01937158
v 0.4737402 1.45826 0.02380385
v 0.4737402 1.45826 -0.01937161
v 0.5453693 1.45826 0.02380385
v 0.5453693 1.45826 -0.01937161
v 0.0439105 1.016913 -0.03506754
v 0.0439105 1.016913 0.03634872
v 0.0439105 1.016913 -0.03506754
v 2.921258 3.518373 -0.03506763
v -0.1621135 1.017367 -0.03506754
v -0.1621135 1.017367 0.03634872
v -0.1621135 1.017367 -0.03506754
v -0.1621134 1.083321 -0.03506754
v -0.1621134 1.083321 0.03634872
v -0.0113163 1.082867 -0.03506754
v -0.1621134 1.083321 -0.03506754
v 0.0439105 1.016913 0.03634872
v -0.1621135 1.017367 0.03634872
v -0.0113163 1.082867 0.03634872
v -0.1621134 1.083321 0.03634872
v 2.921258 3.518373 0.03634864
v -0.0113163 1.082867 0.03634872
v -0.0113163 1.082867 -0.03506754
v 2.866031 3.581959 0.03634863
v 2.866031 3.581959 -0.03506763
v 2.866031 3.581959 -0.03506763
v 2.866031 3.581959 0.03634863
v 3.087044 3.582011 0.03634863
v 3.087044 3.582011 0.03634863
v 3.087044 3.582011 -0.03506763
v 3.087045 3.518426 0.03634864
v 3.087044 3.582011 -0.03506763
v 3.087045 3.518426 -0.03506763
v 2.921258 3.518373 0.03634864
v 3.087045 3.518426 0.03634864
v 2.921258 3.518373 -0.03506763
v 3.087045 3.518426 -0.03506763
v 2.998992 2.5 -0.03368856
v 2.998992 2.5 0.03368813
v 2.914771 2.5 -0.03368856
v 2.998992 2.5 -0.03368856
v 2.998992 3.518162 -0.0336886
v 2.914771 2.5 0.03368813
v 2.914771 2.5 -0.03368856
v 2.914771 3.518162 -0.0336886
v 2.914771 3.518162 0.03368809
v 2.914771 3.518162 -0.0336886
v 2.998992 3.518162 0.03368809
v 2.998992 3.518162 -0.0336886
v 2.998992 2.5 0.03368813
v 2.914771 2.5 0.03368813
v 2.998992 3.518162 0.03368809
v 2.914771 3.518162 0.03368809
v 1.028866 1.004525 -0.0193716
v 1.028866 1.004525 0.02380386
v 0.9572371 1.004525 -0.0193716
v 1.028866 1.004525 -0.0193716
v 1.028866 1.870464 -0.01937163
v 0.9572371 1.004525 0.02380386
v 0.9572371 1.004525 -0.0193716
v 0.9572371 1.870464 -0.01937163
v 0.9572371 1.870464 0.02380383
v 0.9572371 1.870464 -0.01937163
v 1.028866 1.870464 0.02380383
v 1.028866 1.870464 -0.01937163
v 1.028866 1.004525 0.02380386
v 0.9572371 1.004525 0.02380386
v 1.028866 1.870464 0.02380383
v 0.9572371 1.870464 0.02380383
v 1.512363 1.385955 -0.01937161
v 1.512363 1.385955 0.02380385
v 1.440734 1.385955 -0.01937161
v 1.512363 1.385955 -0.01937161
v 1.512363 2.307085 -0.01937164
v 1.440734 1.385955 0.02380385
v 1.440734 1.385955 -0.01937161
v 1.440734 2.307085 -0.01937164
v 1.440734 2.307085 0.02380382
v 1.440734 2.307085 -0.01937164
v 1.512363 2.307085 0.02380382
v 1.512363 2.307085 -0.01937164
v 1.512363 1.385955 0.02380385
v 1.440734 1.385955 0.02380385
v 1.512363 2.307085 0.02380382
v 1.440734 2.307085 0.02380382
v 1.99586 1.658777 -0.01937162
v 1.99586 1.658777 0.02380384
v 1.924231 1.658777 -0.01937162
v 1.99586 1.658777 -0.01937162
v 1.99586 2.72984 -0.01937166
v 1.924231 1.658777 0.02380384
v 1.924231 1.658777 -0.01937162
v 1.924231 2.72984 -0.01937166
v 1.924231 2.72984 0.0238038
v 1.924231 2.72984 -0.01937166
v 1.99586 2.72984 0.0238038
v 1.99586 2.72984 -0.01937166
v 1.99586 1.658777 0.02380384
v 1.924231 1.658777 0.02380384
v 1.99586 2.72984 0.0238038
v 1.924231 2.72984 0.0238038
v 2.479357 2.021334 -0.01937163
v 2.479357 2.021334 0.02380383
v 2.407728 2.021334 -0.01937163
v 2.479357 2.021334 -0.01937163
v 2.479357 3.146626 -0.01937167
v 2.407728 2.021334 0.02380383
v 2.407728 2.021334 -0.01937163
v 2.407728 3.146626 -0.01937167
v 2.407728 3.146626 0.02380379
v 2.407728 3.146626 -0.01937167
v 2.479357 3.146626 0.02380379
v 2.479357 3.146626 -0.01937167
v 2.479357 2.021334 0.02380383
v 2.407728 2.021334 0.02380383
v 2.479357 3.146626 0.02380379
v 2.407728 3.146626 0.02380379

vn 1 0 0
vn 1 0 0
vn 1 0 0
vn 1 0 0
vn -1 0 0
vn -1 0 0
vn 0 0 1
vn 0 0 1
vn 1 0 0
vn 1 0 0
vn 1 0 0
vn 1 0 0
vn -1 0 0
vn -1 0 0
vn 0 0 1
vn 0 0 1
vn -0.002203754 -0.9999976 0
vn -0.002203539 -0.9999976 0
vn 0.6560917 -0.7546812 0
vn 0 0 -1
vn -0.002202956 -0.9999976 0
vn -0.002202741 -0.9999976 0
vn 0 0 -1
vn -1 0 0
vn 0.003010834 0.9999955 0
vn 0 0 1
vn 0.6560917 -0.7546812 0
vn 0 0 -1
vn 0 0 1
vn 0 0 1
vn -0.000240931 1 0
vn 1 0 0
vn 0 -1 0
vn 0 -1 0
vn 1 0 0
vn 0 -1 0
vn 0 -1 0
vn 0 0 -1
vn -1 0 0
vn 1 0 0
vn 0 -1 0
vn 0 -1 0
vn 1 0 0
vn 0 -1 0
vn 0 -1 0
vn 0 0 -1
vn -1 0 0
vn 1 0 0
vn 0 -1 0
vn 0 -1 0
vn 1 0 0
vn 0 -1 0
vn 0 -1 0
vn 0 0 -1
vn -1 0 0
vn 1 0 0
vn 0 -1 0
vn 0 -1 0
vn 1 0 0
vn 0 -1 0
vn 0 -1 0
vn 0 0 -1
vn -1 0 0
vn 1 0 0
vn 0 -1 0
vn 0 -1 0
vn 1 0 0
vn 0 -1 0
vn 0 -1 0
vn 0 0 -1
vn -1 0 0
vn 1 0 0
vn 0 0 1
vn 0 0 1
vn -1 0 0
vn -1 0 0
vn 0 0 -1
vn 0 0 -1
vn 0 0 -1
vn 0 0 -1
vn 0 -1 0
vn 0 -1 0
vn 0 -1 0
vn 0 -1 0
vn 0 1 0
vn 0 1 0
vn 0 1 0
vn 0 1 0
vn 0 0 1
vn 0 0 1
vn -1 0 0
vn -1 0 0
vn 0 0 -1
vn 0 0 -1
vn 0 0 -1
vn 0 0 -1
vn 0 -1 0
vn 0 -1 0
vn 0 -1 0
vn 0 -1 0
vn 0 1 0
vn 0 1 0
vn 0 1 0
vn 0 1 0
vn 0.6560919 -0.7546811 0
vn 0.6560919 -0.7546811 0
vn 0 0 -1
vn 0 0 -1
vn 0 0 -1
vn -1 0 0
vn -1 0 0
vn -1 0 0
vn 0.003011828 0.9999955 0
vn 0.003011224 0.9999955 0
vn 0.003012218 0.9999955 0
vn 0 0 1
vn 0 0 1
vn 0 0 1
vn 0 0 1
vn 0 0 1
vn -0.6557379 0.7549887 0
vn -0.6557379 0.7549887 0
vn -0.6557379 0.7549887 0
vn -0.6557379 0.7549887 0
vn -0.0002379061 1 0
vn -0.0002386574 1 0
vn -0.0002416824 1 0
vn 1 0 0
vn 1 0 0
vn 1 0 0
vn 0 0 -1
vn 0 0 -1
vn 0.0003221913 -1 0
vn 0.0003184606 -1 0
vn 0.0003208877 -1 0
vn 0.000317157 -1 0
vn 1 0 0
vn 1 0 0
vn 0 0 -1
vn 0 0 -1
vn 0 0 -1
vn -1 0 0
vn -1 0 0
vn -1 0 0
vn 0 1 0
vn 0 1 0
vn 0 1 0
vn 0 1 0
vn 0 0 1
vn 0 0 1
vn 0 0 1
vn 0 0 1
vn 1 0 0
vn 1 0 0
vn 0 0 -1
vn 0 0 -1
vn 0 0 -1
vn -1 0 0
vn -1 0 0
vn -1 0 0
vn 0 1 0
vn 0 1 0
vn 0 1 0
vn 0 1 0
vn 0 0 1
vn 0 0 1
vn 0 0 1
vn 0 0 1
vn 1 0 0
vn 1 0 0
vn 0 0 -1
vn 0 0 -1
vn 0 0 -1
vn -1 0 0
vn -1 0 0
vn -1 0 0
vn 0 1 0
vn 0 1 0
vn 0 1 0
vn 0 1 0
vn 0 0 1
vn 0 0 1
vn 0 0 1
vn 0 0 1
vn 1 0 0
vn 1 0 0
vn 0 0 -1
vn 0 0 -1
vn 0 0 -1
vn -1 0 0
vn -1 0 0
vn -1 0 0
vn 0 1 0
vn 0 1 0
vn 0 1 0
vn 0 1 0
vn 0 0 1
vn 0 0 1
vn 0 0 1
vn 0 0 1
vn 1 0 0
vn 1 0 0
vn 0 0 -1
vn 0 0 -1
vn 0 0 -1
vn -1 0 0
vn -1 0 0
vn -1 0 0
vn 0 1 0
vn 0 1 0
vn 0 1 0
vn 0 1 0
vn 0 0 1
vn 0 0 1
vn 0 0 1
vn 0 0 1

vt 0.6511722 0.02012712
vt 0.6588135 0.02012712
vt 0.6511722 0.02776843
vt 0.6588135 0.02776843
vt 0.6511722 0.04305106
vt 0.6588135 0.04305106
vt 0.6511722 0.03540975
vt 0.6588135 0.03540975
vt 0.6511722 0.02012712
vt 0.6588135 0.02012712
vt 0.6511722 0.02776843
vt 0.6588135 0.02776843
vt 0.6511722 0.04305106
vt 0.6588135 0.04305106
vt 0.6511722 0.03540975
vt 0.6588135 0.03540975
vt 0.6511722 0.02012712
vt 0.6511722 0.02776843
vt 0.6588135 0.02012712
vt 0.6511722 0.04305106
vt 0.6511722 0.02012712
vt 0.6511722 0.02776843
vt 0.6511722 0.04305106
vt 0.6511722 0.03540975
vt 0.6511722 0.03540975
vt 0.6588135 0.03540975
vt 0.6588135 0.02776843
vt 0.6588135 0.04305106
vt 0.6588135 0.03540975
vt 0.6588135 0.02776843
vt 0.6588135 0.04305106
vt 0.6664548 0.04305106
vt 0.6435308 0.04305106
vt 0.6435308 0.03540975
vt 0.6588135 0.02012712
vt 0.6511722 0.04305106
vt 0.6511722 0.03540975
vt 0.6588135 0.04305106
vt 0.6588135 0.03540975
vt 0.6588135 0.02776843
vt 0.6435308 0.04305106
vt 0.6435308 0.03540975
vt 0.6588135 0.02012712
vt 0.6511722 0.04305106
vt 0.6511722 0.03540975
vt 0.6588135 0.04305106
vt 0.6588135 0.03540975
vt 0.6588135 0.02776843
vt 0.6435308 0.04305106
vt 0.6435308 0.03540975
vt 0.6588135 0.02012712
vt 0.6511722 0.04305106
vt 0.6511722 0.03540975
vt 0.6588135 0.04305106
vt 0.6588135 0.03540975
vt 0.6588135 0.02776843
vt 0.6435308 0.04305106
vt 0.6435308 0.03540975
vt 0.6588135 0.02012712
vt 0.6511722 0.04305106
vt 0.6511722 0.03540975
vt 0.6588135 0.04305106
vt 0.6588135 0.03540975
vt 0.6588135 0.02776843
vt 0.6435308 0.04305106
vt 0.6435308 0.03540975
vt 0.6588135 0.02012712
vt 0.6511722 0.04305106
vt 0.6511722 0.03540975
vt 0.6588135 0.04305106
vt 0.6588135 0.03540975
vt 0.6588135 0.02776843
vt 0.6511722 0.02776843
vt 0.6588135 0.02776843
vt 0.6511722 0.03540975
vt 0.6588135 0.03540975
vt 0.6511722 0.04305106
vt 0.6511722 0.05069238
vt 0.6588135 0.04305106
vt 0.6588135 0.05069238
vt 0.6435308 0.03540975
vt 0.6435308 0.04305106
vt 0.6511722 0.03540975
vt 0.6511722 0.04305106
vt 0.6588135 0.03540975
vt 0.6588135 0.04305106
vt 0.6664548 0.03540975
vt 0.6664548 0.04305106
vt 0.6511722 0.02776843
vt 0.6588135 0.02776843
vt 0.6511722 0.03540975
vt 0.6588135 0.03540975
vt 0.6511722 0.04305106
vt 0.6511722 0.05069238
vt 0.6588135 0.04305106
vt 0.6588135 0.05069238
vt 0.6435308 0.03540975
vt 0.6435308 0.04305106
vt 0.6511722 0.03540975
vt 0.6511722 0.04305106
vt 0.6588135 0.03540975
vt 0.6588135 0.04305106
vt 0.6664548 0.03540975
vt 0.6664548 0.04305106
vt 0.6511722 0.02012712
vt 0.6511722 0.02776843
vt 0.6511722 0.05069238
vt 0.6588135 0.05069238
vt 0.6511722 0.05069238
vt 0.6435308 0.03540975
vt 0.6435308 0.04305106
vt 0.6511722 0.04305106
vt 0.6511722 0.03540975
vt 0.6511722 0.04305106
vt 0.6511722 0.04305106
vt 0.6511722 0.02776843
vt 0.6511722 0.02776843
vt 0.6511722 0.03540975
vt 0.6511722 0.03540975
vt 0.6588135 0.02776843
vt 0.6511722 0.03540975
vt 0.6511722 0.04305106
vt 0.6588135 0.03540975
vt 0.6588135 0.04305106
vt 0.6588135 0.04305106
vt 0.6588135 0.03540975
vt 0.6588135 0.03540975
vt 0.6588135 0.03540975
vt 0.6588135 0.04305106
vt 0.6664548 0.03540975
vt 0.6588135 0.04305106
vt 0.6588135 0.05069238
vt 0.6588135 0.02776843
vt 0.6588135 0.02776843
vt 0.6588135 0.02012712
vt 0.6588135 0.02012712
vt 0.6511722 0.02012712
vt 0.6511722 0.02776843
vt 0.6511722 0.04305106
vt 0.6511722 0.05069238
vt 0.6588135 0.05069238
vt 0.6511722 0.03540975
vt 0.6511722 0.04305106
vt 0.6588135 0.04305106
vt 0.6588135 0.03540975
vt 0.6588135 0.04305106
vt 0.6664548 0.03540975
vt 0.6664548 0.04305106
vt 0.6511722 0.02776843
vt 0.6511722 0.03540975
vt 0.6588135 0.02776843
vt 0.6588135 0.03540975
vt 0.6511722 0.02012712
vt 0.6511722 0.02776843
vt 0.6511722 0.04305106
vt 0.6511722 0.05069238
vt 0.6588135 0.05069238
vt 0.6511722 0.03540975
vt 0.6511722 0.04305106
vt 0.6588135 0.04305106
vt 0.6588135 0.03540975
vt 0.6588135 0.04305106
vt 0.6664548 0.03540975
vt 0.6664548 0.04305106
vt 0.6511722 0.02776843
vt 0.6511722 0.03540975
vt 0.6588135 0.02776843
vt 0.6588135 0.03540975
vt 0.6511722 0.02012712
vt 0.6511722 0.02776843
vt 0.6511722 0.04305106
vt 0.6511722 0.05069238
vt 0.6588135 0.05069238
vt 0.6511722 0.03540975
vt 0.6511722 0.04305106
vt 0.6588135 0.04305106
vt 0.6588135 0.03540975
vt 0.6588135 0.04305106
vt 0.6664548 0.03540975
vt 0.6664548 0.04305106
vt 0.6511722 0.02776843
vt 0.6511722 0.03540975
vt 0.6588135 0.02776843
vt 0.6588135 0.03540975
vt 0.6511722 0.02012712
vt 0.6511722 0.02776843
vt 0.6511722 0.04305106
vt 0.6511722 0.05069238
vt 0.6588135 0.05069238
vt 0.6511722 0.03540975
vt 0.6511722 0.04305106
vt 0.6588135 0.04305106
vt 0.6588135 0.03540975
vt 0.6588135 0.04305106
vt 0.6664548 0.03540975
vt 0.6664548 0.04305106
vt 0.6511722 0.02776843
vt 0.6511722 0.03540975
vt 0.6588135 0.02776843
vt 0.6588135 0.03540975
vt 0.6511722 0.02012712
vt 0.6511722 0.02776843
vt 0.6511722 0.04305106
vt 0.6511722 0.05069238
vt 0.6588135 0.05069238
vt 0.6511722 0.03540975
vt 0.6511722 0.04305106
vt 0.6588135 0.04305106
vt 0.6588135 0.03540975
vt 0.6588135 0.04305106
vt 0.6664548 0.03540975
vt 0.6664548 0.04305106
vt 0.6511722 0.02776843
vt 0.6511722 0.03540975
vt 0.6588135 0.02776843
vt 0.6588135 0.03540975
f 1/1/1 2/2/2 3/3/3
f 3/3/3 2/2/2 4/4/4
f 73/73/73 74/74/74 7/7/7
f 7/7/7 74/74/74 8/8/8
f 75/75/75 76/76/76 5/5/5
f 5/5/5 76/76/76 6/6/6
f 77/77/77 79/79/79 78/78/78
f 78/78/78 79/79/79 80/80/80
f 81/81/81 83/83/83 82/82/82
f 82/82/82 83/83/83 84/84/84
f 85/85/85 87/87/87 86/86/86
f 86/86/86 87/87/87 88/88/88
f 9/9/9 10/10/10 11/11/11
f 11/11/11 10/10/10 12/12/12
f 89/89/89 90/90/90 15/15/15
f 15/15/15 90/90/90 16/16/16
f 91/91/91 92/92/92 13/13/13
f 13/13/13 92/92/92 14/14/14
f 93/93/93 95/95/95 94/94/94
f 94/94/94 95/95/95 96/96/96
f 97/97/97 99/99/99 98/98/98
f 98/98/98 99/99/99 100/100/100
f 101/101/101 103/103/103 102/102/102
f 102/102/102 103/103/103 104/104/104
f 17/17/17 18/18/18 21/21/21
f 21/21/21 18/18/18 22/22/22
f 105/105/105 19/19/19 106/106/106
f 106/106/106 19/19/19 27/27/27
f 20/20/20 109/109/109 23/23/23
f 107/107/107 109/109/109 20/20/20
f 20/20/20 28/28/28 107/107/107
f 107/107/107 28/28/28 108/108/108
f 28/28/28 131/131/131 108/108/108
f 108/108/108 131/131/131 132/132/132
f 110/110/110 24/24/24 111/111/111
f 111/111/111 24/24/24 112/112/112
f 25/25/25 114/114/114 113/113/113
f 113/113/113 114/114/114 115/115/115
f 117/117/117 118/118/118 119/119/119
f 116/116/116 118/118/118 117/117/117
f 116/116/116 120/120/120 118/118/118
f 118/118/118 120/120/120 26/26/26
f 26/26/26 120/120/120 29/29/29
f 29/29/29 120/120/120 30/30/30
f 121/121/121 123/123/123 122/122/122
f 122/122/122 123/123/123 124/124/124
f 125/125/125 126/126/126 31/31/31
f 31/31/31 126/126/126 127/127/127
f 128/128/128 130/130/130 129/129/129
f 129/129/129 130/130/130 32/32/32
f 133/133/133 135/135/135 134/134/134
f 134/134/134 135/135/135 136/136/136
f 34/34/34 37/37/37 33/33/33
f 33/33/33 37/37/37 36/36/36
f 137/137/137 35/35/35 138/138/138
f 138/138/138 35/35/35 40/40/40
f 139/139/139 38/38/38 140/140/140
f 140/140/140 38/38/38 141/141/141
f 142/142/142 39/39/39 143/143/143
f 143/143/143 39/39/39 144/144/144
f 145/145/145 147/147/147 146/146/146
f 146/146/146 147/147/147 148/148/148
f 149/149/149 151/151/151 150/150/150
f 150/150/150 151/151/151 152/152/152
f 42/42/42 45/45/45 41/41/41
f 41/41/41 45/45/45 44/44/44
f 153/153/153 43/43/43 154/154/154
f 154/154/154 43/43/43 48/48/48
f 155/155/155 46/46/46 156/156/156
f 156/156/156 46/46/46 157/157/157
f 158/158/158 47/47/47 159/159/159
f 159/159/159 47/47/47 160/160/160
f 161/161/161 163/163/163 162/162/162
f 162/162/162 163/163/163 164/164/164
f 165/165/165 167/167/167 166/166/166
f 166/166/166 167/167/167 168/168/168
f 50/50/50 53/53/53 49/49/49
f 49/49/49 53/53/53 52/52/52
f 169/169/169 51/51/51 170/170/170
f 170/170/170 51/51/51 56/56/56
f 171/171/171 54/54/54 172/172/172
f 172/172/172 54/54/54 173/173/173
f 174/174/174 55/55/55 175/175/175
f 175/175/175 55/55/55 176/176/176
f 177/177/177 179/179/179 178/178/178
f 178/178/178 179/179/179 180/180/180
f 181/181/181 183/183/183 182/182/182
f 182/182/182 183/183/183 184/184/184
f 58/58/58 61/61/61 57/57/57
f 57/57/57 61/61/61 60/60/60
f 185/185/185 59/59/59 186/186/186
f 186/186/186 59/59/59 64/64/64
f 187/187/187 62/62/62 188/188/188
f 188/188/188 62/62/62 189/189/189
f 190/190/190 63/63/63 191/191/191
f 191/191/191 63/63/63 192/192/192
f 193/193/193 195/195/195 194/194/194
f 194/194/194 195/195/195 196/196/196
f 197/197/197 199/199/199 198/198/198
f 198/198/198 199/199/199 200/200/200
f 66/66/66 69/69/69 65/65/65
f 65/65/65 69/69/69 68/68/68
f 201/201/201 67/67/67 202/202/202
f 202/202/202 67/67/67 72/72/72
f 203/203/203 70/70/70 204/204/204
f 204/204/204 70/70/70 205/205/205
f 206/206/206 71/71/71 207/207/207
f 207/207/207 71/71/71 208/208/208
f 209/209/209 211/211/211 210/210/210
f 210/210/210 211/211/211 212/212/212
f 213/213/213 215/215/215 214/214/214
f 214/214/214 215/215/215 216/216/216
