mtllib SwitchLight.mtl
usemtl SwitchLight

g SwitchLight
v 0.0544744 -0.0544744 0.01990749
v 0.0544744 0.0544744 0.01990749
v -0.0544744 -0.0544744 0.01990749
v -0.0544744 0.0544744 0.01990749
v 0.04786277 -0.04786277 -0.01990749
v 0.04786277 0.04786277 -0.01990749
v -0.04786277 -0.04786277 -0.01990749
v -0.04786277 0.04786277 -0.01990749
v -0.0544744 0.0544744 -0.01990749
v -0.0544744 -0.0544744 -0.01990749
v 0.0544744 -0.0544744 -0.01990749
v 0.0544744 0.0544744 -0.01990749
v -0.04629049 0.04629049 -0.0126547
v -0.04629049 -0.04629049 -0.0126547
v 0.04629049 -0.04629049 -0.0126547
v 0.04629049 0.04629049 -0.0126547
v -0.04786277 0.04786277 -0.0126547
v -0.04786277 -0.04786277 -0.0126547
v 0.04786277 -0.04786277 -0.0126547
v 0.04786277 0.04786277 -0.0126547
v -0.04629049 0.04629049 -0.03156378
v -0.04629049 0.04105371 -0.03609617
v -0.04629049 0.04475667 -0.03508311
v -0.04629049 -0.04105371 -0.02419388
v -0.04629049 -0.04629049 -0.01814323
v -0.04629049 -0.04475667 -0.02210725
v 0.04629049 -0.04629049 -0.01814323
v 0.04629049 -0.04105371 -0.02419387
v 0.04629049 -0.04475667 -0.02210724
v 0.04629049 0.04105371 -0.03609617
v 0.04629049 0.04629049 -0.03156377
v 0.04629049 0.04475667 -0.03508311
v -0.0544744 -0.0544744 0.01990749
v -0.0544744 0.0544744 0.01990749
v 0.0544744 -0.0544744 0.01990749
v 0.0544744 0.0544744 0.01990749
v -0.0544744 -0.0544744 0.01990749
v 0.0544744 -0.0544744 0.01990749
v -0.0544744 -0.0544744 -0.01990749
v 0.0544744 -0.0544744 -0.01990749
v -0.0544744 0.0544744 -0.01990749
v 0.0544744 0.0544744 -0.01990749
v -0.0544744 0.0544744 0.01990749
v 0.0544744 0.0544744 0.01990749
v -0.04786277 0.04786277 -0.01990749
v -0.0544744 0.0544744 -0.01990749
v -0.0544744 -0.0544744 -0.01990749
v 0.0544744 -0.0544744 -0.01990749
v 0.04786277 0.04786277 -0.01990749
v 0.0544744 0.0544744 -0.01990749
v -0.04786277 -0.04786277 -0.01990749
v -0.04786277 0.04786277 -0.01990749
v -0.04786277 0.04786277 -0.0126547
v 0.04786277 0.04786277 -0.01990749
v 0.04786277 0.04786277 -0.0126547
v 0.04786277 -0.04786277 -0.01990749
v 0.04786277 -0.04786277 -0.01990749
v 0.04786277 -0.04786277 -0.0126547
v -0.04786277 -0.04786277 -0.01990749
v -0.04786277 -0.04786277 -0.0126547
v -0.04786277 0.04786277 -0.0126547
v -0.04786277 -0.04786277 -0.0126547
v 0.04786277 -0.04786277 -0.0126547
v 0.04786277 0.04786277 -0.0126547
v -0.04629049 0.04629049 -0.0126547
v 0.04629049 0.04629049 -0.0126547
v 0.04629049 0.04629049 -0.0126547
v 0.04629049 0.04629049 -0.03156377
v 0.04629049 -0.04629049 -0.0126547
v 0.04629049 -0.04629049 -0.0126547
v 0.04629049 -0.04629049 -0.01814323
v -0.04629049 -0.04629049 -0.0126547
v 0.04629049 -0.04105371 -0.02419387
v 0.04629049 0.04105371 -0.03609617
v 0.04629049 -0.04629049 -0.01814323
v 0.04629049 -0.04475667 -0.02210724
v -0.04629049 -0.04629049 -0.01814323
v 0.04629049 -0.04475667 -0.02210724
v 0.04629049 -0.04105371 -0.02419387
v -0.04629049 -0.04475667 -0.02210725
v -0.04629049 -0.04105371 -0.02419388
v -0.04629049 0.04629049 -0.03156378
v 0.04629049 0.04629049 -0.03156377
v 0.04629049 0.04475667 -0.03508311
v -0.04629049 0.04475667 -0.03508311
v -0.04629049 0.04105371 -0.03609617
v 0.04629049 0.04475667 -0.03508311
v 0.04629049 0.04105371 -0.03609617
v -0.04629049 -0.04629049 -0.0126547
v -0.04629049 -0.04629049 -0.01814323
v -0.04629049 0.04629049 -0.0126547
v -0.04629049 -0.04475667 -0.02210725
v -0.04629049 -0.04105371 -0.02419388
v -0.04629049 0.04105371 -0.03609617
v -0.04629049 0.04475667 -0.03508311
v -0.04629049 0.04629049 -0.03156378

vn 0 0 1
vn 0 0 1
vn 0 0 1
vn 0 0 1
vn 0 0 -1
vn 0 -1 0
vn 0 0 -1
vn 0 -1 0
vn -1 0 0
vn -1 0 0
vn 1 0 0
vn 1 0 0
vn 0 0 -1
vn 0 0 -1
vn 0 0 -1
vn 0 0 -1
vn 0 -1 0
vn 1 0 0
vn -1 0 0
vn 0 -1 0
vn 0 1 0
vn 0 -0.1434606 -0.9896561
vn 0 0.9167191 -0.3995323
vn 0 -0.1434606 -0.9896561
vn 0 -1 0
vn 0 -0.9326183 -0.3608645
vn 1 0 0
vn 1 0 0
vn 1 0 0
vn 1 0 0
vn 0 1 0
vn 1 0 0
vn -1 0 0
vn -1 0 0
vn 1 0 0
vn 1 0 0
vn 0 -1 0
vn 0 -1 0
vn 0 -1 0
vn 0 -1 0
vn 0 1 0
vn 0 1 0
vn 0 1 0
vn 0 1 0
vn 0 0 -1
vn 0 0 -1
vn 0 0 -1
vn 0 0 -1
vn 0 0 -1
vn 0 0 -1
vn 1 0 0
vn 1 0 0
vn 1 0 0
vn -1 0 0
vn -1 0 0
vn -1 0 0
vn 0 1 0
vn 0 1 0
vn 0 1 0
vn 0 1 0
vn 0 0 -1
vn 0 0 -1
vn 0 0 -1
vn 0 0 -1
vn 0 1 0
vn 0 1 0
vn 1 0 0
vn 1 0 0
vn 1 0 0
vn 0 -1 0
vn 0 -1 0
vn 0 -1 0
vn 0 -0.1434606 -0.9896561
vn 0 -0.1434606 -0.9896561
vn 0 -0.9326183 -0.3608645
vn 0 -0.9326183 -0.3608645
vn 0 -0.9326183 -0.3608645
vn 0 -0.490925 -0.8712019
vn 0 -0.490925 -0.8712019
vn 0 -0.490925 -0.8712019
vn 0 -0.490925 -0.8712019
vn 0 0.9167191 -0.3995323
vn 0 0.9167191 -0.3995323
vn 0 0.9167191 -0.3995323
vn 0 0.2638852 -0.9645541
vn 0 0.2638852 -0.9645541
vn 0 0.2638852 -0.9645541
vn 0 0.2638852 -0.9645541
vn -1 0 0
vn -1 0 0
vn -1 0 0
vn -1 0 0
vn -1 0 0
vn -1 0 0
vn -1 0 0
vn -1 0 0

vt 0.9012785 0.9473157
vt 0.9107798 0.9473157
vt 0.9012785 0.956817
vt 0.9107798 0.956817
vt 0.9018551 0.9752431
vt 0.9102032 0.9752431
vt 0.9018551 0.966895
vt 0.9102032 0.966895
vt 0.9107798 0.9663184
vt 0.9012785 0.9663184
vt 0.9012785 0.9758197
vt 0.9107798 0.9758197
vt 0.9100661 0.9670321
vt 0.9019922 0.9670321
vt 0.9019922 0.975106
vt 0.9100661 0.975106
vt 0.9102032 0.966895
vt 0.9018551 0.966895
vt 0.9018551 0.9752431
vt 0.9102032 0.9752431
vt 0.9100661 0.9670321
vt 0.9096094 0.9670321
vt 0.9100215 0.9670321
vt 0.9024489 0.9670321
vt 0.9019922 0.9670321
vt 0.9020368 0.9670321
vt 0.9019922 0.975106
vt 0.9024489 0.975106
vt 0.9020368 0.975106
vt 0.9096094 0.975106
vt 0.9100661 0.975106
vt 0.9100215 0.975106
vt 0.9012785 0.956817
vt 0.9107798 0.956817
vt 0.9012785 0.985321
vt 0.9107798 0.985321
vt 0.8917772 0.9663184
vt 0.8917772 0.9758197
vt 0.9012785 0.9663184
vt 0.9012785 0.9758197
vt 0.9107798 0.9663184
vt 0.9107798 0.9758197
vt 0.9202812 0.9663184
vt 0.9202812 0.9758197
vt 0.9102032 0.966895
vt 0.9107798 0.9663184
vt 0.9012785 0.9663184
vt 0.9012785 0.9758197
vt 0.9102032 0.9752431
vt 0.9107798 0.9758197
vt 0.9018551 0.966895
vt 0.9102032 0.966895
vt 0.9102032 0.966895
vt 0.9102032 0.9752431
vt 0.9102032 0.9752431
vt 0.9018551 0.9752431
vt 0.9018551 0.9752431
vt 0.9018551 0.9752431
vt 0.9018551 0.966895
vt 0.9018551 0.966895
vt 0.9102032 0.966895
vt 0.9018551 0.966895
vt 0.9018551 0.9752431
vt 0.9102032 0.9752431
vt 0.9100661 0.9670321
vt 0.9100661 0.975106
vt 0.9100661 0.975106
vt 0.9100661 0.975106
vt 0.9019922 0.975106
vt 0.9019922 0.975106
vt 0.9019922 0.975106
vt 0.9019922 0.9670321
vt 0.9024489 0.975106
vt 0.9096094 0.975106
vt 0.9019922 0.975106
vt 0.9020368 0.975106
vt 0.9019922 0.9670321
vt 0.9020368 0.975106
vt 0.9024489 0.975106
vt 0.9020368 0.9670321
vt 0.9024489 0.9670321
vt 0.9100661 0.9670321
vt 0.9100661 0.975106
vt 0.9100215 0.975106
vt 0.9100215 0.9670321
vt 0.9096094 0.9670321
vt 0.9100215 0.975106
vt 0.9096094 0.975106
vt 0.9019922 0.9670321
vt 0.9019922 0.9670321
vt 0.9100661 0.9670321
vt 0.9020368 0.9670321
vt 0.9024489 0.9670321
vt 0.9096094 0.9670321
vt 0.9100215 0.9670321
vt 0.9100661 0.9670321
f 1/1/1 2/2/2 3/3/3
f 3/3/3 2/2/2 4/4/4
f 33/33/33 34/34/34 10/10/10
f 10/10/10 34/34/34 9/9/9
f 8/8/8 6/6/6 17/17/17
f 17/17/17 6/6/6 20/20/20
f 11/11/11 12/12/12 35/35/35
f 35/35/35 12/12/12 36/36/36
f 37/37/37 39/39/39 38/38/38
f 38/38/38 39/39/39 40/40/40
f 41/41/41 43/43/43 42/42/42
f 42/42/42 43/43/43 44/44/44
f 51/51/51 52/52/52 18/18/18
f 18/18/18 52/52/52 53/53/53
f 54/54/54 56/56/56 55/55/55
f 55/55/55 56/56/56 19/19/19
f 57/57/57 59/59/59 58/58/58
f 58/58/58 59/59/59 60/60/60
f 65/65/65 66/66/66 21/21/21
f 21/21/21 66/66/66 31/31/31
f 67/67/67 69/69/69 68/68/68
f 69/69/69 27/27/27 68/68/68
f 27/27/27 29/29/29 68/68/68
f 29/29/29 28/28/28 68/68/68
f 68/68/68 28/28/28 32/32/32
f 28/28/28 30/30/30 32/32/32
f 70/70/70 72/72/72 71/71/71
f 71/71/71 72/72/72 25/25/25
f 24/24/24 22/22/22 73/73/73
f 73/73/73 22/22/22 74/74/74
f 75/75/75 77/77/77 76/76/76
f 76/76/76 77/77/77 26/26/26
f 78/78/78 80/80/80 79/79/79
f 79/79/79 80/80/80 81/81/81
f 82/82/82 83/83/83 23/23/23
f 23/23/23 83/83/83 84/84/84
f 85/85/85 87/87/87 86/86/86
f 86/86/86 87/87/87 88/88/88
f 89/89/89 91/91/91 90/90/90
f 90/90/90 91/91/91 92/92/92
f 92/92/92 91/91/91 93/93/93
f 93/93/93 91/91/91 94/94/94
f 94/94/94 91/91/91 95/95/95
f 91/91/91 96/96/96 95/95/95
f 16/16/16 13/13/13 64/64/64
f 63/63/63 16/16/16 64/64/64
f 64/64/64 13/13/13 61/61/61
f 15/15/15 16/16/16 63/63/63
f 13/13/13 14/14/14 61/61/61
f 62/62/62 15/15/15 63/63/63
f 61/61/61 14/14/14 62/62/62
f 14/14/14 15/15/15 62/62/62
f 49/49/49 45/45/45 50/50/50
f 48/48/48 49/49/49 50/50/50
f 50/50/50 45/45/45 46/46/46
f 5/5/5 49/49/49 48/48/48
f 45/45/45 7/7/7 46/46/46
f 47/47/47 5/5/5 48/48/48
f 46/46/46 7/7/7 47/47/47
f 7/7/7 5/5/5 47/47/47
