mtllib Trash_01.mtl
usemtl Trash_01

g Trash_01
v 0 0.001254937 0.1461444
v -2.420464E-09 0.3977807 0.1383802
v -0.07307218 0.001254937 0.1265647
v -0.06919011 0.3977807 0.1198408
v -0.1265647 0.001254937 0.07307218
v -0.1198408 0.3977807 0.0691901
v -0.1461444 0.001254937 -8.693481E-09
v -0.1383802 0.3977807 -5.735064E-09
v -0.1265647 0.001254937 -0.07307219
v -0.1198408 0.3977807 -0.06919011
v -0.07307219 0.001254937 -0.1265647
v -0.06919011 0.3977807 -0.1198408
v -2.206719E-08 0.001254937 -0.1461444
v -2.137567E-08 0.3977807 -0.1383802
v 0.07307215 0.001254937 -0.1265648
v 0.06919008 0.3977807 -0.1198408
v 0.1265647 0.001254937 -0.07307223
v 0.1198407 0.3977807 -0.06919015
v 0.1461444 0.001254937 -7.024962E-08
v 0.1383802 0.3977807 -6.410247E-08
v 0.1265648 0.001254937 0.07307211
v 0.1198408 0.3977807 0.06919004
v 0.07307228 0.001254937 0.1265647
v 0.06919019 0.3977807 0.1198407
v -0.07790676 0.3977807 0.1349385
v 0 0.3977807 0.1558135
v -0.1349385 0.3977807 0.07790675
v -0.1558135 0.3977807 -6.810826E-09
v -0.1349385 0.3977807 -0.07790677
v -0.07790677 0.3977807 -0.1349385
v -2.352719E-08 0.3977807 -0.1558135
v 0.07790673 0.3977807 -0.1349385
v 0.1349384 0.3977807 -0.07790681
v 0.1558135 0.3977807 -7.243962E-08
v 0.1349385 0.3977807 0.07790668
v 0.07790685 0.3977807 0.1349384
v -0.06328768 0.00602655 0.1096175
v -2.213981E-09 0.00602655 0.1265754
v -0.1096175 0.00602655 0.06328767
v -0.1265754 0.00602655 -1.158396E-08
v -0.1096175 0.00602655 -0.06328769
v -0.06328768 0.00602655 -0.1096175
v -1.955216E-08 0.00602655 -0.1265754
v 0.06328765 0.00602655 -0.1096175
v 0.1096174 0.00602655 -0.06328772
v 0.1265754 0.00602655 -6.497219E-08
v 0.1096175 0.00602655 0.0632876
v 0.06328775 0.00602655 0.1096174
v -0.07307218 0.001254937 0.1265647
v -0.07790676 0.3977807 0.1349385
v -0.1265647 0.001254937 0.07307218
v -0.1349385 0.3977807 0.07790675
v -0.1461444 0.001254937 -8.693481E-09
v -0.1558135 0.3977807 -6.810826E-09
v -0.1265647 0.001254937 -0.07307219
v -0.1349385 0.3977807 -0.07790677
v -0.07307219 0.001254937 -0.1265647
v -0.07790677 0.3977807 -0.1349385
v -2.206719E-08 0.001254937 -0.1461444
v -2.352719E-08 0.3977807 -0.1558135
v 0.07307215 0.001254937 -0.1265648
v 0.07790673 0.3977807 -0.1349385
v 0.1265647 0.001254937 -0.07307223
v 0.1349384 0.3977807 -0.07790681
v 0.1461444 0.001254937 -7.024962E-08
v 0.1558135 0.3977807 -7.243962E-08
v 0.1265648 0.001254937 0.07307211
v 0.1349385 0.3977807 0.07790668
v 0.07307228 0.001254937 0.1265647
v 0 0.001254937 0.1461444
v 0.07790685 0.3977807 0.1349384
v 0 0.3977807 0.1558135
v 0 0.001254937 0.1461444
v 0.07307228 0.001254937 0.1265647
v -0.07307218 0.001254937 0.1265647
v -0.1265647 0.001254937 0.07307218
v -0.1461444 0.001254937 -8.693481E-09
v -0.1265647 0.001254937 -0.07307219
v -0.07307219 0.001254937 -0.1265647
v -2.206719E-08 0.001254937 -0.1461444
v 0.07307215 0.001254937 -0.1265648
v 0.1265647 0.001254937 -0.07307223
v 0.1461444 0.001254937 -7.024962E-08
v 0.1265648 0.001254937 0.07307211
v 0 0.3977807 0.1558135
v -0.07790676 0.3977807 0.1349385
v -0.1198408 0.3977807 0.0691901
v -0.1349385 0.3977807 0.07790675
v -0.1383802 0.3977807 -5.735064E-09
v -0.1558135 0.3977807 -6.810826E-09
v -0.1349385 0.3977807 -0.07790677
v -0.07790677 0.3977807 -0.1349385
v -2.352719E-08 0.3977807 -0.1558135
v 0.07790673 0.3977807 -0.1349385
v 0.1349384 0.3977807 -0.07790681
v 0.1558135 0.3977807 -7.243962E-08
v 0.1349385 0.3977807 0.07790668
v 0.07790685 0.3977807 0.1349384
v -0.1096175 0.00602655 0.06328767
v -0.1265754 0.00602655 -1.158396E-08
v 0.1198408 0.3977807 0.06919004
v 0.1096175 0.00602655 0.0632876
v 0.1383802 0.3977807 -6.410247E-08
v 0.1265754 0.00602655 -6.497219E-08
v 0.06919008 0.3977807 -0.1198408
v 0.06328765 0.00602655 -0.1096175
v -2.137567E-08 0.3977807 -0.1383802
v -1.955216E-08 0.00602655 -0.1265754
v -0.1198408 0.3977807 -0.06919011
v -0.1096175 0.00602655 -0.06328769
v -0.1383802 0.3977807 -5.735064E-09
v -0.1265754 0.00602655 -1.158396E-08
v 0.06919019 0.3977807 0.1198407
v 0.06328775 0.00602655 0.1096174
v 0.1198408 0.3977807 0.06919004
v 0.1096175 0.00602655 0.0632876
v -0.06919011 0.3977807 0.1198408
v -0.06328768 0.00602655 0.1096175
v -2.420464E-09 0.3977807 0.1383802
v -2.213981E-09 0.00602655 0.1265754
v 0.1198407 0.3977807 -0.06919015
v 0.1096174 0.00602655 -0.06328772
v 0.06919008 0.3977807 -0.1198408
v 0.06328765 0.00602655 -0.1096175
v -0.06919011 0.3977807 -0.1198408
v -0.06328768 0.00602655 -0.1096175
v -0.1198408 0.3977807 -0.06919011
v -0.1096175 0.00602655 -0.06328769
v -2.420464E-09 0.3977807 0.1383802
v -2.213981E-09 0.00602655 0.1265754
v 0.06919019 0.3977807 0.1198407
v 0.06328775 0.00602655 0.1096174
v -0.1198408 0.3977807 0.0691901
v -0.1096175 0.00602655 0.06328767
v -0.06919011 0.3977807 0.1198408
v -0.06328768 0.00602655 0.1096175
v 0.1383802 0.3977807 -6.410247E-08
v 0.1265754 0.00602655 -6.497219E-08
v 0.1198407 0.3977807 -0.06919015
v 0.1096174 0.00602655 -0.06328772
v -2.137567E-08 0.3977807 -0.1383802
v -1.955216E-08 0.00602655 -0.1265754
v -0.06919011 0.3977807 -0.1198408
v -0.06328768 0.00602655 -0.1096175

vn -0.2587473 -0.02354724 0.9656579
vn 0 1 0
vn -0.2587473 -0.02354724 0.9656579
vn 0 1 0
vn -0.7069107 -0.02354725 0.7069106
vn 0.9655169 0.02909424 -0.2587093
vn -0.9656579 -0.02354727 0.2587473
vn 0.9655169 0.02909424 -0.2587093
vn -0.9656579 -0.02354727 -0.2587473
vn 0 1 0
vn -0.7069106 -0.02354727 -0.7069107
vn 0 1 0
vn -0.2587473 -0.02354726 -0.9656579
vn 0 1 0
vn 0.2587471 -0.02354728 -0.9656581
vn 0 1 0
vn 0.7069105 -0.02354727 -0.706911
vn 0 1 0
vn 0.9656578 -0.02354725 -0.2587478
vn 0 1 0
vn 0.9656581 -0.02354727 0.2587471
vn 0 1 0
vn 0.7069113 -0.02354726 0.7069101
vn 0 1 0
vn -0.2587473 -0.02354724 0.9656579
vn -0.2587473 -0.02354724 0.9656579
vn -0.7069107 -0.02354725 0.7069106
vn -0.9656579 -0.02354727 0.2587473
vn -0.9656579 -0.02354727 -0.2587473
vn -0.7069106 -0.02354727 -0.7069107
vn -0.2587473 -0.02354726 -0.9656579
vn 0.2587471 -0.02354728 -0.9656581
vn 0.7069105 -0.02354727 -0.706911
vn 0.9656578 -0.02354725 -0.2587478
vn 0.9656581 -0.02354727 0.2587471
vn 0.7069113 -0.02354726 0.7069101
vn 0 1 0
vn 0 1 0
vn 0.9655169 0.02909424 -0.2587093
vn 0.9655169 0.02909424 -0.2587093
vn 0 1 0
vn 0 1 0
vn 0 1 0
vn 0 1 0
vn 0 1 0
vn 0 1 0
vn 0 1 0
vn 0 1 0
vn -0.7069107 -0.02354725 0.7069106
vn -0.7069107 -0.02354725 0.7069106
vn -0.9656579 -0.02354727 0.2587473
vn -0.9656579 -0.02354727 0.2587473
vn -0.9656579 -0.02354727 -0.2587473
vn -0.9656579 -0.02354727 -0.2587473
vn -0.7069106 -0.02354727 -0.7069107
vn -0.7069106 -0.02354727 -0.7069107
vn -0.2587473 -0.02354726 -0.9656579
vn -0.2587473 -0.02354726 -0.9656579
vn 0.2587471 -0.02354728 -0.9656581
vn 0.2587471 -0.02354728 -0.9656581
vn 0.7069105 -0.02354727 -0.706911
vn 0.7069105 -0.02354727 -0.706911
vn 0.9656578 -0.02354725 -0.2587478
vn 0.9656578 -0.02354725 -0.2587478
vn 0.9656581 -0.02354727 0.2587471
vn 0.9656581 -0.02354727 0.2587471
vn 0.7069113 -0.02354726 0.7069101
vn 0.7069113 -0.02354726 0.7069101
vn 0.2587476 -0.0235473 0.9656579
vn 0.2587476 -0.0235473 0.9656579
vn 0.2587476 -0.0235473 0.9656579
vn 0.2587476 -0.0235473 0.9656579
vn 0 -1 0
vn 0 -1 0
vn 0 -1 0
vn 0 -1 0
vn 0 -1 0
vn 0 -1 0
vn 0 -1 0
vn 0 -1 0
vn 0 -1 0
vn 0 -1 0
vn 0 -1 0
vn 0 -1 0
vn 0 1 0
vn 0 1 0
vn 0 1 0
vn 0 1 0
vn 0 1 0
vn 0 1 0
vn 0 1 0
vn 0 1 0
vn 0 1 0
vn 0 1 0
vn 0 1 0
vn 0 1 0
vn 0 1 0
vn 0 1 0
vn 0 1 0
vn 0 1 0
vn -0.965517 0.02909425 -0.2587088
vn -0.965517 0.02909425 -0.2587088
vn -0.965517 0.02909425 -0.2587088
vn -0.965517 0.02909425 -0.2587088
vn -0.2587093 0.02909423 0.9655169
vn -0.2587093 0.02909423 0.9655169
vn -0.2587093 0.02909423 0.9655169
vn -0.2587093 0.02909423 0.9655169
vn 0.9655169 0.02909423 0.2587093
vn 0.9655169 0.02909423 0.2587093
vn 0.9655169 0.02909423 0.2587093
vn 0.9655169 0.02909423 0.2587093
vn -0.7068079 0.02909428 -0.7068071
vn -0.7068079 0.02909428 -0.7068071
vn -0.7068079 0.02909428 -0.7068071
vn -0.7068079 0.02909428 -0.7068071
vn 0.2587095 0.02909425 -0.9655169
vn 0.2587095 0.02909425 -0.9655169
vn 0.2587095 0.02909425 -0.9655169
vn 0.2587095 0.02909425 -0.9655169
vn -0.7068073 0.02909424 0.7068077
vn -0.7068073 0.02909424 0.7068077
vn -0.7068073 0.02909424 0.7068077
vn -0.7068073 0.02909424 0.7068077
vn 0.7068074 0.02909424 0.7068076
vn 0.7068074 0.02909424 0.7068076
vn 0.7068074 0.02909424 0.7068076
vn 0.7068074 0.02909424 0.7068076
vn -0.2587098 0.02909427 -0.9655168
vn -0.2587098 0.02909427 -0.9655168
vn -0.2587098 0.02909427 -0.9655168
vn -0.2587098 0.02909427 -0.9655168
vn 0.7068074 0.02909426 -0.7068076
vn 0.7068074 0.02909426 -0.7068076
vn 0.7068074 0.02909426 -0.7068076
vn 0.7068074 0.02909426 -0.7068076
vn -0.9655168 0.02909424 0.2587098
vn -0.9655168 0.02909424 0.2587098
vn -0.9655168 0.02909424 0.2587098
vn -0.9655168 0.02909424 0.2587098
vn 0.2587095 0.02909421 0.9655169
vn 0.2587095 0.02909421 0.9655169
vn 0.2587095 0.02909421 0.9655169
vn 0.2587095 0.02909421 0.9655169

vt 0.6790398 0.9678679
vt 0.6459655 0.9662426
vt 0.6753649 0.9678679
vt 0.6506653 0.9649832
vt 0.6716899 0.9678679
vt 0.6541058 0.9615428
vt 0.668015 0.9678679
vt 0.655365 0.956843
vt 0.6643401 0.9678679
vt 0.6541058 0.9521432
vt 0.6606652 0.9678679
vt 0.6506653 0.9487027
vt 0.6569902 0.9678679
vt 0.6459655 0.9474434
vt 0.6533153 0.9678679
vt 0.6412656 0.9487027
vt 0.6496404 0.9678679
vt 0.6378251 0.9521432
vt 0.6459655 0.9678679
vt 0.6365658 0.956843
vt 0.6422905 0.9678679
vt 0.6378251 0.9615428
vt 0.6386156 0.9678679
vt 0.6412656 0.9649832
vt 0.6753649 0.9899173
vt 0.6790398 0.9899173
vt 0.6716899 0.9899173
vt 0.668015 0.9899173
vt 0.6643401 0.9899173
vt 0.6606652 0.9899173
vt 0.6569902 0.9899173
vt 0.6533153 0.9899173
vt 0.6496404 0.9899173
vt 0.6459655 0.9899173
vt 0.6422905 0.9899173
vt 0.6386156 0.9899173
vt 0.6506653 0.9649832
vt 0.6459655 0.9662426
vt 0.6541058 0.9615428
vt 0.655365 0.956843
vt 0.6541058 0.9521432
vt 0.6506653 0.9487027
vt 0.6459655 0.9474434
vt 0.6412656 0.9487027
vt 0.6378251 0.9521432
vt 0.6365658 0.956843
vt 0.6378251 0.9615428
vt 0.6412656 0.9649832
vt 0.6753649 0.9678679
vt 0.6753649 0.9899173
vt 0.6716899 0.9678679
vt 0.6716899 0.9899173
vt 0.668015 0.9678679
vt 0.668015 0.9899173
vt 0.6643401 0.9678679
vt 0.6643401 0.9899173
vt 0.6606652 0.9678679
vt 0.6606652 0.9899173
vt 0.6569902 0.9678679
vt 0.6569902 0.9899173
vt 0.6533153 0.9678679
vt 0.6533153 0.9899173
vt 0.6496404 0.9678679
vt 0.6496404 0.9899173
vt 0.6459655 0.9678679
vt 0.6459655 0.9899173
vt 0.6422905 0.9678679
vt 0.6422905 0.9899173
vt 0.6386156 0.9678679
vt 0.6349406 0.9678679
vt 0.6386156 0.9899173
vt 0.6349406 0.9899173
vt 0.668015 0.9674268
vt 0.6627231 0.9660089
vt 0.6733069 0.9660089
vt 0.6771809 0.9621348
vt 0.6785988 0.956843
vt 0.6771809 0.9515511
vt 0.6733069 0.9476771
vt 0.668015 0.9462591
vt 0.6627231 0.9476771
vt 0.6588492 0.9515511
vt 0.6574312 0.956843
vt 0.6588492 0.9621348
vt 0.6459655 0.9674268
vt 0.6512573 0.9660089
vt 0.6541058 0.9615428
vt 0.6551313 0.9621348
vt 0.655365 0.956843
vt 0.6565492 0.956843
vt 0.6551313 0.9515511
vt 0.6512573 0.9476771
vt 0.6459655 0.9462591
vt 0.6406735 0.9476771
vt 0.6367996 0.9515511
vt 0.6353816 0.956843
vt 0.6367996 0.9621348
vt 0.6406735 0.9660089
vt 0.6541058 0.9615428
vt 0.655365 0.956843
vt 0.6378251 0.9615428
vt 0.6378251 0.9615428
vt 0.6365658 0.956843
vt 0.6365658 0.956843
vt 0.6412656 0.9487027
vt 0.6412656 0.9487027
vt 0.6459655 0.9474434
vt 0.6459655 0.9474434
vt 0.6541058 0.9521432
vt 0.6541058 0.9521432
vt 0.655365 0.956843
vt 0.655365 0.956843
vt 0.6412656 0.9649832
vt 0.6412656 0.9649832
vt 0.6378251 0.9615428
vt 0.6378251 0.9615428
vt 0.6506653 0.9649832
vt 0.6506653 0.9649832
vt 0.6459655 0.9662426
vt 0.6459655 0.9662426
vt 0.6378251 0.9521432
vt 0.6378251 0.9521432
vt 0.6412656 0.9487027
vt 0.6412656 0.9487027
vt 0.6506653 0.9487027
vt 0.6506653 0.9487027
vt 0.6541058 0.9521432
vt 0.6541058 0.9521432
vt 0.6459655 0.9662426
vt 0.6459655 0.9662426
vt 0.6412656 0.9649832
vt 0.6412656 0.9649832
vt 0.6541058 0.9615428
vt 0.6541058 0.9615428
vt 0.6506653 0.9649832
vt 0.6506653 0.9649832
vt 0.6365658 0.956843
vt 0.6365658 0.956843
vt 0.6378251 0.9521432
vt 0.6378251 0.9521432
vt 0.6459655 0.9474434
vt 0.6459655 0.9474434
vt 0.6506653 0.9487027
vt 0.6506653 0.9487027
f 1/1/1 26/26/26 3/3/3
f 3/3/3 26/26/26 25/25/25
f 49/49/49 50/50/50 5/5/5
f 5/5/5 50/50/50 27/27/27
f 51/51/51 52/52/52 7/7/7
f 7/7/7 52/52/52 28/28/28
f 53/53/53 54/54/54 9/9/9
f 9/9/9 54/54/54 29/29/29
f 55/55/55 56/56/56 11/11/11
f 11/11/11 56/56/56 30/30/30
f 57/57/57 58/58/58 13/13/13
f 13/13/13 58/58/58 31/31/31
f 59/59/59 60/60/60 15/15/15
f 15/15/15 60/60/60 32/32/32
f 61/61/61 62/62/62 17/17/17
f 17/17/17 62/62/62 33/33/33
f 63/63/63 64/64/64 19/19/19
f 19/19/19 64/64/64 34/34/34
f 65/65/65 66/66/66 21/21/21
f 21/21/21 66/66/66 35/35/35
f 8/8/8 6/6/6 40/40/40
f 40/40/40 6/6/6 39/39/39
f 67/67/67 68/68/68 23/23/23
f 23/23/23 68/68/68 36/36/36
f 69/69/69 71/71/71 70/70/70
f 70/70/70 71/71/71 72/72/72
f 73/73/73 75/75/75 74/74/74
f 75/75/75 76/76/76 74/74/74
f 76/76/76 77/77/77 74/74/74
f 77/77/77 78/78/78 74/74/74
f 78/78/78 79/79/79 74/74/74
f 79/79/79 80/80/80 74/74/74
f 80/80/80 81/81/81 74/74/74
f 81/81/81 82/82/82 74/74/74
f 82/82/82 83/83/83 74/74/74
f 83/83/83 84/84/84 74/74/74
f 37/37/37 38/38/38 99/99/99
f 38/38/38 48/48/48 99/99/99
f 48/48/48 47/47/47 99/99/99
f 47/47/47 46/46/46 99/99/99
f 46/46/46 45/45/45 99/99/99
f 45/45/45 44/44/44 99/99/99
f 44/44/44 43/43/43 99/99/99
f 43/43/43 42/42/42 99/99/99
f 42/42/42 41/41/41 99/99/99
f 41/41/41 100/100/100 99/99/99
f 101/101/101 103/103/103 102/102/102
f 102/102/102 103/103/103 104/104/104
f 105/105/105 107/107/107 106/106/106
f 106/106/106 107/107/107 108/108/108
f 109/109/109 111/111/111 110/110/110
f 110/110/110 111/111/111 112/112/112
f 113/113/113 115/115/115 114/114/114
f 114/114/114 115/115/115 116/116/116
f 117/117/117 119/119/119 118/118/118
f 118/118/118 119/119/119 120/120/120
f 121/121/121 123/123/123 122/122/122
f 122/122/122 123/123/123 124/124/124
f 125/125/125 127/127/127 126/126/126
f 126/126/126 127/127/127 128/128/128
f 129/129/129 131/131/131 130/130/130
f 130/130/130 131/131/131 132/132/132
f 133/133/133 135/135/135 134/134/134
f 134/134/134 135/135/135 136/136/136
f 137/137/137 139/139/139 138/138/138
f 138/138/138 139/139/139 140/140/140
f 141/141/141 143/143/143 142/142/142
f 142/142/142 143/143/143 144/144/144
f 97/97/97 24/24/24 98/98/98
f 22/22/22 24/24/24 97/97/97
f 24/24/24 2/2/2 98/98/98
f 96/96/96 22/22/22 97/97/97
f 98/98/98 2/2/2 85/85/85
f 20/20/20 22/22/22 96/96/96
f 2/2/2 4/4/4 85/85/85
f 95/95/95 20/20/20 96/96/96
f 85/85/85 4/4/4 86/86/86
f 18/18/18 20/20/20 95/95/95
f 4/4/4 87/87/87 86/86/86
f 94/94/94 18/18/18 95/95/95
f 86/86/86 87/87/87 88/88/88
f 16/16/16 18/18/18 94/94/94
f 87/87/87 89/89/89 88/88/88
f 93/93/93 16/16/16 94/94/94
f 88/88/88 89/89/89 90/90/90
f 14/14/14 16/16/16 93/93/93
f 89/89/89 10/10/10 90/90/90
f 92/92/92 14/14/14 93/93/93
f 90/90/90 10/10/10 91/91/91
f 12/12/12 14/14/14 92/92/92
f 10/10/10 12/12/12 91/91/91
f 91/91/91 12/12/12 92/92/92
