mtllib TV_Shelf.mtl
usemtl TV_Shelf

g TV_Shelf
v 1.187231 0 -0.1676219
v 1.187231 0.02009045 -0.1676219
v 1.187231 0 0.1676219
v 1.187231 0.02009045 0.1676219
v -1.187231 0 -0.1676219
v -1.187231 0.02009045 -0.1676219
v -1.187231 0 0.1676219
v -1.187231 0.02009045 0.1676219
v 1.187231 0 0.1676219
v 1.187231 0.02009045 0.1676219
v -1.187231 0 0.1676219
v -1.187231 0.02009045 0.1676219
v -1.187231 0 -0.1676219
v 1.187231 0 -0.1676219
v -1.187231 0.02009045 -0.1676219
v 1.187231 0.02009045 -0.1676219
v 1.187231 0 0.1676219
v 1.187231 0 -0.1676219
v -1.187231 0 0.1676219
v -1.187231 0 -0.1676219
v -1.187231 0.02009045 0.1676219
v -1.187231 0.02009045 -0.1676219
v 1.187231 0.02009045 0.1676219
v 1.187231 0.02009045 -0.1676219

vn 1 0 0
vn 1 0 0
vn 1 0 0
vn 1 0 0
vn -1 0 0
vn -1 0 0
vn 0 0 1
vn 0 0 1
vn 0 0 1
vn 0 0 1
vn -1 0 0
vn -1 0 0
vn 0 0 -1
vn 0 0 -1
vn 0 0 -1
vn 0 0 -1
vn 0 -1 0
vn 0 -1 0
vn 0 -1 0
vn 0 -1 0
vn 0 1 0
vn 0 1 0
vn 0 1 0
vn 0 1 0

vt 0.1442897 0.8882948
vt 0.1543873 0.8882948
vt 0.1442897 0.8983924
vt 0.1543873 0.8983924
vt 0.1442897 0.9185876
vt 0.1543873 0.9185876
vt 0.1442897 0.9084899
vt 0.1543873 0.9084899
vt 0.1442897 0.8983924
vt 0.1543873 0.8983924
vt 0.1442897 0.9084899
vt 0.1543873 0.9084899
vt 0.1442897 0.9185876
vt 0.1442897 0.9286852
vt 0.1543873 0.9185876
vt 0.1543873 0.9286852
vt 0.1341921 0.9084899
vt 0.1341921 0.9185876
vt 0.1442897 0.9084899
vt 0.1442897 0.9185876
vt 0.1543873 0.9084899
vt 0.1543873 0.9185876
vt 0.1644848 0.9084899
vt 0.1644848 0.9185876
f 1/1/1 2/2/2 3/3/3
f 3/3/3 2/2/2 4/4/4
f 9/9/9 10/10/10 7/7/7
f 7/7/7 10/10/10 8/8/8
f 11/11/11 12/12/12 5/5/5
f 5/5/5 12/12/12 6/6/6
f 13/13/13 15/15/15 14/14/14
f 14/14/14 15/15/15 16/16/16
f 17/17/17 19/19/19 18/18/18
f 18/18/18 19/19/19 20/20/20
f 21/21/21 23/23/23 22/22/22
f 22/22/22 23/23/23 24/24/24
