mtllib WallFloor1_09.mtl
usemtl WallFloor1_09

g WallFloor1_09
v -1.250267 5.465089E-08 0.07209358
v -1.250267 5.465089E-08 -0.07209346
v 1.250267 -5.465089E-08 0.07209346
v 1.250267 -5.465089E-08 -0.07209358
v -1.250267 2.500533 0.07209352
v -1.250267 2.500533 -0.07209405
v 1.250267 2.500533 0.0720934
v 1.250267 2.500533 -0.07209415
v 1.250267 0.1823657 0.07209337
v 1.250267 0.1823657 -0.07209419
v -1.250267 0.1823658 0.07209348
v -1.250267 0.1823658 -0.07209355
v -1.250267 5.675074E-08 -0.1105523
v 1.250267 -5.255105E-08 -0.1105523
v -1.250267 0.1823658 -0.07344864
v -1.250267 0.1235366 -0.1105523
v -1.250267 0.1651351 -0.1007065
v 1.250267 0.1235365 -0.1105523
v 1.250267 0.1823657 -0.07344876
v 1.250267 0.1651351 -0.1007065
v 1.250267 -5.660052E-08 0.1105523
v -1.250267 5.270126E-08 0.1105523
v 1.250267 0.1823657 0.07693516
v 1.250267 0.1167267 0.1105523
v 1.250267 0.1631405 0.1007065
v -1.250267 0.1167269 0.1105523
v -1.250267 0.1823658 0.07693516
v -1.250267 0.1631411 0.1007065
v 1.250267 2.500533 0.0720934
v -1.250267 5.465089E-08 0.07209358
v -1.250267 5.465089E-08 -0.07209346
v 1.250267 2.500533 0.0720934
v 1.250267 0.1823657 0.07209337
v -1.250267 0.1823658 0.07209348
v 1.250267 0.1823657 -0.07209419
v 1.250267 2.500533 -0.07209415
v -1.250267 2.500533 -0.07209405
v -1.250267 2.500533 0.07209352
v -1.250267 0.1823658 0.07209348
v 1.250267 -5.465089E-08 0.07209346
v 1.250267 0.1823657 0.07209337
v 1.250267 0.1823657 -0.07209419
v -1.250267 5.465089E-08 -0.07209346
v 1.250267 -5.465089E-08 -0.07209358
v 1.250267 -5.255105E-08 -0.1105523
v 1.250267 0.1235365 -0.1105523
v -1.250267 0.1235366 -0.1105523
v 1.250267 0.1235365 -0.1105523
v 1.250267 0.1651351 -0.1007065
v 1.250267 0.1651351 -0.1007065
v 1.250267 0.1823657 -0.07344876
v -1.250267 0.1823658 -0.07344864
v -1.250267 0.1235366 -0.1105523
v -1.250267 0.1651351 -0.1007065
v -1.250267 0.1823658 0.07209348
v 1.250267 0.1823657 0.07209337
v 1.250267 -5.465089E-08 0.07209346
v -1.250267 5.465089E-08 0.07209358
v -1.250267 5.270126E-08 0.1105523
v -1.250267 0.1823658 0.07693516
v 1.250267 0.1823657 0.07693516
v -1.250267 0.1631411 0.1007065
v 1.250267 0.1631405 0.1007065
v 1.250267 0.1167267 0.1105523
v 1.250267 0.1823657 0.07693516
v 1.250267 0.1167267 0.1105523
v 1.250267 0.1631405 0.1007065
v 1.250267 -5.465089E-08 -0.07209358
v 1.250267 2.500533 -0.07209415
v -1.250267 2.500533 -0.07209405
v -1.250267 0.1823658 -0.07209355
v -1.250267 2.500533 0.07209352
v 1.250267 0.1823657 -0.07209419
v 1.250267 -5.255105E-08 -0.1105523
v -1.250267 0.1823658 -0.07209355
v -1.250267 0.1823658 0.07693516
v -1.250267 0.1167269 0.1105523
v -1.250267 5.465089E-08 0.07209358
v -1.250267 5.270126E-08 0.1105523
v -1.250267 0.1823658 -0.07209355
v 1.250267 0.1823657 -0.07344876
v -1.250267 5.675074E-08 -0.1105523
v -1.250267 0.1235366 -0.1105523
v 1.250267 0.1651351 -0.1007065
v -1.250267 0.1651351 -0.1007065
v -1.250267 0.1651351 -0.1007065
v 1.250267 0.1823657 -0.07344876
v -1.250267 0.1823658 -0.07344864
v -1.250267 5.675074E-08 -0.1105523
v -1.250267 0.1823658 0.07693516
v -1.250267 0.1167269 0.1105523
v 1.250267 -5.660052E-08 0.1105523
v -1.250267 0.1823658 0.07693516
v 1.250267 0.1631405 0.1007065
v -1.250267 0.1631411 0.1007065
v -1.250267 0.1631411 0.1007065
v 1.250267 0.1167267 0.1105523
v -1.250267 0.1167269 0.1105523
v 1.250267 -5.660052E-08 0.1105523
v 1.250267 0.1167267 0.1105523
v 1.250267 -5.465089E-08 0.07209346
v 1.250267 0.1823657 0.07209337
v 1.250267 0.1823657 0.07693516

vn 0 -1 0
vn 0 -1 0
vn 0 -1 0
vn 1 0 0
vn 0 1 0
vn 0 0 -1
vn 1 0 0
vn 0 1 0
vn 1 0 0
vn 1 0 0
vn -1 0 0
vn 0 1 0
vn 0 -1 0
vn 0 -1 0
vn 0 1 0
vn 0 0 -1
vn 0 0.8452753 -0.5343311
vn 1 0 0
vn 1 0 0
vn 1 0 0
vn 0 0 1
vn 0 0 1
vn 0 1 0
vn 0 0 1
vn 0 0.7775365 0.6288378
vn -1 0 1.006329E-05
vn -1 0 1.006329E-05
vn -1 0 1.006329E-05
vn 0 1 0
vn -1 0 0
vn -1 0 0
vn 0 0 1
vn 0 0 1
vn 0 0 1
vn 0 0 -1
vn 0 0 -1
vn -1 0 0
vn -1 0 0
vn -1 0 0
vn 1 0 0
vn 1 0 0
vn 0 1 0
vn 0 -1 0
vn 0 -1 0
vn 0 0 -1
vn 0 0 -1
vn 0 0.2303233 -0.9731141
vn 0 0.2303233 -0.9731141
vn 0 0.2303233 -0.9731141
vn 0 0.8452753 -0.5343311
vn 0 0.8452753 -0.5343311
vn -1 0 0
vn -1 0 0
vn -1 0 0
vn 0 1 0
vn 0 1 0
vn 0 -1 0
vn 0 -1 0
vn 0 -1 0
vn 0 0.7775365 0.6288378
vn 0 0.7775365 0.6288378
vn 0 0.2075144 0.978232
vn 0 0.2075144 0.978232
vn 0 0.2075144 0.978232
vn 1 0 1.006342E-05
vn 1 0 1.006342E-05
vn 1 0 1.006342E-05
vn 0 -1 0
vn 1 0 0
vn 0 1 0
vn -1 0 0
vn 0 0 1
vn 1 0 0
vn 1 0 0
vn 0 0 -1
vn -1 0 0
vn -1 0 0
vn -1 0 0
vn -1 0 0
vn -1 0 0
vn 0 1 0
vn 0 0 -1
vn 0 0.230324 -0.9731141
vn 0 0.230324 -0.9731141
vn 0 0.230324 -0.9731141
vn 0 0.8452758 -0.5343303
vn 0 0.8452758 -0.5343303
vn 0 0.8452758 -0.5343303
vn -1 0 0
vn 0 1 0
vn 0 0 1
vn 0 -1 0
vn 0 0.7775435 0.6288291
vn 0 0.7775435 0.6288291
vn 0 0.7775435 0.6288291
vn 0 0.207512 0.9782325
vn 0 0.207512 0.9782325
vn 0 0.207512 0.9782325
vn 1 0 0
vn 1 0 0
vn 1 0 0
vn 1 0 0
vn 1 0 0

vt 0.9039356 0.9661333
vt 0.9086115 0.9661333
vt 0.9039356 0.9708093
vt 0.9086115 0.9708093
vt 0.5875996 0.03753108
vt 0.6054688 0.03753108
vt 0.5875996 0.01966196
vt 0.6054688 0.01966196
vt 0.5875996 0.01072735
vt 0.6054688 0.01072735
vt 0.9039356 0.9824994
vt 0.9109496 0.9801614
vt 0.9086115 0.9661333
vt 0.9086115 0.9708093
vt 0.9109496 0.9801614
vt 0.9116208 0.9801614
vt 0.9101702 0.9810062
vt 0.9086115 0.9724761
vt 0.9086115 0.9731473
vt 0.9101702 0.9746405
vt 0.8992595 0.9754854
vt 0.8992595 0.9801614
vt 0.9015976 0.9754854
vt 0.900756 0.9754854
vt 0.9023769 0.9746239
vt 0.9039356 0.9833409
vt 0.9039356 0.9824994
vt 0.9023769 0.9810229
vt 0.5875996 0.01966196
vt 0.9039356 0.9848374
vt 0.9086115 0.9848374
vt 0.5875996 0.01966196
vt 0.578665 0.01966196
vt 0.578665 0.03753108
vt 0.6144034 0.01966196
vt 0.6054688 0.01966196
vt 0.6054688 0.03753108
vt 0.5875996 0.03753108
vt 0.5875996 0.04646569
vt 0.9039356 0.9708093
vt 0.9039356 0.9731473
vt 0.9109496 0.9754854
vt 0.9086115 0.9661333
vt 0.9086115 0.9708093
vt 0.9132876 0.9754854
vt 0.9116208 0.9754854
vt 0.9116208 0.9801614
vt 0.9116208 0.9754854
vt 0.9101702 0.9746405
vt 0.9101702 0.9746405
vt 0.9109496 0.9754854
vt 0.9086115 0.9824994
vt 0.9086115 0.9831707
vt 0.9101702 0.9810062
vt 0.9015976 0.9801614
vt 0.9015976 0.9754854
vt 0.9039356 0.9708093
vt 0.9039356 0.9661333
vt 0.9039356 0.9661333
vt 0.9015976 0.9801614
vt 0.9015976 0.9754854
vt 0.9023769 0.9810229
vt 0.9023769 0.9746239
vt 0.900756 0.9754854
vt 0.9039356 0.9731473
vt 0.9039356 0.9723058
vt 0.9023769 0.9746239
vt 0.9086115 0.9708093
vt 0.6054688 0.01966196
vt 0.6054688 0.03753108
vt 0.9086115 0.9824994
vt 0.5875996 0.03753108
vt 0.9086115 0.9731473
vt 0.9086115 0.9708093
vt 0.6144034 0.03753108
vt 0.9039356 0.9824994
vt 0.9039356 0.9833409
vt 0.9039356 0.9848374
vt 0.9039356 0.9848374
vt 0.6054688 0.04646569
vt 0.9109496 0.9754854
vt 0.9132876 0.9801614
vt 0.9116208 0.9801614
vt 0.9101702 0.9746405
vt 0.9101702 0.9810062
vt 0.9101702 0.9810062
vt 0.9109496 0.9754854
vt 0.9109496 0.9801614
vt 0.9086115 0.9848374
vt 0.9015976 0.9801614
vt 0.900756 0.9801614
vt 0.9039356 0.9708093
vt 0.9015976 0.9801614
vt 0.9023769 0.9746239
vt 0.9023769 0.9810229
vt 0.9023769 0.9810229
vt 0.900756 0.9754854
vt 0.900756 0.9801614
vt 0.9039356 0.9708093
vt 0.9039356 0.9723058
vt 0.9039356 0.9708093
vt 0.9039356 0.9731473
vt 0.9039356 0.9731473
f 26/26/26 28/28/28 27/27/27
f 47/47/47 49/49/49 48/48/48
f 17/17/17 51/51/51 50/50/50
f 60/60/60 25/25/25 61/61/61
f 62/62/62 64/64/64 63/63/63
f 65/65/65 67/67/67 66/66/66
f 78/78/78 79/79/79 77/77/77
f 76/76/76 11/11/11 77/77/77
f 11/11/11 30/30/30 77/77/77
f 11/11/11 31/31/31 30/30/30
f 11/11/11 71/71/71 31/31/31
f 31/31/31 71/71/71 53/53/53
f 89/89/89 31/31/31 53/53/53
f 71/71/71 52/52/52 53/53/53
f 52/52/52 54/54/54 53/53/53
f 83/83/83 85/85/85 84/84/84
f 86/86/86 88/88/88 87/87/87
f 93/93/93 95/95/95 94/94/94
f 96/96/96 98/98/98 97/97/97
f 2/2/2 3/3/3 1/1/1
f 2/2/2 68/68/68 3/3/3
f 10/10/10 7/7/7 9/9/9
f 10/10/10 69/69/69 7/7/7
f 8/8/8 5/5/5 29/29/29
f 8/8/8 70/70/70 5/5/5
f 32/32/32 34/34/34 33/33/33
f 32/32/32 72/72/72 34/34/34
f 18/18/18 20/20/20 19/19/19
f 19/19/19 73/73/73 18/18/18
f 73/73/73 4/4/4 18/18/18
f 4/4/4 74/74/74 18/18/18
f 4/4/4 73/73/73 41/41/41
f 4/4/4 41/41/41 40/40/40
f 35/35/35 6/6/6 36/36/36
f 35/35/35 75/75/75 6/6/6
f 37/37/37 39/39/39 38/38/38
f 37/37/37 80/80/80 39/39/39
f 42/42/42 15/15/15 12/12/12
f 42/42/42 81/81/81 15/15/15
f 43/43/43 14/14/14 44/44/44
f 43/43/43 13/13/13 14/14/14
f 45/45/45 16/16/16 46/46/46
f 45/45/45 82/82/82 16/16/16
f 55/55/55 23/23/23 56/56/56
f 55/55/55 90/90/90 23/23/23
f 24/24/24 22/22/22 21/21/21
f 24/24/24 91/91/91 22/22/22
f 57/57/57 59/59/59 58/58/58
f 57/57/57 92/92/92 59/59/59
f 99/99/99 101/101/101 100/100/100
f 101/101/101 102/102/102 100/100/100
f 102/102/102 103/103/103 100/100/100
