mtllib WallFloor2_24.mtl
usemtl WallFloor2_24

g WallFloor2_24
v -0.07207905 2.500002 -1.176741
v -0.07207866 2.500002 3.150659E-09
v 0.07207858 2.500002 -1.176741
v -0.07207901 0.1493084 -1.176741
v 0.07207895 2.500002 -3.150671E-09
v 0.07207899 0.182327 -3.150673E-09
v 0.07207862 0.1823271 -1.176741
v -0.07207863 0.1493083 3.150657E-09
v 0.07207899 0.09116343 -3.150673E-09
v 0.07207899 -1.198319E-07 -3.150673E-09
v 0.07207862 0.09116353 -1.176741
v -0.07207863 0.09116343 3.150657E-09
v -0.07207863 -1.198319E-07 3.150657E-09
v -0.07207901 0.09116353 -1.176741
v -0.1062499 0.09116343 4.644332E-09
v -0.1062501 0.09116353 -1.176741
v -0.1062499 0.1345011 4.644332E-09
v -0.09144271 0.1493083 3.997088E-09
v -0.1062501 0.1345012 -1.176741
v -0.0914431 0.1493084 -1.176741
v -0.07207901 -1.055335E-08 -1.176741
v 0.07207862 -1.055335E-08 -1.176741
v 1.250001 2.500002 -1.32208
v 0.07292115 2.500002 -1.32208
v 1.250001 2.500002 -1.177922
v 1.250001 0.1493084 -1.32208
v 0.07292116 2.500002 -1.177922
v 0.07292116 0.182327 -1.177922
v 1.250001 0.1823271 -1.177922
v 0.07292115 0.1493083 -1.32208
v 0.07292116 0.09116343 -1.177922
v 0.07292116 -1.198319E-07 -1.177922
v 1.250001 0.09116353 -1.177922
v 0.07292115 0.09116343 -1.32208
v 0.07292115 -1.198319E-07 -1.32208
v 1.250001 0.09116353 -1.32208
v 0.07292116 0.09116343 -1.356251
v 1.250001 0.09116353 -1.356251
v 0.07292116 0.1345011 -1.356251
v 0.07292115 0.1493083 -1.341444
v 1.250001 0.1345012 -1.356251
v 1.250001 0.1493084 -1.341444
v 1.250001 -1.055335E-08 -1.32208
v 1.250001 -1.055335E-08 -1.177922
v 0.6250005 2.500002 -1.177922
v -0.07207896 2.500002 -1.322079
v -0.07207894 -6.519263E-08 -1.322079
v 0.07249989 -6.519263E-08 -1.177331
v 0.07249989 0.09116347 -1.177331
v 0.07249989 0.182327 -1.177331
v 0.07249987 2.500002 -1.177331
v -0.07207894 0.1493084 -1.322079
v -0.07207894 0.09116348 -1.322079
v -0.1062501 0.1345012 -1.356251
v -0.1062501 0.09116348 -1.356251
v -0.09144285 0.1493084 -1.341444
v -0.07125824 0.1493084 -1.321298
v -0.07125824 0.09116348 -1.321298
v -0.07207866 2.500002 3.150659E-09
v -0.07207905 2.500002 -1.176741
v -0.07207866 2.500002 3.150659E-09
v 0.07207895 2.500002 -3.150671E-09
v 0.07207899 0.182327 -3.150673E-09
v 0.07207895 2.500002 -3.150671E-09
v 0.07207858 2.500002 -1.176741
v 0.07207899 0.182327 -3.150673E-09
v 0.07207862 0.1823271 -1.176741
v 0.07207899 0.09116343 -3.150673E-09
v 0.07207899 0.182327 -3.150673E-09
v -0.07207863 0.1493083 3.150657E-09
v -0.07207866 2.500002 3.150659E-09
v 0.07207899 -1.198319E-07 -3.150673E-09
v -0.07207863 0.09116343 3.150657E-09
v -0.07207863 -1.198319E-07 3.150657E-09
v -0.07207863 0.09116343 3.150657E-09
v -0.07207863 0.1493083 3.150657E-09
v -0.07207901 0.09116353 -1.176741
v -0.07207863 0.09116343 3.150657E-09
v -0.1062499 0.09116343 4.644332E-09
v -0.1062499 0.1345011 4.644332E-09
v -0.1062499 0.09116343 4.644332E-09
v -0.1062501 0.09116353 -1.176741
v -0.09144271 0.1493083 3.997088E-09
v -0.1062499 0.1345011 4.644332E-09
v -0.1062501 0.1345012 -1.176741
v -0.07207901 0.1493084 -1.176741
v -0.0914431 0.1493084 -1.176741
v -0.07207901 0.09116353 -1.176741
v -0.1062501 0.1345012 -1.176741
v -0.1062501 0.09116353 -1.176741
v -0.07207863 0.1493083 3.150657E-09
v -0.09144271 0.1493083 3.997088E-09
v -0.07207901 0.1493084 -1.176741
v -0.0914431 0.1493084 -1.176741
v -0.07207894 0.09116348 -1.322079
v 0.07292115 -1.198319E-07 -1.32208
v -0.07207894 0.1493084 -1.322079
v 0.07292115 0.1493083 -1.32208
v 0.07207862 -1.055335E-08 -1.176741
v -0.07207901 -1.055335E-08 -1.176741
v 0.07207899 -1.198319E-07 -3.150673E-09
v -0.07207863 -1.198319E-07 3.150657E-09
v -0.07207863 0.1493083 3.150657E-09
v -0.07207896 2.500002 -1.322079
v 0.07292115 2.500002 -1.32208
v 0.07292115 2.500002 -1.32208
v 0.07292116 2.500002 -1.177922
v 0.07292115 2.500002 -1.32208
v 1.250001 2.500002 -1.32208
v 0.07292116 2.500002 -1.177922
v 1.250001 2.500002 -1.177922
v 1.250001 2.500002 -1.32208
v 1.250001 0.1493084 -1.32208
v -0.07207894 -6.519263E-08 -1.322079
v 0.07292115 -1.198319E-07 -1.32208
v 1.250001 2.500002 -1.177922
v 0.6250005 2.500002 -1.177922
v 0.07292116 2.500002 -1.177922
v 0.07292116 0.182327 -1.177922
v 1.250001 0.1823271 -1.177922
v 0.07292116 0.09116343 -1.177922
v 0.07249989 -6.519263E-08 -1.177331
v 0.07292116 -1.198319E-07 -1.177922
v 0.07292116 0.182327 -1.177922
v 0.07292116 -1.198319E-07 -1.177922
v 0.07249987 2.500002 -1.177331
v 0.07292116 2.500002 -1.177922
v 0.07292115 0.09116343 -1.32208
v 0.07292115 -1.198319E-07 -1.32208
v 0.07292115 0.09116343 -1.32208
v 0.07292115 0.1493083 -1.32208
v 1.250001 0.09116353 -1.32208
v 0.07292115 0.09116343 -1.32208
v 0.07292116 0.09116343 -1.356251
v 0.07292116 0.1345011 -1.356251
v 0.07292116 0.09116343 -1.356251
v 1.250001 0.09116353 -1.356251
v 0.07292115 0.1493083 -1.341444
v 0.07292116 0.1345011 -1.356251
v 1.250001 0.1345012 -1.356251
v 1.250001 0.1493084 -1.32208
v 1.250001 0.1493084 -1.341444
v 1.250001 0.09116353 -1.32208
v 1.250001 0.1345012 -1.356251
v 1.250001 0.09116353 -1.356251
v 0.07292115 0.1493083 -1.32208
v 0.07292115 0.1493083 -1.341444
v 1.250001 0.1493084 -1.32208
v 1.250001 0.1493084 -1.341444
v 1.250001 0.09116353 -1.32208
v 1.250001 -1.055335E-08 -1.32208
v 1.250001 0.09116353 -1.177922
v 1.250001 -1.055335E-08 -1.177922
v 1.250001 0.1823271 -1.177922
v 1.250001 0.1493084 -1.32208
v 1.250001 -1.055335E-08 -1.177922
v 1.250001 -1.055335E-08 -1.32208
v 0.07292116 -1.198319E-07 -1.177922
v 0.07292115 -1.198319E-07 -1.32208
v 0.07292115 0.1493083 -1.32208
v 1.250001 2.500002 -1.177922
v 1.250001 0.1493084 -1.32208
v 1.250001 0.1823271 -1.177922
v 0.07207858 2.500002 -1.176741
v 0.07207862 0.1823271 -1.176741
v 0.07207862 0.1823271 -1.176741
v 0.07249989 0.182327 -1.177331
v 0.07207862 0.09116353 -1.176741
v 0.07249989 0.09116347 -1.177331
v 0.07207862 0.09116353 -1.176741
v 0.07207862 -1.055335E-08 -1.176741
v -0.07207894 -6.519263E-08 -1.322079
v 0.07207862 -1.055335E-08 -1.176741
v -0.07207901 -1.055335E-08 -1.176741
v 0.07207858 2.500002 -1.176741
v -0.07207905 2.500002 -1.176741
v -0.07207901 0.1493084 -1.176741
v -0.07207894 0.1493084 -1.322079
v -0.07207905 2.500002 -1.176741
v -0.07207896 2.500002 -1.322079
v -0.07207901 -1.055335E-08 -1.176741
v -0.07207894 -6.519263E-08 -1.322079
v -0.07207901 0.09116353 -1.176741
v -0.07207894 0.09116348 -1.322079
v -0.07207901 0.09116353 -1.176741
v -0.07207894 0.09116348 -1.322079
v -0.07207894 0.1493084 -1.322079
v 0.07292116 0.09116343 -1.356251
v 0.07292116 0.1345011 -1.356251
v -0.1062501 0.1345012 -1.356251
v -0.1062501 0.1345012 -1.176741
v -0.0914431 0.1493084 -1.176741
v -0.09144285 0.1493084 -1.341444
v -0.0914431 0.1493084 -1.176741
v -0.07207901 0.1493084 -1.176741
v -0.1062501 0.09116348 -1.356251
v 0.07292116 0.09116343 -1.356251
v 0.07292115 0.09116343 -1.32208
v -0.07125824 0.1493084 -1.321298
v -0.07125824 0.09116348 -1.321298
v -0.07207901 0.1493084 -1.176741
v -0.07207901 0.09116353 -1.176741
v 0.07292115 0.1493083 -1.32208
v 0.07292115 0.09116343 -1.32208
v -0.07125824 0.1493084 -1.321298
v -0.07125824 0.09116348 -1.321298
v -0.1062501 0.09116353 -1.176741
v -0.07207901 0.09116353 -1.176741
v -0.09144285 0.1493084 -1.341444
v 0.07292115 0.1493083 -1.341444
v -0.07125824 0.1493084 -1.321298
v 0.07292115 0.1493083 -1.32208
v -0.1062501 0.1345012 -1.356251
v 0.07292116 0.1345011 -1.356251
v -0.09144285 0.1493084 -1.341444
v 0.07292115 0.1493083 -1.341444
v -0.1062501 0.09116353 -1.176741
v -0.1062501 0.09116348 -1.356251
v -0.1062501 0.1345012 -1.176741
v -0.1062501 0.1345012 -1.356251

vn -1 0 0
vn -1 0 0
vn 0 1 0
vn -1 0 0
vn 0 1 0
vn 0 0 1
vn 1 0 0
vn 0 0 1
vn 1 0 0
vn 1 0 0
vn 1 0 0
vn 0 0 1
vn 0 0 1
vn -1 0 0
vn 0 0 1
vn 0 -1 0
vn 0 0 1
vn 0 0 1
vn -1 0 0
vn -0.7071093 0.7071042 0
vn -1 0 0
vn 1 0 0
vn 0 0 -1
vn 0 0 -1
vn 0 1 0
vn 0 0 -1
vn 0 1 0
vn 0 0 1
vn 0 0 1
vn 0 0 -1
vn 0 0 1
vn 0 -1 0
vn 0 0 1
vn 0 0 -1
vn 0 0 -1
vn 0 0 -1
vn -1 0 0
vn 0 -1 0
vn -1 0 0
vn -1 0 0
vn 0 0 -1
vn 0 0.7071109 -0.7071026
vn 0 0 -1
vn 0 0 1
vn 0 1 0
vn 0 0 -1
vn 0 0 -1
vn 0 -1 0
vn 0.8141893 0 0.5805995
vn 0.8141852 0 0.5806052
vn 0 1 0
vn 0 0 -1
vn 0 0 -1
vn 0 0 -1
vn 0 0 -1
vn -0.7071087 0.7071049 0
vn 0 1 0
vn 0 -1 0
vn 0 1 0
vn 0 1 0
vn 0 0 1
vn 0 0 1
vn 1 0 0
vn 1 0 0
vn 1 0 0
vn 1 0 0
vn 1 0 0
vn 0 0 1
vn 0 0 1
vn 0 0 1
vn 0 0 1
vn 0 0 1
vn -1 0 0
vn -1 0 0
vn 0 0 1
vn 0 0 1
vn 0 -1 0
vn 0 -1 0
vn 0 -1 0
vn -1 0 0
vn -1 0 0
vn -1 0 0
vn -0.7071093 0.7071042 0
vn -0.7071093 0.7071042 0
vn -0.7071093 0.7071042 0
vn 0 0 -1
vn 0 0 -1
vn 0 0 -1
vn 0 0 -1
vn 0 0 -1
vn 0 1 0
vn 0 1 0
vn 0 1 0
vn 0 1 0
vn 0 0 -1
vn 0 0 -1
vn 0 0 -1
vn 0 0 -1
vn 0 -1 0
vn 0 -1 0
vn 0 -1 0
vn 0 -1 0
vn -1 0 0
vn 0 1 0
vn 0 1 0
vn 0 0 -1
vn 0 1 0
vn 0 1 0
vn 0 1 0
vn 0 1 0
vn 1 0 0
vn 1 0 0
vn 1 0 0
vn 0 -1 0
vn 0 -1 0
vn 0 0 1
vn 0 0 1
vn 0 0 1
vn 0 0 1
vn 0 0 1
vn 0.8141893 0 0.5805995
vn 0.8141893 0 0.5805995
vn 0.8141893 0 0.5805995
vn 0.8141852 0 0.5806052
vn 0 0 1
vn 0.8141771 0 0.5806166
vn 0.8141771 0 0.5806166
vn 0 0 -1
vn 0 0 -1
vn -1 0 0
vn -1 0 0
vn 0 -1 0
vn 0 -1 0
vn 0 -1 0
vn 0 0 -1
vn 0 0 -1
vn 0 0 -1
vn 0 0.7071109 -0.7071026
vn 0 0.7071109 -0.7071026
vn 0 0.7071109 -0.7071026
vn 1 0 0
vn 1 0 0
vn 1 0 0
vn 1 0 0
vn 1 0 0
vn 0 1 0
vn 0 1 0
vn 0 1 0
vn 0 1 0
vn 1 0 0
vn 1 0 0
vn 1 0 0
vn 1 0 0
vn 1 0 0
vn 1 0 0
vn 0 -1 0
vn 0 -1 0
vn 0 -1 0
vn 0 -1 0
vn 0 0 -1
vn 1 0 0
vn 1 0 0
vn 1 0 0
vn 0.8141464 0 0.5806597
vn 0.8141464 0 0.5806597
vn 0.8141196 0 0.5806973
vn 0.8141196 0 0.5806973
vn 0.8141196 0 0.5806973
vn 0.8141196 0 0.5806973
vn 0.8141195 0 0.5806973
vn 0.8141195 0 0.5806973
vn 0 -1 0
vn 0 -1 0
vn 0 -1 0
vn 0 1 0
vn 0 1 0
vn -1 0 0
vn -1 0 0
vn -1 0 0
vn -1 0 0
vn -1 0 0
vn -1 0 0
vn -1 0 0
vn -1 0 0
vn -1 0 0
vn -1 0 0
vn -1 0 0
vn 0 0 -1
vn 0 0 -1
vn -0.7071087 0.7071049 0
vn -0.7071087 0.7071049 0
vn -0.7071087 0.7071049 0
vn 0 1 0
vn 0 1 0
vn 0 1 0
vn 0 -1 0
vn 0 -1 0
vn 0 -1 0
vn 0.9999839 0 0.005677705
vn 0.9999839 0 0.005677705
vn 0.9999839 0 0.005677705
vn 0.9999839 0 0.005677705
vn 0.005418301 0 0.9999853
vn 0.005418301 0 0.9999853
vn 0.005418301 0 0.9999853
vn 0.005418301 0 0.9999853
vn 0 -1 0
vn 0 -1 0
vn 0 1 0
vn 0 1 0
vn 0 1 0
vn 0 1 0
vn 0 0.7071063 -0.7071072
vn 0 0.7071063 -0.7071072
vn 0 0.7071063 -0.7071072
vn 0 0.7071063 -0.7071072
vn -1 0 0
vn -1 0 0
vn -1 0 0
vn -1 0 0

vt 0.5873557 0.03349352
vt 0.5873557 0.0156244
vt 0.6052248 0.03349352
vt 0.5784211 0.03349352
vt 0.6052248 0.0156244
vt 0.6052248 0.006689787
vt 0.6141595 0.03349352
vt 0.5873557 0.006689787
vt 0.6141595 0.01562446
vt 0.6141595 0.0156244
vt 0.6141595 0.03349358
vt 0.5873556 0.006689787
vt 0.5873557 0.006689787
vt 0.5784211 0.03349358
vt 0.9022604 0.9485034
vt 0.8933259 0.9753073
vt 0.9022604 0.9485036
vt 0.9022604 0.9485034
vt 0.8933259 0.9753073
vt 0.8933259 0.9753072
vt 0.5784211 0.03349352
vt 0.6141595 0.03349352
vt 0.5873557 0.03349352
vt 0.5873557 0.0156244
vt 0.6052248 0.03349352
vt 0.5784211 0.03349352
vt 0.6052248 0.0156244
vt 0.6141595 0.0156244
vt 0.6141595 0.03349352
vt 0.5996597 0.007920146
vt 0.6141595 0.01562446
vt 0.6052248 0.006689787
vt 0.6141595 0.03349358
vt 0.5784211 0.01562446
vt 0.5784211 0.0156244
vt 0.5784211 0.03349358
vt 0.5996596 0.007920146
vt 0.8933259 0.9753073
vt 0.5996597 0.007920206
vt 0.5996597 0.007920146
vt 0.8933259 0.9753073
vt 0.8933259 0.9753072
vt 0.5784211 0.03349352
vt 0.6141595 0.03349352
vt 0.6052248 0.02455896
vt 0.5873557 0.02455896
vt 0.5828882 0.02902615
vt 0.6096922 0.02009165
vt 0.6141593 0.02455896
vt 0.6141593 0.0245589
vt 0.605225 0.02455896
vt 0.600114 0.02378279
vt 0.578421 0.0245589
vt 0.8977931 0.9619054
vt 0.8977931 0.9619053
vt 0.8977931 0.9619053
vt 0.9022604 0.9663725
vt 0.8977931 0.9619053
vt 0.5873557 0.0156244
vt 0.5873557 0.03349352
vt 0.5873557 0.0156244
vt 0.6052248 0.0156244
vt 0.6141595 0.0156244
vt 0.6052248 0.0156244
vt 0.6052248 0.03349352
vt 0.6141595 0.0156244
vt 0.6141595 0.03349352
vt 0.6052248 0.006689787
vt 0.6052248 0.006689787
vt 0.5873557 0.006689787
vt 0.5873557 0.0156244
vt 0.6052248 0.006689787
vt 0.5784211 0.01562446
vt 0.5784211 0.0156244
vt 0.9022604 0.9485034
vt 0.9022604 0.9485034
vt 0.8933259 0.9753073
vt 0.8933259 0.9574382
vt 0.8933259 0.9574382
vt 0.8933259 0.9574381
vt 0.8933259 0.9574382
vt 0.8933259 0.9753073
vt 0.8933259 0.9574381
vt 0.8933259 0.9574381
vt 0.8933259 0.9753073
vt 0.5996597 0.04365849
vt 0.5996597 0.04365849
vt 0.5996597 0.04365849
vt 0.5996597 0.04365849
vt 0.5996597 0.04365849
vt 0.8933259 0.9574381
vt 0.8933259 0.9574381
vt 0.8933259 0.9753072
vt 0.8933259 0.9753072
vt 0.578421 0.0245589
vt 0.5784211 0.0156244
vt 0.5784211 0.02455896
vt 0.5784211 0.0156244
vt 0.6052248 0.04242814
vt 0.5873557 0.04242814
vt 0.6052248 0.006689787
vt 0.5784211 0.0156244
vt 0.5784211 0.0156244
vt 0.5873557 0.02455896
vt 0.5873557 0.0156244
vt 0.5873557 0.0156244
vt 0.6052248 0.0156244
vt 0.5873557 0.0156244
vt 0.5873557 0.03349352
vt 0.6052248 0.0156244
vt 0.6052248 0.03349352
vt 0.5873557 0.03349352
vt 0.5873557 0.04242814
vt 0.5828882 0.02902615
vt 0.5784211 0.0156244
vt 0.6052248 0.03349352
vt 0.6052248 0.02455896
vt 0.6052248 0.0156244
vt 0.6141595 0.0156244
vt 0.6141595 0.03349352
vt 0.6141595 0.01562446
vt 0.6141595 0.02455896
vt 0.6141595 0.0156244
vt 0.6141595 0.0156244
vt 0.6141595 0.0156244
vt 0.605225 0.02455896
vt 0.6052248 0.0156244
vt 0.5784211 0.01562446
vt 0.5784211 0.0156244
vt 0.5996596 0.007920146
vt 0.5996597 0.007920146
vt 0.8933259 0.9753073
vt 0.8933259 0.9574382
vt 0.8933259 0.9574382
vt 0.8933259 0.9574381
vt 0.8933259 0.9574382
vt 0.8933259 0.9753073
vt 0.8933259 0.9574381
vt 0.8933259 0.9574381
vt 0.8933259 0.9753073
vt 0.9022604 0.9842418
vt 0.9022604 0.9842418
vt 0.9022604 0.9842418
vt 0.9022604 0.9842418
vt 0.9022604 0.9842418
vt 0.8933259 0.9574381
vt 0.8933259 0.9574381
vt 0.8933259 0.9753072
vt 0.8933259 0.9753072
vt 0.5873557 0.04242814
vt 0.5873557 0.04242814
vt 0.6052248 0.04242814
vt 0.6052248 0.04242814
vt 0.6052248 0.04242814
vt 0.5873557 0.04242814
vt 0.6052248 0.04242814
vt 0.5873557 0.04242814
vt 0.6052248 0.006689787
vt 0.5784211 0.0156244
vt 0.5784211 0.0156244
vt 0.6052248 0.03349352
vt 0.5873557 0.04242814
vt 0.6052248 0.04242814
vt 0.6052248 0.03349352
vt 0.6141595 0.03349352
vt 0.6141595 0.03349352
vt 0.6141593 0.0245589
vt 0.6141595 0.03349358
vt 0.6141593 0.02455896
vt 0.6141595 0.03349358
vt 0.6141595 0.03349352
vt 0.5828882 0.02902615
vt 0.6141595 0.03349352
vt 0.5873557 0.04242814
vt 0.6052248 0.03349352
vt 0.5873557 0.03349352
vt 0.5784211 0.03349352
vt 0.5784211 0.02455896
vt 0.5873557 0.03349352
vt 0.5873557 0.02455896
vt 0.5873557 0.04242814
vt 0.5828882 0.02902615
vt 0.5784211 0.03349358
vt 0.578421 0.0245589
vt 0.5784211 0.03349358
vt 0.578421 0.0245589
vt 0.600114 0.02378279
vt 0.9022604 0.9485034
vt 0.9022604 0.9485036
vt 0.8977931 0.9619054
vt 0.8933259 0.9753073
vt 0.8933259 0.9753072
vt 0.8977931 0.9619053
vt 0.8933259 0.9753072
vt 0.9022604 0.9842418
vt 0.8977931 0.9619053
vt 0.9022604 0.9485034
vt 0.9022604 0.9485034
vt 0.5996596 0.02578926
vt 0.5996596 0.02578932
vt 0.5996597 0.04365849
vt 0.5996597 0.04365849
vt 0.5996597 0.007920146
vt 0.5996596 0.007920146
vt 0.5996596 0.02578926
vt 0.5996596 0.02578932
vt 0.8933259 0.9753073
vt 0.8933259 0.9753073
vt 0.8977931 0.9619053
vt 0.9022604 0.9485034
vt 0.9022604 0.9663725
vt 0.9022604 0.9485034
vt 0.8977931 0.9619054
vt 0.9022604 0.9485036
vt 0.8977931 0.9619053
vt 0.9022604 0.9485034
vt 0.8933259 0.9753073
vt 0.8977931 0.9619053
vt 0.8933259 0.9753073
vt 0.8977931 0.9619054
f 6/6/6 62/62/62 61/61/61
f 6/6/6 8/8/8 68/68/68
f 68/68/68 8/8/8 12/12/12
f 68/68/68 12/12/12 72/72/72
f 72/72/72 12/12/12 13/13/13
f 69/69/69 71/71/71 70/70/70
f 47/47/47 95/95/95 35/35/35
f 107/107/107 109/109/109 108/108/108
f 110/110/110 45/45/45 109/109/109
f 109/109/109 45/45/45 25/25/25
f 111/111/111 113/113/113 112/112/112
f 161/161/161 163/163/163 162/162/162
f 2/2/2 1/1/1 4/4/4
f 2/2/2 4/4/4 103/103/103
f 5/5/5 60/60/60 59/59/59
f 5/5/5 3/3/3 60/60/60
f 34/34/34 52/52/52 30/30/30
f 53/53/53 52/52/52 34/34/34
f 96/96/96 53/53/53 34/34/34
f 63/63/63 65/65/65 64/64/64
f 63/63/63 67/67/67 65/65/65
f 7/7/7 66/66/66 11/11/11
f 11/11/11 66/66/66 9/9/9
f 11/11/11 9/9/9 22/22/22
f 22/22/22 9/9/9 10/10/10
f 73/73/73 14/14/14 74/74/74
f 74/74/74 14/14/14 21/21/21
f 75/75/75 76/76/76 15/15/15
f 76/76/76 18/18/18 15/15/15
f 18/18/18 17/17/17 15/15/15
f 77/77/77 78/78/78 16/16/16
f 16/16/16 78/78/78 79/79/79
f 80/80/80 19/19/19 81/81/81
f 81/81/81 19/19/19 82/82/82
f 83/83/83 20/20/20 84/84/84
f 84/84/84 20/20/20 85/85/85
f 86/86/86 88/88/88 87/87/87
f 87/87/87 88/88/88 89/89/89
f 88/88/88 90/90/90 89/89/89
f 91/91/91 93/93/93 92/92/92
f 92/92/92 93/93/93 94/94/94
f 97/97/97 46/46/46 98/98/98
f 98/98/98 46/46/46 24/24/24
f 99/99/99 101/101/101 100/100/100
f 100/100/100 101/101/101 102/102/102
f 104/104/104 27/27/27 105/105/105
f 51/51/51 27/27/27 104/104/104
f 51/51/51 104/104/104 175/175/175
f 176/176/176 175/175/175 104/104/104
f 106/106/106 23/23/23 26/26/26
f 106/106/106 26/26/26 160/160/160
f 114/114/114 115/115/115 32/32/32
f 48/48/48 114/114/114 32/32/32
f 48/48/48 173/173/173 172/172/172
f 174/174/174 172/172/172 173/173/173
f 28/28/28 117/117/117 118/118/118
f 116/116/116 117/117/117 28/28/28
f 28/28/28 120/120/120 116/116/116
f 29/29/29 119/119/119 33/33/33
f 33/33/33 119/119/119 31/31/31
f 33/33/33 31/31/31 44/44/44
f 44/44/44 31/31/31 125/125/125
f 121/121/121 122/122/122 123/123/123
f 49/49/49 122/122/122 121/121/121
f 49/49/49 171/171/171 122/122/122
f 170/170/170 171/171/171 49/49/49
f 124/124/124 49/49/49 121/121/121
f 50/50/50 49/49/49 124/124/124
f 127/127/127 50/50/50 124/124/124
f 126/126/126 50/50/50 127/127/127
f 126/126/126 165/165/165 50/50/50
f 164/164/164 165/165/165 126/126/126
f 128/128/128 36/36/36 129/129/129
f 129/129/129 36/36/36 43/43/43
f 130/130/130 131/131/131 37/37/37
f 131/131/131 40/40/40 37/37/37
f 40/40/40 39/39/39 37/37/37
f 132/132/132 133/133/133 38/38/38
f 38/38/38 133/133/133 134/134/134
f 135/135/135 41/41/41 136/136/136
f 136/136/136 41/41/41 137/137/137
f 138/138/138 42/42/42 139/139/139
f 139/139/139 42/42/42 140/140/140
f 141/141/141 143/143/143 142/142/142
f 142/142/142 143/143/143 144/144/144
f 143/143/143 145/145/145 144/144/144
f 146/146/146 148/148/148 147/147/147
f 147/147/147 148/148/148 149/149/149
f 151/151/151 152/152/152 153/153/153
f 150/150/150 152/152/152 151/151/151
f 155/155/155 152/152/152 150/150/150
f 154/154/154 152/152/152 155/155/155
f 156/156/156 158/158/158 157/157/157
f 157/157/157 158/158/158 159/159/159
f 166/166/166 168/168/168 167/167/167
f 167/167/167 168/168/168 169/169/169
f 178/178/178 179/179/179 180/180/180
f 177/177/177 179/179/179 178/178/178
f 185/185/185 177/177/177 186/186/186
f 186/186/186 177/177/177 187/187/187
f 181/181/181 183/183/183 182/182/182
f 182/182/182 183/183/183 184/184/184
f 55/55/55 54/54/54 188/188/188
f 188/188/188 54/54/54 189/189/189
f 190/190/190 191/191/191 56/56/56
f 56/56/56 191/191/191 192/192/192
f 193/193/193 194/194/194 57/57/57
f 57/57/57 194/194/194 195/195/195
f 58/58/58 197/197/197 198/198/198
f 196/196/196 197/197/197 58/58/58
f 196/196/196 58/58/58 207/207/207
f 207/207/207 58/58/58 208/208/208
f 199/199/199 201/201/201 200/200/200
f 200/200/200 201/201/201 202/202/202
f 203/203/203 205/205/205 204/204/204
f 204/204/204 205/205/205 206/206/206
f 209/209/209 211/211/211 210/210/210
f 210/210/210 211/211/211 212/212/212
f 213/213/213 215/215/215 214/214/214
f 214/214/214 215/215/215 216/216/216
f 217/217/217 219/219/219 218/218/218
f 218/218/218 219/219/219 220/220/220
