mtllib WallFloor2_17.mtl
usemtl WallFloor2_17

g WallFloor2_17
v 1.250001 2.500002 -0.072079
v 1.250001 2.500002 0.07207863
v -1.250001 2.500002 -0.07207866
v -1.250001 2.500002 0.07207895
v -1.250001 0.1493083 -0.07207863
v -1.250001 0.182327 0.07207899
v 1.250001 0.1493084 -0.07207896
v 1.250001 0.1823271 0.07207866
v -1.250001 -1.198319E-07 0.07207899
v 1.250001 -1.055335E-08 0.07207866
v -1.250001 -1.198319E-07 -0.07207863
v 1.250001 -1.055335E-08 -0.07207896
v -1.250001 0.09116343 -0.07207863
v -1.250001 0.09116343 0.07207899
v 1.250001 0.09116353 -0.07207896
v 1.250001 0.09116353 0.07207866
v -1.250001 0.09116343 -0.1062499
v 1.250001 0.09116353 -0.1062503
v -1.250001 0.1493083 -0.09144271
v -1.250001 0.1345011 -0.1062499
v 1.250001 0.1345012 -0.1062503
v 1.250001 0.1493084 -0.09144305
v -1.250001 2.500002 -0.07207866
v -1.250001 2.500002 -0.07207866
v -1.250001 0.1493083 -0.07207863
v -1.250001 0.182327 0.07207899
v -1.250001 2.500002 0.07207895
v 1.250001 2.500002 0.07207863
v 1.250001 2.500002 -0.072079
v 1.250001 0.1493084 -0.07207896
v -1.250001 0.182327 0.07207899
v -1.250001 2.500002 -0.07207866
v -1.250001 2.500002 0.07207895
v 1.250001 2.500002 0.07207863
v 1.250001 2.500002 -0.072079
v 1.250001 2.500002 0.07207863
v 1.250001 0.1493084 -0.07207896
v 1.250001 0.1823271 0.07207866
v -1.250001 -1.198319E-07 0.07207899
v -1.250001 -1.198319E-07 -0.07207863
v -1.250001 0.09116343 -0.07207863
v -1.250001 -1.198319E-07 -0.07207863
v 1.250001 -1.055335E-08 -0.07207896
v 1.250001 0.09116353 -0.07207896
v 1.250001 -1.055335E-08 -0.07207896
v 1.250001 -1.055335E-08 0.07207866
v 1.250001 0.09116353 0.07207866
v 1.250001 -1.055335E-08 0.07207866
v -1.250001 0.09116343 0.07207899
v -1.250001 -1.198319E-07 0.07207899
v 1.250001 0.1823271 0.07207866
v -1.250001 0.182327 0.07207899
v 1.250001 0.1823271 0.07207866
v 1.250001 0.1493084 -0.07207896
v 1.250001 0.1493084 -0.07207896
v 1.250001 0.09116353 -0.07207896
v -1.250001 0.182327 0.07207899
v -1.250001 0.1493083 -0.07207863
v -1.250001 0.09116343 -0.07207863
v -1.250001 0.1493083 -0.07207863
v 1.250001 0.09116353 -0.07207896
v 1.250001 0.09116353 -0.1062503
v -1.250001 0.09116343 -0.07207863
v -1.250001 0.09116343 -0.1062499
v -1.250001 0.1493083 -0.07207863
v -1.250001 0.1493083 -0.09144271
v 1.250001 0.1493084 -0.07207896
v 1.250001 0.1493084 -0.09144305
v -1.250001 0.1493083 -0.09144271
v -1.250001 0.1345011 -0.1062499
v 1.250001 0.1493084 -0.09144305
v 1.250001 0.1345012 -0.1062503
v -1.250001 0.1345011 -0.1062499
v -1.250001 0.09116343 -0.1062499
v 1.250001 0.1345012 -0.1062503
v 1.250001 0.09116353 -0.1062503

vn 0 1 0
vn 0 0 1
vn -1 0 0
vn 0 1 0
vn -1 0 0
vn -1 0 0
vn 0 0 -1
vn 0 0 1
vn -1 0 0
vn 0 -1 0
vn -1 0 0
vn 0 -1 0
vn -1 0 0
vn -1 0 0
vn 0 0 -1
vn 1 0 0
vn -1 0 0
vn 1 0 0
vn -1 0 0
vn -1 0 0
vn 1 0 0
vn 1 0 0
vn 0 1 0
vn 0 0 -1
vn 0 0 -1
vn 0 0 1
vn 0 0 1
vn 1 0 0
vn 1 0 0
vn 1 0 0
vn -1 0 0
vn -1 0 0
vn -1 0 0
vn 0 1 0
vn 0 0 -1
vn 1 0 0
vn 1 0 0
vn 1 0 0
vn 0 -1 0
vn 0 -1 0
vn 0 0 -1
vn 0 0 -1
vn 0 0 -1
vn 1 0 0
vn 1 0 0
vn 1 0 0
vn 0 0 1
vn 0 0 1
vn 0 0 1
vn 0 0 1
vn 0 0 1
vn 0 0 1
vn 1 0 0
vn 1 0 0
vn 1 0 0
vn 1 0 0
vn -1 0 0
vn -1 0 0
vn -1 0 0
vn -1 0 0
vn 0 -1 0
vn 0 -1 0
vn 0 -1 0
vn 0 -1 0
vn 0 1 0
vn 0 1 0
vn 0 1 0
vn 0 1 0
vn 0 0.7071068 -0.7071068
vn 0 0.7071068 -0.7071068
vn 0 0.7071068 -0.7071068
vn 0 0.7071068 -0.7071068
vn 0 0 -1
vn 0 0 -1
vn 0 0 -1
vn 0 0 -1

vt 0.5875996 0.03753108
vt 0.6054688 0.03753108
vt 0.5875996 0.01966196
vt 0.6054688 0.01966196
vt 0.5875996 0.01072735
vt 0.6054688 0.01072735
vt 0.578665 0.03753108
vt 0.6144034 0.03753108
vt 0.6054688 0.01072735
vt 0.6054688 0.04646569
vt 0.5875996 0.01072735
vt 0.5875996 0.04646569
vt 0.5875995 0.01072735
vt 0.6054688 0.01072735
vt 0.578665 0.0375312
vt 0.6054688 0.04646569
vt 0.9096428 0.9521946
vt 0.9096429 0.987933
vt 0.9096429 0.9521946
vt 0.9096429 0.9521947
vt 0.9096429 0.987933
vt 0.9096429 0.987933
vt 0.5875996 0.01966196
vt 0.5875996 0.01966196
vt 0.578665 0.01966196
vt 0.6144034 0.01966196
vt 0.6054688 0.01966196
vt 0.6054688 0.03753108
vt 0.5875996 0.03753108
vt 0.5875996 0.04646569
vt 0.6054688 0.01072735
vt 0.5875996 0.01966196
vt 0.6054688 0.01966196
vt 0.6054688 0.03753108
vt 0.5875996 0.03753108
vt 0.6054688 0.03753108
vt 0.5875996 0.04646569
vt 0.6054688 0.04646569
vt 0.6054688 0.01072735
vt 0.578665 0.01966196
vt 0.578665 0.01966208
vt 0.578665 0.01966196
vt 0.578665 0.03753108
vt 0.5875996 0.04646569
vt 0.5875996 0.04646569
vt 0.6054688 0.04646569
vt 0.6144034 0.0375312
vt 0.6144034 0.03753108
vt 0.6144034 0.01966208
vt 0.6144034 0.01966196
vt 0.6144034 0.03753108
vt 0.6144034 0.01966196
vt 0.6054688 0.04646569
vt 0.5875996 0.04646569
vt 0.9096429 0.987933
vt 0.9096429 0.987933
vt 0.6054688 0.01072735
vt 0.5875996 0.01072735
vt 0.9096428 0.9521946
vt 0.9096429 0.9521946
vt 0.9007083 0.9789984
vt 0.9007083 0.9789984
vt 0.9007083 0.9611293
vt 0.9007083 0.9611293
vt 0.9007083 0.9611292
vt 0.9007083 0.9611292
vt 0.9007083 0.9789984
vt 0.9007083 0.9789984
vt 0.9007083 0.9611292
vt 0.9007083 0.9611292
vt 0.9007083 0.9789984
vt 0.9007083 0.9789984
vt 0.9007083 0.9611292
vt 0.9007083 0.9611293
vt 0.9007083 0.9789984
vt 0.9007083 0.9789984
f 6/6/6 3/3/3 5/5/5
f 28/28/28 30/30/30 29/29/29
f 31/31/31 33/33/33 32/32/32
f 36/36/36 38/38/38 37/37/37
f 4/4/4 1/1/1 23/23/23
f 4/4/4 34/34/34 1/1/1
f 24/24/24 7/7/7 25/25/25
f 24/24/24 35/35/35 7/7/7
f 26/26/26 2/2/2 27/27/27
f 26/26/26 8/8/8 2/2/2
f 9/9/9 13/13/13 11/11/11
f 14/14/14 13/13/13 9/9/9
f 14/14/14 58/58/58 13/13/13
f 57/57/57 58/58/58 14/14/14
f 10/10/10 39/39/39 12/12/12
f 12/12/12 39/39/39 40/40/40
f 41/41/41 15/15/15 42/42/42
f 42/42/42 15/15/15 43/43/43
f 45/45/45 16/16/16 46/46/46
f 44/44/44 16/16/16 45/45/45
f 54/54/54 16/16/16 44/44/44
f 53/53/53 16/16/16 54/54/54
f 48/48/48 49/49/49 50/50/50
f 47/47/47 49/49/49 48/48/48
f 47/47/47 52/52/52 49/49/49
f 51/51/51 52/52/52 47/47/47
f 55/55/55 56/56/56 22/22/22
f 22/22/22 56/56/56 21/21/21
f 56/56/56 18/18/18 21/21/21
f 59/59/59 60/60/60 17/17/17
f 60/60/60 19/19/19 17/17/17
f 19/19/19 20/20/20 17/17/17
f 61/61/61 63/63/63 62/62/62
f 62/62/62 63/63/63 64/64/64
f 65/65/65 67/67/67 66/66/66
f 66/66/66 67/67/67 68/68/68
f 69/69/69 71/71/71 70/70/70
f 70/70/70 71/71/71 72/72/72
f 73/73/73 75/75/75 74/74/74
f 74/74/74 75/75/75 76/76/76
