mtllib WallFloor2_19.mtl
usemtl WallFloor2_19

g WallFloor2_19
v 1.250001 2.500002 -0.07207907
v 1.250001 2.500002 0.07207855
v -1.250001 2.500002 -0.07207875
v -1.250001 2.500002 0.07207887
v -1.250001 0.1493084 -0.07207854
v -1.250001 0.182327 0.07207908
v 1.250001 0.1493084 -0.07207886
v 1.250001 0.182327 0.07207876
v -0.3375003 2.012501 0.07207882
v -0.3375003 2.012501 -0.07207881
v 0.3375002 2.012501 -0.07207888
v 0.3375002 2.012501 0.07207872
v 0.3375002 0.9625008 -0.07207881
v 0.3375002 0.9625008 0.07207879
v -0.3375003 0.9625007 -0.07207873
v -0.3375003 0.9625008 0.0720789
v -0.337483 0.9979091 0.1163324
v -0.337483 0.9519055 0.1163324
v -0.337483 0.9979091 -0.1169774
v -0.337483 0.9519055 -0.1169774
v 0.3374829 0.9979091 0.1163324
v 0.3374829 0.9519055 0.1163324
v 0.3374829 0.9979091 -0.1169775
v 0.3374829 0.9519055 -0.1169775
v -0.3152659 0.9954828 -0.02107451
v -0.3152659 0.9954828 0.02107501
v -0.3152659 1.033294 -0.02107451
v -0.3152659 1.033294 0.021075
v 0.3152657 0.9954829 -0.02107456
v 0.3152657 0.9954829 0.02107495
v 0.3152657 1.033294 -0.02107456
v 0.3152657 1.033294 0.02107495
v 0.3060948 2.012013 -0.02107462
v 0.3060948 2.012013 0.02107488
v 0.3439055 2.012013 -0.02107463
v 0.3439055 2.012013 0.02107488
v 0.3060949 0.9902607 -0.02107453
v 0.3060949 0.9902607 0.02107498
v 0.3439056 0.9902607 -0.02107454
v 0.3439056 0.9902607 0.02107497
v -0.3439058 2.012013 -0.02107457
v -0.3439058 2.012013 0.02107494
v -0.3060951 2.012013 -0.02107457
v -0.3060951 2.012013 0.02107494
v -0.3439057 0.9902607 -0.02107447
v -0.3439057 0.9902607 0.02107503
v -0.306095 0.9902607 -0.02107447
v -0.306095 0.9902607 0.02107503
v -0.315266 1.975404 -0.02107454
v -0.315266 1.975404 0.02107497
v -0.315266 2.013215 -0.02107454
v -0.315266 2.013215 0.02107497
v 0.3152657 1.975404 -0.0210746
v 0.3152657 1.975404 0.02107491
v 0.3152657 2.013215 -0.0210746
v 0.3152657 2.013215 0.02107491
v -0.0189055 2.012013 -0.01420672
v -0.01890549 2.012013 0.01420754
v 0.01890523 2.012013 -0.01420672
v 0.01890524 2.012013 0.01420754
v -0.01890546 0.9902608 -0.01420665
v -0.01890546 0.9902608 0.01420762
v 0.01890527 0.9902608 -0.01420665
v 0.01890528 0.9902608 0.01420762
v -0.3152659 1.447212 -0.01420665
v -0.3152659 1.447212 0.01420761
v -0.3152659 1.485023 -0.01420665
v -0.3152659 1.485023 0.01420761
v 0.3152657 1.447212 -0.01420671
v 0.3152657 1.447212 0.01420755
v 0.3152657 1.485023 -0.01420671
v 0.3152657 1.485023 0.01420755
v -1.250001 -1.324549E-07 0.07207908
v 1.250001 -1.324549E-07 0.07207876
v -1.250001 -1.324549E-07 -0.07207854
v 1.250001 -1.324549E-07 -0.07207886
v -1.250001 0.09116346 -0.07207854
v -1.250001 0.09116346 0.07207908
v 1.250001 0.09116346 -0.07207886
v 1.250001 0.09116346 0.07207876
v -1.250001 0.09116346 -0.1062499
v 1.250001 0.09116346 -0.1062503
v -1.250001 0.1493084 -0.09144271
v -1.250001 0.1345012 -0.1062499
v 1.250001 0.1345012 -0.1062503
v 1.250001 0.1493084 -0.09144305
v -1.250001 2.500002 -0.07207875
v 1.250001 2.500002 -0.07207907
v 1.250001 2.500002 0.07207855
v 1.250001 2.500002 -0.07207907
v 1.250001 0.1493084 -0.07207886
v 0.3375002 0.9625008 -0.07207881
v 0.3375002 0.9625008 0.07207879
v 0.3375002 0.9625008 -0.07207881
v 0.3375002 2.012501 -0.07207888
v -0.3375003 0.9625008 0.0720789
v -1.250001 0.182327 0.07207908
v -1.250001 2.500002 0.07207887
v -0.3375003 2.012501 -0.07207881
v -0.3375003 0.9625007 -0.07207873
v -0.3375003 0.9625008 0.0720789
v -0.3375003 0.9625007 -0.07207873
v -1.250001 2.500002 -0.07207875
v -1.250001 0.1493084 -0.07207854
v -0.337483 0.9979091 -0.1169774
v 0.3374829 0.9979091 -0.1169775
v -0.337483 0.9979091 0.1163324
v 0.3374829 0.9979091 0.1163324
v 0.3374829 0.9979091 -0.1169775
v -0.337483 0.9979091 0.1163324
v -0.337483 0.9979091 -0.1169774
v 0.3374829 0.9519055 -0.1169775
v -0.337483 0.9519055 0.1163324
v 0.3374829 0.9519055 0.1163324
v -0.3152659 1.033294 -0.02107451
v 0.3152657 1.033294 -0.02107456
v 0.3152657 0.9954829 -0.02107456
v -0.3152659 0.9954828 -0.02107451
v 0.3152657 1.033294 -0.02107456
v -0.3152659 1.033294 -0.02107451
v -0.3152659 0.9954828 -0.02107451
v -0.3152659 1.033294 0.021075
v 0.3152657 1.033294 0.02107495
v 0.3152657 0.9954829 0.02107495
v 0.3439055 2.012013 -0.02107463
v 0.3439056 0.9902607 -0.02107454
v 0.3060949 0.9902607 -0.02107453
v 0.3060948 2.012013 -0.02107462
v 0.3060948 2.012013 0.02107488
v 0.3439056 0.9902607 -0.02107454
v 0.3439055 2.012013 -0.02107463
v 0.3060948 2.012013 -0.02107462
v 0.3439055 2.012013 0.02107488
v 0.3060949 0.9902607 0.02107498
v -0.3060951 2.012013 -0.02107457
v -0.306095 0.9902607 -0.02107447
v -0.3439057 0.9902607 -0.02107447
v -0.3439058 2.012013 -0.02107457
v -0.3439058 2.012013 0.02107494
v -0.306095 0.9902607 -0.02107447
v -0.3060951 2.012013 -0.02107457
v -0.3439058 2.012013 -0.02107457
v -0.3439057 0.9902607 0.02107503
v -0.3439058 2.012013 0.02107494
v -0.315266 2.013215 -0.02107454
v 0.3152657 2.013215 -0.0210746
v 0.3152657 1.975404 0.02107491
v 0.3152657 1.975404 -0.0210746
v -0.315266 1.975404 -0.02107454
v 0.3152657 2.013215 -0.0210746
v -0.315266 2.013215 -0.02107454
v -0.315266 1.975404 -0.02107454
v -0.315266 2.013215 0.02107497
v 0.3152657 1.975404 0.02107491
v 0.01890523 2.012013 -0.01420672
v 0.01890527 0.9902608 -0.01420665
v -0.01890546 0.9902608 0.01420762
v -0.01890546 0.9902608 -0.01420665
v -0.0189055 2.012013 -0.01420672
v 0.01890527 0.9902608 -0.01420665
v 0.01890523 2.012013 -0.01420672
v -0.0189055 2.012013 -0.01420672
v 0.01890524 2.012013 0.01420754
v -0.01890546 0.9902608 0.01420762
v -0.3152659 1.485023 -0.01420665
v 0.3152657 1.485023 -0.01420671
v 0.3152657 1.447212 0.01420755
v 0.3152657 1.447212 -0.01420671
v -0.3152659 1.447212 -0.01420665
v 0.3152657 1.485023 -0.01420671
v -0.3152659 1.485023 -0.01420665
v -0.3152659 1.447212 -0.01420665
v -0.3152659 1.485023 0.01420761
v 0.3152657 1.447212 0.01420755
v -1.250001 2.500002 0.07207887
v 1.250001 2.500002 0.07207855
v 0.3375002 2.012501 -0.07207888
v 0.3375002 2.012501 0.07207872
v 1.250001 2.500002 0.07207855
v 1.250001 0.1493084 -0.07207886
v 1.250001 0.182327 0.07207876
v 0.3375002 0.9625008 0.07207879
v 0.3375002 2.012501 0.07207872
v -0.3375003 2.012501 0.07207882
v -0.3375003 2.012501 0.07207882
v -0.3375003 2.012501 -0.07207881
v -0.337483 0.9519055 -0.1169774
v 0.3374829 0.9519055 -0.1169775
v 0.3374829 0.9519055 0.1163324
v -0.337483 0.9519055 0.1163324
v 0.3374829 0.9979091 0.1163324
v -0.337483 0.9519055 -0.1169774
v -0.3152659 1.033294 0.021075
v 0.3152657 1.033294 0.02107495
v 0.3152657 0.9954829 0.02107495
v -0.3152659 0.9954828 0.02107501
v 0.3152657 0.9954829 -0.02107456
v -0.3152659 0.9954828 0.02107501
v 0.3439055 2.012013 0.02107488
v 0.3439056 0.9902607 0.02107497
v 0.3439056 0.9902607 0.02107497
v 0.3060949 0.9902607 0.02107498
v 0.3060949 0.9902607 -0.02107453
v 0.3060948 2.012013 0.02107488
v -0.3060951 2.012013 0.02107494
v -0.306095 0.9902607 0.02107503
v -0.306095 0.9902607 0.02107503
v -0.3439057 0.9902607 0.02107503
v -0.3439057 0.9902607 -0.02107447
v -0.3060951 2.012013 0.02107494
v -0.315266 2.013215 0.02107497
v 0.3152657 2.013215 0.02107491
v 0.3152657 2.013215 0.02107491
v -0.315266 1.975404 0.02107497
v 0.3152657 1.975404 -0.0210746
v -0.315266 1.975404 0.02107497
v 0.01890524 2.012013 0.01420754
v 0.01890528 0.9902608 0.01420762
v 0.01890528 0.9902608 0.01420762
v -0.01890549 2.012013 0.01420754
v -0.01890546 0.9902608 -0.01420665
v -0.01890549 2.012013 0.01420754
v -0.3152659 1.485023 0.01420761
v 0.3152657 1.485023 0.01420755
v 0.3152657 1.485023 0.01420755
v -0.3152659 1.447212 0.01420761
v 0.3152657 1.447212 -0.01420671
v -0.3152659 1.447212 0.01420761
v -1.250001 -1.324549E-07 0.07207908
v -1.250001 -1.324549E-07 -0.07207854
v -1.250001 0.09116346 -0.07207854
v -1.250001 -1.324549E-07 -0.07207854
v 1.250001 -1.324549E-07 -0.07207886
v 1.250001 0.09116346 -0.07207886
v 1.250001 -1.324549E-07 -0.07207886
v 1.250001 -1.324549E-07 0.07207876
v 1.250001 0.09116346 0.07207876
v 1.250001 -1.324549E-07 0.07207876
v -1.250001 0.09116346 0.07207908
v -1.250001 -1.324549E-07 0.07207908
v 1.250001 0.182327 0.07207876
v -1.250001 0.182327 0.07207908
v 1.250001 0.182327 0.07207876
v 1.250001 0.1493084 -0.07207886
v 1.250001 0.09116346 -0.07207886
v -1.250001 0.09116346 -0.07207854
v -1.250001 0.09116346 -0.07207854
v -1.250001 0.09116346 -0.1062499
v -1.250001 0.1493084 -0.07207854
v -1.250001 0.1345012 -0.1062499
v -1.250001 0.09116346 -0.1062499
v 1.250001 0.09116346 -0.1062503
v 1.250001 0.1493084 -0.07207886
v 1.250001 0.09116346 -0.07207886
v 1.250001 0.1345012 -0.1062503
v 1.250001 0.09116346 -0.1062503
v -1.250001 0.1493084 -0.09144271
v -1.250001 0.1345012 -0.1062499
v 1.250001 0.1493084 -0.09144305
v 1.250001 0.1345012 -0.1062503
v -1.250001 0.1493084 -0.07207854
v -1.250001 0.1493084 -0.09144271
v 1.250001 0.1493084 -0.07207886
v 1.250001 0.1493084 -0.09144305

vn 0 1 0
vn 0 0 1
vn -1 0 0
vn 0 1 0
vn -1 0 0
vn -1 0 0
vn 0 0 -1
vn 0 0 1
vn 0 0 1
vn 0 -1 0
vn -1 0 0
vn 0 -1 0
vn 0 0 -1
vn 0 0 1
vn 0 1 0
vn 0 1 0
vn -1 0 0
vn -1 0 0
vn -1 0 0
vn 0 0 -1
vn 1 0 0
vn 0 0 1
vn 0 0 -1
vn 1 0 0
vn -1 0 0
vn -1 0 0
vn -1 0 0
vn 0 1 0
vn 1 0 0
vn 0 -1 0
vn 0 1 0
vn 1 0 0
vn 0 1 0
vn 0 1 0
vn 0 1 0
vn 1 0 0
vn 0 -1 0
vn 0 -1 0
vn 1 0 0
vn 0 0 1
vn 0 1 0
vn 0 1 0
vn 0 1 0
vn 1 0 0
vn 0 -1 0
vn 0 -1 0
vn 1 0 0
vn 0 0 1
vn -1 0 0
vn -1 0 0
vn -1 0 0
vn 0 1 0
vn 1 0 0
vn 1 0 0
vn 0 1 0
vn 0 0 1
vn 0 1 0
vn 0 1 0
vn 0 1 0
vn 1 0 0
vn 0 -1 0
vn 0 -1 0
vn 1 0 0
vn 0 0 1
vn -1 0 0
vn -1 0 0
vn -1 0 0
vn 0 1 0
vn 1 0 0
vn 1 0 0
vn 0 1 0
vn 0 0 1
vn -1 0 0
vn 0 -1 0
vn -1 0 0
vn 0 -1 0
vn -1 0 0
vn -1 0 0
vn 0 0 -1
vn 1 0 0
vn 0 -1 0
vn 0 -1 0
vn -1 0 0
vn -1 0 0
vn 0 0 -1
vn 1 0 0
vn 0 1 0
vn 0 0 -1
vn 1 0 0
vn 1 0 0
vn 1 0 0
vn 0 1 0
vn -1 0 0
vn -1 0 0
vn 0 -1 0
vn 0 0 1
vn 0 0 1
vn 0 0 1
vn 1 0 0
vn 1 0 0
vn 1 0 0
vn 0 0 -1
vn 0 0 -1
vn 0 0 -1
vn 0 0 -1
vn 1 0 0
vn 0 0 1
vn 0 0 1
vn 0 1 0
vn 0 1 0
vn 0 1 0
vn 0 -1 0
vn 0 -1 0
vn 0 -1 0
vn 0 1 0
vn 1 0 0
vn 0 -1 0
vn 0 -1 0
vn 0 0 -1
vn 0 0 -1
vn 0 0 -1
vn 0 0 1
vn 0 0 1
vn 0 0 1
vn 1 0 0
vn 0 -1 0
vn -1 0 0
vn -1 0 0
vn -1 0 0
vn 0 0 -1
vn 0 0 -1
vn 0 0 -1
vn 0 0 1
vn 0 0 1
vn 1 0 0
vn 0 -1 0
vn -1 0 0
vn -1 0 0
vn -1 0 0
vn 0 0 -1
vn 0 0 -1
vn 0 0 -1
vn 0 0 1
vn 0 0 1
vn 0 1 0
vn 1 0 0
vn 0 -1 0
vn 0 -1 0
vn 0 -1 0
vn 0 0 -1
vn 0 0 -1
vn 0 0 -1
vn 0 0 1
vn 0 0 1
vn 1 0 0
vn 0 -1 0
vn -1 0 0
vn -1 0 0
vn -1 0 0
vn 0 0 -1
vn 0 0 -1
vn 0 0 -1
vn 0 0 1
vn 0 0 1
vn 0 1 0
vn 1 0 0
vn 0 -1 0
vn 0 -1 0
vn 0 -1 0
vn 0 0 -1
vn 0 0 -1
vn 0 0 -1
vn 0 0 1
vn 0 0 1
vn -1 0 0
vn 0 1 0
vn 0 0 -1
vn 0 0 1
vn 1 0 0
vn 1 0 0
vn 1 0 0
vn 0 1 0
vn -1 0 0
vn 0 -1 0
vn 1 0 0
vn 0 0 -1
vn -1 0 0
vn 0 0 -1
vn 1 0 0
vn 0 0 1
vn 0 1 0
vn 0 -1 0
vn -1 0 0
vn 0 1 0
vn 1 0 0
vn 0 -1 0
vn 0 0 -1
vn 0 0 1
vn 0 1 0
vn 1 0 0
vn 0 -1 0
vn -1 0 0
vn 0 0 -1
vn 0 0 1
vn 0 1 0
vn 1 0 0
vn 0 -1 0
vn -1 0 0
vn 0 0 -1
vn 0 0 1
vn -1 0 0
vn 0 1 0
vn 1 0 0
vn 0 -1 0
vn 0 0 -1
vn 0 0 1
vn 0 1 0
vn 1 0 0
vn 0 -1 0
vn -1 0 0
vn 0 0 -1
vn 0 0 1
vn -1 0 0
vn 0 1 0
vn 1 0 0
vn 0 -1 0
vn 0 0 -1
vn 0 0 1
vn 0 -1 0
vn 0 -1 0
vn 0 0 -1
vn 0 0 -1
vn 0 0 -1
vn 1 0 0
vn 1 0 0
vn 1 0 0
vn 0 0 1
vn 0 0 1
vn 0 0 1
vn 0 0 1
vn 0 0 1
vn 0 0 1
vn 1 0 0
vn 1 0 0
vn 0 -1 0
vn 0 -1 0
vn -1 0 0
vn -1 0 0
vn -1 0 0
vn 0 0 -1
vn 0 0 -1
vn 0 0 -1
vn 1 0 0
vn 1 0 0
vn 1 0 0
vn 1 0 0
vn 0 0.7071066 -0.7071069
vn 0 0.7071066 -0.7071069
vn 0 0.7071066 -0.7071069
vn 0 0.7071066 -0.7071069
vn 0 1 0
vn 0 1 0
vn 0 1 0
vn 0 1 0

vt 0.5870178 0.04197747
vt 0.5962075 0.04197747
vt 0.5870178 0.03278774
vt 0.5962075 0.03278774
vt 0.5870178 0.02819282
vt 0.5962075 0.02819282
vt 0.582423 0.04197747
vt 0.6008023 0.04197747
vt 0.5984601 0.03614193
vt 0.5891567 0.01440829
vt 0.5891567 0.02359802
vt 0.5923921 0.02359802
vt 0.5834115 0.03862315
vt 0.5998137 0.03862315
vt 0.5891567 0.04197747
vt 0.5923921 0.04197747
vt 0.9059975 0.9574122
vt 0.913053 0.9574122
vt 0.9059975 0.9644677
vt 0.913053 0.9644677
vt 0.9059975 0.9785787
vt 0.913053 0.9785787
vt 0.9059975 0.9715232
vt 0.913053 0.9715232
vt 0.9059975 0.9574122
vt 0.913053 0.9574122
vt 0.9059975 0.9644677
vt 0.913053 0.9644677
vt 0.9059975 0.9785787
vt 0.913053 0.9785787
vt 0.9059975 0.9715232
vt 0.913053 0.9715232
vt 0.9059975 0.9574122
vt 0.913053 0.9574122
vt 0.9059975 0.9644677
vt 0.913053 0.9644677
vt 0.9059975 0.9785787
vt 0.913053 0.9785787
vt 0.9059975 0.9715232
vt 0.913053 0.9715232
vt 0.9059975 0.9574122
vt 0.913053 0.9574122
vt 0.9059975 0.9644677
vt 0.913053 0.9644677
vt 0.9059975 0.9785787
vt 0.913053 0.9785787
vt 0.9059975 0.9715232
vt 0.913053 0.9715232
vt 0.9059975 0.9574122
vt 0.913053 0.9574122
vt 0.9059975 0.9644677
vt 0.913053 0.9644677
vt 0.9059975 0.9785787
vt 0.913053 0.9785787
vt 0.9059975 0.9715232
vt 0.913053 0.9715232
vt 0.9059975 0.9574122
vt 0.913053 0.9574122
vt 0.9059975 0.9644677
vt 0.913053 0.9644677
vt 0.9059975 0.9785787
vt 0.913053 0.9785787
vt 0.9059975 0.9715232
vt 0.913053 0.9715232
vt 0.9059975 0.9574122
vt 0.913053 0.9574122
vt 0.9059975 0.9644677
vt 0.913053 0.9644677
vt 0.9059975 0.9785787
vt 0.913053 0.9785787
vt 0.9059975 0.9715232
vt 0.913053 0.9715232
vt 0.5962075 0.02819282
vt 0.5962075 0.04657227
vt 0.5870178 0.02819282
vt 0.5870178 0.04657227
vt 0.5870178 0.02819282
vt 0.5962075 0.02819282
vt 0.582423 0.04197747
vt 0.5962075 0.04657227
vt 0.9044662 0.974255
vt 0.9044662 0.9834447
vt 0.9090611 0.96966
vt 0.9090611 0.96966
vt 0.9044662 0.9834446
vt 0.9090611 0.9880395
vt 0.5870178 0.03278774
vt 0.5870178 0.04197747
vt 0.5962075 0.04197747
vt 0.5870178 0.04197747
vt 0.5870178 0.04657227
vt 0.5891567 0.03278774
vt 0.5923921 0.03278774
vt 0.5891567 0.03278774
vt 0.5891567 0.02359802
vt 0.5998137 0.03614193
vt 0.6008023 0.03278774
vt 0.5962075 0.03278774
vt 0.5891567 0.05116707
vt 0.5891567 0.04197747
vt 0.5923921 0.04197747
vt 0.5834115 0.03614193
vt 0.5870178 0.03278774
vt 0.582423 0.03278774
vt 0.9059975 0.9644677
vt 0.9059975 0.9715232
vt 0.9059975 0.9856343
vt 0.9059975 0.9785787
vt 0.9059975 0.9715232
vt 0.898942 0.9785787
vt 0.898942 0.9715232
vt 0.913053 0.9715232
vt 0.9201086 0.9785787
vt 0.913053 0.9785787
vt 0.9059975 0.9644677
vt 0.9059975 0.9715232
vt 0.9059975 0.9785787
vt 0.9059975 0.9856343
vt 0.9059975 0.9715232
vt 0.898942 0.9715232
vt 0.898942 0.9785787
vt 0.9201086 0.9715232
vt 0.913053 0.9715232
vt 0.913053 0.9785787
vt 0.9059975 0.9644677
vt 0.9059975 0.9715232
vt 0.9059975 0.9785787
vt 0.9059975 0.9856343
vt 0.913053 0.9856343
vt 0.9059975 0.9715232
vt 0.898942 0.9715232
vt 0.898942 0.9785787
vt 0.9201086 0.9715232
vt 0.913053 0.9785787
vt 0.9059975 0.9644677
vt 0.9059975 0.9715232
vt 0.9059975 0.9785787
vt 0.9059975 0.9856343
vt 0.913053 0.9856343
vt 0.9059975 0.9715232
vt 0.898942 0.9715232
vt 0.898942 0.9785787
vt 0.913053 0.9785787
vt 0.9201086 0.9785787
vt 0.9059975 0.9644677
vt 0.9059975 0.9715232
vt 0.913053 0.9785787
vt 0.9059975 0.9785787
vt 0.9059975 0.9856343
vt 0.9059975 0.9715232
vt 0.898942 0.9715232
vt 0.898942 0.9785787
vt 0.9201086 0.9715232
vt 0.913053 0.9785787
vt 0.9059975 0.9644677
vt 0.9059975 0.9715232
vt 0.913053 0.9785787
vt 0.9059975 0.9785787
vt 0.9059975 0.9856343
vt 0.9059975 0.9715232
vt 0.898942 0.9715232
vt 0.898942 0.9785787
vt 0.9201086 0.9715232
vt 0.913053 0.9785787
vt 0.9059975 0.9644677
vt 0.9059975 0.9715232
vt 0.913053 0.9785787
vt 0.9059975 0.9785787
vt 0.9059975 0.9856343
vt 0.9059975 0.9715232
vt 0.898942 0.9715232
vt 0.898942 0.9785787
vt 0.9201086 0.9715232
vt 0.913053 0.9785787
vt 0.5962075 0.03278774
vt 0.5962075 0.04197747
vt 0.5847652 0.03862315
vt 0.5984601 0.03862315
vt 0.5962075 0.04197747
vt 0.5870178 0.04657227
vt 0.5962075 0.04657227
vt 0.5923921 0.03278774
vt 0.5923921 0.02359802
vt 0.5923921 0.01440829
vt 0.5923921 0.05116707
vt 0.5847652 0.03614193
vt 0.913053 0.9644677
vt 0.913053 0.9715232
vt 0.913053 0.9785787
vt 0.913053 0.9856343
vt 0.9059975 0.9785787
vt 0.9201086 0.9715232
vt 0.913053 0.9644677
vt 0.913053 0.9715232
vt 0.913053 0.9785787
vt 0.913053 0.9856343
vt 0.9059975 0.9785787
vt 0.9201086 0.9785787
vt 0.913053 0.9644677
vt 0.913053 0.9715232
vt 0.913053 0.9715232
vt 0.913053 0.9785787
vt 0.9059975 0.9785787
vt 0.9201086 0.9785787
vt 0.913053 0.9644677
vt 0.913053 0.9715232
vt 0.913053 0.9715232
vt 0.913053 0.9785787
vt 0.9059975 0.9785787
vt 0.9201086 0.9715232
vt 0.913053 0.9644677
vt 0.913053 0.9715232
vt 0.913053 0.9715232
vt 0.913053 0.9856343
vt 0.9059975 0.9785787
vt 0.9201086 0.9785787
vt 0.913053 0.9644677
vt 0.913053 0.9715232
vt 0.913053 0.9715232
vt 0.913053 0.9856343
vt 0.9059975 0.9785787
vt 0.9201086 0.9785787
vt 0.913053 0.9644677
vt 0.913053 0.9715232
vt 0.913053 0.9715232
vt 0.913053 0.9856343
vt 0.9059975 0.9785787
vt 0.9201086 0.9785787
vt 0.5962075 0.02819282
vt 0.582423 0.03278774
vt 0.582423 0.03278774
vt 0.582423 0.03278774
vt 0.582423 0.04197747
vt 0.5870178 0.04657227
vt 0.5870178 0.04657227
vt 0.5962075 0.04657227
vt 0.6008023 0.04197747
vt 0.6008023 0.04197747
vt 0.6008023 0.03278774
vt 0.6008023 0.03278774
vt 0.6008023 0.04197747
vt 0.6008023 0.03278774
vt 0.5962075 0.04657227
vt 0.5870178 0.04657227
vt 0.9044662 0.9834447
vt 0.9044662 0.974255
vt 0.9090611 0.96966
vt 0.9090611 0.96966
vt 0.9090611 0.96966
vt 0.9044662 0.974255
vt 0.9044662 0.974255
vt 0.9044662 0.9834447
vt 0.9090611 0.9880395
vt 0.9090611 0.9880395
vt 0.9090611 0.9880394
vt 0.9090611 0.9880395
vt 0.9044662 0.9742549
vt 0.9044662 0.974255
vt 0.9044662 0.9834447
vt 0.9044662 0.9834446
vt 0.9044662 0.974255
vt 0.9044662 0.9742549
vt 0.9044662 0.9834447
vt 0.9044662 0.9834447
f 89/89/89 91/91/91 90/90/90
f 179/179/179 181/181/181 180/180/180
f 4/4/4 1/1/1 87/87/87
f 4/4/4 176/176/176 1/1/1
f 73/73/73 77/77/77 75/75/75
f 78/78/78 77/77/77 73/73/73
f 78/78/78 5/5/5 77/77/77
f 6/6/6 5/5/5 78/78/78
f 6/6/6 3/3/3 5/5/5
f 6/6/6 175/175/175 3/3/3
f 16/16/16 92/92/92 15/15/15
f 16/16/16 182/182/182 92/92/92
f 93/93/93 11/11/11 94/94/94
f 93/93/93 183/183/183 11/11/11
f 12/12/12 10/10/10 95/95/95
f 12/12/12 184/184/184 10/10/10
f 99/99/99 101/101/101 100/100/100
f 99/99/99 185/185/185 101/101/101
f 18/18/18 17/17/17 19/19/19
f 18/18/18 19/19/19 187/187/187
f 20/20/20 105/105/105 23/23/23
f 20/20/20 23/23/23 188/188/188
f 24/24/24 106/106/106 21/21/21
f 24/24/24 21/21/21 189/189/189
f 22/22/22 108/108/108 107/107/107
f 22/22/22 107/107/107 190/190/190
f 109/109/109 111/111/111 110/110/110
f 109/109/109 110/110/110 191/191/191
f 112/112/112 114/114/114 113/113/113
f 112/112/112 113/113/113 192/192/192
f 26/26/26 27/27/27 25/25/25
f 26/26/26 193/193/193 27/27/27
f 28/28/28 31/31/31 115/115/115
f 28/28/28 194/194/194 31/31/31
f 32/32/32 29/29/29 116/116/116
f 32/32/32 195/195/195 29/29/29
f 30/30/30 118/118/118 117/117/117
f 30/30/30 196/196/196 118/118/118
f 119/119/119 121/121/121 120/120/120
f 119/119/119 197/197/197 121/121/121
f 122/122/122 124/124/124 123/123/123
f 122/122/122 198/198/198 124/124/124
f 34/34/34 35/35/35 33/33/33
f 34/34/34 199/199/199 35/35/35
f 36/36/36 39/39/39 125/125/125
f 36/36/36 200/200/200 39/39/39
f 126/126/126 38/38/38 37/37/37
f 126/126/126 201/201/201 38/38/38
f 127/127/127 129/129/129 128/128/128
f 127/127/127 202/202/202 129/129/129
f 130/130/130 132/132/132 131/131/131
f 130/130/130 203/203/203 132/132/132
f 133/133/133 134/134/134 40/40/40
f 133/133/133 204/204/204 134/134/134
f 42/42/42 43/43/43 41/41/41
f 42/42/42 205/205/205 43/43/43
f 44/44/44 47/47/47 135/135/135
f 44/44/44 206/206/206 47/47/47
f 136/136/136 46/46/46 45/45/45
f 136/136/136 207/207/207 46/46/46
f 137/137/137 139/139/139 138/138/138
f 137/137/137 208/208/208 139/139/139
f 140/140/140 142/142/142 141/141/141
f 140/140/140 209/209/209 142/142/142
f 48/48/48 144/144/144 143/143/143
f 48/48/48 210/210/210 144/144/144
f 50/50/50 51/51/51 49/49/49
f 50/50/50 211/211/211 51/51/51
f 52/52/52 55/55/55 145/145/145
f 52/52/52 212/212/212 55/55/55
f 146/146/146 54/54/54 53/53/53
f 146/146/146 213/213/213 54/54/54
f 147/147/147 149/149/149 148/148/148
f 147/147/147 214/214/214 149/149/149
f 150/150/150 152/152/152 151/151/151
f 150/150/150 215/215/215 152/152/152
f 153/153/153 154/154/154 56/56/56
f 153/153/153 216/216/216 154/154/154
f 58/58/58 59/59/59 57/57/57
f 58/58/58 217/217/217 59/59/59
f 60/60/60 63/63/63 155/155/155
f 60/60/60 218/218/218 63/63/63
f 156/156/156 62/62/62 61/61/61
f 156/156/156 219/219/219 62/62/62
f 157/157/157 159/159/159 158/158/158
f 157/157/157 220/220/220 159/159/159
f 160/160/160 162/162/162 161/161/161
f 160/160/160 221/221/221 162/162/162
f 163/163/163 164/164/164 64/64/64
f 163/163/163 222/222/222 164/164/164
f 66/66/66 67/67/67 65/65/65
f 66/66/66 223/223/223 67/67/67
f 68/68/68 71/71/71 165/165/165
f 68/68/68 224/224/224 71/71/71
f 166/166/166 70/70/70 69/69/69
f 166/166/166 225/225/225 70/70/70
f 167/167/167 169/169/169 168/168/168
f 167/167/167 226/226/226 169/169/169
f 170/170/170 172/172/172 171/171/171
f 170/170/170 227/227/227 172/172/172
f 173/173/173 174/174/174 72/72/72
f 173/173/173 228/228/228 174/174/174
f 74/74/74 229/229/229 76/76/76
f 76/76/76 229/229/229 230/230/230
f 231/231/231 79/79/79 232/232/232
f 232/232/232 79/79/79 233/233/233
f 235/235/235 80/80/80 236/236/236
f 234/234/234 80/80/80 235/235/235
f 244/244/244 80/80/80 234/234/234
f 243/243/243 80/80/80 244/244/244
f 238/238/238 239/239/239 240/240/240
f 237/237/237 239/239/239 238/238/238
f 237/237/237 242/242/242 239/239/239
f 241/241/241 242/242/242 237/237/237
f 245/245/245 246/246/246 82/82/82
f 82/82/82 246/246/246 81/81/81
f 247/247/247 249/249/249 248/248/248
f 249/249/249 83/83/83 248/248/248
f 83/83/83 84/84/84 248/248/248
f 250/250/250 85/85/85 251/251/251
f 251/251/251 85/85/85 252/252/252
f 253/253/253 254/254/254 86/86/86
f 86/86/86 254/254/254 255/255/255
f 254/254/254 256/256/256 255/255/255
f 257/257/257 259/259/259 258/258/258
f 258/258/258 259/259/259 260/260/260
f 261/261/261 263/263/263 262/262/262
f 262/262/262 263/263/263 264/264/264
f 13/13/13 177/177/177 88/88/88
f 88/88/88 177/177/177 186/186/186
f 13/13/13 88/88/88 7/7/7
f 103/103/103 88/88/88 186/186/186
f 7/7/7 102/102/102 13/13/13
f 186/186/186 102/102/102 103/103/103
f 7/7/7 104/104/104 102/102/102
f 102/102/102 104/104/104 103/103/103
f 96/96/96 98/98/98 97/97/97
f 97/97/97 8/8/8 96/96/96
f 96/96/96 9/9/9 98/98/98
f 8/8/8 14/14/14 96/96/96
f 98/98/98 9/9/9 178/178/178
f 14/14/14 8/8/8 2/2/2
f 2/2/2 98/98/98 178/178/178
f 178/178/178 14/14/14 2/2/2
