mtllib WallFloor2_18.mtl
usemtl WallFloor2_18

g WallFloor2_18
v 1.250001 2.500002 -0.07207894
v 1.250001 2.500002 0.07207868
v -1.250001 2.500002 -0.07207862
v -1.250001 2.500002 0.072079
v -1.250001 0.1493084 -0.0720787
v -1.250001 0.182327 0.07207853
v 1.250001 0.1493084 -0.07207901
v 1.250001 0.182327 0.0720782
v -0.6750009 2.012501 0.07207892
v -0.6750009 2.012501 -0.0720787
v 0.6750003 2.012502 -0.07207888
v 0.6750003 2.012502 0.07207877
v 0.6750003 0.9625007 -0.07207892
v 0.6750003 0.9625008 0.07207871
v -0.6750009 0.9625006 -0.07207875
v -0.6750009 0.9625006 0.07207888
v -0.6750007 0.997646 0.1166553
v -0.6750007 0.9516425 0.1166553
v -0.6750007 0.997646 -0.1166545
v -0.6750007 0.9516425 -0.1166545
v 0.6750004 0.9976462 0.1166552
v 0.6750004 0.9516426 0.1166552
v 0.6750004 0.9976462 -0.1166546
v 0.6750004 0.9516426 -0.1166546
v -0.6482079 1.446949 -0.01420645
v -0.6482079 1.446949 0.01420781
v -0.6482079 1.48476 -0.01420645
v -0.6482079 1.48476 0.01420781
v 0.6482076 1.446949 -0.01420656
v 0.6482076 1.446949 0.0142077
v 0.6482076 1.48476 -0.01420656
v 0.6482076 1.48476 0.0142077
v -0.6496878 0.9952198 -0.02107436
v -0.6496878 0.9952198 0.02107515
v -0.6496878 1.033031 -0.02107436
v -0.6496878 1.033031 0.02107516
v 0.6496875 0.9952198 -0.02107447
v 0.6496875 0.9952198 0.02107504
v 0.6496875 1.033031 -0.02107447
v 0.6496875 1.033031 0.02107505
v -0.6496878 1.973343 -0.02107403
v -0.6496878 1.973343 0.02107547
v -0.6496878 2.011153 -0.02107403
v -0.6496878 2.011153 0.02107548
v 0.6496874 1.973343 -0.02107415
v 0.6496874 1.973343 0.02107536
v 0.6496874 2.011153 -0.02107414
v 0.6496874 2.011153 0.02107537
v 0.6378336 2.017813 -0.02107443
v 0.6378336 2.017813 0.02107508
v 0.6756443 2.017813 -0.02107443
v 0.6756443 2.017813 0.02107508
v 0.6378336 0.9897175 -0.02107445
v 0.6378336 0.9897175 0.02107505
v 0.6756443 0.9897175 -0.02107446
v 0.6756443 0.9897175 0.02107505
v -0.676821 2.017813 -0.02107429
v -0.676821 2.017813 0.02107522
v -0.6390103 2.017813 -0.02107429
v -0.6390103 2.017813 0.02107522
v -0.6768209 0.9897174 -0.02107431
v -0.6768209 0.9897174 0.02107519
v -0.6390103 0.9897174 -0.02107431
v -0.6390103 0.9897174 0.0210752
v -0.01890557 2.007468 -0.01420648
v -0.01890557 2.007468 0.01420778
v 0.01890516 2.007468 -0.01420648
v 0.01890516 2.007468 0.01420778
v -0.01890553 0.9899979 -0.01420653
v -0.01890553 0.9899979 0.01420773
v 0.0189052 0.9899979 -0.01420653
v 0.0189052 0.9899979 0.01420773
v -1.250001 -1.490117E-07 0.07207853
v 1.250001 -1.490117E-07 0.0720782
v -1.250001 -1.490117E-07 -0.0720787
v 1.250001 -1.490117E-07 -0.07207901
v 1.250001 0.09116344 0.0720782
v 1.250001 0.09116344 -0.07207901
v -1.250001 0.09116344 0.07207853
v -1.250001 0.09116344 -0.0720787
v 1.250001 0.09116344 -0.1062502
v -1.250001 0.09116344 -0.1062499
v -1.250001 0.1493084 -0.09144271
v -1.250001 0.1345012 -0.1062499
v 1.250001 0.1345012 -0.1062502
v 1.250001 0.1493084 -0.09144305
v -1.250001 2.500002 -0.07207862
v 1.250001 2.500002 -0.07207894
v -1.250001 2.500002 0.072079
v 1.250001 2.500002 -0.07207894
v 1.250001 0.1493084 -0.07207901
v -0.6750009 0.9625006 0.07207888
v 0.6750003 0.9625007 -0.07207892
v 0.6750003 0.9625007 -0.07207892
v 0.6750003 2.012502 -0.07207888
v 0.6750003 0.9625008 0.07207871
v -1.250001 0.182327 0.07207853
v -0.6750009 2.012501 0.07207892
v -0.6750009 2.012501 -0.0720787
v -0.6750009 0.9625006 -0.07207875
v -1.250001 2.500002 -0.07207862
v -0.6750009 2.012501 -0.0720787
v 0.6750003 2.012502 -0.07207888
v -0.6750007 0.997646 -0.1166545
v 0.6750004 0.9976462 -0.1166546
v -0.6750007 0.997646 0.1166553
v 0.6750004 0.9976462 0.1166552
v 0.6750004 0.9976462 -0.1166546
v -0.6750007 0.997646 0.1166553
v -0.6750007 0.997646 -0.1166545
v -0.6750007 0.9516425 -0.1166545
v 0.6750004 0.9516426 0.1166552
v 0.6750004 0.9516426 -0.1166546
v -0.6482079 1.48476 -0.01420645
v 0.6482076 1.48476 -0.01420656
v 0.6482076 1.446949 0.0142077
v 0.6482076 1.446949 -0.01420656
v -0.6482079 1.446949 -0.01420645
v 0.6482076 1.48476 -0.01420656
v -0.6482079 1.48476 -0.01420645
v -0.6482079 1.446949 -0.01420645
v -0.6482079 1.48476 0.01420781
v 0.6482076 1.446949 0.0142077
v -0.6496878 1.033031 -0.02107436
v 0.6496875 1.033031 -0.02107447
v 0.6496875 0.9952198 -0.02107447
v -0.6496878 0.9952198 -0.02107436
v 0.6496875 1.033031 -0.02107447
v -0.6496878 1.033031 -0.02107436
v -0.6496878 0.9952198 -0.02107436
v -0.6496878 1.033031 0.02107516
v 0.6496875 1.033031 0.02107505
v 0.6496875 0.9952198 0.02107504
v -0.6496878 2.011153 -0.02107403
v 0.6496874 2.011153 -0.02107414
v 0.6496874 1.973343 0.02107536
v 0.6496874 1.973343 -0.02107415
v -0.6496878 1.973343 -0.02107403
v 0.6496874 2.011153 -0.02107414
v -0.6496878 2.011153 -0.02107403
v -0.6496878 1.973343 -0.02107403
v -0.6496878 2.011153 0.02107548
v 0.6496874 1.973343 0.02107536
v 0.6756443 2.017813 -0.02107443
v 0.6756443 0.9897175 -0.02107446
v 0.6378336 0.9897175 -0.02107445
v 0.6378336 2.017813 -0.02107443
v 0.6378336 2.017813 0.02107508
v 0.6756443 0.9897175 -0.02107446
v 0.6756443 2.017813 -0.02107443
v 0.6378336 2.017813 -0.02107443
v 0.6756443 2.017813 0.02107508
v 0.6378336 0.9897175 0.02107505
v -0.6390103 2.017813 -0.02107429
v -0.6390103 0.9897174 -0.02107431
v -0.6768209 0.9897174 -0.02107431
v -0.676821 2.017813 -0.02107429
v -0.676821 2.017813 0.02107522
v -0.6390103 0.9897174 -0.02107431
v -0.6390103 2.017813 -0.02107429
v -0.676821 2.017813 -0.02107429
v -0.6390103 2.017813 0.02107522
v -0.6768209 0.9897174 0.02107519
v 0.01890516 2.007468 -0.01420648
v 0.0189052 0.9899979 -0.01420653
v -0.01890553 0.9899979 0.01420773
v -0.01890553 0.9899979 -0.01420653
v -0.01890557 2.007468 -0.01420648
v 0.0189052 0.9899979 -0.01420653
v 0.01890516 2.007468 -0.01420648
v -0.01890557 2.007468 -0.01420648
v 0.01890516 2.007468 0.01420778
v -0.01890553 0.9899979 0.01420773
v -1.250001 2.500002 0.072079
v 1.250001 2.500002 0.07207868
v -1.250001 0.1493084 -0.0720787
v -0.6750009 0.9625006 -0.07207875
v 0.6750003 2.012502 0.07207877
v 1.250001 2.500002 0.07207868
v 1.250001 2.500002 0.07207868
v 1.250001 0.1493084 -0.07207901
v 1.250001 0.182327 0.0720782
v 0.6750003 0.9625008 0.07207871
v 0.6750003 2.012502 0.07207877
v -0.6750009 2.012501 0.07207892
v -0.6750009 0.9625006 0.07207888
v -0.6750007 0.9516425 -0.1166545
v 0.6750004 0.9516426 -0.1166546
v 0.6750004 0.9516426 0.1166552
v -0.6750007 0.9516425 0.1166553
v 0.6750004 0.9976462 0.1166552
v -0.6750007 0.9516425 0.1166553
v -0.6482079 1.48476 0.01420781
v 0.6482076 1.48476 0.0142077
v 0.6482076 1.48476 0.0142077
v -0.6482079 1.446949 0.01420781
v 0.6482076 1.446949 -0.01420656
v -0.6482079 1.446949 0.01420781
v -0.6496878 1.033031 0.02107516
v 0.6496875 1.033031 0.02107505
v 0.6496875 0.9952198 0.02107504
v -0.6496878 0.9952198 0.02107515
v 0.6496875 0.9952198 -0.02107447
v -0.6496878 0.9952198 0.02107515
v -0.6496878 2.011153 0.02107548
v 0.6496874 2.011153 0.02107537
v 0.6496874 2.011153 0.02107537
v -0.6496878 1.973343 0.02107547
v 0.6496874 1.973343 -0.02107415
v -0.6496878 1.973343 0.02107547
v 0.6756443 2.017813 0.02107508
v 0.6756443 0.9897175 0.02107505
v 0.6756443 0.9897175 0.02107505
v 0.6378336 0.9897175 0.02107505
v 0.6378336 0.9897175 -0.02107445
v 0.6378336 2.017813 0.02107508
v -0.6390103 2.017813 0.02107522
v -0.6390103 0.9897174 0.0210752
v -0.6390103 0.9897174 0.0210752
v -0.6768209 0.9897174 0.02107519
v -0.6768209 0.9897174 -0.02107431
v -0.676821 2.017813 0.02107522
v 0.01890516 2.007468 0.01420778
v 0.0189052 0.9899979 0.01420773
v 0.0189052 0.9899979 0.01420773
v -0.01890557 2.007468 0.01420778
v -0.01890553 0.9899979 -0.01420653
v -0.01890557 2.007468 0.01420778
v 1.250001 -1.490117E-07 0.0720782
v 1.250001 -1.490117E-07 -0.07207901
v 1.250001 0.09116344 0.0720782
v 1.250001 -1.490117E-07 0.0720782
v -1.250001 -1.490117E-07 0.07207853
v -1.250001 0.09116344 0.07207853
v -1.250001 -1.490117E-07 0.07207853
v -1.250001 -1.490117E-07 -0.0720787
v -1.250001 0.09116344 -0.0720787
v -1.250001 -1.490117E-07 -0.0720787
v 1.250001 0.09116344 -0.07207901
v 1.250001 -1.490117E-07 -0.07207901
v 1.250001 0.182327 0.0720782
v -1.250001 0.182327 0.07207853
v 1.250001 0.182327 0.0720782
v 1.250001 0.1493084 -0.07207901
v -1.250001 0.09116344 -0.0720787
v -1.250001 0.1493084 -0.0720787
v -1.250001 0.1345012 -0.1062499
v -1.250001 0.09116344 -0.1062499
v 1.250001 0.09116344 -0.07207901
v 1.250001 0.09116344 -0.1062502
v -1.250001 0.09116344 -0.0720787
v -1.250001 0.09116344 -0.1062499
v 1.250001 0.1493084 -0.07207901
v 1.250001 0.09116344 -0.07207901
v 1.250001 0.1345012 -0.1062502
v 1.250001 0.09116344 -0.1062502
v -1.250001 0.1493084 -0.09144271
v -1.250001 0.1345012 -0.1062499
v 1.250001 0.1493084 -0.09144305
v 1.250001 0.1345012 -0.1062502
v -1.250001 0.1493084 -0.0720787
v -1.250001 0.1493084 -0.09144271
v 1.250001 0.1493084 -0.07207901
v 1.250001 0.1493084 -0.09144305

vn 0 1 0
vn 1 0 0
vn -1 0 0
vn 0 1 0
vn -1 0 0
vn -1 0 0
vn 0 0 -1
vn 0 0 1
vn 0 0 1
vn 0 -1 0
vn -1 0 0
vn 0 -1 0
vn 0 0 -1
vn -1 0 0
vn 0 1 0
vn 0 0 1
vn -1 0 0
vn -1 0 0
vn -1 0 0
vn 0 0 -1
vn 1 0 0
vn 0 0 1
vn 0 0 -1
vn 1 0 0
vn -1 0 0
vn -1 0 0
vn -1 0 0
vn 0 1 0
vn 1 0 0
vn 1 0 0
vn 0 1 0
vn 0 0 1
vn -1 0 0
vn -1 0 0
vn -1 0 0
vn 0 1 0
vn 1 0 0
vn 0 -1 0
vn 0 1 0
vn 1 0 0
vn -1 0 0
vn -1 0 0
vn -1 0 0
vn 0 1 0
vn 1 0 0
vn 1 0 0
vn 0 1 0
vn 0 0 1
vn 0 1 0
vn 0 1 0
vn 0 1 0
vn 1 0 0
vn 0 -1 0
vn 0 -1 0
vn 1 0 0
vn 0 0 1
vn 0 1 0
vn 0 1 0
vn 0 1 0
vn 1 0 0
vn 0 -1 0
vn 0 -1 0
vn 1 0 0
vn 0 0 1
vn 0 1 0
vn 0 1 0
vn 0 1 0
vn 1 0 0
vn 0 -1 0
vn 0 -1 0
vn 1 0 0
vn 0 0 1
vn 0 -1 0
vn 1 0 0
vn 0 -1 0
vn 1 0 0
vn 1 0 0
vn 1 0 0
vn 0 0 1
vn -1 0 0
vn 0 0 -1
vn -1 0 0
vn -1 0 0
vn -1 0 0
vn 0 0 -1
vn 1 0 0
vn 0 1 0
vn 0 0 -1
vn 0 0 1
vn 1 0 0
vn 1 0 0
vn 0 1 0
vn 0 1 0
vn -1 0 0
vn 0 -1 0
vn 0 0 1
vn 0 0 1
vn 1 0 0
vn 1 0 0
vn 1 0 0
vn 0 0 -1
vn 0 0 -1
vn 0 0 -1
vn 0 0 -1
vn 1 0 0
vn 0 0 1
vn 0 0 1
vn 0 1 0
vn 0 1 0
vn 0 1 0
vn 0 -1 0
vn 0 -1 0
vn 0 -1 0
vn 0 1 0
vn 1 0 0
vn 0 -1 0
vn 0 -1 0
vn 0 -1 0
vn 0 0 -1
vn 0 0 -1
vn 0 0 -1
vn 0 0 1
vn 0 0 1
vn 0 1 0
vn 1 0 0
vn 0 -1 0
vn 0 -1 0
vn 0 0 -1
vn 0 0 -1
vn 0 0 -1
vn 0 0 1
vn 0 0 1
vn 0 0 1
vn 0 1 0
vn 1 0 0
vn 0 -1 0
vn 0 -1 0
vn 0 -1 0
vn 0 0 -1
vn 0 0 -1
vn 0 0 -1
vn 0 0 1
vn 0 0 1
vn 1 0 0
vn 0 -1 0
vn -1 0 0
vn -1 0 0
vn -1 0 0
vn 0 0 -1
vn 0 0 -1
vn 0 0 -1
vn 0 0 1
vn 0 0 1
vn 1 0 0
vn 0 -1 0
vn -1 0 0
vn -1 0 0
vn -1 0 0
vn 0 0 -1
vn 0 0 -1
vn 0 0 -1
vn 0 0 1
vn 0 0 1
vn 1 0 0
vn 0 -1 0
vn -1 0 0
vn -1 0 0
vn -1 0 0
vn 0 0 -1
vn 0 0 -1
vn 0 0 -1
vn 0 0 1
vn 0 0 1
vn -1 0 0
vn 0 1 0
vn 0 0 -1
vn 0 0 -1
vn 0 0 1
vn 0 0 1
vn 1 0 0
vn 1 0 0
vn 1 0 0
vn 0 1 0
vn -1 0 0
vn 0 -1 0
vn 1 0 0
vn -1 0 0
vn 0 0 -1
vn 1 0 0
vn 0 0 1
vn 0 1 0
vn 0 -1 0
vn -1 0 0
vn 0 1 0
vn 1 0 0
vn 0 -1 0
vn 0 0 -1
vn 0 0 1
vn -1 0 0
vn 0 1 0
vn 1 0 0
vn 0 -1 0
vn 0 0 -1
vn 0 0 1
vn -1 0 0
vn 0 1 0
vn 1 0 0
vn 0 -1 0
vn 0 0 -1
vn 0 0 1
vn 0 1 0
vn 1 0 0
vn 0 -1 0
vn -1 0 0
vn 0 0 -1
vn 0 0 1
vn 0 1 0
vn 1 0 0
vn 0 -1 0
vn -1 0 0
vn 0 0 -1
vn 0 0 1
vn 0 1 0
vn 1 0 0
vn 0 -1 0
vn -1 0 0
vn 0 0 -1
vn 0 0 1
vn 0 -1 0
vn 0 -1 0
vn 0 0 1
vn 0 0 1
vn 0 0 1
vn -1 0 0
vn -1 0 0
vn -1 0 0
vn 0 0 -1
vn 0 0 -1
vn 0 0 -1
vn 0 0 -1
vn 0 0 1
vn 0 0 1
vn 1 0 0
vn 1 0 0
vn -1 0 0
vn -1 0 0
vn 0 0 -1
vn 0 0 -1
vn 0 -1 0
vn 0 -1 0
vn 0 -1 0
vn 0 -1 0
vn 1 0 0
vn 1 0 0
vn 1 0 0
vn 1 0 0
vn 0 0.7071068 -0.7071068
vn 0 0.7071068 -0.7071068
vn 0 0.7071068 -0.7071068
vn 0 0.7071068 -0.7071068
vn 0 1 0
vn 0 1 0
vn 0 1 0
vn 0 1 0

vt 0.5870178 0.04197747
vt 0.5962075 0.04197747
vt 0.5870178 0.03278774
vt 0.5962075 0.03278774
vt 0.5870178 0.02819282
vt 0.5962075 0.02819282
vt 0.582423 0.04197747
vt 0.6008023 0.04197747
vt 0.5984398 0.03490132
vt 0.5891567 0.01440829
vt 0.5891567 0.02359802
vt 0.5923921 0.02359802
vt 0.5833913 0.03986377
vt 0.5923921 0.03278774
vt 0.5891567 0.04197747
vt 0.599834 0.03490132
vt 0.9059975 0.9574122
vt 0.913053 0.9574122
vt 0.9059975 0.9644677
vt 0.913053 0.9644677
vt 0.9059975 0.9785787
vt 0.913053 0.9785787
vt 0.9059975 0.9715232
vt 0.913053 0.9715232
vt 0.9059975 0.9574122
vt 0.913053 0.9574122
vt 0.9059975 0.9644677
vt 0.913053 0.9644677
vt 0.9059975 0.9785787
vt 0.913053 0.9785787
vt 0.9059975 0.9715232
vt 0.913053 0.9715232
vt 0.9059975 0.9574122
vt 0.913053 0.9574122
vt 0.9059975 0.9644677
vt 0.913053 0.9644677
vt 0.9059975 0.9785787
vt 0.913053 0.9785787
vt 0.9059975 0.9715232
vt 0.913053 0.9715232
vt 0.9059975 0.9574122
vt 0.913053 0.9574122
vt 0.9059975 0.9644677
vt 0.913053 0.9644677
vt 0.9059975 0.9785787
vt 0.913053 0.9785787
vt 0.9059975 0.9715232
vt 0.913053 0.9715232
vt 0.9059975 0.9574122
vt 0.913053 0.9574122
vt 0.9059975 0.9644677
vt 0.913053 0.9644677
vt 0.9059975 0.9785787
vt 0.913053 0.9785787
vt 0.9059975 0.9715232
vt 0.913053 0.9715232
vt 0.9059975 0.9574122
vt 0.913053 0.9574122
vt 0.9059975 0.9644677
vt 0.913053 0.9644677
vt 0.9059975 0.9785787
vt 0.913053 0.9785787
vt 0.9059975 0.9715232
vt 0.913053 0.9715232
vt 0.9059975 0.9574122
vt 0.913053 0.9574122
vt 0.9059975 0.9644677
vt 0.913053 0.9644677
vt 0.9059975 0.9785787
vt 0.913053 0.9785787
vt 0.9059975 0.9715232
vt 0.913053 0.9715232
vt 0.5962075 0.02819282
vt 0.5962075 0.04657227
vt 0.582423 0.03278774
vt 0.5870178 0.04657227
vt 0.5962075 0.04657227
vt 0.5870178 0.04657227
vt 0.6008023 0.03278774
vt 0.5870178 0.02819282
vt 0.9044662 0.9834447
vt 0.9090611 0.96966
vt 0.9090611 0.96966
vt 0.9090611 0.96966
vt 0.9044662 0.9834446
vt 0.9090611 0.9880396
vt 0.5870178 0.03278774
vt 0.5870178 0.04197747
vt 0.5962075 0.03278774
vt 0.5870178 0.04197747
vt 0.5870178 0.04657227
vt 0.5923921 0.04197747
vt 0.5891567 0.03278774
vt 0.5891567 0.03278774
vt 0.5891567 0.02359802
vt 0.599834 0.03986377
vt 0.6008023 0.03278774
vt 0.5923921 0.05116707
vt 0.5891567 0.05116707
vt 0.5891567 0.04197747
vt 0.5870178 0.03278774
vt 0.5847855 0.03490132
vt 0.5847855 0.03986377
vt 0.9059975 0.9644677
vt 0.9059975 0.9715232
vt 0.9059975 0.9856343
vt 0.9059975 0.9785787
vt 0.9059975 0.9715232
vt 0.898942 0.9785787
vt 0.898942 0.9715232
vt 0.9201086 0.9715232
vt 0.913053 0.9785787
vt 0.913053 0.9715232
vt 0.9059975 0.9644677
vt 0.9059975 0.9715232
vt 0.913053 0.9785787
vt 0.9059975 0.9785787
vt 0.9059975 0.9856343
vt 0.9059975 0.9715232
vt 0.898942 0.9715232
vt 0.898942 0.9785787
vt 0.9201086 0.9715232
vt 0.913053 0.9785787
vt 0.9059975 0.9644677
vt 0.9059975 0.9715232
vt 0.9059975 0.9785787
vt 0.9059975 0.9856343
vt 0.9059975 0.9715232
vt 0.898942 0.9715232
vt 0.898942 0.9785787
vt 0.9201086 0.9715232
vt 0.913053 0.9715232
vt 0.913053 0.9785787
vt 0.9059975 0.9644677
vt 0.9059975 0.9715232
vt 0.913053 0.9785787
vt 0.9059975 0.9785787
vt 0.9059975 0.9856343
vt 0.9059975 0.9715232
vt 0.898942 0.9715232
vt 0.898942 0.9785787
vt 0.9201086 0.9715232
vt 0.913053 0.9785787
vt 0.9059975 0.9644677
vt 0.9059975 0.9715232
vt 0.9059975 0.9785787
vt 0.9059975 0.9856343
vt 0.913053 0.9856343
vt 0.9059975 0.9715232
vt 0.898942 0.9715232
vt 0.898942 0.9785787
vt 0.9201086 0.9715232
vt 0.913053 0.9785787
vt 0.9059975 0.9644677
vt 0.9059975 0.9715232
vt 0.9059975 0.9785787
vt 0.9059975 0.9856343
vt 0.913053 0.9856343
vt 0.9059975 0.9715232
vt 0.898942 0.9715232
vt 0.898942 0.9785787
vt 0.9201086 0.9715232
vt 0.913053 0.9785787
vt 0.9059975 0.9644677
vt 0.9059975 0.9715232
vt 0.913053 0.9785787
vt 0.9059975 0.9785787
vt 0.9059975 0.9856343
vt 0.9059975 0.9715232
vt 0.898942 0.9715232
vt 0.898942 0.9785787
vt 0.9201086 0.9715232
vt 0.913053 0.9785787
vt 0.5962075 0.03278774
vt 0.5962075 0.04197747
vt 0.582423 0.03278774
vt 0.5833913 0.03490132
vt 0.5984398 0.03986377
vt 0.5962075 0.04197747
vt 0.5962075 0.04197747
vt 0.5870178 0.04657227
vt 0.5962075 0.04657227
vt 0.5923921 0.03278774
vt 0.5923921 0.02359802
vt 0.5923921 0.01440829
vt 0.5923921 0.04197747
vt 0.913053 0.9644677
vt 0.913053 0.9715232
vt 0.913053 0.9785787
vt 0.913053 0.9856343
vt 0.9059975 0.9785787
vt 0.9201086 0.9785787
vt 0.913053 0.9644677
vt 0.913053 0.9715232
vt 0.913053 0.9715232
vt 0.913053 0.9856343
vt 0.9059975 0.9785787
vt 0.9201086 0.9785787
vt 0.913053 0.9644677
vt 0.913053 0.9715232
vt 0.913053 0.9785787
vt 0.913053 0.9856343
vt 0.9059975 0.9785787
vt 0.9201086 0.9785787
vt 0.913053 0.9644677
vt 0.913053 0.9715232
vt 0.913053 0.9715232
vt 0.913053 0.9856343
vt 0.9059975 0.9785787
vt 0.9201086 0.9785787
vt 0.913053 0.9644677
vt 0.913053 0.9715232
vt 0.913053 0.9715232
vt 0.913053 0.9785787
vt 0.9059975 0.9785787
vt 0.9201086 0.9785787
vt 0.913053 0.9644677
vt 0.913053 0.9715232
vt 0.913053 0.9715232
vt 0.913053 0.9785787
vt 0.9059975 0.9785787
vt 0.9201086 0.9785787
vt 0.913053 0.9644677
vt 0.913053 0.9715232
vt 0.913053 0.9715232
vt 0.913053 0.9856343
vt 0.9059975 0.9785787
vt 0.9201086 0.9785787
vt 0.5962075 0.04657227
vt 0.5870178 0.04657227
vt 0.6008023 0.04197747
vt 0.6008023 0.04197747
vt 0.6008023 0.03278774
vt 0.5962075 0.02819282
vt 0.5962075 0.02819282
vt 0.5870178 0.02819282
vt 0.582423 0.03278774
vt 0.582423 0.03278774
vt 0.582423 0.04197747
vt 0.582423 0.04197747
vt 0.6008023 0.04197747
vt 0.6008023 0.03278774
vt 0.5962075 0.04657227
vt 0.5870178 0.04657227
vt 0.9090611 0.96966
vt 0.9090611 0.96966
vt 0.9044662 0.974255
vt 0.9044662 0.974255
vt 0.9044662 0.9834447
vt 0.9044662 0.9834447
vt 0.9044662 0.974255
vt 0.9044662 0.974255
vt 0.9090611 0.9880395
vt 0.9090611 0.9880395
vt 0.9090611 0.9880394
vt 0.9090611 0.9880395
vt 0.9044662 0.9742549
vt 0.9044662 0.974255
vt 0.9044662 0.9834448
vt 0.9044662 0.9834446
vt 0.9044662 0.974255
vt 0.9044662 0.9742549
vt 0.9044662 0.9834447
vt 0.9044662 0.9834448
f 2/2/2 91/91/91 90/90/90
f 180/180/180 182/182/182 181/181/181
f 4/4/4 1/1/1 87/87/87
f 4/4/4 175/175/175 1/1/1
f 92/92/92 93/93/93 15/15/15
f 92/92/92 183/183/183 93/93/93
f 14/14/14 11/11/11 94/94/94
f 14/14/14 184/184/184 11/11/11
f 12/12/12 10/10/10 95/95/95
f 12/12/12 185/185/185 10/10/10
f 98/98/98 100/100/100 99/99/99
f 98/98/98 186/186/186 100/100/100
f 18/18/18 17/17/17 19/19/19
f 18/18/18 19/19/19 187/187/187
f 20/20/20 104/104/104 23/23/23
f 20/20/20 23/23/23 188/188/188
f 24/24/24 105/105/105 21/21/21
f 24/24/24 21/21/21 189/189/189
f 22/22/22 107/107/107 106/106/106
f 22/22/22 106/106/106 190/190/190
f 108/108/108 110/110/110 109/109/109
f 108/108/108 109/109/109 191/191/191
f 111/111/111 113/113/113 112/112/112
f 111/111/111 112/112/112 192/192/192
f 26/26/26 27/27/27 25/25/25
f 26/26/26 193/193/193 27/27/27
f 28/28/28 31/31/31 114/114/114
f 28/28/28 194/194/194 31/31/31
f 115/115/115 30/30/30 29/29/29
f 115/115/115 195/195/195 30/30/30
f 116/116/116 118/118/118 117/117/117
f 116/116/116 196/196/196 118/118/118
f 119/119/119 121/121/121 120/120/120
f 119/119/119 197/197/197 121/121/121
f 122/122/122 123/123/123 32/32/32
f 122/122/122 198/198/198 123/123/123
f 34/34/34 35/35/35 33/33/33
f 34/34/34 199/199/199 35/35/35
f 36/36/36 39/39/39 124/124/124
f 36/36/36 200/200/200 39/39/39
f 40/40/40 37/37/37 125/125/125
f 40/40/40 201/201/201 37/37/37
f 38/38/38 127/127/127 126/126/126
f 38/38/38 202/202/202 127/127/127
f 128/128/128 130/130/130 129/129/129
f 128/128/128 203/203/203 130/130/130
f 131/131/131 133/133/133 132/132/132
f 131/131/131 204/204/204 133/133/133
f 42/42/42 43/43/43 41/41/41
f 42/42/42 205/205/205 43/43/43
f 44/44/44 47/47/47 134/134/134
f 44/44/44 206/206/206 47/47/47
f 135/135/135 46/46/46 45/45/45
f 135/135/135 207/207/207 46/46/46
f 136/136/136 138/138/138 137/137/137
f 136/136/136 208/208/208 138/138/138
f 139/139/139 141/141/141 140/140/140
f 139/139/139 209/209/209 141/141/141
f 142/142/142 143/143/143 48/48/48
f 142/142/142 210/210/210 143/143/143
f 50/50/50 51/51/51 49/49/49
f 50/50/50 211/211/211 51/51/51
f 52/52/52 55/55/55 144/144/144
f 52/52/52 212/212/212 55/55/55
f 145/145/145 54/54/54 53/53/53
f 145/145/145 213/213/213 54/54/54
f 146/146/146 148/148/148 147/147/147
f 146/146/146 214/214/214 148/148/148
f 149/149/149 151/151/151 150/150/150
f 149/149/149 215/215/215 151/151/151
f 152/152/152 153/153/153 56/56/56
f 152/152/152 216/216/216 153/153/153
f 58/58/58 59/59/59 57/57/57
f 58/58/58 217/217/217 59/59/59
f 60/60/60 63/63/63 154/154/154
f 60/60/60 218/218/218 63/63/63
f 155/155/155 62/62/62 61/61/61
f 155/155/155 219/219/219 62/62/62
f 156/156/156 158/158/158 157/157/157
f 156/156/156 220/220/220 158/158/158
f 159/159/159 161/161/161 160/160/160
f 159/159/159 221/221/221 161/161/161
f 162/162/162 163/163/163 64/64/64
f 162/162/162 222/222/222 163/163/163
f 66/66/66 67/67/67 65/65/65
f 66/66/66 223/223/223 67/67/67
f 68/68/68 71/71/71 164/164/164
f 68/68/68 224/224/224 71/71/71
f 165/165/165 70/70/70 69/69/69
f 165/165/165 225/225/225 70/70/70
f 166/166/166 168/168/168 167/167/167
f 166/166/166 226/226/226 168/168/168
f 169/169/169 171/171/171 170/170/170
f 169/169/169 227/227/227 171/171/171
f 172/172/172 173/173/173 72/72/72
f 172/172/172 228/228/228 173/173/173
f 76/76/76 77/77/77 74/74/74
f 78/78/78 77/77/77 76/76/76
f 244/244/244 77/77/77 78/78/78
f 243/243/243 77/77/77 244/244/244
f 6/6/6 174/174/174 3/3/3
f 6/6/6 3/3/3 5/5/5
f 6/6/6 5/5/5 234/234/234
f 234/234/234 5/5/5 80/80/80
f 234/234/234 80/80/80 235/235/235
f 235/235/235 80/80/80 236/236/236
f 229/229/229 73/73/73 230/230/230
f 230/230/230 73/73/73 75/75/75
f 232/232/232 79/79/79 233/233/233
f 231/231/231 79/79/79 232/232/232
f 231/231/231 242/242/242 79/79/79
f 241/241/241 242/242/242 231/231/231
f 237/237/237 239/239/239 238/238/238
f 238/238/238 239/239/239 240/240/240
f 245/245/245 246/246/246 82/82/82
f 246/246/246 83/83/83 82/82/82
f 83/83/83 84/84/84 82/82/82
f 247/247/247 85/85/85 248/248/248
f 248/248/248 85/85/85 81/81/81
f 249/249/249 251/251/251 250/250/250
f 250/250/250 251/251/251 252/252/252
f 253/253/253 254/254/254 86/86/86
f 86/86/86 254/254/254 255/255/255
f 254/254/254 256/256/256 255/255/255
f 257/257/257 259/259/259 258/258/258
f 258/258/258 259/259/259 260/260/260
f 261/261/261 263/263/263 262/262/262
f 262/262/262 263/263/263 264/264/264
f 101/101/101 103/103/103 102/102/102
f 102/102/102 177/177/177 101/101/101
f 101/101/101 88/88/88 103/103/103
f 177/177/177 176/176/176 101/101/101
f 13/13/13 103/103/103 88/88/88
f 176/176/176 177/177/177 13/13/13
f 13/13/13 88/88/88 7/7/7
f 7/7/7 176/176/176 13/13/13
f 89/89/89 16/16/16 9/9/9
f 9/9/9 178/178/178 89/89/89
f 89/89/89 97/97/97 16/16/16
f 178/178/178 179/179/179 89/89/89
f 96/96/96 16/16/16 97/97/97
f 179/179/179 178/178/178 96/96/96
f 96/96/96 97/97/97 8/8/8
f 8/8/8 179/179/179 96/96/96
